<?xml version="1.0" encoding="UTF-8"?>
<svg xmlns="http://www.w3.org/2000/svg" xmlns:xlink="http://www.w3.org/1999/xlink" width="504" height="360" viewBox="0 0 504 360">
<rect x="-50.4" y="-36" width="604.8" height="432" fill="rgb(100%, 100%, 100%)" fill-opacity="1"/>
<path fill-rule="nonzero" fill="rgb(90.588235%, 41.960784%, 95.294118%)" fill-opacity="0.501961" d="M 22.910156 101.25 L 292.796875 101.25 L 293.695312 101.246094 L 296.382812 101.246094 L 297.28125 101.242188 L 298.175781 101.242188 L 299.074219 101.238281 L 299.96875 101.238281 L 300.867188 101.234375 L 301.761719 101.226562 L 302.660156 101.222656 L 303.558594 101.214844 L 304.453125 101.207031 L 305.351562 101.195312 L 306.246094 101.179688 L 307.144531 101.164062 L 308.039062 101.144531 L 308.9375 101.117188 L 309.832031 101.085938 L 310.730469 101.050781 L 311.625 101.003906 L 312.523438 100.949219 L 313.417969 100.886719 L 314.316406 100.808594 L 315.214844 100.722656 L 316.109375 100.613281 L 317.007812 100.484375 L 317.902344 100.335938 L 318.800781 100.167969 L 319.695312 99.96875 L 320.59375 99.734375 L 321.488281 99.464844 L 322.386719 99.15625 L 323.28125 98.808594 L 324.179688 98.414062 L 325.074219 97.957031 L 325.972656 97.433594 L 326.871094 96.851562 L 327.765625 96.203125 L 328.664062 95.484375 L 329.558594 94.671875 L 330.457031 93.761719 L 331.351562 92.765625 L 332.25 91.675781 L 333.144531 90.484375 L 334.042969 89.171875 L 334.9375 87.734375 L 335.835938 86.183594 L 336.730469 84.519531 L 337.628906 82.738281 L 338.527344 80.816406 L 339.421875 78.757812 L 340.320312 76.582031 L 341.214844 74.289062 L 342.113281 71.878906 L 343.007812 69.34375 L 343.90625 66.683594 L 344.800781 63.925781 L 345.699219 61.082031 L 346.59375 58.152344 L 347.492188 55.140625 L 348.386719 52.0625 L 349.285156 48.941406 L 350.183594 45.789062 L 351.078125 42.617188 L 351.976562 39.441406 L 352.871094 36.285156 L 353.769531 33.167969 L 354.664062 30.097656 L 355.5625 27.089844 L 356.457031 24.171875 L 357.355469 21.375 L 358.25 18.695312 L 359.148438 16.144531 L 360.042969 13.734375 L 360.941406 11.492188 L 361.839844 9.460938 L 362.734375 7.601562 L 363.632812 5.929688 L 364.527344 4.449219 L 365.425781 3.175781 L 366.320312 2.148438 L 367.21875 1.320312 L 368.113281 0.6875 L 369.011719 0.246094 L 369.90625 0.0078125 L 370.804688 0 L 371.699219 0.164062 L 372.597656 0.488281 L 373.496094 0.96875 L 374.390625 1.597656 L 375.289062 2.394531 L 376.183594 3.300781 L 377.082031 4.3125 L 377.976562 5.410156 L 378.875 6.585938 L 379.769531 7.84375 L 380.667969 9.140625 L 381.5625 10.46875 L 382.460938 11.824219 L 383.355469 13.183594 L 384.253906 14.542969 L 385.152344 15.890625 L 386.046875 17.210938 L 386.945312 18.503906 L 387.839844 19.757812 L 388.738281 20.957031 L 389.632812 22.105469 L 390.53125 23.203125 L 391.425781 24.242188 L 392.324219 25.226562 L 393.21875 26.136719 L 394.117188 26.988281 L 395.015625 27.78125 L 395.910156 28.519531 L 396.808594 29.203125 L 397.703125 29.828125 L 398.601562 30.402344 L 399.496094 30.9375 L 400.394531 31.4375 L 401.289062 31.90625 L 402.1875 32.339844 L 403.082031 32.757812 L 403.980469 33.160156 L 404.875 33.558594 L 405.773438 33.953125 L 406.671875 34.351562 L 407.566406 34.769531 L 408.464844 35.203125 L 409.359375 35.660156 L 410.257812 36.148438 L 411.152344 36.679688 L 412.050781 37.253906 L 412.945312 37.878906 L 413.84375 38.550781 L 414.738281 39.277344 L 415.636719 40.074219 L 416.53125 40.941406 L 417.429688 41.871094 L 418.328125 42.863281 L 419.222656 43.925781 L 420.121094 45.066406 L 421.015625 46.28125 L 421.914062 47.558594 L 422.808594 48.902344 L 423.707031 50.308594 L 424.601562 51.785156 L 425.5 53.320312 L 426.394531 54.902344 L 427.292969 56.535156 L 428.1875 58.203125 L 429.085938 59.914062 L 429.984375 61.652344 L 430.878906 63.414062 L 431.777344 65.1875 L 432.671875 66.964844 L 433.570312 68.746094 L 434.464844 70.515625 L 435.363281 72.269531 L 436.257812 74 L 437.15625 75.703125 L 438.050781 77.371094 L 438.949219 78.988281 L 439.84375 80.5625 L 440.742188 82.082031 L 441.640625 83.550781 L 442.535156 84.957031 L 443.433594 86.289062 L 444.328125 87.558594 L 445.226562 88.765625 L 446.121094 89.90625 L 447.019531 90.976562 L 447.914062 91.964844 L 448.8125 92.890625 L 449.707031 93.75 L 450.605469 94.550781 L 451.5 95.285156 L 452.398438 95.945312 L 453.296875 96.554688 L 454.191406 97.109375 L 455.089844 97.617188 L 455.984375 98.070312 L 456.882812 98.46875 L 457.777344 98.832031 L 458.675781 99.15625 L 459.570312 99.441406 L 460.46875 99.699219 L 461.363281 99.917969 L 462.261719 100.109375 L 463.15625 100.28125 L 464.054688 100.429688 L 464.953125 100.558594 L 465.847656 100.664062 L 466.746094 100.757812 L 467.640625 100.839844 L 468.539062 100.910156 L 469.433594 100.96875 L 470.332031 101.015625 L 471.226562 101.058594 L 472.125 101.089844 L 473.019531 101.121094 L 473.917969 101.144531 L 474.8125 101.164062 L 476.609375 101.195312 L 477.503906 101.207031 L 478.402344 101.214844 L 479.296875 101.222656 L 480.195312 101.226562 L 481.089844 101.230469 L 481.089844 101.25 Z M 22.910156 101.25 "/>
<path fill="none" stroke-width="1.066978" stroke-linecap="round" stroke-linejoin="round" stroke="rgb(90.588235%, 41.960784%, 95.294118%)" stroke-opacity="1" stroke-miterlimit="10" d="M 22.910156 101.25 L 292.796875 101.25 L 293.695312 101.246094 L 296.382812 101.246094 L 297.28125 101.242188 L 298.175781 101.242188 L 299.074219 101.238281 L 299.96875 101.238281 L 300.867188 101.234375 L 301.761719 101.226562 L 302.660156 101.222656 L 303.558594 101.214844 L 304.453125 101.207031 L 305.351562 101.195312 L 306.246094 101.179688 L 307.144531 101.164062 L 308.039062 101.144531 L 308.9375 101.117188 L 309.832031 101.085938 L 310.730469 101.050781 L 311.625 101.003906 L 312.523438 100.949219 L 313.417969 100.886719 L 314.316406 100.808594 L 315.214844 100.722656 L 316.109375 100.613281 L 317.007812 100.484375 L 317.902344 100.335938 L 318.800781 100.167969 L 319.695312 99.96875 L 320.59375 99.734375 L 321.488281 99.464844 L 322.386719 99.15625 L 323.28125 98.808594 L 324.179688 98.414062 L 325.074219 97.957031 L 325.972656 97.433594 L 326.871094 96.851562 L 327.765625 96.203125 L 328.664062 95.484375 L 329.558594 94.671875 L 330.457031 93.761719 L 331.351562 92.765625 L 332.25 91.675781 L 333.144531 90.484375 L 334.042969 89.171875 L 334.9375 87.734375 L 335.835938 86.183594 L 336.730469 84.519531 L 337.628906 82.738281 L 338.527344 80.816406 L 339.421875 78.757812 L 340.320312 76.582031 L 341.214844 74.289062 L 342.113281 71.878906 L 343.007812 69.34375 L 343.90625 66.683594 L 344.800781 63.925781 L 345.699219 61.082031 L 346.59375 58.152344 L 347.492188 55.140625 L 348.386719 52.0625 L 349.285156 48.941406 L 350.183594 45.789062 L 351.078125 42.617188 L 351.976562 39.441406 L 352.871094 36.285156 L 353.769531 33.167969 L 354.664062 30.097656 L 355.5625 27.089844 L 356.457031 24.171875 L 357.355469 21.375 L 358.25 18.695312 L 359.148438 16.144531 L 360.042969 13.734375 L 360.941406 11.492188 L 361.839844 9.460938 L 362.734375 7.601562 L 363.632812 5.929688 L 364.527344 4.449219 L 365.425781 3.175781 L 366.320312 2.148438 L 367.21875 1.320312 L 368.113281 0.6875 L 369.011719 0.246094 L 369.90625 0.0078125 L 370.804688 0 L 371.699219 0.164062 L 372.597656 0.488281 L 373.496094 0.96875 L 374.390625 1.597656 L 375.289062 2.394531 L 376.183594 3.300781 L 377.082031 4.3125 L 377.976562 5.410156 L 378.875 6.585938 L 379.769531 7.84375 L 380.667969 9.140625 L 381.5625 10.46875 L 382.460938 11.824219 L 383.355469 13.183594 L 384.253906 14.542969 L 385.152344 15.890625 L 386.046875 17.210938 L 386.945312 18.503906 L 387.839844 19.757812 L 388.738281 20.957031 L 389.632812 22.105469 L 390.53125 23.203125 L 391.425781 24.242188 L 392.324219 25.226562 L 393.21875 26.136719 L 394.117188 26.988281 L 395.015625 27.78125 L 395.910156 28.519531 L 396.808594 29.203125 L 397.703125 29.828125 L 398.601562 30.402344 L 399.496094 30.9375 L 400.394531 31.4375 L 401.289062 31.90625 L 402.1875 32.339844 L 403.082031 32.757812 L 403.980469 33.160156 L 404.875 33.558594 L 405.773438 33.953125 L 406.671875 34.351562 L 407.566406 34.769531 L 408.464844 35.203125 L 409.359375 35.660156 L 410.257812 36.148438 L 411.152344 36.679688 L 412.050781 37.253906 L 412.945312 37.878906 L 413.84375 38.550781 L 414.738281 39.277344 L 415.636719 40.074219 L 416.53125 40.941406 L 417.429688 41.871094 L 418.328125 42.863281 L 419.222656 43.925781 L 420.121094 45.066406 L 421.015625 46.28125 L 421.914062 47.558594 L 422.808594 48.902344 L 423.707031 50.308594 L 424.601562 51.785156 L 425.5 53.320312 L 426.394531 54.902344 L 427.292969 56.535156 L 428.1875 58.203125 L 429.085938 59.914062 L 429.984375 61.652344 L 430.878906 63.414062 L 431.777344 65.1875 L 432.671875 66.964844 L 433.570312 68.746094 L 434.464844 70.515625 L 435.363281 72.269531 L 436.257812 74 L 437.15625 75.703125 L 438.050781 77.371094 L 438.949219 78.988281 L 439.84375 80.5625 L 440.742188 82.082031 L 441.640625 83.550781 L 442.535156 84.957031 L 443.433594 86.289062 L 444.328125 87.558594 L 445.226562 88.765625 L 446.121094 89.90625 L 447.019531 90.976562 L 447.914062 91.964844 L 448.8125 92.890625 L 449.707031 93.75 L 450.605469 94.550781 L 451.5 95.285156 L 452.398438 95.945312 L 453.296875 96.554688 L 454.191406 97.109375 L 455.089844 97.617188 L 455.984375 98.070312 L 456.882812 98.46875 L 457.777344 98.832031 L 458.675781 99.15625 L 459.570312 99.441406 L 460.46875 99.699219 L 461.363281 99.917969 L 462.261719 100.109375 L 463.15625 100.28125 L 464.054688 100.429688 L 464.953125 100.558594 L 465.847656 100.664062 L 466.746094 100.757812 L 467.640625 100.839844 L 468.539062 100.910156 L 469.433594 100.96875 L 470.332031 101.015625 L 471.226562 101.058594 L 472.125 101.089844 L 473.019531 101.121094 L 473.917969 101.144531 L 474.8125 101.164062 L 476.609375 101.195312 L 477.503906 101.207031 L 478.402344 101.214844 L 479.296875 101.222656 L 480.195312 101.226562 L 481.089844 101.230469 "/>
<path fill-rule="nonzero" fill="rgb(0%, 69.019608%, 96.470588%)" fill-opacity="0.501961" d="M 22.910156 157.5 L 143.957031 157.5 L 144.851562 157.496094 L 148.4375 157.496094 L 149.335938 157.492188 L 151.128906 157.492188 L 152.023438 157.488281 L 152.921875 157.488281 L 153.816406 157.484375 L 154.714844 157.480469 L 155.613281 157.480469 L 156.507812 157.476562 L 157.40625 157.472656 L 158.300781 157.464844 L 159.199219 157.460938 L 160.09375 157.453125 L 160.992188 157.449219 L 161.886719 157.441406 L 162.785156 157.433594 L 163.679688 157.421875 L 164.578125 157.414062 L 165.472656 157.402344 L 166.371094 157.390625 L 167.269531 157.375 L 168.164062 157.363281 L 169.0625 157.347656 L 169.957031 157.332031 L 170.855469 157.3125 L 171.75 157.292969 L 172.648438 157.277344 L 173.542969 157.253906 L 174.441406 157.234375 L 175.335938 157.214844 L 176.234375 157.191406 L 177.128906 157.171875 L 178.925781 157.125 L 179.820312 157.101562 L 180.71875 157.082031 L 181.613281 157.058594 L 182.511719 157.035156 L 183.40625 157.015625 L 184.304688 156.996094 L 185.199219 156.976562 L 186.097656 156.957031 L 186.992188 156.941406 L 187.890625 156.925781 L 188.785156 156.910156 L 190.582031 156.886719 L 191.476562 156.875 L 192.375 156.867188 L 193.269531 156.855469 L 194.167969 156.851562 L 195.0625 156.84375 L 195.960938 156.839844 L 196.855469 156.835938 L 197.753906 156.832031 L 198.648438 156.832031 L 199.546875 156.828125 L 200.441406 156.828125 L 201.339844 156.824219 L 203.132812 156.824219 L 204.03125 156.820312 L 204.925781 156.820312 L 205.824219 156.816406 L 206.71875 156.816406 L 207.617188 156.8125 L 208.511719 156.808594 L 209.410156 156.804688 L 210.304688 156.800781 L 212.101562 156.792969 L 212.996094 156.785156 L 213.894531 156.78125 L 214.789062 156.773438 L 215.6875 156.765625 L 216.582031 156.757812 L 217.480469 156.75 L 218.375 156.742188 L 219.273438 156.734375 L 220.167969 156.726562 L 221.066406 156.714844 L 221.960938 156.707031 L 223.757812 156.683594 L 224.652344 156.671875 L 225.550781 156.65625 L 226.445312 156.640625 L 227.34375 156.625 L 228.238281 156.605469 L 229.136719 156.585938 L 230.03125 156.5625 L 230.929688 156.539062 L 231.824219 156.511719 L 232.722656 156.480469 L 233.617188 156.449219 L 234.515625 156.417969 L 235.414062 156.378906 L 236.308594 156.339844 L 237.207031 156.296875 L 238.101562 156.25 L 239 156.203125 L 239.894531 156.152344 L 240.792969 156.101562 L 241.6875 156.046875 L 242.585938 155.992188 L 243.480469 155.933594 L 244.378906 155.875 L 245.273438 155.8125 L 247.070312 155.6875 L 247.964844 155.625 L 248.863281 155.5625 L 249.757812 155.5 L 250.65625 155.433594 L 251.550781 155.371094 L 252.449219 155.308594 L 253.34375 155.246094 L 254.242188 155.183594 L 255.136719 155.121094 L 256.035156 155.058594 L 256.929688 154.996094 L 257.828125 154.933594 L 258.726562 154.867188 L 259.621094 154.804688 L 260.519531 154.738281 L 261.414062 154.671875 L 262.3125 154.601562 L 263.207031 154.53125 L 264.105469 154.457031 L 265 154.378906 L 265.898438 154.296875 L 266.792969 154.207031 L 267.691406 154.117188 L 268.585938 154.019531 L 269.484375 153.917969 L 270.382812 153.808594 L 271.277344 153.695312 L 272.175781 153.570312 L 273.070312 153.445312 L 273.96875 153.308594 L 274.863281 153.167969 L 275.761719 153.015625 L 276.65625 152.859375 L 277.554688 152.695312 L 278.449219 152.527344 L 279.347656 152.355469 L 280.242188 152.171875 L 281.140625 151.988281 L 282.039062 151.800781 L 282.933594 151.605469 L 283.832031 151.410156 L 284.726562 151.210938 L 285.625 151.011719 L 286.519531 150.8125 L 287.417969 150.613281 L 288.3125 150.410156 L 289.210938 150.210938 L 290.105469 150.011719 L 291.003906 149.816406 L 291.898438 149.625 L 292.796875 149.429688 L 293.695312 149.242188 L 294.589844 149.054688 L 295.488281 148.871094 L 296.382812 148.691406 L 297.28125 148.511719 L 298.175781 148.332031 L 299.074219 148.152344 L 299.96875 147.972656 L 300.867188 147.789062 L 301.761719 147.605469 L 302.660156 147.417969 L 303.558594 147.222656 L 304.453125 147.019531 L 305.351562 146.808594 L 306.246094 146.585938 L 307.144531 146.351562 L 308.039062 146.101562 L 308.9375 145.832031 L 309.832031 145.550781 L 310.730469 145.246094 L 311.625 144.917969 L 312.523438 144.566406 L 313.417969 144.1875 L 314.316406 143.785156 L 315.214844 143.351562 L 316.109375 142.882812 L 317.007812 142.382812 L 317.902344 141.851562 L 318.800781 141.285156 L 319.695312 140.683594 L 320.59375 140.039062 L 321.488281 139.351562 L 322.386719 138.628906 L 323.28125 137.871094 L 324.179688 137.070312 L 325.074219 136.21875 L 325.972656 135.324219 L 326.871094 134.390625 L 327.765625 133.410156 L 328.664062 132.390625 L 329.558594 131.316406 L 330.457031 130.195312 L 331.351562 129.027344 L 332.25 127.8125 L 333.144531 126.554688 L 334.042969 125.242188 L 334.9375 123.882812 L 335.835938 122.472656 L 336.730469 121.019531 L 337.628906 119.523438 L 338.527344 117.976562 L 339.421875 116.378906 L 340.320312 114.742188 L 341.214844 113.070312 L 342.113281 111.359375 L 343.007812 109.613281 L 343.90625 107.828125 L 344.800781 106.023438 L 345.699219 104.195312 L 346.59375 102.347656 L 347.492188 100.492188 L 348.386719 98.625 L 349.285156 96.761719 L 350.183594 94.90625 L 351.078125 93.0625 L 351.976562 91.242188 L 352.871094 89.457031 L 353.769531 87.703125 L 354.664062 85.996094 L 355.5625 84.335938 L 356.457031 82.734375 L 357.355469 81.210938 L 358.25 79.753906 L 359.148438 78.371094 L 360.042969 77.066406 L 360.941406 75.855469 L 361.839844 74.75 L 362.734375 73.734375 L 363.632812 72.8125 L 364.527344 71.988281 L 365.425781 71.261719 L 366.320312 70.660156 L 367.21875 70.148438 L 368.113281 69.734375 L 369.011719 69.414062 L 369.90625 69.191406 L 370.804688 69.078125 L 371.699219 69.050781 L 372.597656 69.101562 L 373.496094 69.230469 L 374.390625 69.441406 L 375.289062 69.738281 L 376.183594 70.097656 L 377.082031 70.523438 L 377.976562 71 L 378.875 71.535156 L 379.769531 72.132812 L 380.667969 72.773438 L 381.5625 73.457031 L 382.460938 74.175781 L 383.355469 74.933594 L 384.253906 75.730469 L 385.152344 76.554688 L 386.046875 77.410156 L 386.945312 78.285156 L 387.839844 79.1875 L 388.738281 80.113281 L 389.632812 81.0625 L 390.53125 82.027344 L 391.425781 83.007812 L 392.324219 84.007812 L 393.21875 85.027344 L 394.117188 86.0625 L 395.015625 87.109375 L 395.910156 88.175781 L 396.808594 89.253906 L 397.703125 90.347656 L 398.601562 91.460938 L 399.496094 92.585938 L 400.394531 93.722656 L 401.289062 94.878906 L 402.1875 96.050781 L 403.082031 97.238281 L 403.980469 98.441406 L 404.875 99.660156 L 405.773438 100.890625 L 406.671875 102.144531 L 407.566406 103.414062 L 408.464844 104.699219 L 409.359375 106 L 410.257812 107.316406 L 411.152344 108.648438 L 412.050781 110 L 412.945312 111.359375 L 413.84375 112.734375 L 414.738281 114.121094 L 415.636719 115.519531 L 416.53125 116.925781 L 417.429688 118.339844 L 418.328125 119.757812 L 419.222656 121.179688 L 420.121094 122.601562 L 421.015625 124.023438 L 421.914062 125.441406 L 422.808594 126.851562 L 423.707031 128.25 L 424.601562 129.636719 L 425.5 131.007812 L 426.394531 132.359375 L 427.292969 133.6875 L 428.1875 134.996094 L 429.085938 136.273438 L 429.984375 137.519531 L 430.878906 138.730469 L 431.777344 139.914062 L 432.671875 141.058594 L 433.570312 142.164062 L 434.464844 143.222656 L 435.363281 144.242188 L 436.257812 145.222656 L 437.15625 146.15625 L 438.050781 147.046875 L 438.949219 147.886719 L 439.84375 148.679688 L 440.742188 149.433594 L 441.640625 150.144531 L 442.535156 150.808594 L 443.433594 151.425781 L 444.328125 152 L 445.226562 152.539062 L 446.121094 153.039062 L 447.019531 153.496094 L 447.914062 153.914062 L 448.8125 154.296875 L 449.707031 154.652344 L 450.605469 154.972656 L 451.5 155.265625 L 452.398438 155.527344 L 453.296875 155.765625 L 454.191406 155.976562 L 455.089844 156.171875 L 455.984375 156.34375 L 456.882812 156.492188 L 457.777344 156.628906 L 458.675781 156.746094 L 459.570312 156.851562 L 460.46875 156.945312 L 461.363281 157.023438 L 462.261719 157.09375 L 463.15625 157.15625 L 464.054688 157.207031 L 464.953125 157.253906 L 465.847656 157.292969 L 466.746094 157.324219 L 467.640625 157.355469 L 468.539062 157.378906 L 469.433594 157.398438 L 470.332031 157.417969 L 471.226562 157.429688 L 472.125 157.441406 L 473.019531 157.453125 L 473.917969 157.460938 L 474.8125 157.46875 L 475.710938 157.476562 L 476.609375 157.480469 L 477.503906 157.484375 L 478.402344 157.488281 L 479.296875 157.488281 L 480.195312 157.492188 L 481.089844 157.492188 L 481.089844 157.5 Z M 22.910156 157.5 "/>
<path fill="none" stroke-width="1.066978" stroke-linecap="round" stroke-linejoin="round" stroke="rgb(0%, 69.019608%, 96.470588%)" stroke-opacity="1" stroke-miterlimit="10" d="M 22.910156 157.5 L 143.957031 157.5 L 144.851562 157.496094 L 148.4375 157.496094 L 149.335938 157.492188 L 151.128906 157.492188 L 152.023438 157.488281 L 152.921875 157.488281 L 153.816406 157.484375 L 154.714844 157.480469 L 155.613281 157.480469 L 156.507812 157.476562 L 157.40625 157.472656 L 158.300781 157.464844 L 159.199219 157.460938 L 160.09375 157.453125 L 160.992188 157.449219 L 161.886719 157.441406 L 162.785156 157.433594 L 163.679688 157.421875 L 164.578125 157.414062 L 165.472656 157.402344 L 166.371094 157.390625 L 167.269531 157.375 L 168.164062 157.363281 L 169.0625 157.347656 L 169.957031 157.332031 L 170.855469 157.3125 L 171.75 157.292969 L 172.648438 157.277344 L 173.542969 157.253906 L 174.441406 157.234375 L 175.335938 157.214844 L 176.234375 157.191406 L 177.128906 157.171875 L 178.925781 157.125 L 179.820312 157.101562 L 180.71875 157.082031 L 181.613281 157.058594 L 182.511719 157.035156 L 183.40625 157.015625 L 184.304688 156.996094 L 185.199219 156.976562 L 186.097656 156.957031 L 186.992188 156.941406 L 187.890625 156.925781 L 188.785156 156.910156 L 190.582031 156.886719 L 191.476562 156.875 L 192.375 156.867188 L 193.269531 156.855469 L 194.167969 156.851562 L 195.0625 156.84375 L 195.960938 156.839844 L 196.855469 156.835938 L 197.753906 156.832031 L 198.648438 156.832031 L 199.546875 156.828125 L 200.441406 156.828125 L 201.339844 156.824219 L 203.132812 156.824219 L 204.03125 156.820312 L 204.925781 156.820312 L 205.824219 156.816406 L 206.71875 156.816406 L 207.617188 156.8125 L 208.511719 156.808594 L 209.410156 156.804688 L 210.304688 156.800781 L 212.101562 156.792969 L 212.996094 156.785156 L 213.894531 156.78125 L 214.789062 156.773438 L 215.6875 156.765625 L 216.582031 156.757812 L 217.480469 156.75 L 218.375 156.742188 L 219.273438 156.734375 L 220.167969 156.726562 L 221.066406 156.714844 L 221.960938 156.707031 L 223.757812 156.683594 L 224.652344 156.671875 L 225.550781 156.65625 L 226.445312 156.640625 L 227.34375 156.625 L 228.238281 156.605469 L 229.136719 156.585938 L 230.03125 156.5625 L 230.929688 156.539062 L 231.824219 156.511719 L 232.722656 156.480469 L 233.617188 156.449219 L 234.515625 156.417969 L 235.414062 156.378906 L 236.308594 156.339844 L 237.207031 156.296875 L 238.101562 156.25 L 239 156.203125 L 239.894531 156.152344 L 240.792969 156.101562 L 241.6875 156.046875 L 242.585938 155.992188 L 243.480469 155.933594 L 244.378906 155.875 L 245.273438 155.8125 L 247.070312 155.6875 L 247.964844 155.625 L 248.863281 155.5625 L 249.757812 155.5 L 250.65625 155.433594 L 251.550781 155.371094 L 252.449219 155.308594 L 253.34375 155.246094 L 254.242188 155.183594 L 255.136719 155.121094 L 256.035156 155.058594 L 256.929688 154.996094 L 257.828125 154.933594 L 258.726562 154.867188 L 259.621094 154.804688 L 260.519531 154.738281 L 261.414062 154.671875 L 262.3125 154.601562 L 263.207031 154.53125 L 264.105469 154.457031 L 265 154.378906 L 265.898438 154.296875 L 266.792969 154.207031 L 267.691406 154.117188 L 268.585938 154.019531 L 269.484375 153.917969 L 270.382812 153.808594 L 271.277344 153.695312 L 272.175781 153.570312 L 273.070312 153.445312 L 273.96875 153.308594 L 274.863281 153.167969 L 275.761719 153.015625 L 276.65625 152.859375 L 277.554688 152.695312 L 278.449219 152.527344 L 279.347656 152.355469 L 280.242188 152.171875 L 281.140625 151.988281 L 282.039062 151.800781 L 282.933594 151.605469 L 283.832031 151.410156 L 284.726562 151.210938 L 285.625 151.011719 L 286.519531 150.8125 L 287.417969 150.613281 L 288.3125 150.410156 L 289.210938 150.210938 L 290.105469 150.011719 L 291.003906 149.816406 L 291.898438 149.625 L 292.796875 149.429688 L 293.695312 149.242188 L 294.589844 149.054688 L 295.488281 148.871094 L 296.382812 148.691406 L 297.28125 148.511719 L 298.175781 148.332031 L 299.074219 148.152344 L 299.96875 147.972656 L 300.867188 147.789062 L 301.761719 147.605469 L 302.660156 147.417969 L 303.558594 147.222656 L 304.453125 147.019531 L 305.351562 146.808594 L 306.246094 146.585938 L 307.144531 146.351562 L 308.039062 146.101562 L 308.9375 145.832031 L 309.832031 145.550781 L 310.730469 145.246094 L 311.625 144.917969 L 312.523438 144.566406 L 313.417969 144.1875 L 314.316406 143.785156 L 315.214844 143.351562 L 316.109375 142.882812 L 317.007812 142.382812 L 317.902344 141.851562 L 318.800781 141.285156 L 319.695312 140.683594 L 320.59375 140.039062 L 321.488281 139.351562 L 322.386719 138.628906 L 323.28125 137.871094 L 324.179688 137.070312 L 325.074219 136.21875 L 325.972656 135.324219 L 326.871094 134.390625 L 327.765625 133.410156 L 328.664062 132.390625 L 329.558594 131.316406 L 330.457031 130.195312 L 331.351562 129.027344 L 332.25 127.8125 L 333.144531 126.554688 L 334.042969 125.242188 L 334.9375 123.882812 L 335.835938 122.472656 L 336.730469 121.019531 L 337.628906 119.523438 L 338.527344 117.976562 L 339.421875 116.378906 L 340.320312 114.742188 L 341.214844 113.070312 L 342.113281 111.359375 L 343.007812 109.613281 L 343.90625 107.828125 L 344.800781 106.023438 L 345.699219 104.195312 L 346.59375 102.347656 L 347.492188 100.492188 L 348.386719 98.625 L 349.285156 96.761719 L 350.183594 94.90625 L 351.078125 93.0625 L 351.976562 91.242188 L 352.871094 89.457031 L 353.769531 87.703125 L 354.664062 85.996094 L 355.5625 84.335938 L 356.457031 82.734375 L 357.355469 81.210938 L 358.25 79.753906 L 359.148438 78.371094 L 360.042969 77.066406 L 360.941406 75.855469 L 361.839844 74.75 L 362.734375 73.734375 L 363.632812 72.8125 L 364.527344 71.988281 L 365.425781 71.261719 L 366.320312 70.660156 L 367.21875 70.148438 L 368.113281 69.734375 L 369.011719 69.414062 L 369.90625 69.191406 L 370.804688 69.078125 L 371.699219 69.050781 L 372.597656 69.101562 L 373.496094 69.230469 L 374.390625 69.441406 L 375.289062 69.738281 L 376.183594 70.097656 L 377.082031 70.523438 L 377.976562 71 L 378.875 71.535156 L 379.769531 72.132812 L 380.667969 72.773438 L 381.5625 73.457031 L 382.460938 74.175781 L 383.355469 74.933594 L 384.253906 75.730469 L 385.152344 76.554688 L 386.046875 77.410156 L 386.945312 78.285156 L 387.839844 79.1875 L 388.738281 80.113281 L 389.632812 81.0625 L 390.53125 82.027344 L 391.425781 83.007812 L 392.324219 84.007812 L 393.21875 85.027344 L 394.117188 86.0625 L 395.015625 87.109375 L 395.910156 88.175781 L 396.808594 89.253906 L 397.703125 90.347656 L 398.601562 91.460938 L 399.496094 92.585938 L 400.394531 93.722656 L 401.289062 94.878906 L 402.1875 96.050781 L 403.082031 97.238281 L 403.980469 98.441406 L 404.875 99.660156 L 405.773438 100.890625 L 406.671875 102.144531 L 407.566406 103.414062 L 408.464844 104.699219 L 409.359375 106 L 410.257812 107.316406 L 411.152344 108.648438 L 412.050781 110 L 412.945312 111.359375 L 413.84375 112.734375 L 414.738281 114.121094 L 415.636719 115.519531 L 416.53125 116.925781 L 417.429688 118.339844 L 418.328125 119.757812 L 419.222656 121.179688 L 420.121094 122.601562 L 421.015625 124.023438 L 421.914062 125.441406 L 422.808594 126.851562 L 423.707031 128.25 L 424.601562 129.636719 L 425.5 131.007812 L 426.394531 132.359375 L 427.292969 133.6875 L 428.1875 134.996094 L 429.085938 136.273438 L 429.984375 137.519531 L 430.878906 138.730469 L 431.777344 139.914062 L 432.671875 141.058594 L 433.570312 142.164062 L 434.464844 143.222656 L 435.363281 144.242188 L 436.257812 145.222656 L 437.15625 146.15625 L 438.050781 147.046875 L 438.949219 147.886719 L 439.84375 148.679688 L 440.742188 149.433594 L 441.640625 150.144531 L 442.535156 150.808594 L 443.433594 151.425781 L 444.328125 152 L 445.226562 152.539062 L 446.121094 153.039062 L 447.019531 153.496094 L 447.914062 153.914062 L 448.8125 154.296875 L 449.707031 154.652344 L 450.605469 154.972656 L 451.5 155.265625 L 452.398438 155.527344 L 453.296875 155.765625 L 454.191406 155.976562 L 455.089844 156.171875 L 455.984375 156.34375 L 456.882812 156.492188 L 457.777344 156.628906 L 458.675781 156.746094 L 459.570312 156.851562 L 460.46875 156.945312 L 461.363281 157.023438 L 462.261719 157.09375 L 463.15625 157.15625 L 464.054688 157.207031 L 464.953125 157.253906 L 465.847656 157.292969 L 466.746094 157.324219 L 467.640625 157.355469 L 468.539062 157.378906 L 469.433594 157.398438 L 470.332031 157.417969 L 471.226562 157.429688 L 472.125 157.441406 L 473.019531 157.453125 L 473.917969 157.460938 L 474.8125 157.46875 L 475.710938 157.476562 L 476.609375 157.480469 L 477.503906 157.484375 L 478.402344 157.488281 L 479.296875 157.488281 L 480.195312 157.492188 L 481.089844 157.492188 "/>
<path fill-rule="nonzero" fill="rgb(0%, 74.901961%, 49.019608%)" fill-opacity="0.501961" d="M 22.910156 213.75 L 49.808594 213.75 L 50.703125 213.746094 L 55.1875 213.746094 L 56.085938 213.742188 L 56.980469 213.742188 L 57.878906 213.738281 L 58.773438 213.738281 L 59.671875 213.734375 L 60.566406 213.734375 L 61.464844 213.730469 L 62.359375 213.726562 L 63.257812 213.722656 L 64.15625 213.714844 L 65.050781 213.710938 L 65.949219 213.703125 L 66.84375 213.695312 L 67.742188 213.6875 L 68.636719 213.679688 L 69.535156 213.667969 L 70.429688 213.65625 L 71.328125 213.640625 L 72.222656 213.625 L 73.121094 213.609375 L 74.015625 213.589844 L 74.914062 213.566406 L 75.8125 213.546875 L 76.707031 213.519531 L 77.605469 213.492188 L 78.5 213.460938 L 79.398438 213.429688 L 80.292969 213.394531 L 81.191406 213.359375 L 82.085938 213.316406 L 82.984375 213.277344 L 83.878906 213.230469 L 84.777344 213.183594 L 85.671875 213.132812 L 86.570312 213.078125 L 87.46875 213.019531 L 88.363281 212.960938 L 89.261719 212.902344 L 90.15625 212.835938 L 91.054688 212.769531 L 91.949219 212.703125 L 92.847656 212.632812 L 93.742188 212.558594 L 94.640625 212.484375 L 95.535156 212.410156 L 96.433594 212.332031 L 97.328125 212.253906 L 99.125 212.097656 L 100.019531 212.015625 L 100.917969 211.933594 L 101.8125 211.855469 L 102.710938 211.773438 L 103.605469 211.691406 L 104.503906 211.609375 L 105.398438 211.53125 L 106.296875 211.449219 L 107.191406 211.371094 L 108.089844 211.292969 L 108.984375 211.214844 L 110.78125 211.058594 L 111.675781 210.984375 L 112.574219 210.910156 L 113.46875 210.832031 L 114.367188 210.757812 L 115.261719 210.683594 L 116.160156 210.609375 L 117.054688 210.53125 L 117.953125 210.457031 L 118.847656 210.378906 L 119.746094 210.300781 L 120.644531 210.21875 L 121.539062 210.136719 L 122.4375 210.050781 L 123.332031 209.960938 L 124.230469 209.867188 L 125.125 209.773438 L 126.023438 209.671875 L 126.917969 209.566406 L 127.816406 209.457031 L 128.710938 209.34375 L 129.609375 209.222656 L 130.503906 209.097656 L 131.402344 208.964844 L 132.300781 208.828125 L 133.195312 208.683594 L 134.09375 208.53125 L 134.988281 208.375 L 135.886719 208.210938 L 136.78125 208.042969 L 137.679688 207.867188 L 138.574219 207.6875 L 139.472656 207.5 L 140.367188 207.304688 L 141.265625 207.105469 L 142.160156 206.902344 L 143.058594 206.695312 L 143.957031 206.480469 L 144.851562 206.265625 L 145.75 206.042969 L 146.644531 205.816406 L 147.542969 205.589844 L 148.4375 205.355469 L 149.335938 205.121094 L 150.230469 204.882812 L 151.128906 204.644531 L 152.023438 204.402344 L 152.921875 204.15625 L 153.816406 203.910156 L 154.714844 203.664062 L 155.613281 203.414062 L 156.507812 203.164062 L 157.40625 202.914062 L 158.300781 202.664062 L 159.199219 202.410156 L 160.09375 202.160156 L 160.992188 201.910156 L 161.886719 201.660156 L 162.785156 201.410156 L 163.679688 201.164062 L 164.578125 200.917969 L 165.472656 200.671875 L 166.371094 200.429688 L 167.269531 200.191406 L 168.164062 199.953125 L 169.0625 199.71875 L 169.957031 199.488281 L 170.855469 199.261719 L 171.75 199.039062 L 172.648438 198.820312 L 173.542969 198.605469 L 174.441406 198.398438 L 175.335938 198.191406 L 176.234375 197.992188 L 177.128906 197.796875 L 178.027344 197.609375 L 178.925781 197.425781 L 179.820312 197.25 L 180.71875 197.078125 L 181.613281 196.914062 L 182.511719 196.757812 L 183.40625 196.605469 L 184.304688 196.460938 L 185.199219 196.324219 L 186.097656 196.191406 L 186.992188 196.070312 L 187.890625 195.953125 L 188.785156 195.84375 L 189.683594 195.742188 L 190.582031 195.648438 L 191.476562 195.5625 L 192.375 195.484375 L 193.269531 195.414062 L 194.167969 195.351562 L 195.0625 195.292969 L 195.960938 195.242188 L 196.855469 195.199219 L 197.753906 195.164062 L 198.648438 195.132812 L 199.546875 195.109375 L 200.441406 195.089844 L 201.339844 195.074219 L 202.238281 195.0625 L 203.132812 195.058594 L 204.03125 195.054688 L 205.824219 195.054688 L 206.71875 195.058594 L 207.617188 195.0625 L 208.511719 195.066406 L 209.410156 195.070312 L 210.304688 195.074219 L 212.996094 195.074219 L 213.894531 195.070312 L 214.789062 195.0625 L 215.6875 195.054688 L 216.582031 195.039062 L 217.480469 195.023438 L 218.375 195.003906 L 219.273438 194.980469 L 220.167969 194.953125 L 221.066406 194.925781 L 221.960938 194.890625 L 222.859375 194.855469 L 223.757812 194.8125 L 224.652344 194.773438 L 225.550781 194.726562 L 226.445312 194.679688 L 227.34375 194.628906 L 228.238281 194.578125 L 229.136719 194.523438 L 230.03125 194.464844 L 230.929688 194.410156 L 231.824219 194.351562 L 232.722656 194.289062 L 233.617188 194.226562 L 234.515625 194.164062 L 235.414062 194.097656 L 236.308594 194.03125 L 237.207031 193.960938 L 238.101562 193.890625 L 239 193.816406 L 239.894531 193.738281 L 240.792969 193.65625 L 241.6875 193.570312 L 242.585938 193.476562 L 243.480469 193.382812 L 244.378906 193.277344 L 245.273438 193.167969 L 246.171875 193.050781 L 247.070312 192.925781 L 247.964844 192.789062 L 248.863281 192.644531 L 249.757812 192.492188 L 250.65625 192.328125 L 251.550781 192.152344 L 252.449219 191.964844 L 253.34375 191.765625 L 254.242188 191.558594 L 255.136719 191.335938 L 256.035156 191.105469 L 256.929688 190.863281 L 257.828125 190.609375 L 258.726562 190.347656 L 259.621094 190.074219 L 260.519531 189.796875 L 261.414062 189.507812 L 262.3125 189.214844 L 263.207031 188.914062 L 264.105469 188.609375 L 265 188.304688 L 265.898438 187.996094 L 266.792969 187.683594 L 267.691406 187.375 L 268.585938 187.066406 L 269.484375 186.761719 L 270.382812 186.460938 L 271.277344 186.167969 L 272.175781 185.878906 L 273.070312 185.597656 L 273.96875 185.320312 L 274.863281 185.050781 L 275.761719 184.796875 L 276.65625 184.546875 L 277.554688 184.308594 L 278.449219 184.078125 L 279.347656 183.859375 L 280.242188 183.648438 L 281.140625 183.453125 L 282.039062 183.261719 L 282.933594 183.082031 L 283.832031 182.910156 L 284.726562 182.75 L 285.625 182.601562 L 286.519531 182.457031 L 287.417969 182.320312 L 288.3125 182.191406 L 289.210938 182.074219 L 290.105469 181.960938 L 291.003906 181.855469 L 291.898438 181.753906 L 292.796875 181.660156 L 293.695312 181.570312 L 294.589844 181.484375 L 295.488281 181.402344 L 296.382812 181.324219 L 297.28125 181.25 L 298.175781 181.175781 L 299.074219 181.109375 L 299.96875 181.039062 L 300.867188 180.972656 L 301.761719 180.910156 L 302.660156 180.84375 L 303.558594 180.78125 L 304.453125 180.71875 L 305.351562 180.65625 L 306.246094 180.59375 L 307.144531 180.53125 L 308.039062 180.46875 L 308.9375 180.402344 L 309.832031 180.339844 L 310.730469 180.277344 L 311.625 180.210938 L 312.523438 180.148438 L 313.417969 180.082031 L 314.316406 180.019531 L 315.214844 179.953125 L 316.109375 179.890625 L 317.007812 179.824219 L 317.902344 179.761719 L 318.800781 179.695312 L 319.695312 179.632812 L 320.59375 179.570312 L 321.488281 179.503906 L 322.386719 179.4375 L 323.28125 179.375 L 324.179688 179.308594 L 325.074219 179.242188 L 326.871094 179.101562 L 327.765625 179.027344 L 328.664062 178.953125 L 329.558594 178.875 L 330.457031 178.792969 L 331.351562 178.707031 L 332.25 178.617188 L 333.144531 178.523438 L 334.042969 178.421875 L 334.9375 178.320312 L 335.835938 178.210938 L 336.730469 178.097656 L 337.628906 177.980469 L 338.527344 177.855469 L 339.421875 177.730469 L 340.320312 177.597656 L 341.214844 177.460938 L 342.113281 177.324219 L 343.007812 177.183594 L 343.90625 177.042969 L 344.800781 176.902344 L 345.699219 176.761719 L 346.59375 176.625 L 347.492188 176.488281 L 348.386719 176.359375 L 349.285156 176.234375 L 350.183594 176.117188 L 351.078125 176.011719 L 351.976562 175.914062 L 352.871094 175.832031 L 353.769531 175.765625 L 354.664062 175.714844 L 355.5625 175.679688 L 356.457031 175.664062 L 357.355469 175.671875 L 358.25 175.699219 L 359.148438 175.753906 L 360.042969 175.828125 L 360.941406 175.929688 L 361.839844 176.058594 L 362.734375 176.21875 L 363.632812 176.402344 L 364.527344 176.609375 L 365.425781 176.847656 L 366.320312 177.121094 L 367.21875 177.417969 L 368.113281 177.738281 L 369.011719 178.085938 L 369.90625 178.457031 L 370.804688 178.859375 L 371.699219 179.28125 L 372.597656 179.726562 L 373.496094 180.1875 L 374.390625 180.667969 L 375.289062 181.171875 L 376.183594 181.6875 L 377.082031 182.21875 L 377.976562 182.757812 L 378.875 183.308594 L 379.769531 183.867188 L 380.667969 184.4375 L 381.5625 185.007812 L 382.460938 185.582031 L 383.355469 186.160156 L 384.253906 186.734375 L 385.152344 187.3125 L 386.046875 187.886719 L 386.945312 188.457031 L 387.839844 189.023438 L 388.738281 189.582031 L 389.632812 190.136719 L 390.53125 190.683594 L 391.425781 191.222656 L 392.324219 191.753906 L 393.21875 192.273438 L 394.117188 192.789062 L 395.015625 193.289062 L 395.910156 193.785156 L 396.808594 194.269531 L 397.703125 194.742188 L 398.601562 195.203125 L 399.496094 195.660156 L 400.394531 196.101562 L 401.289062 196.539062 L 402.1875 196.964844 L 403.082031 197.378906 L 403.980469 197.785156 L 404.875 198.183594 L 405.773438 198.574219 L 406.671875 198.953125 L 407.566406 199.328125 L 408.464844 199.695312 L 409.359375 200.054688 L 410.257812 200.40625 L 411.152344 200.75 L 412.050781 201.089844 L 412.945312 201.421875 L 413.84375 201.75 L 414.738281 202.074219 L 415.636719 202.390625 L 416.53125 202.703125 L 417.429688 203.011719 L 418.328125 203.316406 L 419.222656 203.617188 L 420.121094 203.914062 L 421.015625 204.207031 L 421.914062 204.496094 L 422.808594 204.78125 L 423.707031 205.066406 L 424.601562 205.351562 L 425.5 205.628906 L 426.394531 205.90625 L 427.292969 206.183594 L 428.1875 206.453125 L 429.085938 206.726562 L 429.984375 206.992188 L 430.878906 207.257812 L 431.777344 207.523438 L 432.671875 207.785156 L 433.570312 208.042969 L 434.464844 208.296875 L 435.363281 208.550781 L 436.257812 208.800781 L 437.15625 209.046875 L 438.050781 209.289062 L 438.949219 209.523438 L 439.84375 209.757812 L 440.742188 209.984375 L 441.640625 210.207031 L 442.535156 210.421875 L 443.433594 210.632812 L 444.328125 210.835938 L 445.226562 211.03125 L 446.121094 211.222656 L 447.019531 211.40625 L 447.914062 211.578125 L 448.8125 211.746094 L 449.707031 211.90625 L 450.605469 212.058594 L 451.5 212.203125 L 452.398438 212.335938 L 453.296875 212.464844 L 454.191406 212.582031 L 455.089844 212.695312 L 455.984375 212.796875 L 456.882812 212.894531 L 457.777344 212.980469 L 458.675781 213.0625 L 459.570312 213.140625 L 460.46875 213.207031 L 461.363281 213.269531 L 462.261719 213.328125 L 463.15625 213.378906 L 464.054688 213.425781 L 464.953125 213.464844 L 465.847656 213.503906 L 466.746094 213.535156 L 467.640625 213.566406 L 468.539062 213.589844 L 469.433594 213.613281 L 470.332031 213.632812 L 471.226562 213.648438 L 472.125 213.664062 L 473.019531 213.679688 L 473.917969 213.691406 L 474.8125 213.699219 L 476.609375 213.714844 L 477.503906 213.722656 L 478.402344 213.726562 L 479.296875 213.730469 L 480.195312 213.734375 L 481.089844 213.738281 L 481.089844 213.75 Z M 22.910156 213.75 "/>
<path fill="none" stroke-width="1.066978" stroke-linecap="round" stroke-linejoin="round" stroke="rgb(0%, 74.901961%, 49.019608%)" stroke-opacity="1" stroke-miterlimit="10" d="M 22.910156 213.75 L 49.808594 213.75 L 50.703125 213.746094 L 55.1875 213.746094 L 56.085938 213.742188 L 56.980469 213.742188 L 57.878906 213.738281 L 58.773438 213.738281 L 59.671875 213.734375 L 60.566406 213.734375 L 61.464844 213.730469 L 62.359375 213.726562 L 63.257812 213.722656 L 64.15625 213.714844 L 65.050781 213.710938 L 65.949219 213.703125 L 66.84375 213.695312 L 67.742188 213.6875 L 68.636719 213.679688 L 69.535156 213.667969 L 70.429688 213.65625 L 71.328125 213.640625 L 72.222656 213.625 L 73.121094 213.609375 L 74.015625 213.589844 L 74.914062 213.566406 L 75.8125 213.546875 L 76.707031 213.519531 L 77.605469 213.492188 L 78.5 213.460938 L 79.398438 213.429688 L 80.292969 213.394531 L 81.191406 213.359375 L 82.085938 213.316406 L 82.984375 213.277344 L 83.878906 213.230469 L 84.777344 213.183594 L 85.671875 213.132812 L 86.570312 213.078125 L 87.46875 213.019531 L 88.363281 212.960938 L 89.261719 212.902344 L 90.15625 212.835938 L 91.054688 212.769531 L 91.949219 212.703125 L 92.847656 212.632812 L 93.742188 212.558594 L 94.640625 212.484375 L 95.535156 212.410156 L 96.433594 212.332031 L 97.328125 212.253906 L 99.125 212.097656 L 100.019531 212.015625 L 100.917969 211.933594 L 101.8125 211.855469 L 102.710938 211.773438 L 103.605469 211.691406 L 104.503906 211.609375 L 105.398438 211.53125 L 106.296875 211.449219 L 107.191406 211.371094 L 108.089844 211.292969 L 108.984375 211.214844 L 110.78125 211.058594 L 111.675781 210.984375 L 112.574219 210.910156 L 113.46875 210.832031 L 114.367188 210.757812 L 115.261719 210.683594 L 116.160156 210.609375 L 117.054688 210.53125 L 117.953125 210.457031 L 118.847656 210.378906 L 119.746094 210.300781 L 120.644531 210.21875 L 121.539062 210.136719 L 122.4375 210.050781 L 123.332031 209.960938 L 124.230469 209.867188 L 125.125 209.773438 L 126.023438 209.671875 L 126.917969 209.566406 L 127.816406 209.457031 L 128.710938 209.34375 L 129.609375 209.222656 L 130.503906 209.097656 L 131.402344 208.964844 L 132.300781 208.828125 L 133.195312 208.683594 L 134.09375 208.53125 L 134.988281 208.375 L 135.886719 208.210938 L 136.78125 208.042969 L 137.679688 207.867188 L 138.574219 207.6875 L 139.472656 207.5 L 140.367188 207.304688 L 141.265625 207.105469 L 142.160156 206.902344 L 143.058594 206.695312 L 143.957031 206.480469 L 144.851562 206.265625 L 145.75 206.042969 L 146.644531 205.816406 L 147.542969 205.589844 L 148.4375 205.355469 L 149.335938 205.121094 L 150.230469 204.882812 L 151.128906 204.644531 L 152.023438 204.402344 L 152.921875 204.15625 L 153.816406 203.910156 L 154.714844 203.664062 L 155.613281 203.414062 L 156.507812 203.164062 L 157.40625 202.914062 L 158.300781 202.664062 L 159.199219 202.410156 L 160.09375 202.160156 L 160.992188 201.910156 L 161.886719 201.660156 L 162.785156 201.410156 L 163.679688 201.164062 L 164.578125 200.917969 L 165.472656 200.671875 L 166.371094 200.429688 L 167.269531 200.191406 L 168.164062 199.953125 L 169.0625 199.71875 L 169.957031 199.488281 L 170.855469 199.261719 L 171.75 199.039062 L 172.648438 198.820312 L 173.542969 198.605469 L 174.441406 198.398438 L 175.335938 198.191406 L 176.234375 197.992188 L 177.128906 197.796875 L 178.027344 197.609375 L 178.925781 197.425781 L 179.820312 197.25 L 180.71875 197.078125 L 181.613281 196.914062 L 182.511719 196.757812 L 183.40625 196.605469 L 184.304688 196.460938 L 185.199219 196.324219 L 186.097656 196.191406 L 186.992188 196.070312 L 187.890625 195.953125 L 188.785156 195.84375 L 189.683594 195.742188 L 190.582031 195.648438 L 191.476562 195.5625 L 192.375 195.484375 L 193.269531 195.414062 L 194.167969 195.351562 L 195.0625 195.292969 L 195.960938 195.242188 L 196.855469 195.199219 L 197.753906 195.164062 L 198.648438 195.132812 L 199.546875 195.109375 L 200.441406 195.089844 L 201.339844 195.074219 L 202.238281 195.0625 L 203.132812 195.058594 L 204.03125 195.054688 L 205.824219 195.054688 L 206.71875 195.058594 L 207.617188 195.0625 L 208.511719 195.066406 L 209.410156 195.070312 L 210.304688 195.074219 L 212.996094 195.074219 L 213.894531 195.070312 L 214.789062 195.0625 L 215.6875 195.054688 L 216.582031 195.039062 L 217.480469 195.023438 L 218.375 195.003906 L 219.273438 194.980469 L 220.167969 194.953125 L 221.066406 194.925781 L 221.960938 194.890625 L 222.859375 194.855469 L 223.757812 194.8125 L 224.652344 194.773438 L 225.550781 194.726562 L 226.445312 194.679688 L 227.34375 194.628906 L 228.238281 194.578125 L 229.136719 194.523438 L 230.03125 194.464844 L 230.929688 194.410156 L 231.824219 194.351562 L 232.722656 194.289062 L 233.617188 194.226562 L 234.515625 194.164062 L 235.414062 194.097656 L 236.308594 194.03125 L 237.207031 193.960938 L 238.101562 193.890625 L 239 193.816406 L 239.894531 193.738281 L 240.792969 193.65625 L 241.6875 193.570312 L 242.585938 193.476562 L 243.480469 193.382812 L 244.378906 193.277344 L 245.273438 193.167969 L 246.171875 193.050781 L 247.070312 192.925781 L 247.964844 192.789062 L 248.863281 192.644531 L 249.757812 192.492188 L 250.65625 192.328125 L 251.550781 192.152344 L 252.449219 191.964844 L 253.34375 191.765625 L 254.242188 191.558594 L 255.136719 191.335938 L 256.035156 191.105469 L 256.929688 190.863281 L 257.828125 190.609375 L 258.726562 190.347656 L 259.621094 190.074219 L 260.519531 189.796875 L 261.414062 189.507812 L 262.3125 189.214844 L 263.207031 188.914062 L 264.105469 188.609375 L 265 188.304688 L 265.898438 187.996094 L 266.792969 187.683594 L 267.691406 187.375 L 268.585938 187.066406 L 269.484375 186.761719 L 270.382812 186.460938 L 271.277344 186.167969 L 272.175781 185.878906 L 273.070312 185.597656 L 273.96875 185.320312 L 274.863281 185.050781 L 275.761719 184.796875 L 276.65625 184.546875 L 277.554688 184.308594 L 278.449219 184.078125 L 279.347656 183.859375 L 280.242188 183.648438 L 281.140625 183.453125 L 282.039062 183.261719 L 282.933594 183.082031 L 283.832031 182.910156 L 284.726562 182.75 L 285.625 182.601562 L 286.519531 182.457031 L 287.417969 182.320312 L 288.3125 182.191406 L 289.210938 182.074219 L 290.105469 181.960938 L 291.003906 181.855469 L 291.898438 181.753906 L 292.796875 181.660156 L 293.695312 181.570312 L 294.589844 181.484375 L 295.488281 181.402344 L 296.382812 181.324219 L 297.28125 181.25 L 298.175781 181.175781 L 299.074219 181.109375 L 299.96875 181.039062 L 300.867188 180.972656 L 301.761719 180.910156 L 302.660156 180.84375 L 303.558594 180.78125 L 304.453125 180.71875 L 305.351562 180.65625 L 306.246094 180.59375 L 307.144531 180.53125 L 308.039062 180.46875 L 308.9375 180.402344 L 309.832031 180.339844 L 310.730469 180.277344 L 311.625 180.210938 L 312.523438 180.148438 L 313.417969 180.082031 L 314.316406 180.019531 L 315.214844 179.953125 L 316.109375 179.890625 L 317.007812 179.824219 L 317.902344 179.761719 L 318.800781 179.695312 L 319.695312 179.632812 L 320.59375 179.570312 L 321.488281 179.503906 L 322.386719 179.4375 L 323.28125 179.375 L 324.179688 179.308594 L 325.074219 179.242188 L 326.871094 179.101562 L 327.765625 179.027344 L 328.664062 178.953125 L 329.558594 178.875 L 330.457031 178.792969 L 331.351562 178.707031 L 332.25 178.617188 L 333.144531 178.523438 L 334.042969 178.421875 L 334.9375 178.320312 L 335.835938 178.210938 L 336.730469 178.097656 L 337.628906 177.980469 L 338.527344 177.855469 L 339.421875 177.730469 L 340.320312 177.597656 L 341.214844 177.460938 L 342.113281 177.324219 L 343.007812 177.183594 L 343.90625 177.042969 L 344.800781 176.902344 L 345.699219 176.761719 L 346.59375 176.625 L 347.492188 176.488281 L 348.386719 176.359375 L 349.285156 176.234375 L 350.183594 176.117188 L 351.078125 176.011719 L 351.976562 175.914062 L 352.871094 175.832031 L 353.769531 175.765625 L 354.664062 175.714844 L 355.5625 175.679688 L 356.457031 175.664062 L 357.355469 175.671875 L 358.25 175.699219 L 359.148438 175.753906 L 360.042969 175.828125 L 360.941406 175.929688 L 361.839844 176.058594 L 362.734375 176.21875 L 363.632812 176.402344 L 364.527344 176.609375 L 365.425781 176.847656 L 366.320312 177.121094 L 367.21875 177.417969 L 368.113281 177.738281 L 369.011719 178.085938 L 369.90625 178.457031 L 370.804688 178.859375 L 371.699219 179.28125 L 372.597656 179.726562 L 373.496094 180.1875 L 374.390625 180.667969 L 375.289062 181.171875 L 376.183594 181.6875 L 377.082031 182.21875 L 377.976562 182.757812 L 378.875 183.308594 L 379.769531 183.867188 L 380.667969 184.4375 L 381.5625 185.007812 L 382.460938 185.582031 L 383.355469 186.160156 L 384.253906 186.734375 L 385.152344 187.3125 L 386.046875 187.886719 L 386.945312 188.457031 L 387.839844 189.023438 L 388.738281 189.582031 L 389.632812 190.136719 L 390.53125 190.683594 L 391.425781 191.222656 L 392.324219 191.753906 L 393.21875 192.273438 L 394.117188 192.789062 L 395.015625 193.289062 L 395.910156 193.785156 L 396.808594 194.269531 L 397.703125 194.742188 L 398.601562 195.203125 L 399.496094 195.660156 L 400.394531 196.101562 L 401.289062 196.539062 L 402.1875 196.964844 L 403.082031 197.378906 L 403.980469 197.785156 L 404.875 198.183594 L 405.773438 198.574219 L 406.671875 198.953125 L 407.566406 199.328125 L 408.464844 199.695312 L 409.359375 200.054688 L 410.257812 200.40625 L 411.152344 200.75 L 412.050781 201.089844 L 412.945312 201.421875 L 413.84375 201.75 L 414.738281 202.074219 L 415.636719 202.390625 L 416.53125 202.703125 L 417.429688 203.011719 L 418.328125 203.316406 L 419.222656 203.617188 L 420.121094 203.914062 L 421.015625 204.207031 L 421.914062 204.496094 L 422.808594 204.78125 L 423.707031 205.066406 L 424.601562 205.351562 L 425.5 205.628906 L 426.394531 205.90625 L 427.292969 206.183594 L 428.1875 206.453125 L 429.085938 206.726562 L 429.984375 206.992188 L 430.878906 207.257812 L 431.777344 207.523438 L 432.671875 207.785156 L 433.570312 208.042969 L 434.464844 208.296875 L 435.363281 208.550781 L 436.257812 208.800781 L 437.15625 209.046875 L 438.050781 209.289062 L 438.949219 209.523438 L 439.84375 209.757812 L 440.742188 209.984375 L 441.640625 210.207031 L 442.535156 210.421875 L 443.433594 210.632812 L 444.328125 210.835938 L 445.226562 211.03125 L 446.121094 211.222656 L 447.019531 211.40625 L 447.914062 211.578125 L 448.8125 211.746094 L 449.707031 211.90625 L 450.605469 212.058594 L 451.5 212.203125 L 452.398438 212.335938 L 453.296875 212.464844 L 454.191406 212.582031 L 455.089844 212.695312 L 455.984375 212.796875 L 456.882812 212.894531 L 457.777344 212.980469 L 458.675781 213.0625 L 459.570312 213.140625 L 460.46875 213.207031 L 461.363281 213.269531 L 462.261719 213.328125 L 463.15625 213.378906 L 464.054688 213.425781 L 464.953125 213.464844 L 465.847656 213.503906 L 466.746094 213.535156 L 467.640625 213.566406 L 468.539062 213.589844 L 469.433594 213.613281 L 470.332031 213.632812 L 471.226562 213.648438 L 472.125 213.664062 L 473.019531 213.679688 L 473.917969 213.691406 L 474.8125 213.699219 L 476.609375 213.714844 L 477.503906 213.722656 L 478.402344 213.726562 L 479.296875 213.730469 L 480.195312 213.734375 L 481.089844 213.738281 "/>
<path fill-rule="nonzero" fill="rgb(63.921569%, 64.705882%, 0%)" fill-opacity="0.501961" d="M 22.910156 270 L 104.503906 270 L 105.398438 269.996094 L 109.882812 269.996094 L 110.78125 269.992188 L 111.675781 269.992188 L 112.574219 269.988281 L 113.46875 269.988281 L 114.367188 269.984375 L 115.261719 269.984375 L 116.160156 269.980469 L 117.054688 269.976562 L 117.953125 269.972656 L 118.847656 269.96875 L 119.746094 269.960938 L 120.644531 269.957031 L 121.539062 269.949219 L 122.4375 269.941406 L 123.332031 269.929688 L 124.230469 269.921875 L 125.125 269.910156 L 126.023438 269.894531 L 126.917969 269.882812 L 127.816406 269.863281 L 128.710938 269.847656 L 129.609375 269.828125 L 130.503906 269.808594 L 132.300781 269.761719 L 133.195312 269.734375 L 134.09375 269.703125 L 134.988281 269.671875 L 135.886719 269.640625 L 136.78125 269.605469 L 137.679688 269.566406 L 138.574219 269.523438 L 139.472656 269.480469 L 140.367188 269.4375 L 141.265625 269.386719 L 142.160156 269.335938 L 143.058594 269.28125 L 143.957031 269.222656 L 144.851562 269.164062 L 145.75 269.097656 L 146.644531 269.03125 L 147.542969 268.960938 L 148.4375 268.882812 L 149.335938 268.804688 L 150.230469 268.71875 L 151.128906 268.632812 L 152.023438 268.539062 L 152.921875 268.441406 L 153.816406 268.339844 L 154.714844 268.230469 L 155.613281 268.117188 L 156.507812 267.996094 L 157.40625 267.871094 L 158.300781 267.738281 L 159.199219 267.597656 L 160.09375 267.453125 L 160.992188 267.300781 L 161.886719 267.144531 L 162.785156 266.980469 L 163.679688 266.808594 L 164.578125 266.632812 L 165.472656 266.449219 L 166.371094 266.261719 L 167.269531 266.070312 L 168.164062 265.871094 L 169.0625 265.667969 L 169.957031 265.460938 L 170.855469 265.25 L 171.75 265.039062 L 172.648438 264.824219 L 173.542969 264.605469 L 174.441406 264.386719 L 175.335938 264.167969 L 176.234375 263.949219 L 177.128906 263.730469 L 178.027344 263.515625 L 178.925781 263.296875 L 179.820312 263.085938 L 180.71875 262.875 L 181.613281 262.667969 L 182.511719 262.464844 L 183.40625 262.265625 L 184.304688 262.070312 L 185.199219 261.882812 L 186.097656 261.695312 L 186.992188 261.519531 L 187.890625 261.34375 L 188.785156 261.175781 L 189.683594 261.011719 L 190.582031 260.859375 L 191.476562 260.707031 L 192.375 260.5625 L 193.269531 260.425781 L 194.167969 260.292969 L 195.0625 260.167969 L 195.960938 260.046875 L 196.855469 259.929688 L 197.753906 259.820312 L 198.648438 259.71875 L 199.546875 259.617188 L 200.441406 259.523438 L 202.238281 259.34375 L 203.132812 259.261719 L 204.03125 259.179688 L 204.925781 259.101562 L 205.824219 259.023438 L 206.71875 258.949219 L 207.617188 258.875 L 208.511719 258.800781 L 209.410156 258.726562 L 210.304688 258.652344 L 211.203125 258.574219 L 212.101562 258.5 L 212.996094 258.417969 L 213.894531 258.339844 L 214.789062 258.253906 L 215.6875 258.167969 L 216.582031 258.082031 L 217.480469 257.992188 L 218.375 257.898438 L 219.273438 257.800781 L 220.167969 257.703125 L 221.066406 257.605469 L 221.960938 257.503906 L 222.859375 257.402344 L 223.757812 257.296875 L 224.652344 257.191406 L 225.550781 257.085938 L 226.445312 256.980469 L 227.34375 256.878906 L 228.238281 256.773438 L 229.136719 256.671875 L 230.03125 256.566406 L 230.929688 256.464844 L 231.824219 256.363281 L 232.722656 256.265625 L 233.617188 256.164062 L 234.515625 256.066406 L 235.414062 255.964844 L 236.308594 255.863281 L 237.207031 255.757812 L 238.101562 255.652344 L 239 255.542969 L 239.894531 255.429688 L 240.792969 255.3125 L 241.6875 255.183594 L 242.585938 255.054688 L 243.480469 254.910156 L 244.378906 254.757812 L 245.273438 254.597656 L 246.171875 254.425781 L 247.070312 254.242188 L 247.964844 254.042969 L 248.863281 253.832031 L 249.757812 253.605469 L 250.65625 253.371094 L 251.550781 253.121094 L 252.449219 252.855469 L 253.34375 252.578125 L 254.242188 252.289062 L 255.136719 251.988281 L 256.035156 251.675781 L 256.929688 251.355469 L 257.828125 251.023438 L 258.726562 250.6875 L 259.621094 250.34375 L 260.519531 249.996094 L 261.414062 249.644531 L 262.3125 249.289062 L 263.207031 248.9375 L 264.105469 248.585938 L 265 248.238281 L 265.898438 247.890625 L 266.792969 247.554688 L 267.691406 247.222656 L 268.585938 246.898438 L 269.484375 246.585938 L 270.382812 246.28125 L 271.277344 245.992188 L 272.175781 245.710938 L 273.070312 245.445312 L 273.96875 245.1875 L 274.863281 244.945312 L 275.761719 244.71875 L 276.65625 244.503906 L 277.554688 244.304688 L 278.449219 244.113281 L 279.347656 243.9375 L 280.242188 243.773438 L 281.140625 243.621094 L 282.039062 243.480469 L 282.933594 243.347656 L 283.832031 243.222656 L 284.726562 243.105469 L 285.625 242.996094 L 286.519531 242.890625 L 287.417969 242.789062 L 288.3125 242.691406 L 289.210938 242.59375 L 290.105469 242.496094 L 291.003906 242.398438 L 291.898438 242.296875 L 292.796875 242.191406 L 293.695312 242.082031 L 294.589844 241.964844 L 295.488281 241.84375 L 296.382812 241.714844 L 297.28125 241.574219 L 298.175781 241.425781 L 299.074219 241.265625 L 299.96875 241.09375 L 300.867188 240.910156 L 301.761719 240.71875 L 302.660156 240.507812 L 303.558594 240.289062 L 304.453125 240.054688 L 305.351562 239.808594 L 306.246094 239.550781 L 307.144531 239.277344 L 308.039062 238.988281 L 308.9375 238.691406 L 309.832031 238.378906 L 310.730469 238.054688 L 311.625 237.714844 L 312.523438 237.363281 L 313.417969 237 L 314.316406 236.625 L 315.214844 236.238281 L 316.109375 235.835938 L 317.007812 235.425781 L 317.902344 235 L 318.800781 234.566406 L 319.695312 234.121094 L 320.59375 233.664062 L 321.488281 233.191406 L 322.386719 232.710938 L 323.28125 232.222656 L 324.179688 231.722656 L 325.074219 231.207031 L 325.972656 230.683594 L 326.871094 230.148438 L 327.765625 229.605469 L 328.664062 229.050781 L 329.558594 228.484375 L 330.457031 227.910156 L 331.351562 227.324219 L 332.25 226.730469 L 333.144531 226.132812 L 334.042969 225.519531 L 334.9375 224.902344 L 335.835938 224.28125 L 336.730469 223.652344 L 337.628906 223.019531 L 338.527344 222.382812 L 339.421875 221.746094 L 340.320312 221.109375 L 341.214844 220.476562 L 342.113281 219.84375 L 343.007812 219.222656 L 343.90625 218.605469 L 344.800781 218 L 345.699219 217.410156 L 346.59375 216.828125 L 347.492188 216.269531 L 348.386719 215.734375 L 349.285156 215.222656 L 350.183594 214.734375 L 351.078125 214.273438 L 351.976562 213.84375 L 352.871094 213.453125 L 353.769531 213.097656 L 354.664062 212.78125 L 355.5625 212.5 L 356.457031 212.261719 L 357.355469 212.074219 L 358.25 211.929688 L 359.148438 211.828125 L 360.042969 211.773438 L 360.941406 211.765625 L 361.839844 211.816406 L 362.734375 211.914062 L 363.632812 212.054688 L 364.527344 212.242188 L 365.425781 212.480469 L 366.320312 212.773438 L 367.21875 213.109375 L 368.113281 213.488281 L 369.011719 213.90625 L 369.90625 214.367188 L 370.804688 214.878906 L 371.699219 215.425781 L 372.597656 216.007812 L 373.496094 216.625 L 374.390625 217.273438 L 375.289062 217.960938 L 376.183594 218.675781 L 377.082031 219.414062 L 377.976562 220.179688 L 378.875 220.964844 L 379.769531 221.777344 L 380.667969 222.609375 L 381.5625 223.453125 L 382.460938 224.3125 L 383.355469 225.1875 L 384.253906 226.074219 L 385.152344 226.972656 L 386.046875 227.875 L 386.945312 228.785156 L 387.839844 229.699219 L 388.738281 230.617188 L 389.632812 231.539062 L 390.53125 232.457031 L 391.425781 233.375 L 392.324219 234.292969 L 393.21875 235.207031 L 394.117188 236.117188 L 395.015625 237.019531 L 395.910156 237.917969 L 396.808594 238.8125 L 397.703125 239.695312 L 398.601562 240.574219 L 399.496094 241.445312 L 400.394531 242.308594 L 401.289062 243.160156 L 402.1875 244.007812 L 403.082031 244.84375 L 403.980469 245.671875 L 404.875 246.492188 L 405.773438 247.304688 L 406.671875 248.105469 L 407.566406 248.898438 L 408.464844 249.6875 L 409.359375 250.464844 L 410.257812 251.230469 L 411.152344 251.992188 L 412.050781 252.742188 L 412.945312 253.480469 L 413.84375 254.210938 L 414.738281 254.933594 L 415.636719 255.640625 L 416.53125 256.335938 L 417.429688 257.019531 L 418.328125 257.691406 L 419.222656 258.351562 L 420.121094 258.992188 L 421.015625 259.617188 L 421.914062 260.226562 L 422.808594 260.816406 L 423.707031 261.394531 L 424.601562 261.949219 L 425.5 262.484375 L 426.394531 262.996094 L 427.292969 263.492188 L 428.1875 263.96875 L 429.085938 264.421875 L 429.984375 264.847656 L 430.878906 265.257812 L 431.777344 265.644531 L 432.671875 266.011719 L 433.570312 266.355469 L 434.464844 266.675781 L 435.363281 266.976562 L 436.257812 267.257812 L 437.15625 267.519531 L 438.050781 267.761719 L 438.949219 267.984375 L 439.84375 268.191406 L 440.742188 268.378906 L 441.640625 268.554688 L 442.535156 268.714844 L 443.433594 268.855469 L 444.328125 268.988281 L 445.226562 269.105469 L 446.121094 269.214844 L 447.019531 269.308594 L 447.914062 269.394531 L 448.8125 269.472656 L 449.707031 269.539062 L 450.605469 269.601562 L 451.5 269.65625 L 452.398438 269.703125 L 453.296875 269.742188 L 454.191406 269.78125 L 455.089844 269.8125 L 455.984375 269.839844 L 456.882812 269.863281 L 457.777344 269.882812 L 458.675781 269.902344 L 459.570312 269.917969 L 460.46875 269.929688 L 461.363281 269.941406 L 462.261719 269.953125 L 463.15625 269.960938 L 464.054688 269.964844 L 464.953125 269.972656 L 465.847656 269.976562 L 466.746094 269.980469 L 467.640625 269.984375 L 468.539062 269.988281 L 469.433594 269.988281 L 470.332031 269.992188 L 471.226562 269.992188 L 472.125 269.996094 L 475.710938 269.996094 L 476.609375 270 L 481.089844 270 Z M 22.910156 270 "/>
<path fill="none" stroke-width="1.066978" stroke-linecap="round" stroke-linejoin="round" stroke="rgb(63.921569%, 64.705882%, 0%)" stroke-opacity="1" stroke-miterlimit="10" d="M 22.910156 270 L 104.503906 270 L 105.398438 269.996094 L 109.882812 269.996094 L 110.78125 269.992188 L 111.675781 269.992188 L 112.574219 269.988281 L 113.46875 269.988281 L 114.367188 269.984375 L 115.261719 269.984375 L 116.160156 269.980469 L 117.054688 269.976562 L 117.953125 269.972656 L 118.847656 269.96875 L 119.746094 269.960938 L 120.644531 269.957031 L 121.539062 269.949219 L 122.4375 269.941406 L 123.332031 269.929688 L 124.230469 269.921875 L 125.125 269.910156 L 126.023438 269.894531 L 126.917969 269.882812 L 127.816406 269.863281 L 128.710938 269.847656 L 129.609375 269.828125 L 130.503906 269.808594 L 132.300781 269.761719 L 133.195312 269.734375 L 134.09375 269.703125 L 134.988281 269.671875 L 135.886719 269.640625 L 136.78125 269.605469 L 137.679688 269.566406 L 138.574219 269.523438 L 139.472656 269.480469 L 140.367188 269.4375 L 141.265625 269.386719 L 142.160156 269.335938 L 143.058594 269.28125 L 143.957031 269.222656 L 144.851562 269.164062 L 145.75 269.097656 L 146.644531 269.03125 L 147.542969 268.960938 L 148.4375 268.882812 L 149.335938 268.804688 L 150.230469 268.71875 L 151.128906 268.632812 L 152.023438 268.539062 L 152.921875 268.441406 L 153.816406 268.339844 L 154.714844 268.230469 L 155.613281 268.117188 L 156.507812 267.996094 L 157.40625 267.871094 L 158.300781 267.738281 L 159.199219 267.597656 L 160.09375 267.453125 L 160.992188 267.300781 L 161.886719 267.144531 L 162.785156 266.980469 L 163.679688 266.808594 L 164.578125 266.632812 L 165.472656 266.449219 L 166.371094 266.261719 L 167.269531 266.070312 L 168.164062 265.871094 L 169.0625 265.667969 L 169.957031 265.460938 L 170.855469 265.25 L 171.75 265.039062 L 172.648438 264.824219 L 173.542969 264.605469 L 174.441406 264.386719 L 175.335938 264.167969 L 176.234375 263.949219 L 177.128906 263.730469 L 178.027344 263.515625 L 178.925781 263.296875 L 179.820312 263.085938 L 180.71875 262.875 L 181.613281 262.667969 L 182.511719 262.464844 L 183.40625 262.265625 L 184.304688 262.070312 L 185.199219 261.882812 L 186.097656 261.695312 L 186.992188 261.519531 L 187.890625 261.34375 L 188.785156 261.175781 L 189.683594 261.011719 L 190.582031 260.859375 L 191.476562 260.707031 L 192.375 260.5625 L 193.269531 260.425781 L 194.167969 260.292969 L 195.0625 260.167969 L 195.960938 260.046875 L 196.855469 259.929688 L 197.753906 259.820312 L 198.648438 259.71875 L 199.546875 259.617188 L 200.441406 259.523438 L 202.238281 259.34375 L 203.132812 259.261719 L 204.03125 259.179688 L 204.925781 259.101562 L 205.824219 259.023438 L 206.71875 258.949219 L 207.617188 258.875 L 208.511719 258.800781 L 209.410156 258.726562 L 210.304688 258.652344 L 211.203125 258.574219 L 212.101562 258.5 L 212.996094 258.417969 L 213.894531 258.339844 L 214.789062 258.253906 L 215.6875 258.167969 L 216.582031 258.082031 L 217.480469 257.992188 L 218.375 257.898438 L 219.273438 257.800781 L 220.167969 257.703125 L 221.066406 257.605469 L 221.960938 257.503906 L 222.859375 257.402344 L 223.757812 257.296875 L 224.652344 257.191406 L 225.550781 257.085938 L 226.445312 256.980469 L 227.34375 256.878906 L 228.238281 256.773438 L 229.136719 256.671875 L 230.03125 256.566406 L 230.929688 256.464844 L 231.824219 256.363281 L 232.722656 256.265625 L 233.617188 256.164062 L 234.515625 256.066406 L 235.414062 255.964844 L 236.308594 255.863281 L 237.207031 255.757812 L 238.101562 255.652344 L 239 255.542969 L 239.894531 255.429688 L 240.792969 255.3125 L 241.6875 255.183594 L 242.585938 255.054688 L 243.480469 254.910156 L 244.378906 254.757812 L 245.273438 254.597656 L 246.171875 254.425781 L 247.070312 254.242188 L 247.964844 254.042969 L 248.863281 253.832031 L 249.757812 253.605469 L 250.65625 253.371094 L 251.550781 253.121094 L 252.449219 252.855469 L 253.34375 252.578125 L 254.242188 252.289062 L 255.136719 251.988281 L 256.035156 251.675781 L 256.929688 251.355469 L 257.828125 251.023438 L 258.726562 250.6875 L 259.621094 250.34375 L 260.519531 249.996094 L 261.414062 249.644531 L 262.3125 249.289062 L 263.207031 248.9375 L 264.105469 248.585938 L 265 248.238281 L 265.898438 247.890625 L 266.792969 247.554688 L 267.691406 247.222656 L 268.585938 246.898438 L 269.484375 246.585938 L 270.382812 246.28125 L 271.277344 245.992188 L 272.175781 245.710938 L 273.070312 245.445312 L 273.96875 245.1875 L 274.863281 244.945312 L 275.761719 244.71875 L 276.65625 244.503906 L 277.554688 244.304688 L 278.449219 244.113281 L 279.347656 243.9375 L 280.242188 243.773438 L 281.140625 243.621094 L 282.039062 243.480469 L 282.933594 243.347656 L 283.832031 243.222656 L 284.726562 243.105469 L 285.625 242.996094 L 286.519531 242.890625 L 287.417969 242.789062 L 288.3125 242.691406 L 289.210938 242.59375 L 290.105469 242.496094 L 291.003906 242.398438 L 291.898438 242.296875 L 292.796875 242.191406 L 293.695312 242.082031 L 294.589844 241.964844 L 295.488281 241.84375 L 296.382812 241.714844 L 297.28125 241.574219 L 298.175781 241.425781 L 299.074219 241.265625 L 299.96875 241.09375 L 300.867188 240.910156 L 301.761719 240.71875 L 302.660156 240.507812 L 303.558594 240.289062 L 304.453125 240.054688 L 305.351562 239.808594 L 306.246094 239.550781 L 307.144531 239.277344 L 308.039062 238.988281 L 308.9375 238.691406 L 309.832031 238.378906 L 310.730469 238.054688 L 311.625 237.714844 L 312.523438 237.363281 L 313.417969 237 L 314.316406 236.625 L 315.214844 236.238281 L 316.109375 235.835938 L 317.007812 235.425781 L 317.902344 235 L 318.800781 234.566406 L 319.695312 234.121094 L 320.59375 233.664062 L 321.488281 233.191406 L 322.386719 232.710938 L 323.28125 232.222656 L 324.179688 231.722656 L 325.074219 231.207031 L 325.972656 230.683594 L 326.871094 230.148438 L 327.765625 229.605469 L 328.664062 229.050781 L 329.558594 228.484375 L 330.457031 227.910156 L 331.351562 227.324219 L 332.25 226.730469 L 333.144531 226.132812 L 334.042969 225.519531 L 334.9375 224.902344 L 335.835938 224.28125 L 336.730469 223.652344 L 337.628906 223.019531 L 338.527344 222.382812 L 339.421875 221.746094 L 340.320312 221.109375 L 341.214844 220.476562 L 342.113281 219.84375 L 343.007812 219.222656 L 343.90625 218.605469 L 344.800781 218 L 345.699219 217.410156 L 346.59375 216.828125 L 347.492188 216.269531 L 348.386719 215.734375 L 349.285156 215.222656 L 350.183594 214.734375 L 351.078125 214.273438 L 351.976562 213.84375 L 352.871094 213.453125 L 353.769531 213.097656 L 354.664062 212.78125 L 355.5625 212.5 L 356.457031 212.261719 L 357.355469 212.074219 L 358.25 211.929688 L 359.148438 211.828125 L 360.042969 211.773438 L 360.941406 211.765625 L 361.839844 211.816406 L 362.734375 211.914062 L 363.632812 212.054688 L 364.527344 212.242188 L 365.425781 212.480469 L 366.320312 212.773438 L 367.21875 213.109375 L 368.113281 213.488281 L 369.011719 213.90625 L 369.90625 214.367188 L 370.804688 214.878906 L 371.699219 215.425781 L 372.597656 216.007812 L 373.496094 216.625 L 374.390625 217.273438 L 375.289062 217.960938 L 376.183594 218.675781 L 377.082031 219.414062 L 377.976562 220.179688 L 378.875 220.964844 L 379.769531 221.777344 L 380.667969 222.609375 L 381.5625 223.453125 L 382.460938 224.3125 L 383.355469 225.1875 L 384.253906 226.074219 L 385.152344 226.972656 L 386.046875 227.875 L 386.945312 228.785156 L 387.839844 229.699219 L 388.738281 230.617188 L 389.632812 231.539062 L 390.53125 232.457031 L 391.425781 233.375 L 392.324219 234.292969 L 393.21875 235.207031 L 394.117188 236.117188 L 395.015625 237.019531 L 395.910156 237.917969 L 396.808594 238.8125 L 397.703125 239.695312 L 398.601562 240.574219 L 399.496094 241.445312 L 400.394531 242.308594 L 401.289062 243.160156 L 402.1875 244.007812 L 403.082031 244.84375 L 403.980469 245.671875 L 404.875 246.492188 L 405.773438 247.304688 L 406.671875 248.105469 L 407.566406 248.898438 L 408.464844 249.6875 L 409.359375 250.464844 L 410.257812 251.230469 L 411.152344 251.992188 L 412.050781 252.742188 L 412.945312 253.480469 L 413.84375 254.210938 L 414.738281 254.933594 L 415.636719 255.640625 L 416.53125 256.335938 L 417.429688 257.019531 L 418.328125 257.691406 L 419.222656 258.351562 L 420.121094 258.992188 L 421.015625 259.617188 L 421.914062 260.226562 L 422.808594 260.816406 L 423.707031 261.394531 L 424.601562 261.949219 L 425.5 262.484375 L 426.394531 262.996094 L 427.292969 263.492188 L 428.1875 263.96875 L 429.085938 264.421875 L 429.984375 264.847656 L 430.878906 265.257812 L 431.777344 265.644531 L 432.671875 266.011719 L 433.570312 266.355469 L 434.464844 266.675781 L 435.363281 266.976562 L 436.257812 267.257812 L 437.15625 267.519531 L 438.050781 267.761719 L 438.949219 267.984375 L 439.84375 268.191406 L 440.742188 268.378906 L 441.640625 268.554688 L 442.535156 268.714844 L 443.433594 268.855469 L 444.328125 268.988281 L 445.226562 269.105469 L 446.121094 269.214844 L 447.019531 269.308594 L 447.914062 269.394531 L 448.8125 269.472656 L 449.707031 269.539062 L 450.605469 269.601562 L 451.5 269.65625 L 452.398438 269.703125 L 453.296875 269.742188 L 454.191406 269.78125 L 455.089844 269.8125 L 455.984375 269.839844 L 456.882812 269.863281 L 457.777344 269.882812 L 458.675781 269.902344 L 459.570312 269.917969 L 460.46875 269.929688 L 461.363281 269.941406 L 462.261719 269.953125 L 463.15625 269.960938 L 464.054688 269.964844 L 464.953125 269.972656 L 465.847656 269.976562 L 466.746094 269.980469 L 467.640625 269.984375 L 468.539062 269.988281 L 469.433594 269.988281 L 470.332031 269.992188 L 471.226562 269.992188 L 472.125 269.996094 L 475.710938 269.996094 L 476.609375 270 L 481.089844 270 "/>
<path fill-rule="nonzero" fill="rgb(97.254902%, 46.27451%, 42.745098%)" fill-opacity="0.501961" d="M 22.910156 326.246094 L 24.703125 326.246094 L 25.597656 326.242188 L 27.390625 326.242188 L 28.289062 326.238281 L 29.1875 326.238281 L 30.082031 326.234375 L 30.980469 326.234375 L 31.875 326.230469 L 32.773438 326.226562 L 33.667969 326.222656 L 34.566406 326.21875 L 35.460938 326.214844 L 36.359375 326.210938 L 37.253906 326.207031 L 38.152344 326.199219 L 39.046875 326.191406 L 39.945312 326.1875 L 40.84375 326.179688 L 41.738281 326.171875 L 42.636719 326.160156 L 43.53125 326.152344 L 44.429688 326.140625 L 45.324219 326.132812 L 46.222656 326.121094 L 47.117188 326.109375 L 48.015625 326.097656 L 48.910156 326.085938 L 49.808594 326.074219 L 50.703125 326.0625 L 52.5 326.039062 L 53.394531 326.023438 L 54.292969 326.011719 L 55.1875 326 L 56.085938 325.988281 L 56.980469 325.980469 L 57.878906 325.96875 L 58.773438 325.957031 L 59.671875 325.949219 L 60.566406 325.941406 L 61.464844 325.933594 L 62.359375 325.929688 L 63.257812 325.921875 L 64.15625 325.917969 L 65.050781 325.914062 L 65.949219 325.910156 L 66.84375 325.910156 L 67.742188 325.90625 L 69.535156 325.90625 L 70.429688 325.902344 L 72.222656 325.902344 L 73.121094 325.898438 L 74.015625 325.894531 L 75.8125 325.886719 L 76.707031 325.878906 L 77.605469 325.867188 L 78.5 325.855469 L 79.398438 325.839844 L 80.292969 325.820312 L 81.191406 325.796875 L 82.085938 325.769531 L 82.984375 325.738281 L 83.878906 325.703125 L 84.777344 325.664062 L 85.671875 325.617188 L 86.570312 325.5625 L 87.46875 325.503906 L 88.363281 325.441406 L 89.261719 325.371094 L 90.15625 325.292969 L 91.054688 325.207031 L 91.949219 325.113281 L 92.847656 325.015625 L 93.742188 324.90625 L 94.640625 324.789062 L 95.535156 324.667969 L 96.433594 324.535156 L 97.328125 324.398438 L 98.226562 324.25 L 99.125 324.09375 L 100.019531 323.929688 L 100.917969 323.757812 L 101.8125 323.582031 L 102.710938 323.394531 L 103.605469 323.195312 L 104.503906 322.992188 L 105.398438 322.78125 L 106.296875 322.5625 L 107.191406 322.335938 L 108.089844 322.101562 L 108.984375 321.859375 L 109.882812 321.609375 L 110.78125 321.351562 L 111.675781 321.089844 L 112.574219 320.816406 L 113.46875 320.535156 L 114.367188 320.25 L 115.261719 319.957031 L 116.160156 319.65625 L 117.054688 319.347656 L 117.953125 319.03125 L 118.847656 318.707031 L 119.746094 318.378906 L 120.644531 318.042969 L 121.539062 317.699219 L 122.4375 317.347656 L 123.332031 316.988281 L 124.230469 316.625 L 125.125 316.253906 L 126.023438 315.871094 L 126.917969 315.484375 L 127.816406 315.089844 L 128.710938 314.6875 L 129.609375 314.277344 L 130.503906 313.855469 L 131.402344 313.429688 L 132.300781 312.992188 L 133.195312 312.546875 L 134.09375 312.097656 L 134.988281 311.632812 L 135.886719 311.160156 L 136.78125 310.675781 L 137.679688 310.183594 L 138.574219 309.679688 L 139.472656 309.167969 L 140.367188 308.640625 L 141.265625 308.105469 L 142.160156 307.554688 L 143.058594 306.996094 L 143.957031 306.425781 L 144.851562 305.839844 L 145.75 305.246094 L 146.644531 304.640625 L 147.542969 304.019531 L 148.4375 303.390625 L 149.335938 302.75 L 150.230469 302.097656 L 151.128906 301.4375 L 152.023438 300.765625 L 152.921875 300.085938 L 153.816406 299.398438 L 154.714844 298.703125 L 155.613281 298.003906 L 156.507812 297.296875 L 157.40625 296.585938 L 158.300781 295.875 L 159.199219 295.160156 L 160.09375 294.449219 L 160.992188 293.734375 L 161.886719 293.023438 L 162.785156 292.316406 L 163.679688 291.613281 L 164.578125 290.914062 L 165.472656 290.226562 L 166.371094 289.542969 L 167.269531 288.871094 L 168.164062 288.207031 L 169.0625 287.554688 L 169.957031 286.914062 L 170.855469 286.289062 L 171.75 285.675781 L 172.648438 285.078125 L 173.542969 284.492188 L 174.441406 283.917969 L 175.335938 283.363281 L 176.234375 282.828125 L 177.128906 282.308594 L 178.027344 281.800781 L 178.925781 281.3125 L 179.820312 280.84375 L 180.71875 280.394531 L 181.613281 279.960938 L 182.511719 279.542969 L 183.40625 279.148438 L 184.304688 278.769531 L 185.199219 278.414062 L 186.097656 278.078125 L 186.992188 277.757812 L 187.890625 277.460938 L 188.785156 277.183594 L 189.683594 276.929688 L 190.582031 276.695312 L 191.476562 276.480469 L 192.375 276.289062 L 193.269531 276.113281 L 194.167969 275.96875 L 195.0625 275.839844 L 195.960938 275.734375 L 196.855469 275.644531 L 197.753906 275.574219 L 198.648438 275.53125 L 199.546875 275.503906 L 200.441406 275.496094 L 201.339844 275.503906 L 202.238281 275.53125 L 203.132812 275.578125 L 204.03125 275.636719 L 204.925781 275.710938 L 205.824219 275.796875 L 206.71875 275.894531 L 207.617188 276.011719 L 208.511719 276.132812 L 209.410156 276.265625 L 210.304688 276.410156 L 211.203125 276.558594 L 212.101562 276.714844 L 212.996094 276.882812 L 213.894531 277.050781 L 214.789062 277.226562 L 215.6875 277.40625 L 216.582031 277.589844 L 217.480469 277.777344 L 218.375 277.96875 L 219.273438 278.164062 L 220.167969 278.363281 L 221.066406 278.566406 L 221.960938 278.769531 L 223.757812 279.191406 L 224.652344 279.410156 L 225.550781 279.632812 L 226.445312 279.859375 L 227.34375 280.09375 L 228.238281 280.332031 L 229.136719 280.574219 L 230.03125 280.828125 L 230.929688 281.089844 L 231.824219 281.359375 L 232.722656 281.636719 L 233.617188 281.921875 L 234.515625 282.214844 L 235.414062 282.523438 L 236.308594 282.835938 L 237.207031 283.164062 L 238.101562 283.496094 L 239 283.84375 L 239.894531 284.199219 L 240.792969 284.5625 L 241.6875 284.9375 L 242.585938 285.320312 L 243.480469 285.714844 L 244.378906 286.113281 L 245.273438 286.523438 L 246.171875 286.9375 L 247.070312 287.355469 L 247.964844 287.78125 L 248.863281 288.207031 L 249.757812 288.640625 L 250.65625 289.070312 L 251.550781 289.503906 L 252.449219 289.941406 L 253.34375 290.371094 L 254.242188 290.804688 L 255.136719 291.234375 L 256.035156 291.660156 L 256.929688 292.082031 L 257.828125 292.496094 L 258.726562 292.90625 L 259.621094 293.3125 L 260.519531 293.710938 L 261.414062 294.105469 L 262.3125 294.488281 L 263.207031 294.867188 L 264.105469 295.238281 L 265 295.601562 L 265.898438 295.960938 L 266.792969 296.308594 L 267.691406 296.652344 L 268.585938 296.988281 L 269.484375 297.316406 L 270.382812 297.640625 L 271.277344 297.960938 L 272.175781 298.273438 L 273.070312 298.582031 L 273.96875 298.886719 L 274.863281 299.1875 L 275.761719 299.484375 L 276.65625 299.78125 L 277.554688 300.074219 L 278.449219 300.367188 L 279.347656 300.660156 L 280.242188 300.949219 L 281.140625 301.242188 L 282.039062 301.53125 L 282.933594 301.824219 L 283.832031 302.117188 L 284.726562 302.414062 L 285.625 302.714844 L 286.519531 303.015625 L 287.417969 303.320312 L 288.3125 303.628906 L 289.210938 303.941406 L 290.105469 304.257812 L 291.003906 304.574219 L 291.898438 304.898438 L 292.796875 305.226562 L 293.695312 305.558594 L 294.589844 305.890625 L 295.488281 306.230469 L 296.382812 306.574219 L 297.28125 306.917969 L 298.175781 307.269531 L 299.074219 307.621094 L 299.96875 307.972656 L 300.867188 308.332031 L 301.761719 308.6875 L 303.558594 309.40625 L 304.453125 309.769531 L 305.351562 310.128906 L 306.246094 310.488281 L 307.144531 310.847656 L 308.039062 311.203125 L 308.9375 311.558594 L 309.832031 311.910156 L 310.730469 312.257812 L 311.625 312.601562 L 312.523438 312.941406 L 313.417969 313.277344 L 314.316406 313.609375 L 315.214844 313.933594 L 316.109375 314.25 L 317.007812 314.5625 L 317.902344 314.867188 L 318.800781 315.164062 L 319.695312 315.453125 L 320.59375 315.734375 L 321.488281 316.007812 L 322.386719 316.269531 L 323.28125 316.523438 L 324.179688 316.773438 L 325.074219 317.007812 L 325.972656 317.234375 L 326.871094 317.449219 L 327.765625 317.65625 L 328.664062 317.851562 L 329.558594 318.039062 L 330.457031 318.214844 L 331.351562 318.378906 L 332.25 318.535156 L 333.144531 318.683594 L 334.042969 318.816406 L 334.9375 318.941406 L 335.835938 319.054688 L 336.730469 319.160156 L 337.628906 319.257812 L 338.527344 319.34375 L 339.421875 319.421875 L 340.320312 319.488281 L 341.214844 319.550781 L 342.113281 319.601562 L 343.007812 319.648438 L 343.90625 319.683594 L 344.800781 319.710938 L 345.699219 319.734375 L 346.59375 319.75 L 347.492188 319.761719 L 348.386719 319.765625 L 349.285156 319.765625 L 350.183594 319.761719 L 351.078125 319.753906 L 351.976562 319.746094 L 352.871094 319.734375 L 353.769531 319.71875 L 354.664062 319.703125 L 355.5625 319.6875 L 356.457031 319.675781 L 357.355469 319.660156 L 358.25 319.648438 L 359.148438 319.640625 L 360.042969 319.632812 L 360.941406 319.628906 L 361.839844 319.632812 L 362.734375 319.636719 L 363.632812 319.648438 L 364.527344 319.667969 L 365.425781 319.691406 L 366.320312 319.722656 L 367.21875 319.757812 L 368.113281 319.804688 L 369.011719 319.855469 L 369.90625 319.914062 L 370.804688 319.984375 L 371.699219 320.058594 L 372.597656 320.140625 L 373.496094 320.230469 L 374.390625 320.328125 L 375.289062 320.433594 L 376.183594 320.542969 L 377.082031 320.660156 L 377.976562 320.785156 L 378.875 320.914062 L 379.769531 321.050781 L 380.667969 321.1875 L 381.5625 321.332031 L 382.460938 321.480469 L 383.355469 321.628906 L 384.253906 321.78125 L 385.152344 321.9375 L 386.046875 322.09375 L 386.945312 322.25 L 387.839844 322.410156 L 388.738281 322.566406 L 389.632812 322.722656 L 390.53125 322.878906 L 391.425781 323.03125 L 392.324219 323.183594 L 393.21875 323.335938 L 395.015625 323.625 L 395.910156 323.765625 L 396.808594 323.90625 L 397.703125 324.039062 L 398.601562 324.167969 L 399.496094 324.292969 L 400.394531 324.414062 L 401.289062 324.53125 L 402.1875 324.644531 L 403.082031 324.753906 L 403.980469 324.855469 L 404.875 324.957031 L 405.773438 325.050781 L 406.671875 325.140625 L 407.566406 325.226562 L 408.464844 325.308594 L 409.359375 325.382812 L 410.257812 325.457031 L 411.152344 325.523438 L 412.050781 325.585938 L 412.945312 325.648438 L 413.84375 325.703125 L 414.738281 325.753906 L 415.636719 325.804688 L 416.53125 325.847656 L 418.328125 325.925781 L 419.222656 325.960938 L 420.121094 325.992188 L 421.015625 326.019531 L 421.914062 326.046875 L 422.808594 326.070312 L 423.707031 326.09375 L 424.601562 326.113281 L 425.5 326.128906 L 426.394531 326.144531 L 427.292969 326.160156 L 428.1875 326.171875 L 429.085938 326.183594 L 429.984375 326.191406 L 430.878906 326.199219 L 431.777344 326.207031 L 432.671875 326.214844 L 433.570312 326.21875 L 434.464844 326.222656 L 435.363281 326.226562 L 436.257812 326.230469 L 437.15625 326.234375 L 438.050781 326.238281 L 438.949219 326.238281 L 439.84375 326.242188 L 441.640625 326.242188 L 442.535156 326.246094 L 446.121094 326.246094 L 447.019531 326.25 L 481.089844 326.25 L 22.910156 326.25 Z M 22.910156 326.246094 "/>
<path fill="none" stroke-width="1.066978" stroke-linecap="round" stroke-linejoin="round" stroke="rgb(97.254902%, 46.27451%, 42.745098%)" stroke-opacity="1" stroke-miterlimit="10" d="M 22.910156 326.246094 L 24.703125 326.246094 L 25.597656 326.242188 L 27.390625 326.242188 L 28.289062 326.238281 L 29.1875 326.238281 L 30.082031 326.234375 L 30.980469 326.234375 L 31.875 326.230469 L 32.773438 326.226562 L 33.667969 326.222656 L 34.566406 326.21875 L 35.460938 326.214844 L 36.359375 326.210938 L 37.253906 326.207031 L 38.152344 326.199219 L 39.046875 326.191406 L 39.945312 326.1875 L 40.84375 326.179688 L 41.738281 326.171875 L 42.636719 326.160156 L 43.53125 326.152344 L 44.429688 326.140625 L 45.324219 326.132812 L 46.222656 326.121094 L 47.117188 326.109375 L 48.015625 326.097656 L 48.910156 326.085938 L 49.808594 326.074219 L 50.703125 326.0625 L 52.5 326.039062 L 53.394531 326.023438 L 54.292969 326.011719 L 55.1875 326 L 56.085938 325.988281 L 56.980469 325.980469 L 57.878906 325.96875 L 58.773438 325.957031 L 59.671875 325.949219 L 60.566406 325.941406 L 61.464844 325.933594 L 62.359375 325.929688 L 63.257812 325.921875 L 64.15625 325.917969 L 65.050781 325.914062 L 65.949219 325.910156 L 66.84375 325.910156 L 67.742188 325.90625 L 69.535156 325.90625 L 70.429688 325.902344 L 72.222656 325.902344 L 73.121094 325.898438 L 74.015625 325.894531 L 75.8125 325.886719 L 76.707031 325.878906 L 77.605469 325.867188 L 78.5 325.855469 L 79.398438 325.839844 L 80.292969 325.820312 L 81.191406 325.796875 L 82.085938 325.769531 L 82.984375 325.738281 L 83.878906 325.703125 L 84.777344 325.664062 L 85.671875 325.617188 L 86.570312 325.5625 L 87.46875 325.503906 L 88.363281 325.441406 L 89.261719 325.371094 L 90.15625 325.292969 L 91.054688 325.207031 L 91.949219 325.113281 L 92.847656 325.015625 L 93.742188 324.90625 L 94.640625 324.789062 L 95.535156 324.667969 L 96.433594 324.535156 L 97.328125 324.398438 L 98.226562 324.25 L 99.125 324.09375 L 100.019531 323.929688 L 100.917969 323.757812 L 101.8125 323.582031 L 102.710938 323.394531 L 103.605469 323.195312 L 104.503906 322.992188 L 105.398438 322.78125 L 106.296875 322.5625 L 107.191406 322.335938 L 108.089844 322.101562 L 108.984375 321.859375 L 109.882812 321.609375 L 110.78125 321.351562 L 111.675781 321.089844 L 112.574219 320.816406 L 113.46875 320.535156 L 114.367188 320.25 L 115.261719 319.957031 L 116.160156 319.65625 L 117.054688 319.347656 L 117.953125 319.03125 L 118.847656 318.707031 L 119.746094 318.378906 L 120.644531 318.042969 L 121.539062 317.699219 L 122.4375 317.347656 L 123.332031 316.988281 L 124.230469 316.625 L 125.125 316.253906 L 126.023438 315.871094 L 126.917969 315.484375 L 127.816406 315.089844 L 128.710938 314.6875 L 129.609375 314.277344 L 130.503906 313.855469 L 131.402344 313.429688 L 132.300781 312.992188 L 133.195312 312.546875 L 134.09375 312.097656 L 134.988281 311.632812 L 135.886719 311.160156 L 136.78125 310.675781 L 137.679688 310.183594 L 138.574219 309.679688 L 139.472656 309.167969 L 140.367188 308.640625 L 141.265625 308.105469 L 142.160156 307.554688 L 143.058594 306.996094 L 143.957031 306.425781 L 144.851562 305.839844 L 145.75 305.246094 L 146.644531 304.640625 L 147.542969 304.019531 L 148.4375 303.390625 L 149.335938 302.75 L 150.230469 302.097656 L 151.128906 301.4375 L 152.023438 300.765625 L 152.921875 300.085938 L 153.816406 299.398438 L 154.714844 298.703125 L 155.613281 298.003906 L 156.507812 297.296875 L 157.40625 296.585938 L 158.300781 295.875 L 159.199219 295.160156 L 160.09375 294.449219 L 160.992188 293.734375 L 161.886719 293.023438 L 162.785156 292.316406 L 163.679688 291.613281 L 164.578125 290.914062 L 165.472656 290.226562 L 166.371094 289.542969 L 167.269531 288.871094 L 168.164062 288.207031 L 169.0625 287.554688 L 169.957031 286.914062 L 170.855469 286.289062 L 171.75 285.675781 L 172.648438 285.078125 L 173.542969 284.492188 L 174.441406 283.917969 L 175.335938 283.363281 L 176.234375 282.828125 L 177.128906 282.308594 L 178.027344 281.800781 L 178.925781 281.3125 L 179.820312 280.84375 L 180.71875 280.394531 L 181.613281 279.960938 L 182.511719 279.542969 L 183.40625 279.148438 L 184.304688 278.769531 L 185.199219 278.414062 L 186.097656 278.078125 L 186.992188 277.757812 L 187.890625 277.460938 L 188.785156 277.183594 L 189.683594 276.929688 L 190.582031 276.695312 L 191.476562 276.480469 L 192.375 276.289062 L 193.269531 276.113281 L 194.167969 275.96875 L 195.0625 275.839844 L 195.960938 275.734375 L 196.855469 275.644531 L 197.753906 275.574219 L 198.648438 275.53125 L 199.546875 275.503906 L 200.441406 275.496094 L 201.339844 275.503906 L 202.238281 275.53125 L 203.132812 275.578125 L 204.03125 275.636719 L 204.925781 275.710938 L 205.824219 275.796875 L 206.71875 275.894531 L 207.617188 276.011719 L 208.511719 276.132812 L 209.410156 276.265625 L 210.304688 276.410156 L 211.203125 276.558594 L 212.101562 276.714844 L 212.996094 276.882812 L 213.894531 277.050781 L 214.789062 277.226562 L 215.6875 277.40625 L 216.582031 277.589844 L 217.480469 277.777344 L 218.375 277.96875 L 219.273438 278.164062 L 220.167969 278.363281 L 221.066406 278.566406 L 221.960938 278.769531 L 223.757812 279.191406 L 224.652344 279.410156 L 225.550781 279.632812 L 226.445312 279.859375 L 227.34375 280.09375 L 228.238281 280.332031 L 229.136719 280.574219 L 230.03125 280.828125 L 230.929688 281.089844 L 231.824219 281.359375 L 232.722656 281.636719 L 233.617188 281.921875 L 234.515625 282.214844 L 235.414062 282.523438 L 236.308594 282.835938 L 237.207031 283.164062 L 238.101562 283.496094 L 239 283.84375 L 239.894531 284.199219 L 240.792969 284.5625 L 241.6875 284.9375 L 242.585938 285.320312 L 243.480469 285.714844 L 244.378906 286.113281 L 245.273438 286.523438 L 246.171875 286.9375 L 247.070312 287.355469 L 247.964844 287.78125 L 248.863281 288.207031 L 249.757812 288.640625 L 250.65625 289.070312 L 251.550781 289.503906 L 252.449219 289.941406 L 253.34375 290.371094 L 254.242188 290.804688 L 255.136719 291.234375 L 256.035156 291.660156 L 256.929688 292.082031 L 257.828125 292.496094 L 258.726562 292.90625 L 259.621094 293.3125 L 260.519531 293.710938 L 261.414062 294.105469 L 262.3125 294.488281 L 263.207031 294.867188 L 264.105469 295.238281 L 265 295.601562 L 265.898438 295.960938 L 266.792969 296.308594 L 267.691406 296.652344 L 268.585938 296.988281 L 269.484375 297.316406 L 270.382812 297.640625 L 271.277344 297.960938 L 272.175781 298.273438 L 273.070312 298.582031 L 273.96875 298.886719 L 274.863281 299.1875 L 275.761719 299.484375 L 276.65625 299.78125 L 277.554688 300.074219 L 278.449219 300.367188 L 279.347656 300.660156 L 280.242188 300.949219 L 281.140625 301.242188 L 282.039062 301.53125 L 282.933594 301.824219 L 283.832031 302.117188 L 284.726562 302.414062 L 285.625 302.714844 L 286.519531 303.015625 L 287.417969 303.320312 L 288.3125 303.628906 L 289.210938 303.941406 L 290.105469 304.257812 L 291.003906 304.574219 L 291.898438 304.898438 L 292.796875 305.226562 L 293.695312 305.558594 L 294.589844 305.890625 L 295.488281 306.230469 L 296.382812 306.574219 L 297.28125 306.917969 L 298.175781 307.269531 L 299.074219 307.621094 L 299.96875 307.972656 L 300.867188 308.332031 L 301.761719 308.6875 L 303.558594 309.40625 L 304.453125 309.769531 L 305.351562 310.128906 L 306.246094 310.488281 L 307.144531 310.847656 L 308.039062 311.203125 L 308.9375 311.558594 L 309.832031 311.910156 L 310.730469 312.257812 L 311.625 312.601562 L 312.523438 312.941406 L 313.417969 313.277344 L 314.316406 313.609375 L 315.214844 313.933594 L 316.109375 314.25 L 317.007812 314.5625 L 317.902344 314.867188 L 318.800781 315.164062 L 319.695312 315.453125 L 320.59375 315.734375 L 321.488281 316.007812 L 322.386719 316.269531 L 323.28125 316.523438 L 324.179688 316.773438 L 325.074219 317.007812 L 325.972656 317.234375 L 326.871094 317.449219 L 327.765625 317.65625 L 328.664062 317.851562 L 329.558594 318.039062 L 330.457031 318.214844 L 331.351562 318.378906 L 332.25 318.535156 L 333.144531 318.683594 L 334.042969 318.816406 L 334.9375 318.941406 L 335.835938 319.054688 L 336.730469 319.160156 L 337.628906 319.257812 L 338.527344 319.34375 L 339.421875 319.421875 L 340.320312 319.488281 L 341.214844 319.550781 L 342.113281 319.601562 L 343.007812 319.648438 L 343.90625 319.683594 L 344.800781 319.710938 L 345.699219 319.734375 L 346.59375 319.75 L 347.492188 319.761719 L 348.386719 319.765625 L 349.285156 319.765625 L 350.183594 319.761719 L 351.078125 319.753906 L 351.976562 319.746094 L 352.871094 319.734375 L 353.769531 319.71875 L 354.664062 319.703125 L 355.5625 319.6875 L 356.457031 319.675781 L 357.355469 319.660156 L 358.25 319.648438 L 359.148438 319.640625 L 360.042969 319.632812 L 360.941406 319.628906 L 361.839844 319.632812 L 362.734375 319.636719 L 363.632812 319.648438 L 364.527344 319.667969 L 365.425781 319.691406 L 366.320312 319.722656 L 367.21875 319.757812 L 368.113281 319.804688 L 369.011719 319.855469 L 369.90625 319.914062 L 370.804688 319.984375 L 371.699219 320.058594 L 372.597656 320.140625 L 373.496094 320.230469 L 374.390625 320.328125 L 375.289062 320.433594 L 376.183594 320.542969 L 377.082031 320.660156 L 377.976562 320.785156 L 378.875 320.914062 L 379.769531 321.050781 L 380.667969 321.1875 L 381.5625 321.332031 L 382.460938 321.480469 L 383.355469 321.628906 L 384.253906 321.78125 L 385.152344 321.9375 L 386.046875 322.09375 L 386.945312 322.25 L 387.839844 322.410156 L 388.738281 322.566406 L 389.632812 322.722656 L 390.53125 322.878906 L 391.425781 323.03125 L 392.324219 323.183594 L 393.21875 323.335938 L 395.015625 323.625 L 395.910156 323.765625 L 396.808594 323.90625 L 397.703125 324.039062 L 398.601562 324.167969 L 399.496094 324.292969 L 400.394531 324.414062 L 401.289062 324.53125 L 402.1875 324.644531 L 403.082031 324.753906 L 403.980469 324.855469 L 404.875 324.957031 L 405.773438 325.050781 L 406.671875 325.140625 L 407.566406 325.226562 L 408.464844 325.308594 L 409.359375 325.382812 L 410.257812 325.457031 L 411.152344 325.523438 L 412.050781 325.585938 L 412.945312 325.648438 L 413.84375 325.703125 L 414.738281 325.753906 L 415.636719 325.804688 L 416.53125 325.847656 L 418.328125 325.925781 L 419.222656 325.960938 L 420.121094 325.992188 L 421.015625 326.019531 L 421.914062 326.046875 L 422.808594 326.070312 L 423.707031 326.09375 L 424.601562 326.113281 L 425.5 326.128906 L 426.394531 326.144531 L 427.292969 326.160156 L 428.1875 326.171875 L 429.085938 326.183594 L 429.984375 326.191406 L 430.878906 326.199219 L 431.777344 326.207031 L 432.671875 326.214844 L 433.570312 326.21875 L 434.464844 326.222656 L 435.363281 326.226562 L 436.257812 326.230469 L 437.15625 326.234375 L 438.050781 326.238281 L 438.949219 326.238281 L 439.84375 326.242188 L 441.640625 326.242188 L 442.535156 326.246094 L 446.121094 326.246094 L 447.019531 326.25 L 481.089844 326.25 "/>
</svg>
