<?xml version="1.0" encoding="UTF-8"?>
<svg xmlns="http://www.w3.org/2000/svg" xmlns:xlink="http://www.w3.org/1999/xlink" width="504" height="360" viewBox="0 0 504 360">
<rect x="-50.4" y="-36" width="604.8" height="432" fill="rgb(100%, 100%, 100%)" fill-opacity="1"/>
<path fill-rule="nonzero" fill="rgb(90.588235%, 41.960784%, 95.294118%)" fill-opacity="0.501961" d="M 22.910156 101.25 L 292.796875 101.25 L 293.695312 101.246094 L 296.382812 101.246094 L 297.28125 101.242188 L 298.175781 101.242188 L 299.074219 101.238281 L 299.96875 101.238281 L 300.867188 101.234375 L 301.761719 101.226562 L 302.660156 101.222656 L 303.558594 101.214844 L 304.453125 101.207031 L 305.351562 101.195312 L 306.246094 101.179688 L 307.144531 101.164062 L 308.039062 101.140625 L 308.9375 101.117188 L 309.832031 101.085938 L 310.730469 101.046875 L 311.625 101.003906 L 312.523438 100.949219 L 313.417969 100.882812 L 314.316406 100.804688 L 315.214844 100.714844 L 316.109375 100.609375 L 317.007812 100.480469 L 317.902344 100.332031 L 318.800781 100.160156 L 319.695312 99.960938 L 320.59375 99.726562 L 321.488281 99.457031 L 322.386719 99.144531 L 323.28125 98.792969 L 324.179688 98.398438 L 325.074219 97.9375 L 325.972656 97.417969 L 326.871094 96.832031 L 327.765625 96.183594 L 328.664062 95.460938 L 329.558594 94.644531 L 330.457031 93.738281 L 331.351562 92.738281 L 332.25 91.644531 L 333.144531 90.453125 L 334.042969 89.136719 L 334.9375 87.699219 L 335.835938 86.148438 L 336.730469 84.480469 L 337.628906 82.699219 L 338.527344 80.777344 L 339.421875 78.71875 L 340.320312 76.542969 L 341.214844 74.246094 L 342.113281 71.839844 L 343.007812 69.300781 L 343.90625 66.640625 L 344.800781 63.886719 L 345.699219 61.042969 L 346.59375 58.113281 L 347.492188 55.105469 L 348.386719 52.027344 L 349.285156 48.910156 L 350.183594 45.757812 L 351.078125 42.589844 L 351.976562 39.417969 L 352.871094 36.265625 L 353.769531 33.148438 L 354.664062 30.082031 L 355.5625 27.078125 L 356.457031 24.160156 L 357.355469 21.367188 L 358.25 18.691406 L 359.148438 16.144531 L 360.042969 13.734375 L 360.941406 11.496094 L 361.839844 9.464844 L 362.734375 7.609375 L 363.632812 5.9375 L 364.527344 4.457031 L 365.425781 3.183594 L 366.320312 2.15625 L 367.21875 1.328125 L 368.113281 0.691406 L 369.011719 0.25 L 369.90625 0.0117188 L 370.804688 0 L 371.699219 0.160156 L 372.597656 0.484375 L 373.496094 0.960938 L 374.390625 1.589844 L 375.289062 2.378906 L 376.183594 3.285156 L 377.082031 4.292969 L 377.976562 5.386719 L 378.875 6.5625 L 379.769531 7.8125 L 380.667969 9.109375 L 381.5625 10.4375 L 382.460938 11.785156 L 383.355469 13.144531 L 384.253906 14.503906 L 385.152344 15.84375 L 386.046875 17.164062 L 386.945312 18.457031 L 387.839844 19.710938 L 388.738281 20.910156 L 389.632812 22.058594 L 390.53125 23.152344 L 391.425781 24.195312 L 392.324219 25.179688 L 393.21875 26.089844 L 394.117188 26.9375 L 395.015625 27.734375 L 395.910156 28.472656 L 396.808594 29.160156 L 397.703125 29.785156 L 398.601562 30.359375 L 399.496094 30.898438 L 400.394531 31.398438 L 401.289062 31.867188 L 402.1875 32.304688 L 403.082031 32.722656 L 403.980469 33.128906 L 404.875 33.527344 L 405.773438 33.921875 L 406.671875 34.328125 L 407.566406 34.742188 L 408.464844 35.179688 L 409.359375 35.640625 L 410.257812 36.128906 L 411.152344 36.660156 L 412.050781 37.238281 L 412.945312 37.863281 L 413.84375 38.539062 L 414.738281 39.265625 L 415.636719 40.066406 L 416.53125 40.929688 L 417.429688 41.859375 L 418.328125 42.855469 L 419.222656 43.917969 L 420.121094 45.058594 L 421.015625 46.273438 L 421.914062 47.550781 L 422.808594 48.894531 L 423.707031 50.300781 L 424.601562 51.777344 L 425.5 53.3125 L 426.394531 54.894531 L 427.292969 56.523438 L 428.1875 58.195312 L 429.085938 59.902344 L 429.984375 61.640625 L 430.878906 63.398438 L 431.777344 65.171875 L 432.671875 66.949219 L 433.570312 68.730469 L 434.464844 70.496094 L 435.363281 72.25 L 436.257812 73.980469 L 437.15625 75.683594 L 438.050781 77.351562 L 438.949219 78.96875 L 439.84375 80.539062 L 440.742188 82.0625 L 441.640625 83.53125 L 442.535156 84.933594 L 443.433594 86.265625 L 444.328125 87.539062 L 445.226562 88.742188 L 446.121094 89.886719 L 447.019531 90.953125 L 447.914062 91.945312 L 448.8125 92.871094 L 449.707031 93.730469 L 450.605469 94.53125 L 451.5 95.265625 L 452.398438 95.929688 L 453.296875 96.539062 L 454.191406 97.09375 L 455.089844 97.601562 L 455.984375 98.058594 L 456.882812 98.457031 L 457.777344 98.820312 L 458.675781 99.144531 L 459.570312 99.433594 L 460.46875 99.691406 L 461.363281 99.910156 L 462.261719 100.101562 L 463.15625 100.273438 L 464.054688 100.421875 L 464.953125 100.554688 L 465.847656 100.660156 L 466.746094 100.753906 L 467.640625 100.835938 L 468.539062 100.90625 L 469.433594 100.964844 L 470.332031 101.015625 L 471.226562 101.054688 L 472.125 101.089844 L 473.019531 101.121094 L 473.917969 101.144531 L 474.8125 101.164062 L 476.609375 101.195312 L 477.503906 101.203125 L 478.402344 101.214844 L 479.296875 101.222656 L 480.195312 101.226562 L 481.089844 101.230469 L 481.089844 101.25 Z M 22.910156 101.25 "/>
<path fill="none" stroke-width="1.066978" stroke-linecap="round" stroke-linejoin="round" stroke="rgb(90.588235%, 41.960784%, 95.294118%)" stroke-opacity="1" stroke-miterlimit="10" d="M 22.910156 101.25 L 292.796875 101.25 L 293.695312 101.246094 L 296.382812 101.246094 L 297.28125 101.242188 L 298.175781 101.242188 L 299.074219 101.238281 L 299.96875 101.238281 L 300.867188 101.234375 L 301.761719 101.226562 L 302.660156 101.222656 L 303.558594 101.214844 L 304.453125 101.207031 L 305.351562 101.195312 L 306.246094 101.179688 L 307.144531 101.164062 L 308.039062 101.140625 L 308.9375 101.117188 L 309.832031 101.085938 L 310.730469 101.046875 L 311.625 101.003906 L 312.523438 100.949219 L 313.417969 100.882812 L 314.316406 100.804688 L 315.214844 100.714844 L 316.109375 100.609375 L 317.007812 100.480469 L 317.902344 100.332031 L 318.800781 100.160156 L 319.695312 99.960938 L 320.59375 99.726562 L 321.488281 99.457031 L 322.386719 99.144531 L 323.28125 98.792969 L 324.179688 98.398438 L 325.074219 97.9375 L 325.972656 97.417969 L 326.871094 96.832031 L 327.765625 96.183594 L 328.664062 95.460938 L 329.558594 94.644531 L 330.457031 93.738281 L 331.351562 92.738281 L 332.25 91.644531 L 333.144531 90.453125 L 334.042969 89.136719 L 334.9375 87.699219 L 335.835938 86.148438 L 336.730469 84.480469 L 337.628906 82.699219 L 338.527344 80.777344 L 339.421875 78.71875 L 340.320312 76.542969 L 341.214844 74.246094 L 342.113281 71.839844 L 343.007812 69.300781 L 343.90625 66.640625 L 344.800781 63.886719 L 345.699219 61.042969 L 346.59375 58.113281 L 347.492188 55.105469 L 348.386719 52.027344 L 349.285156 48.910156 L 350.183594 45.757812 L 351.078125 42.589844 L 351.976562 39.417969 L 352.871094 36.265625 L 353.769531 33.148438 L 354.664062 30.082031 L 355.5625 27.078125 L 356.457031 24.160156 L 357.355469 21.367188 L 358.25 18.691406 L 359.148438 16.144531 L 360.042969 13.734375 L 360.941406 11.496094 L 361.839844 9.464844 L 362.734375 7.609375 L 363.632812 5.9375 L 364.527344 4.457031 L 365.425781 3.183594 L 366.320312 2.15625 L 367.21875 1.328125 L 368.113281 0.691406 L 369.011719 0.25 L 369.90625 0.0117188 L 370.804688 0 L 371.699219 0.160156 L 372.597656 0.484375 L 373.496094 0.960938 L 374.390625 1.589844 L 375.289062 2.378906 L 376.183594 3.285156 L 377.082031 4.292969 L 377.976562 5.386719 L 378.875 6.5625 L 379.769531 7.8125 L 380.667969 9.109375 L 381.5625 10.4375 L 382.460938 11.785156 L 383.355469 13.144531 L 384.253906 14.503906 L 385.152344 15.84375 L 386.046875 17.164062 L 386.945312 18.457031 L 387.839844 19.710938 L 388.738281 20.910156 L 389.632812 22.058594 L 390.53125 23.152344 L 391.425781 24.195312 L 392.324219 25.179688 L 393.21875 26.089844 L 394.117188 26.9375 L 395.015625 27.734375 L 395.910156 28.472656 L 396.808594 29.160156 L 397.703125 29.785156 L 398.601562 30.359375 L 399.496094 30.898438 L 400.394531 31.398438 L 401.289062 31.867188 L 402.1875 32.304688 L 403.082031 32.722656 L 403.980469 33.128906 L 404.875 33.527344 L 405.773438 33.921875 L 406.671875 34.328125 L 407.566406 34.742188 L 408.464844 35.179688 L 409.359375 35.640625 L 410.257812 36.128906 L 411.152344 36.660156 L 412.050781 37.238281 L 412.945312 37.863281 L 413.84375 38.539062 L 414.738281 39.265625 L 415.636719 40.066406 L 416.53125 40.929688 L 417.429688 41.859375 L 418.328125 42.855469 L 419.222656 43.917969 L 420.121094 45.058594 L 421.015625 46.273438 L 421.914062 47.550781 L 422.808594 48.894531 L 423.707031 50.300781 L 424.601562 51.777344 L 425.5 53.3125 L 426.394531 54.894531 L 427.292969 56.523438 L 428.1875 58.195312 L 429.085938 59.902344 L 429.984375 61.640625 L 430.878906 63.398438 L 431.777344 65.171875 L 432.671875 66.949219 L 433.570312 68.730469 L 434.464844 70.496094 L 435.363281 72.25 L 436.257812 73.980469 L 437.15625 75.683594 L 438.050781 77.351562 L 438.949219 78.96875 L 439.84375 80.539062 L 440.742188 82.0625 L 441.640625 83.53125 L 442.535156 84.933594 L 443.433594 86.265625 L 444.328125 87.539062 L 445.226562 88.742188 L 446.121094 89.886719 L 447.019531 90.953125 L 447.914062 91.945312 L 448.8125 92.871094 L 449.707031 93.730469 L 450.605469 94.53125 L 451.5 95.265625 L 452.398438 95.929688 L 453.296875 96.539062 L 454.191406 97.09375 L 455.089844 97.601562 L 455.984375 98.058594 L 456.882812 98.457031 L 457.777344 98.820312 L 458.675781 99.144531 L 459.570312 99.433594 L 460.46875 99.691406 L 461.363281 99.910156 L 462.261719 100.101562 L 463.15625 100.273438 L 464.054688 100.421875 L 464.953125 100.554688 L 465.847656 100.660156 L 466.746094 100.753906 L 467.640625 100.835938 L 468.539062 100.90625 L 469.433594 100.964844 L 470.332031 101.015625 L 471.226562 101.054688 L 472.125 101.089844 L 473.019531 101.121094 L 473.917969 101.144531 L 474.8125 101.164062 L 476.609375 101.195312 L 477.503906 101.203125 L 478.402344 101.214844 L 479.296875 101.222656 L 480.195312 101.226562 L 481.089844 101.230469 "/>
<path fill-rule="nonzero" fill="rgb(0%, 69.019608%, 96.470588%)" fill-opacity="0.501961" d="M 22.910156 157.5 L 143.957031 157.5 L 144.851562 157.496094 L 148.4375 157.496094 L 149.335938 157.492188 L 151.128906 157.492188 L 152.023438 157.488281 L 152.921875 157.488281 L 153.816406 157.484375 L 154.714844 157.480469 L 155.613281 157.480469 L 156.507812 157.476562 L 157.40625 157.472656 L 158.300781 157.464844 L 159.199219 157.460938 L 160.09375 157.453125 L 160.992188 157.449219 L 161.886719 157.441406 L 162.785156 157.429688 L 163.679688 157.421875 L 164.578125 157.410156 L 165.472656 157.402344 L 166.371094 157.390625 L 167.269531 157.375 L 168.164062 157.359375 L 169.0625 157.347656 L 169.957031 157.328125 L 170.855469 157.3125 L 171.75 157.292969 L 172.648438 157.273438 L 173.542969 157.253906 L 174.441406 157.234375 L 175.335938 157.214844 L 176.234375 157.191406 L 177.128906 157.171875 L 178.925781 157.125 L 179.820312 157.101562 L 180.71875 157.082031 L 181.613281 157.058594 L 182.511719 157.035156 L 183.40625 157.015625 L 184.304688 156.996094 L 185.199219 156.976562 L 186.097656 156.957031 L 186.992188 156.941406 L 187.890625 156.925781 L 188.785156 156.910156 L 190.582031 156.886719 L 191.476562 156.875 L 192.375 156.867188 L 193.269531 156.855469 L 194.167969 156.851562 L 195.0625 156.84375 L 195.960938 156.839844 L 196.855469 156.835938 L 197.753906 156.832031 L 198.648438 156.832031 L 199.546875 156.828125 L 200.441406 156.828125 L 201.339844 156.824219 L 203.132812 156.824219 L 204.03125 156.820312 L 204.925781 156.820312 L 205.824219 156.816406 L 206.71875 156.816406 L 207.617188 156.8125 L 208.511719 156.808594 L 209.410156 156.804688 L 210.304688 156.800781 L 212.101562 156.792969 L 212.996094 156.785156 L 213.894531 156.78125 L 214.789062 156.773438 L 215.6875 156.765625 L 216.582031 156.757812 L 217.480469 156.75 L 218.375 156.742188 L 219.273438 156.734375 L 220.167969 156.726562 L 221.066406 156.714844 L 221.960938 156.707031 L 223.757812 156.683594 L 224.652344 156.671875 L 225.550781 156.65625 L 226.445312 156.640625 L 227.34375 156.625 L 228.238281 156.605469 L 229.136719 156.585938 L 230.03125 156.5625 L 230.929688 156.539062 L 231.824219 156.511719 L 232.722656 156.480469 L 233.617188 156.449219 L 235.414062 156.378906 L 236.308594 156.335938 L 237.207031 156.296875 L 238.101562 156.25 L 239 156.203125 L 239.894531 156.152344 L 240.792969 156.101562 L 241.6875 156.046875 L 242.585938 155.988281 L 243.480469 155.933594 L 244.378906 155.871094 L 245.273438 155.8125 L 247.070312 155.6875 L 247.964844 155.625 L 248.863281 155.5625 L 249.757812 155.496094 L 250.65625 155.433594 L 251.550781 155.371094 L 252.449219 155.308594 L 253.34375 155.246094 L 254.242188 155.179688 L 255.136719 155.117188 L 256.035156 155.054688 L 256.929688 154.992188 L 258.726562 154.867188 L 259.621094 154.800781 L 260.519531 154.738281 L 261.414062 154.667969 L 262.3125 154.601562 L 263.207031 154.527344 L 264.105469 154.453125 L 265 154.375 L 265.898438 154.292969 L 266.792969 154.207031 L 267.691406 154.113281 L 268.585938 154.015625 L 269.484375 153.914062 L 270.382812 153.808594 L 271.277344 153.691406 L 272.175781 153.570312 L 273.070312 153.441406 L 273.96875 153.304688 L 274.863281 153.164062 L 275.761719 153.011719 L 276.65625 152.855469 L 277.554688 152.695312 L 278.449219 152.523438 L 279.347656 152.351562 L 280.242188 152.171875 L 282.039062 151.796875 L 282.933594 151.601562 L 283.832031 151.40625 L 284.726562 151.210938 L 285.625 151.011719 L 286.519531 150.808594 L 287.417969 150.609375 L 288.3125 150.40625 L 289.210938 150.207031 L 290.105469 150.011719 L 291.003906 149.816406 L 291.898438 149.621094 L 293.695312 149.238281 L 294.589844 149.054688 L 295.488281 148.867188 L 296.382812 148.6875 L 297.28125 148.507812 L 298.175781 148.328125 L 299.074219 148.148438 L 299.96875 147.964844 L 300.867188 147.785156 L 301.761719 147.601562 L 302.660156 147.410156 L 303.558594 147.214844 L 304.453125 147.011719 L 305.351562 146.800781 L 306.246094 146.578125 L 307.144531 146.34375 L 308.039062 146.089844 L 308.9375 145.824219 L 309.832031 145.539062 L 310.730469 145.238281 L 311.625 144.90625 L 312.523438 144.554688 L 313.417969 144.175781 L 314.316406 143.769531 L 315.214844 143.339844 L 316.109375 142.871094 L 317.007812 142.367188 L 317.902344 141.835938 L 318.800781 141.265625 L 319.695312 140.664062 L 320.59375 140.019531 L 321.488281 139.335938 L 322.386719 138.613281 L 323.28125 137.851562 L 324.179688 137.050781 L 325.074219 136.199219 L 325.972656 135.304688 L 326.871094 134.367188 L 327.765625 133.390625 L 328.664062 132.367188 L 329.558594 131.292969 L 330.457031 130.167969 L 331.351562 129 L 332.25 127.789062 L 333.144531 126.53125 L 334.042969 125.21875 L 334.9375 123.855469 L 335.835938 122.445312 L 336.730469 120.992188 L 337.628906 119.496094 L 338.527344 117.945312 L 339.421875 116.351562 L 340.320312 114.714844 L 341.214844 113.039062 L 342.113281 111.332031 L 343.007812 109.582031 L 343.90625 107.800781 L 344.800781 105.996094 L 345.699219 104.167969 L 346.59375 102.320312 L 347.492188 100.464844 L 348.386719 98.601562 L 349.285156 96.738281 L 350.183594 94.882812 L 351.078125 93.039062 L 351.976562 91.222656 L 352.871094 89.433594 L 353.769531 87.683594 L 354.664062 85.976562 L 355.5625 84.316406 L 356.457031 82.71875 L 357.355469 81.191406 L 358.25 79.738281 L 359.148438 78.355469 L 360.042969 77.054688 L 360.941406 75.839844 L 361.839844 74.738281 L 362.734375 73.722656 L 363.632812 72.800781 L 364.527344 71.972656 L 365.425781 71.25 L 366.320312 70.644531 L 367.21875 70.136719 L 368.113281 69.722656 L 369.011719 69.398438 L 369.90625 69.175781 L 370.804688 69.0625 L 371.699219 69.03125 L 372.597656 69.082031 L 373.496094 69.210938 L 374.390625 69.417969 L 375.289062 69.714844 L 376.183594 70.078125 L 377.082031 70.496094 L 377.976562 70.976562 L 378.875 71.511719 L 379.769531 72.105469 L 380.667969 72.746094 L 381.5625 73.429688 L 382.460938 74.148438 L 383.355469 74.902344 L 384.253906 75.699219 L 385.152344 76.527344 L 386.046875 77.378906 L 386.945312 78.257812 L 387.839844 79.15625 L 388.738281 80.085938 L 389.632812 81.03125 L 390.53125 81.996094 L 391.425781 82.980469 L 392.324219 83.980469 L 393.21875 85 L 394.117188 86.035156 L 395.015625 87.082031 L 395.910156 88.148438 L 396.808594 89.226562 L 397.703125 90.324219 L 398.601562 91.433594 L 399.496094 92.558594 L 400.394531 93.699219 L 401.289062 94.855469 L 402.1875 96.027344 L 403.082031 97.214844 L 403.980469 98.417969 L 404.875 99.636719 L 405.773438 100.871094 L 406.671875 102.125 L 407.566406 103.394531 L 408.464844 104.679688 L 409.359375 105.980469 L 410.257812 107.296875 L 411.152344 108.632812 L 412.050781 109.980469 L 412.945312 111.34375 L 413.84375 112.71875 L 414.738281 114.101562 L 415.636719 115.5 L 416.53125 116.910156 L 417.429688 118.324219 L 418.328125 119.742188 L 419.222656 121.164062 L 420.121094 122.585938 L 421.015625 124.007812 L 421.914062 125.425781 L 422.808594 126.835938 L 423.707031 128.234375 L 424.601562 129.621094 L 425.5 130.992188 L 426.394531 132.339844 L 427.292969 133.671875 L 428.1875 134.980469 L 429.085938 136.257812 L 429.984375 137.5 L 430.878906 138.714844 L 431.777344 139.894531 L 432.671875 141.042969 L 433.570312 142.148438 L 434.464844 143.207031 L 435.363281 144.226562 L 436.257812 145.203125 L 437.15625 146.140625 L 438.050781 147.03125 L 438.949219 147.871094 L 439.84375 148.667969 L 440.742188 149.421875 L 441.640625 150.132812 L 442.535156 150.796875 L 443.433594 151.414062 L 444.328125 151.988281 L 445.226562 152.527344 L 446.121094 153.027344 L 447.019531 153.484375 L 447.914062 153.902344 L 448.8125 154.289062 L 449.707031 154.640625 L 450.605469 154.964844 L 451.5 155.257812 L 452.398438 155.519531 L 453.296875 155.757812 L 454.191406 155.972656 L 455.089844 156.164062 L 455.984375 156.339844 L 456.882812 156.488281 L 457.777344 156.621094 L 458.675781 156.742188 L 459.570312 156.847656 L 460.46875 156.941406 L 461.363281 157.019531 L 462.261719 157.089844 L 463.15625 157.152344 L 464.054688 157.207031 L 464.953125 157.253906 L 465.847656 157.289062 L 466.746094 157.324219 L 467.640625 157.351562 L 468.539062 157.378906 L 469.433594 157.398438 L 470.332031 157.414062 L 471.226562 157.429688 L 472.125 157.441406 L 473.019531 157.453125 L 473.917969 157.460938 L 474.8125 157.46875 L 475.710938 157.472656 L 476.609375 157.480469 L 477.503906 157.484375 L 478.402344 157.488281 L 479.296875 157.488281 L 480.195312 157.492188 L 481.089844 157.492188 L 481.089844 157.5 Z M 22.910156 157.5 "/>
<path fill="none" stroke-width="1.066978" stroke-linecap="round" stroke-linejoin="round" stroke="rgb(0%, 69.019608%, 96.470588%)" stroke-opacity="1" stroke-miterlimit="10" d="M 22.910156 157.5 L 143.957031 157.5 L 144.851562 157.496094 L 148.4375 157.496094 L 149.335938 157.492188 L 151.128906 157.492188 L 152.023438 157.488281 L 152.921875 157.488281 L 153.816406 157.484375 L 154.714844 157.480469 L 155.613281 157.480469 L 156.507812 157.476562 L 157.40625 157.472656 L 158.300781 157.464844 L 159.199219 157.460938 L 160.09375 157.453125 L 160.992188 157.449219 L 161.886719 157.441406 L 162.785156 157.429688 L 163.679688 157.421875 L 164.578125 157.410156 L 165.472656 157.402344 L 166.371094 157.390625 L 167.269531 157.375 L 168.164062 157.359375 L 169.0625 157.347656 L 169.957031 157.328125 L 170.855469 157.3125 L 171.75 157.292969 L 172.648438 157.273438 L 173.542969 157.253906 L 174.441406 157.234375 L 175.335938 157.214844 L 176.234375 157.191406 L 177.128906 157.171875 L 178.925781 157.125 L 179.820312 157.101562 L 180.71875 157.082031 L 181.613281 157.058594 L 182.511719 157.035156 L 183.40625 157.015625 L 184.304688 156.996094 L 185.199219 156.976562 L 186.097656 156.957031 L 186.992188 156.941406 L 187.890625 156.925781 L 188.785156 156.910156 L 190.582031 156.886719 L 191.476562 156.875 L 192.375 156.867188 L 193.269531 156.855469 L 194.167969 156.851562 L 195.0625 156.84375 L 195.960938 156.839844 L 196.855469 156.835938 L 197.753906 156.832031 L 198.648438 156.832031 L 199.546875 156.828125 L 200.441406 156.828125 L 201.339844 156.824219 L 203.132812 156.824219 L 204.03125 156.820312 L 204.925781 156.820312 L 205.824219 156.816406 L 206.71875 156.816406 L 207.617188 156.8125 L 208.511719 156.808594 L 209.410156 156.804688 L 210.304688 156.800781 L 212.101562 156.792969 L 212.996094 156.785156 L 213.894531 156.78125 L 214.789062 156.773438 L 215.6875 156.765625 L 216.582031 156.757812 L 217.480469 156.75 L 218.375 156.742188 L 219.273438 156.734375 L 220.167969 156.726562 L 221.066406 156.714844 L 221.960938 156.707031 L 223.757812 156.683594 L 224.652344 156.671875 L 225.550781 156.65625 L 226.445312 156.640625 L 227.34375 156.625 L 228.238281 156.605469 L 229.136719 156.585938 L 230.03125 156.5625 L 230.929688 156.539062 L 231.824219 156.511719 L 232.722656 156.480469 L 233.617188 156.449219 L 235.414062 156.378906 L 236.308594 156.335938 L 237.207031 156.296875 L 238.101562 156.25 L 239 156.203125 L 239.894531 156.152344 L 240.792969 156.101562 L 241.6875 156.046875 L 242.585938 155.988281 L 243.480469 155.933594 L 244.378906 155.871094 L 245.273438 155.8125 L 247.070312 155.6875 L 247.964844 155.625 L 248.863281 155.5625 L 249.757812 155.496094 L 250.65625 155.433594 L 251.550781 155.371094 L 252.449219 155.308594 L 253.34375 155.246094 L 254.242188 155.179688 L 255.136719 155.117188 L 256.035156 155.054688 L 256.929688 154.992188 L 258.726562 154.867188 L 259.621094 154.800781 L 260.519531 154.738281 L 261.414062 154.667969 L 262.3125 154.601562 L 263.207031 154.527344 L 264.105469 154.453125 L 265 154.375 L 265.898438 154.292969 L 266.792969 154.207031 L 267.691406 154.113281 L 268.585938 154.015625 L 269.484375 153.914062 L 270.382812 153.808594 L 271.277344 153.691406 L 272.175781 153.570312 L 273.070312 153.441406 L 273.96875 153.304688 L 274.863281 153.164062 L 275.761719 153.011719 L 276.65625 152.855469 L 277.554688 152.695312 L 278.449219 152.523438 L 279.347656 152.351562 L 280.242188 152.171875 L 282.039062 151.796875 L 282.933594 151.601562 L 283.832031 151.40625 L 284.726562 151.210938 L 285.625 151.011719 L 286.519531 150.808594 L 287.417969 150.609375 L 288.3125 150.40625 L 289.210938 150.207031 L 290.105469 150.011719 L 291.003906 149.816406 L 291.898438 149.621094 L 293.695312 149.238281 L 294.589844 149.054688 L 295.488281 148.867188 L 296.382812 148.6875 L 297.28125 148.507812 L 298.175781 148.328125 L 299.074219 148.148438 L 299.96875 147.964844 L 300.867188 147.785156 L 301.761719 147.601562 L 302.660156 147.410156 L 303.558594 147.214844 L 304.453125 147.011719 L 305.351562 146.800781 L 306.246094 146.578125 L 307.144531 146.34375 L 308.039062 146.089844 L 308.9375 145.824219 L 309.832031 145.539062 L 310.730469 145.238281 L 311.625 144.90625 L 312.523438 144.554688 L 313.417969 144.175781 L 314.316406 143.769531 L 315.214844 143.339844 L 316.109375 142.871094 L 317.007812 142.367188 L 317.902344 141.835938 L 318.800781 141.265625 L 319.695312 140.664062 L 320.59375 140.019531 L 321.488281 139.335938 L 322.386719 138.613281 L 323.28125 137.851562 L 324.179688 137.050781 L 325.074219 136.199219 L 325.972656 135.304688 L 326.871094 134.367188 L 327.765625 133.390625 L 328.664062 132.367188 L 329.558594 131.292969 L 330.457031 130.167969 L 331.351562 129 L 332.25 127.789062 L 333.144531 126.53125 L 334.042969 125.21875 L 334.9375 123.855469 L 335.835938 122.445312 L 336.730469 120.992188 L 337.628906 119.496094 L 338.527344 117.945312 L 339.421875 116.351562 L 340.320312 114.714844 L 341.214844 113.039062 L 342.113281 111.332031 L 343.007812 109.582031 L 343.90625 107.800781 L 344.800781 105.996094 L 345.699219 104.167969 L 346.59375 102.320312 L 347.492188 100.464844 L 348.386719 98.601562 L 349.285156 96.738281 L 350.183594 94.882812 L 351.078125 93.039062 L 351.976562 91.222656 L 352.871094 89.433594 L 353.769531 87.683594 L 354.664062 85.976562 L 355.5625 84.316406 L 356.457031 82.71875 L 357.355469 81.191406 L 358.25 79.738281 L 359.148438 78.355469 L 360.042969 77.054688 L 360.941406 75.839844 L 361.839844 74.738281 L 362.734375 73.722656 L 363.632812 72.800781 L 364.527344 71.972656 L 365.425781 71.25 L 366.320312 70.644531 L 367.21875 70.136719 L 368.113281 69.722656 L 369.011719 69.398438 L 369.90625 69.175781 L 370.804688 69.0625 L 371.699219 69.03125 L 372.597656 69.082031 L 373.496094 69.210938 L 374.390625 69.417969 L 375.289062 69.714844 L 376.183594 70.078125 L 377.082031 70.496094 L 377.976562 70.976562 L 378.875 71.511719 L 379.769531 72.105469 L 380.667969 72.746094 L 381.5625 73.429688 L 382.460938 74.148438 L 383.355469 74.902344 L 384.253906 75.699219 L 385.152344 76.527344 L 386.046875 77.378906 L 386.945312 78.257812 L 387.839844 79.15625 L 388.738281 80.085938 L 389.632812 81.03125 L 390.53125 81.996094 L 391.425781 82.980469 L 392.324219 83.980469 L 393.21875 85 L 394.117188 86.035156 L 395.015625 87.082031 L 395.910156 88.148438 L 396.808594 89.226562 L 397.703125 90.324219 L 398.601562 91.433594 L 399.496094 92.558594 L 400.394531 93.699219 L 401.289062 94.855469 L 402.1875 96.027344 L 403.082031 97.214844 L 403.980469 98.417969 L 404.875 99.636719 L 405.773438 100.871094 L 406.671875 102.125 L 407.566406 103.394531 L 408.464844 104.679688 L 409.359375 105.980469 L 410.257812 107.296875 L 411.152344 108.632812 L 412.050781 109.980469 L 412.945312 111.34375 L 413.84375 112.71875 L 414.738281 114.101562 L 415.636719 115.5 L 416.53125 116.910156 L 417.429688 118.324219 L 418.328125 119.742188 L 419.222656 121.164062 L 420.121094 122.585938 L 421.015625 124.007812 L 421.914062 125.425781 L 422.808594 126.835938 L 423.707031 128.234375 L 424.601562 129.621094 L 425.5 130.992188 L 426.394531 132.339844 L 427.292969 133.671875 L 428.1875 134.980469 L 429.085938 136.257812 L 429.984375 137.5 L 430.878906 138.714844 L 431.777344 139.894531 L 432.671875 141.042969 L 433.570312 142.148438 L 434.464844 143.207031 L 435.363281 144.226562 L 436.257812 145.203125 L 437.15625 146.140625 L 438.050781 147.03125 L 438.949219 147.871094 L 439.84375 148.667969 L 440.742188 149.421875 L 441.640625 150.132812 L 442.535156 150.796875 L 443.433594 151.414062 L 444.328125 151.988281 L 445.226562 152.527344 L 446.121094 153.027344 L 447.019531 153.484375 L 447.914062 153.902344 L 448.8125 154.289062 L 449.707031 154.640625 L 450.605469 154.964844 L 451.5 155.257812 L 452.398438 155.519531 L 453.296875 155.757812 L 454.191406 155.972656 L 455.089844 156.164062 L 455.984375 156.339844 L 456.882812 156.488281 L 457.777344 156.621094 L 458.675781 156.742188 L 459.570312 156.847656 L 460.46875 156.941406 L 461.363281 157.019531 L 462.261719 157.089844 L 463.15625 157.152344 L 464.054688 157.207031 L 464.953125 157.253906 L 465.847656 157.289062 L 466.746094 157.324219 L 467.640625 157.351562 L 468.539062 157.378906 L 469.433594 157.398438 L 470.332031 157.414062 L 471.226562 157.429688 L 472.125 157.441406 L 473.019531 157.453125 L 473.917969 157.460938 L 474.8125 157.46875 L 475.710938 157.472656 L 476.609375 157.480469 L 477.503906 157.484375 L 478.402344 157.488281 L 479.296875 157.488281 L 480.195312 157.492188 L 481.089844 157.492188 "/>
<path fill-rule="nonzero" fill="rgb(0%, 74.901961%, 49.019608%)" fill-opacity="0.501961" d="M 22.910156 213.75 L 49.808594 213.75 L 50.703125 213.746094 L 55.1875 213.746094 L 56.085938 213.742188 L 56.980469 213.742188 L 57.878906 213.738281 L 58.773438 213.738281 L 59.671875 213.734375 L 60.566406 213.734375 L 61.464844 213.730469 L 62.359375 213.726562 L 63.257812 213.722656 L 64.15625 213.714844 L 65.050781 213.710938 L 65.949219 213.703125 L 66.84375 213.695312 L 67.742188 213.6875 L 68.636719 213.675781 L 69.535156 213.667969 L 70.429688 213.652344 L 71.328125 213.640625 L 72.222656 213.625 L 73.121094 213.609375 L 74.015625 213.589844 L 75.8125 213.542969 L 76.707031 213.519531 L 77.605469 213.492188 L 78.5 213.460938 L 79.398438 213.429688 L 80.292969 213.394531 L 81.191406 213.359375 L 82.085938 213.316406 L 82.984375 213.273438 L 83.878906 213.230469 L 84.777344 213.179688 L 85.671875 213.128906 L 86.570312 213.078125 L 87.46875 213.019531 L 88.363281 212.960938 L 89.261719 212.898438 L 90.15625 212.835938 L 91.054688 212.769531 L 91.949219 212.703125 L 92.847656 212.632812 L 93.742188 212.558594 L 94.640625 212.484375 L 95.535156 212.410156 L 96.433594 212.332031 L 97.328125 212.253906 L 98.226562 212.175781 L 99.125 212.09375 L 100.019531 212.015625 L 100.917969 211.933594 L 101.8125 211.851562 L 102.710938 211.773438 L 103.605469 211.691406 L 104.503906 211.609375 L 105.398438 211.53125 L 106.296875 211.449219 L 107.191406 211.371094 L 108.089844 211.292969 L 108.984375 211.214844 L 110.78125 211.058594 L 111.675781 210.984375 L 112.574219 210.90625 L 113.46875 210.832031 L 114.367188 210.757812 L 115.261719 210.683594 L 116.160156 210.605469 L 117.054688 210.53125 L 117.953125 210.453125 L 118.847656 210.375 L 119.746094 210.296875 L 120.644531 210.214844 L 121.539062 210.132812 L 122.4375 210.046875 L 123.332031 209.957031 L 124.230469 209.867188 L 125.125 209.769531 L 126.023438 209.667969 L 126.917969 209.5625 L 127.816406 209.453125 L 128.710938 209.339844 L 129.609375 209.21875 L 130.503906 209.09375 L 131.402344 208.960938 L 132.300781 208.824219 L 133.195312 208.679688 L 134.09375 208.527344 L 134.988281 208.371094 L 135.886719 208.207031 L 136.78125 208.039062 L 137.679688 207.863281 L 138.574219 207.683594 L 139.472656 207.496094 L 140.367188 207.300781 L 141.265625 207.101562 L 142.160156 206.898438 L 143.058594 206.691406 L 143.957031 206.476562 L 144.851562 206.261719 L 145.75 206.039062 L 146.644531 205.8125 L 147.542969 205.585938 L 148.4375 205.351562 L 149.335938 205.117188 L 150.230469 204.878906 L 151.128906 204.640625 L 152.023438 204.398438 L 152.921875 204.152344 L 153.816406 203.90625 L 154.714844 203.65625 L 155.613281 203.410156 L 156.507812 203.160156 L 157.40625 202.910156 L 158.300781 202.65625 L 159.199219 202.40625 L 160.09375 202.15625 L 160.992188 201.90625 L 161.886719 201.65625 L 162.785156 201.40625 L 163.679688 201.15625 L 164.578125 200.910156 L 165.472656 200.667969 L 167.269531 200.183594 L 168.164062 199.949219 L 169.0625 199.714844 L 169.957031 199.484375 L 170.855469 199.257812 L 171.75 199.035156 L 172.648438 198.816406 L 173.542969 198.601562 L 174.441406 198.390625 L 175.335938 198.1875 L 176.234375 197.988281 L 177.128906 197.792969 L 178.027344 197.605469 L 178.925781 197.421875 L 179.820312 197.242188 L 180.71875 197.074219 L 181.613281 196.910156 L 182.511719 196.75 L 183.40625 196.597656 L 184.304688 196.453125 L 185.199219 196.316406 L 186.097656 196.1875 L 186.992188 196.0625 L 187.890625 195.945312 L 188.785156 195.835938 L 189.683594 195.738281 L 190.582031 195.644531 L 191.476562 195.558594 L 192.375 195.476562 L 193.269531 195.40625 L 194.167969 195.34375 L 195.0625 195.289062 L 195.960938 195.238281 L 196.855469 195.195312 L 197.753906 195.15625 L 198.648438 195.125 L 199.546875 195.101562 L 200.441406 195.082031 L 201.339844 195.066406 L 202.238281 195.054688 L 203.132812 195.050781 L 204.03125 195.046875 L 205.824219 195.046875 L 206.71875 195.050781 L 207.617188 195.054688 L 208.511719 195.058594 L 209.410156 195.0625 L 210.304688 195.0625 L 211.203125 195.066406 L 212.996094 195.066406 L 213.894531 195.0625 L 214.789062 195.054688 L 215.6875 195.042969 L 216.582031 195.03125 L 217.480469 195.015625 L 218.375 194.996094 L 219.273438 194.972656 L 220.167969 194.945312 L 221.066406 194.914062 L 221.960938 194.882812 L 223.757812 194.804688 L 224.652344 194.761719 L 225.550781 194.71875 L 226.445312 194.667969 L 227.34375 194.621094 L 228.238281 194.566406 L 229.136719 194.511719 L 230.03125 194.457031 L 230.929688 194.398438 L 231.824219 194.339844 L 232.722656 194.28125 L 233.617188 194.21875 L 234.515625 194.15625 L 235.414062 194.089844 L 236.308594 194.023438 L 237.207031 193.953125 L 238.101562 193.878906 L 239 193.804688 L 239.894531 193.726562 L 240.792969 193.644531 L 241.6875 193.558594 L 242.585938 193.46875 L 243.480469 193.371094 L 244.378906 193.265625 L 245.273438 193.15625 L 246.171875 193.039062 L 247.070312 192.914062 L 247.964844 192.777344 L 248.863281 192.632812 L 249.757812 192.480469 L 250.65625 192.316406 L 251.550781 192.140625 L 252.449219 191.953125 L 253.34375 191.753906 L 254.242188 191.546875 L 255.136719 191.324219 L 256.035156 191.09375 L 256.929688 190.851562 L 257.828125 190.597656 L 258.726562 190.335938 L 259.621094 190.0625 L 260.519531 189.785156 L 261.414062 189.496094 L 262.3125 189.203125 L 263.207031 188.902344 L 264.105469 188.597656 L 265 188.292969 L 265.898438 187.984375 L 266.792969 187.671875 L 267.691406 187.363281 L 268.585938 187.058594 L 269.484375 186.753906 L 270.382812 186.453125 L 271.277344 186.15625 L 272.175781 185.867188 L 273.070312 185.585938 L 273.96875 185.308594 L 274.863281 185.042969 L 275.761719 184.785156 L 276.65625 184.535156 L 277.554688 184.296875 L 278.449219 184.066406 L 279.347656 183.847656 L 280.242188 183.640625 L 281.140625 183.441406 L 282.039062 183.25 L 282.933594 183.070312 L 283.832031 182.898438 L 284.726562 182.738281 L 285.625 182.589844 L 286.519531 182.445312 L 287.417969 182.308594 L 288.3125 182.179688 L 289.210938 182.0625 L 290.105469 181.949219 L 291.003906 181.84375 L 291.898438 181.742188 L 292.796875 181.644531 L 293.695312 181.554688 L 294.589844 181.46875 L 295.488281 181.390625 L 296.382812 181.3125 L 297.28125 181.234375 L 298.175781 181.164062 L 299.074219 181.09375 L 299.96875 181.027344 L 300.867188 180.960938 L 301.761719 180.894531 L 302.660156 180.832031 L 303.558594 180.765625 L 304.453125 180.703125 L 305.351562 180.640625 L 306.246094 180.578125 L 307.144531 180.515625 L 308.039062 180.453125 L 308.9375 180.390625 L 309.832031 180.324219 L 310.730469 180.261719 L 311.625 180.195312 L 312.523438 180.132812 L 313.417969 180.066406 L 314.316406 180.003906 L 315.214844 179.9375 L 316.109375 179.875 L 317.007812 179.808594 L 317.902344 179.746094 L 318.800781 179.683594 L 319.695312 179.617188 L 320.59375 179.554688 L 321.488281 179.488281 L 322.386719 179.425781 L 323.28125 179.359375 L 324.179688 179.292969 L 325.074219 179.222656 L 325.972656 179.15625 L 326.871094 179.085938 L 327.765625 179.011719 L 328.664062 178.9375 L 329.558594 178.855469 L 330.457031 178.773438 L 331.351562 178.6875 L 332.25 178.597656 L 333.144531 178.503906 L 334.042969 178.40625 L 334.9375 178.300781 L 335.835938 178.195312 L 336.730469 178.082031 L 338.527344 177.839844 L 339.421875 177.710938 L 340.320312 177.582031 L 341.214844 177.445312 L 342.113281 177.308594 L 343.007812 177.167969 L 343.90625 177.027344 L 344.800781 176.886719 L 345.699219 176.746094 L 346.59375 176.609375 L 347.492188 176.472656 L 348.386719 176.34375 L 349.285156 176.21875 L 350.183594 176.105469 L 351.078125 175.996094 L 351.976562 175.902344 L 352.871094 175.820312 L 353.769531 175.753906 L 354.664062 175.703125 L 355.5625 175.664062 L 356.457031 175.652344 L 357.355469 175.660156 L 358.25 175.6875 L 359.148438 175.742188 L 360.042969 175.816406 L 360.941406 175.917969 L 361.839844 176.050781 L 362.734375 176.207031 L 363.632812 176.390625 L 364.527344 176.601562 L 365.425781 176.839844 L 366.320312 177.109375 L 367.21875 177.40625 L 368.113281 177.730469 L 369.011719 178.074219 L 369.90625 178.449219 L 370.804688 178.847656 L 371.699219 179.273438 L 372.597656 179.714844 L 373.496094 180.179688 L 374.390625 180.660156 L 375.289062 181.160156 L 376.183594 181.675781 L 377.082031 182.207031 L 377.976562 182.746094 L 378.875 183.296875 L 379.769531 183.855469 L 380.667969 184.425781 L 381.5625 184.996094 L 382.460938 185.570312 L 383.355469 186.148438 L 384.253906 186.722656 L 385.152344 187.300781 L 386.046875 187.875 L 386.945312 188.445312 L 387.839844 189.011719 L 388.738281 189.570312 L 389.632812 190.125 L 390.53125 190.671875 L 391.425781 191.210938 L 392.324219 191.742188 L 393.21875 192.261719 L 394.117188 192.777344 L 395.015625 193.277344 L 395.910156 193.773438 L 396.808594 194.257812 L 397.703125 194.730469 L 398.601562 195.195312 L 399.496094 195.648438 L 400.394531 196.09375 L 401.289062 196.527344 L 402.1875 196.953125 L 403.082031 197.367188 L 403.980469 197.777344 L 404.875 198.175781 L 405.773438 198.566406 L 406.671875 198.945312 L 407.566406 199.320312 L 408.464844 199.6875 L 409.359375 200.046875 L 410.257812 200.398438 L 411.152344 200.742188 L 412.050781 201.082031 L 412.945312 201.414062 L 413.84375 201.742188 L 414.738281 202.066406 L 415.636719 202.382812 L 416.53125 202.695312 L 417.429688 203.003906 L 418.328125 203.308594 L 419.222656 203.609375 L 420.121094 203.90625 L 421.015625 204.199219 L 421.914062 204.492188 L 422.808594 204.777344 L 423.707031 205.0625 L 424.601562 205.34375 L 425.5 205.625 L 426.394531 205.902344 L 427.292969 206.179688 L 428.1875 206.449219 L 429.085938 206.722656 L 429.984375 206.988281 L 430.878906 207.257812 L 431.777344 207.519531 L 432.671875 207.78125 L 433.570312 208.039062 L 434.464844 208.296875 L 435.363281 208.546875 L 436.257812 208.796875 L 437.15625 209.042969 L 438.050781 209.285156 L 438.949219 209.519531 L 439.84375 209.753906 L 440.742188 209.980469 L 441.640625 210.203125 L 442.535156 210.417969 L 443.433594 210.628906 L 444.328125 210.832031 L 445.226562 211.03125 L 446.121094 211.21875 L 447.019531 211.402344 L 447.914062 211.578125 L 448.8125 211.742188 L 449.707031 211.902344 L 450.605469 212.054688 L 451.5 212.199219 L 452.398438 212.332031 L 453.296875 212.460938 L 454.191406 212.578125 L 455.089844 212.691406 L 455.984375 212.796875 L 456.882812 212.890625 L 457.777344 212.980469 L 458.675781 213.0625 L 459.570312 213.136719 L 460.46875 213.207031 L 461.363281 213.269531 L 462.261719 213.324219 L 463.15625 213.375 L 464.054688 213.421875 L 464.953125 213.464844 L 465.847656 213.5 L 466.746094 213.535156 L 467.640625 213.5625 L 468.539062 213.589844 L 469.433594 213.613281 L 470.332031 213.632812 L 471.226562 213.648438 L 472.125 213.664062 L 473.019531 213.679688 L 473.917969 213.691406 L 474.8125 213.699219 L 476.609375 213.714844 L 477.503906 213.71875 L 478.402344 213.726562 L 479.296875 213.730469 L 480.195312 213.734375 L 481.089844 213.738281 L 481.089844 213.75 Z M 22.910156 213.75 "/>
<path fill="none" stroke-width="1.066978" stroke-linecap="round" stroke-linejoin="round" stroke="rgb(0%, 74.901961%, 49.019608%)" stroke-opacity="1" stroke-miterlimit="10" d="M 22.910156 213.75 L 49.808594 213.75 L 50.703125 213.746094 L 55.1875 213.746094 L 56.085938 213.742188 L 56.980469 213.742188 L 57.878906 213.738281 L 58.773438 213.738281 L 59.671875 213.734375 L 60.566406 213.734375 L 61.464844 213.730469 L 62.359375 213.726562 L 63.257812 213.722656 L 64.15625 213.714844 L 65.050781 213.710938 L 65.949219 213.703125 L 66.84375 213.695312 L 67.742188 213.6875 L 68.636719 213.675781 L 69.535156 213.667969 L 70.429688 213.652344 L 71.328125 213.640625 L 72.222656 213.625 L 73.121094 213.609375 L 74.015625 213.589844 L 75.8125 213.542969 L 76.707031 213.519531 L 77.605469 213.492188 L 78.5 213.460938 L 79.398438 213.429688 L 80.292969 213.394531 L 81.191406 213.359375 L 82.085938 213.316406 L 82.984375 213.273438 L 83.878906 213.230469 L 84.777344 213.179688 L 85.671875 213.128906 L 86.570312 213.078125 L 87.46875 213.019531 L 88.363281 212.960938 L 89.261719 212.898438 L 90.15625 212.835938 L 91.054688 212.769531 L 91.949219 212.703125 L 92.847656 212.632812 L 93.742188 212.558594 L 94.640625 212.484375 L 95.535156 212.410156 L 96.433594 212.332031 L 97.328125 212.253906 L 98.226562 212.175781 L 99.125 212.09375 L 100.019531 212.015625 L 100.917969 211.933594 L 101.8125 211.851562 L 102.710938 211.773438 L 103.605469 211.691406 L 104.503906 211.609375 L 105.398438 211.53125 L 106.296875 211.449219 L 107.191406 211.371094 L 108.089844 211.292969 L 108.984375 211.214844 L 110.78125 211.058594 L 111.675781 210.984375 L 112.574219 210.90625 L 113.46875 210.832031 L 114.367188 210.757812 L 115.261719 210.683594 L 116.160156 210.605469 L 117.054688 210.53125 L 117.953125 210.453125 L 118.847656 210.375 L 119.746094 210.296875 L 120.644531 210.214844 L 121.539062 210.132812 L 122.4375 210.046875 L 123.332031 209.957031 L 124.230469 209.867188 L 125.125 209.769531 L 126.023438 209.667969 L 126.917969 209.5625 L 127.816406 209.453125 L 128.710938 209.339844 L 129.609375 209.21875 L 130.503906 209.09375 L 131.402344 208.960938 L 132.300781 208.824219 L 133.195312 208.679688 L 134.09375 208.527344 L 134.988281 208.371094 L 135.886719 208.207031 L 136.78125 208.039062 L 137.679688 207.863281 L 138.574219 207.683594 L 139.472656 207.496094 L 140.367188 207.300781 L 141.265625 207.101562 L 142.160156 206.898438 L 143.058594 206.691406 L 143.957031 206.476562 L 144.851562 206.261719 L 145.75 206.039062 L 146.644531 205.8125 L 147.542969 205.585938 L 148.4375 205.351562 L 149.335938 205.117188 L 150.230469 204.878906 L 151.128906 204.640625 L 152.023438 204.398438 L 152.921875 204.152344 L 153.816406 203.90625 L 154.714844 203.65625 L 155.613281 203.410156 L 156.507812 203.160156 L 157.40625 202.910156 L 158.300781 202.65625 L 159.199219 202.40625 L 160.09375 202.15625 L 160.992188 201.90625 L 161.886719 201.65625 L 162.785156 201.40625 L 163.679688 201.15625 L 164.578125 200.910156 L 165.472656 200.667969 L 167.269531 200.183594 L 168.164062 199.949219 L 169.0625 199.714844 L 169.957031 199.484375 L 170.855469 199.257812 L 171.75 199.035156 L 172.648438 198.816406 L 173.542969 198.601562 L 174.441406 198.390625 L 175.335938 198.1875 L 176.234375 197.988281 L 177.128906 197.792969 L 178.027344 197.605469 L 178.925781 197.421875 L 179.820312 197.242188 L 180.71875 197.074219 L 181.613281 196.910156 L 182.511719 196.75 L 183.40625 196.597656 L 184.304688 196.453125 L 185.199219 196.316406 L 186.097656 196.1875 L 186.992188 196.0625 L 187.890625 195.945312 L 188.785156 195.835938 L 189.683594 195.738281 L 190.582031 195.644531 L 191.476562 195.558594 L 192.375 195.476562 L 193.269531 195.40625 L 194.167969 195.34375 L 195.0625 195.289062 L 195.960938 195.238281 L 196.855469 195.195312 L 197.753906 195.15625 L 198.648438 195.125 L 199.546875 195.101562 L 200.441406 195.082031 L 201.339844 195.066406 L 202.238281 195.054688 L 203.132812 195.050781 L 204.03125 195.046875 L 205.824219 195.046875 L 206.71875 195.050781 L 207.617188 195.054688 L 208.511719 195.058594 L 209.410156 195.0625 L 210.304688 195.0625 L 211.203125 195.066406 L 212.996094 195.066406 L 213.894531 195.0625 L 214.789062 195.054688 L 215.6875 195.042969 L 216.582031 195.03125 L 217.480469 195.015625 L 218.375 194.996094 L 219.273438 194.972656 L 220.167969 194.945312 L 221.066406 194.914062 L 221.960938 194.882812 L 223.757812 194.804688 L 224.652344 194.761719 L 225.550781 194.71875 L 226.445312 194.667969 L 227.34375 194.621094 L 228.238281 194.566406 L 229.136719 194.511719 L 230.03125 194.457031 L 230.929688 194.398438 L 231.824219 194.339844 L 232.722656 194.28125 L 233.617188 194.21875 L 234.515625 194.15625 L 235.414062 194.089844 L 236.308594 194.023438 L 237.207031 193.953125 L 238.101562 193.878906 L 239 193.804688 L 239.894531 193.726562 L 240.792969 193.644531 L 241.6875 193.558594 L 242.585938 193.46875 L 243.480469 193.371094 L 244.378906 193.265625 L 245.273438 193.15625 L 246.171875 193.039062 L 247.070312 192.914062 L 247.964844 192.777344 L 248.863281 192.632812 L 249.757812 192.480469 L 250.65625 192.316406 L 251.550781 192.140625 L 252.449219 191.953125 L 253.34375 191.753906 L 254.242188 191.546875 L 255.136719 191.324219 L 256.035156 191.09375 L 256.929688 190.851562 L 257.828125 190.597656 L 258.726562 190.335938 L 259.621094 190.0625 L 260.519531 189.785156 L 261.414062 189.496094 L 262.3125 189.203125 L 263.207031 188.902344 L 264.105469 188.597656 L 265 188.292969 L 265.898438 187.984375 L 266.792969 187.671875 L 267.691406 187.363281 L 268.585938 187.058594 L 269.484375 186.753906 L 270.382812 186.453125 L 271.277344 186.15625 L 272.175781 185.867188 L 273.070312 185.585938 L 273.96875 185.308594 L 274.863281 185.042969 L 275.761719 184.785156 L 276.65625 184.535156 L 277.554688 184.296875 L 278.449219 184.066406 L 279.347656 183.847656 L 280.242188 183.640625 L 281.140625 183.441406 L 282.039062 183.25 L 282.933594 183.070312 L 283.832031 182.898438 L 284.726562 182.738281 L 285.625 182.589844 L 286.519531 182.445312 L 287.417969 182.308594 L 288.3125 182.179688 L 289.210938 182.0625 L 290.105469 181.949219 L 291.003906 181.84375 L 291.898438 181.742188 L 292.796875 181.644531 L 293.695312 181.554688 L 294.589844 181.46875 L 295.488281 181.390625 L 296.382812 181.3125 L 297.28125 181.234375 L 298.175781 181.164062 L 299.074219 181.09375 L 299.96875 181.027344 L 300.867188 180.960938 L 301.761719 180.894531 L 302.660156 180.832031 L 303.558594 180.765625 L 304.453125 180.703125 L 305.351562 180.640625 L 306.246094 180.578125 L 307.144531 180.515625 L 308.039062 180.453125 L 308.9375 180.390625 L 309.832031 180.324219 L 310.730469 180.261719 L 311.625 180.195312 L 312.523438 180.132812 L 313.417969 180.066406 L 314.316406 180.003906 L 315.214844 179.9375 L 316.109375 179.875 L 317.007812 179.808594 L 317.902344 179.746094 L 318.800781 179.683594 L 319.695312 179.617188 L 320.59375 179.554688 L 321.488281 179.488281 L 322.386719 179.425781 L 323.28125 179.359375 L 324.179688 179.292969 L 325.074219 179.222656 L 325.972656 179.15625 L 326.871094 179.085938 L 327.765625 179.011719 L 328.664062 178.9375 L 329.558594 178.855469 L 330.457031 178.773438 L 331.351562 178.6875 L 332.25 178.597656 L 333.144531 178.503906 L 334.042969 178.40625 L 334.9375 178.300781 L 335.835938 178.195312 L 336.730469 178.082031 L 338.527344 177.839844 L 339.421875 177.710938 L 340.320312 177.582031 L 341.214844 177.445312 L 342.113281 177.308594 L 343.007812 177.167969 L 343.90625 177.027344 L 344.800781 176.886719 L 345.699219 176.746094 L 346.59375 176.609375 L 347.492188 176.472656 L 348.386719 176.34375 L 349.285156 176.21875 L 350.183594 176.105469 L 351.078125 175.996094 L 351.976562 175.902344 L 352.871094 175.820312 L 353.769531 175.753906 L 354.664062 175.703125 L 355.5625 175.664062 L 356.457031 175.652344 L 357.355469 175.660156 L 358.25 175.6875 L 359.148438 175.742188 L 360.042969 175.816406 L 360.941406 175.917969 L 361.839844 176.050781 L 362.734375 176.207031 L 363.632812 176.390625 L 364.527344 176.601562 L 365.425781 176.839844 L 366.320312 177.109375 L 367.21875 177.40625 L 368.113281 177.730469 L 369.011719 178.074219 L 369.90625 178.449219 L 370.804688 178.847656 L 371.699219 179.273438 L 372.597656 179.714844 L 373.496094 180.179688 L 374.390625 180.660156 L 375.289062 181.160156 L 376.183594 181.675781 L 377.082031 182.207031 L 377.976562 182.746094 L 378.875 183.296875 L 379.769531 183.855469 L 380.667969 184.425781 L 381.5625 184.996094 L 382.460938 185.570312 L 383.355469 186.148438 L 384.253906 186.722656 L 385.152344 187.300781 L 386.046875 187.875 L 386.945312 188.445312 L 387.839844 189.011719 L 388.738281 189.570312 L 389.632812 190.125 L 390.53125 190.671875 L 391.425781 191.210938 L 392.324219 191.742188 L 393.21875 192.261719 L 394.117188 192.777344 L 395.015625 193.277344 L 395.910156 193.773438 L 396.808594 194.257812 L 397.703125 194.730469 L 398.601562 195.195312 L 399.496094 195.648438 L 400.394531 196.09375 L 401.289062 196.527344 L 402.1875 196.953125 L 403.082031 197.367188 L 403.980469 197.777344 L 404.875 198.175781 L 405.773438 198.566406 L 406.671875 198.945312 L 407.566406 199.320312 L 408.464844 199.6875 L 409.359375 200.046875 L 410.257812 200.398438 L 411.152344 200.742188 L 412.050781 201.082031 L 412.945312 201.414062 L 413.84375 201.742188 L 414.738281 202.066406 L 415.636719 202.382812 L 416.53125 202.695312 L 417.429688 203.003906 L 418.328125 203.308594 L 419.222656 203.609375 L 420.121094 203.90625 L 421.015625 204.199219 L 421.914062 204.492188 L 422.808594 204.777344 L 423.707031 205.0625 L 424.601562 205.34375 L 425.5 205.625 L 426.394531 205.902344 L 427.292969 206.179688 L 428.1875 206.449219 L 429.085938 206.722656 L 429.984375 206.988281 L 430.878906 207.257812 L 431.777344 207.519531 L 432.671875 207.78125 L 433.570312 208.039062 L 434.464844 208.296875 L 435.363281 208.546875 L 436.257812 208.796875 L 437.15625 209.042969 L 438.050781 209.285156 L 438.949219 209.519531 L 439.84375 209.753906 L 440.742188 209.980469 L 441.640625 210.203125 L 442.535156 210.417969 L 443.433594 210.628906 L 444.328125 210.832031 L 445.226562 211.03125 L 446.121094 211.21875 L 447.019531 211.402344 L 447.914062 211.578125 L 448.8125 211.742188 L 449.707031 211.902344 L 450.605469 212.054688 L 451.5 212.199219 L 452.398438 212.332031 L 453.296875 212.460938 L 454.191406 212.578125 L 455.089844 212.691406 L 455.984375 212.796875 L 456.882812 212.890625 L 457.777344 212.980469 L 458.675781 213.0625 L 459.570312 213.136719 L 460.46875 213.207031 L 461.363281 213.269531 L 462.261719 213.324219 L 463.15625 213.375 L 464.054688 213.421875 L 464.953125 213.464844 L 465.847656 213.5 L 466.746094 213.535156 L 467.640625 213.5625 L 468.539062 213.589844 L 469.433594 213.613281 L 470.332031 213.632812 L 471.226562 213.648438 L 472.125 213.664062 L 473.019531 213.679688 L 473.917969 213.691406 L 474.8125 213.699219 L 476.609375 213.714844 L 477.503906 213.71875 L 478.402344 213.726562 L 479.296875 213.730469 L 480.195312 213.734375 L 481.089844 213.738281 "/>
<path fill-rule="nonzero" fill="rgb(63.921569%, 64.705882%, 0%)" fill-opacity="0.501961" d="M 22.910156 270 L 104.503906 270 L 105.398438 269.996094 L 109.882812 269.996094 L 110.78125 269.992188 L 111.675781 269.992188 L 112.574219 269.988281 L 113.46875 269.988281 L 114.367188 269.984375 L 115.261719 269.984375 L 116.160156 269.980469 L 117.054688 269.976562 L 117.953125 269.972656 L 118.847656 269.96875 L 120.644531 269.953125 L 121.539062 269.949219 L 122.4375 269.9375 L 123.332031 269.929688 L 124.230469 269.917969 L 125.125 269.910156 L 126.023438 269.894531 L 126.917969 269.878906 L 127.816406 269.863281 L 128.710938 269.847656 L 129.609375 269.828125 L 130.503906 269.808594 L 131.402344 269.785156 L 132.300781 269.757812 L 133.195312 269.734375 L 134.09375 269.703125 L 134.988281 269.671875 L 135.886719 269.640625 L 136.78125 269.601562 L 137.679688 269.566406 L 138.574219 269.523438 L 139.472656 269.480469 L 140.367188 269.433594 L 141.265625 269.386719 L 142.160156 269.335938 L 143.058594 269.28125 L 143.957031 269.222656 L 144.851562 269.160156 L 145.75 269.097656 L 146.644531 269.027344 L 147.542969 268.957031 L 148.4375 268.882812 L 149.335938 268.800781 L 150.230469 268.71875 L 151.128906 268.628906 L 152.023438 268.539062 L 152.921875 268.441406 L 153.816406 268.335938 L 154.714844 268.226562 L 155.613281 268.113281 L 156.507812 267.992188 L 157.40625 267.867188 L 158.300781 267.734375 L 159.199219 267.59375 L 160.09375 267.449219 L 160.992188 267.300781 L 161.886719 267.140625 L 162.785156 266.976562 L 163.679688 266.804688 L 164.578125 266.628906 L 165.472656 266.449219 L 166.371094 266.261719 L 167.269531 266.066406 L 168.164062 265.867188 L 169.0625 265.664062 L 169.957031 265.457031 L 170.855469 265.25 L 171.75 265.035156 L 172.648438 264.820312 L 173.542969 264.601562 L 174.441406 264.386719 L 175.335938 264.164062 L 176.234375 263.945312 L 177.128906 263.730469 L 178.027344 263.511719 L 178.925781 263.296875 L 179.820312 263.082031 L 180.71875 262.875 L 181.613281 262.667969 L 182.511719 262.464844 L 183.40625 262.261719 L 184.304688 262.070312 L 185.199219 261.878906 L 186.097656 261.695312 L 186.992188 261.515625 L 187.890625 261.339844 L 188.785156 261.171875 L 189.683594 261.011719 L 190.582031 260.855469 L 191.476562 260.703125 L 192.375 260.558594 L 193.269531 260.421875 L 194.167969 260.289062 L 195.0625 260.164062 L 195.960938 260.042969 L 196.855469 259.929688 L 197.753906 259.816406 L 198.648438 259.714844 L 199.546875 259.613281 L 200.441406 259.519531 L 202.238281 259.339844 L 203.132812 259.257812 L 204.03125 259.175781 L 204.925781 259.097656 L 205.824219 259.019531 L 206.71875 258.945312 L 207.617188 258.871094 L 208.511719 258.796875 L 209.410156 258.722656 L 210.304688 258.644531 L 211.203125 258.570312 L 212.101562 258.492188 L 212.996094 258.414062 L 213.894531 258.332031 L 214.789062 258.25 L 215.6875 258.164062 L 216.582031 258.074219 L 217.480469 257.984375 L 218.375 257.890625 L 219.273438 257.796875 L 220.167969 257.699219 L 221.066406 257.597656 L 221.960938 257.496094 L 222.859375 257.394531 L 223.757812 257.289062 L 224.652344 257.1875 L 225.550781 257.082031 L 226.445312 256.976562 L 227.34375 256.871094 L 228.238281 256.769531 L 229.136719 256.664062 L 230.03125 256.5625 L 230.929688 256.460938 L 231.824219 256.359375 L 232.722656 256.257812 L 233.617188 256.160156 L 235.414062 255.957031 L 236.308594 255.855469 L 237.207031 255.753906 L 238.101562 255.648438 L 239 255.539062 L 239.894531 255.421875 L 240.792969 255.304688 L 241.6875 255.175781 L 242.585938 255.042969 L 243.480469 254.902344 L 244.378906 254.75 L 245.273438 254.585938 L 246.171875 254.414062 L 247.070312 254.230469 L 247.964844 254.03125 L 248.863281 253.820312 L 249.757812 253.597656 L 250.65625 253.359375 L 251.550781 253.109375 L 252.449219 252.847656 L 253.34375 252.566406 L 254.242188 252.277344 L 255.136719 251.976562 L 256.035156 251.667969 L 256.929688 251.34375 L 257.828125 251.015625 L 258.726562 250.675781 L 259.621094 250.332031 L 260.519531 249.984375 L 261.414062 249.632812 L 262.3125 249.28125 L 263.207031 248.929688 L 264.105469 248.578125 L 265 248.226562 L 265.898438 247.882812 L 266.792969 247.546875 L 267.691406 247.214844 L 268.585938 246.890625 L 269.484375 246.578125 L 270.382812 246.273438 L 271.277344 245.984375 L 272.175781 245.703125 L 273.070312 245.4375 L 273.96875 245.179688 L 274.863281 244.9375 L 275.761719 244.710938 L 276.65625 244.496094 L 277.554688 244.296875 L 278.449219 244.105469 L 279.347656 243.929688 L 280.242188 243.765625 L 281.140625 243.613281 L 282.039062 243.472656 L 282.933594 243.335938 L 283.832031 243.210938 L 284.726562 243.097656 L 285.625 242.984375 L 286.519531 242.878906 L 287.417969 242.777344 L 288.3125 242.679688 L 289.210938 242.582031 L 290.105469 242.484375 L 291.003906 242.386719 L 291.898438 242.285156 L 292.796875 242.179688 L 293.695312 242.070312 L 294.589844 241.953125 L 295.488281 241.828125 L 296.382812 241.699219 L 297.28125 241.558594 L 298.175781 241.410156 L 299.074219 241.25 L 299.96875 241.078125 L 300.867188 240.894531 L 301.761719 240.703125 L 302.660156 240.492188 L 303.558594 240.269531 L 304.453125 240.039062 L 305.351562 239.792969 L 306.246094 239.535156 L 307.144531 239.261719 L 308.039062 238.972656 L 308.9375 238.671875 L 309.832031 238.363281 L 310.730469 238.039062 L 311.625 237.699219 L 312.523438 237.347656 L 313.417969 236.984375 L 314.316406 236.609375 L 315.214844 236.222656 L 316.109375 235.820312 L 317.007812 235.40625 L 317.902344 234.984375 L 318.800781 234.546875 L 319.695312 234.101562 L 320.59375 233.644531 L 321.488281 233.171875 L 322.386719 232.691406 L 323.28125 232.203125 L 324.179688 231.703125 L 325.074219 231.1875 L 325.972656 230.664062 L 326.871094 230.128906 L 327.765625 229.582031 L 328.664062 229.03125 L 329.558594 228.464844 L 330.457031 227.886719 L 331.351562 227.304688 L 332.25 226.710938 L 333.144531 226.109375 L 334.042969 225.5 L 334.9375 224.882812 L 335.835938 224.257812 L 336.730469 223.628906 L 337.628906 223 L 338.527344 222.363281 L 339.421875 221.726562 L 340.320312 221.089844 L 341.214844 220.457031 L 342.113281 219.824219 L 343.007812 219.199219 L 343.90625 218.585938 L 344.800781 217.980469 L 345.699219 217.390625 L 346.59375 216.8125 L 347.492188 216.253906 L 348.386719 215.71875 L 349.285156 215.203125 L 350.183594 214.71875 L 351.078125 214.257812 L 351.976562 213.828125 L 352.871094 213.4375 L 353.769531 213.082031 L 354.664062 212.765625 L 355.5625 212.484375 L 356.457031 212.246094 L 357.355469 212.058594 L 358.25 211.914062 L 359.148438 211.816406 L 360.042969 211.757812 L 360.941406 211.753906 L 361.839844 211.804688 L 362.734375 211.898438 L 363.632812 212.042969 L 364.527344 212.230469 L 365.425781 212.464844 L 366.320312 212.757812 L 367.21875 213.09375 L 368.113281 213.472656 L 369.011719 213.890625 L 369.90625 214.355469 L 370.804688 214.863281 L 371.699219 215.410156 L 372.597656 215.992188 L 373.496094 216.609375 L 374.390625 217.257812 L 375.289062 217.945312 L 376.183594 218.660156 L 377.082031 219.398438 L 377.976562 220.160156 L 378.875 220.949219 L 379.769531 221.761719 L 380.667969 222.589844 L 381.5625 223.4375 L 382.460938 224.296875 L 383.355469 225.171875 L 384.253906 226.058594 L 385.152344 226.953125 L 386.046875 227.859375 L 386.945312 228.769531 L 387.839844 229.683594 L 388.738281 230.601562 L 389.632812 231.519531 L 390.53125 232.441406 L 391.425781 233.359375 L 392.324219 234.277344 L 393.21875 235.191406 L 395.015625 237.003906 L 395.910156 237.902344 L 396.808594 238.796875 L 397.703125 239.683594 L 398.601562 240.558594 L 399.496094 241.429688 L 400.394531 242.292969 L 401.289062 243.148438 L 402.1875 243.992188 L 403.082031 244.828125 L 403.980469 245.660156 L 404.875 246.480469 L 405.773438 247.292969 L 406.671875 248.09375 L 407.566406 248.886719 L 408.464844 249.675781 L 409.359375 250.453125 L 410.257812 251.222656 L 411.152344 251.980469 L 412.050781 252.730469 L 412.945312 253.472656 L 413.84375 254.203125 L 414.738281 254.921875 L 415.636719 255.632812 L 416.53125 256.328125 L 417.429688 257.011719 L 418.328125 257.683594 L 419.222656 258.339844 L 420.121094 258.984375 L 421.015625 259.609375 L 421.914062 260.21875 L 422.808594 260.808594 L 423.707031 261.386719 L 424.601562 261.941406 L 425.5 262.472656 L 426.394531 262.988281 L 427.292969 263.484375 L 428.1875 263.960938 L 429.085938 264.414062 L 429.984375 264.839844 L 430.878906 265.25 L 431.777344 265.636719 L 432.671875 266.003906 L 433.570312 266.347656 L 434.464844 266.667969 L 435.363281 266.96875 L 436.257812 267.25 L 437.15625 267.515625 L 438.050781 267.757812 L 438.949219 267.980469 L 439.84375 268.183594 L 440.742188 268.375 L 441.640625 268.550781 L 442.535156 268.710938 L 443.433594 268.851562 L 444.328125 268.984375 L 445.226562 269.101562 L 446.121094 269.210938 L 447.019531 269.308594 L 447.914062 269.390625 L 448.8125 269.46875 L 449.707031 269.539062 L 450.605469 269.597656 L 451.5 269.652344 L 452.398438 269.699219 L 453.296875 269.742188 L 454.191406 269.777344 L 455.089844 269.808594 L 455.984375 269.839844 L 456.882812 269.863281 L 457.777344 269.882812 L 458.675781 269.902344 L 459.570312 269.917969 L 460.46875 269.929688 L 461.363281 269.941406 L 462.261719 269.949219 L 463.15625 269.960938 L 464.054688 269.964844 L 464.953125 269.972656 L 465.847656 269.976562 L 466.746094 269.980469 L 467.640625 269.984375 L 468.539062 269.988281 L 469.433594 269.988281 L 470.332031 269.992188 L 471.226562 269.992188 L 472.125 269.996094 L 475.710938 269.996094 L 476.609375 270 L 481.089844 270 Z M 22.910156 270 "/>
<path fill="none" stroke-width="1.066978" stroke-linecap="round" stroke-linejoin="round" stroke="rgb(63.921569%, 64.705882%, 0%)" stroke-opacity="1" stroke-miterlimit="10" d="M 22.910156 270 L 104.503906 270 L 105.398438 269.996094 L 109.882812 269.996094 L 110.78125 269.992188 L 111.675781 269.992188 L 112.574219 269.988281 L 113.46875 269.988281 L 114.367188 269.984375 L 115.261719 269.984375 L 116.160156 269.980469 L 117.054688 269.976562 L 117.953125 269.972656 L 118.847656 269.96875 L 120.644531 269.953125 L 121.539062 269.949219 L 122.4375 269.9375 L 123.332031 269.929688 L 124.230469 269.917969 L 125.125 269.910156 L 126.023438 269.894531 L 126.917969 269.878906 L 127.816406 269.863281 L 128.710938 269.847656 L 129.609375 269.828125 L 130.503906 269.808594 L 131.402344 269.785156 L 132.300781 269.757812 L 133.195312 269.734375 L 134.09375 269.703125 L 134.988281 269.671875 L 135.886719 269.640625 L 136.78125 269.601562 L 137.679688 269.566406 L 138.574219 269.523438 L 139.472656 269.480469 L 140.367188 269.433594 L 141.265625 269.386719 L 142.160156 269.335938 L 143.058594 269.28125 L 143.957031 269.222656 L 144.851562 269.160156 L 145.75 269.097656 L 146.644531 269.027344 L 147.542969 268.957031 L 148.4375 268.882812 L 149.335938 268.800781 L 150.230469 268.71875 L 151.128906 268.628906 L 152.023438 268.539062 L 152.921875 268.441406 L 153.816406 268.335938 L 154.714844 268.226562 L 155.613281 268.113281 L 156.507812 267.992188 L 157.40625 267.867188 L 158.300781 267.734375 L 159.199219 267.59375 L 160.09375 267.449219 L 160.992188 267.300781 L 161.886719 267.140625 L 162.785156 266.976562 L 163.679688 266.804688 L 164.578125 266.628906 L 165.472656 266.449219 L 166.371094 266.261719 L 167.269531 266.066406 L 168.164062 265.867188 L 169.0625 265.664062 L 169.957031 265.457031 L 170.855469 265.25 L 171.75 265.035156 L 172.648438 264.820312 L 173.542969 264.601562 L 174.441406 264.386719 L 175.335938 264.164062 L 176.234375 263.945312 L 177.128906 263.730469 L 178.027344 263.511719 L 178.925781 263.296875 L 179.820312 263.082031 L 180.71875 262.875 L 181.613281 262.667969 L 182.511719 262.464844 L 183.40625 262.261719 L 184.304688 262.070312 L 185.199219 261.878906 L 186.097656 261.695312 L 186.992188 261.515625 L 187.890625 261.339844 L 188.785156 261.171875 L 189.683594 261.011719 L 190.582031 260.855469 L 191.476562 260.703125 L 192.375 260.558594 L 193.269531 260.421875 L 194.167969 260.289062 L 195.0625 260.164062 L 195.960938 260.042969 L 196.855469 259.929688 L 197.753906 259.816406 L 198.648438 259.714844 L 199.546875 259.613281 L 200.441406 259.519531 L 202.238281 259.339844 L 203.132812 259.257812 L 204.03125 259.175781 L 204.925781 259.097656 L 205.824219 259.019531 L 206.71875 258.945312 L 207.617188 258.871094 L 208.511719 258.796875 L 209.410156 258.722656 L 210.304688 258.644531 L 211.203125 258.570312 L 212.101562 258.492188 L 212.996094 258.414062 L 213.894531 258.332031 L 214.789062 258.25 L 215.6875 258.164062 L 216.582031 258.074219 L 217.480469 257.984375 L 218.375 257.890625 L 219.273438 257.796875 L 220.167969 257.699219 L 221.066406 257.597656 L 221.960938 257.496094 L 222.859375 257.394531 L 223.757812 257.289062 L 224.652344 257.1875 L 225.550781 257.082031 L 226.445312 256.976562 L 227.34375 256.871094 L 228.238281 256.769531 L 229.136719 256.664062 L 230.03125 256.5625 L 230.929688 256.460938 L 231.824219 256.359375 L 232.722656 256.257812 L 233.617188 256.160156 L 235.414062 255.957031 L 236.308594 255.855469 L 237.207031 255.753906 L 238.101562 255.648438 L 239 255.539062 L 239.894531 255.421875 L 240.792969 255.304688 L 241.6875 255.175781 L 242.585938 255.042969 L 243.480469 254.902344 L 244.378906 254.75 L 245.273438 254.585938 L 246.171875 254.414062 L 247.070312 254.230469 L 247.964844 254.03125 L 248.863281 253.820312 L 249.757812 253.597656 L 250.65625 253.359375 L 251.550781 253.109375 L 252.449219 252.847656 L 253.34375 252.566406 L 254.242188 252.277344 L 255.136719 251.976562 L 256.035156 251.667969 L 256.929688 251.34375 L 257.828125 251.015625 L 258.726562 250.675781 L 259.621094 250.332031 L 260.519531 249.984375 L 261.414062 249.632812 L 262.3125 249.28125 L 263.207031 248.929688 L 264.105469 248.578125 L 265 248.226562 L 265.898438 247.882812 L 266.792969 247.546875 L 267.691406 247.214844 L 268.585938 246.890625 L 269.484375 246.578125 L 270.382812 246.273438 L 271.277344 245.984375 L 272.175781 245.703125 L 273.070312 245.4375 L 273.96875 245.179688 L 274.863281 244.9375 L 275.761719 244.710938 L 276.65625 244.496094 L 277.554688 244.296875 L 278.449219 244.105469 L 279.347656 243.929688 L 280.242188 243.765625 L 281.140625 243.613281 L 282.039062 243.472656 L 282.933594 243.335938 L 283.832031 243.210938 L 284.726562 243.097656 L 285.625 242.984375 L 286.519531 242.878906 L 287.417969 242.777344 L 288.3125 242.679688 L 289.210938 242.582031 L 290.105469 242.484375 L 291.003906 242.386719 L 291.898438 242.285156 L 292.796875 242.179688 L 293.695312 242.070312 L 294.589844 241.953125 L 295.488281 241.828125 L 296.382812 241.699219 L 297.28125 241.558594 L 298.175781 241.410156 L 299.074219 241.25 L 299.96875 241.078125 L 300.867188 240.894531 L 301.761719 240.703125 L 302.660156 240.492188 L 303.558594 240.269531 L 304.453125 240.039062 L 305.351562 239.792969 L 306.246094 239.535156 L 307.144531 239.261719 L 308.039062 238.972656 L 308.9375 238.671875 L 309.832031 238.363281 L 310.730469 238.039062 L 311.625 237.699219 L 312.523438 237.347656 L 313.417969 236.984375 L 314.316406 236.609375 L 315.214844 236.222656 L 316.109375 235.820312 L 317.007812 235.40625 L 317.902344 234.984375 L 318.800781 234.546875 L 319.695312 234.101562 L 320.59375 233.644531 L 321.488281 233.171875 L 322.386719 232.691406 L 323.28125 232.203125 L 324.179688 231.703125 L 325.074219 231.1875 L 325.972656 230.664062 L 326.871094 230.128906 L 327.765625 229.582031 L 328.664062 229.03125 L 329.558594 228.464844 L 330.457031 227.886719 L 331.351562 227.304688 L 332.25 226.710938 L 333.144531 226.109375 L 334.042969 225.5 L 334.9375 224.882812 L 335.835938 224.257812 L 336.730469 223.628906 L 337.628906 223 L 338.527344 222.363281 L 339.421875 221.726562 L 340.320312 221.089844 L 341.214844 220.457031 L 342.113281 219.824219 L 343.007812 219.199219 L 343.90625 218.585938 L 344.800781 217.980469 L 345.699219 217.390625 L 346.59375 216.8125 L 347.492188 216.253906 L 348.386719 215.71875 L 349.285156 215.203125 L 350.183594 214.71875 L 351.078125 214.257812 L 351.976562 213.828125 L 352.871094 213.4375 L 353.769531 213.082031 L 354.664062 212.765625 L 355.5625 212.484375 L 356.457031 212.246094 L 357.355469 212.058594 L 358.25 211.914062 L 359.148438 211.816406 L 360.042969 211.757812 L 360.941406 211.753906 L 361.839844 211.804688 L 362.734375 211.898438 L 363.632812 212.042969 L 364.527344 212.230469 L 365.425781 212.464844 L 366.320312 212.757812 L 367.21875 213.09375 L 368.113281 213.472656 L 369.011719 213.890625 L 369.90625 214.355469 L 370.804688 214.863281 L 371.699219 215.410156 L 372.597656 215.992188 L 373.496094 216.609375 L 374.390625 217.257812 L 375.289062 217.945312 L 376.183594 218.660156 L 377.082031 219.398438 L 377.976562 220.160156 L 378.875 220.949219 L 379.769531 221.761719 L 380.667969 222.589844 L 381.5625 223.4375 L 382.460938 224.296875 L 383.355469 225.171875 L 384.253906 226.058594 L 385.152344 226.953125 L 386.046875 227.859375 L 386.945312 228.769531 L 387.839844 229.683594 L 388.738281 230.601562 L 389.632812 231.519531 L 390.53125 232.441406 L 391.425781 233.359375 L 392.324219 234.277344 L 393.21875 235.191406 L 395.015625 237.003906 L 395.910156 237.902344 L 396.808594 238.796875 L 397.703125 239.683594 L 398.601562 240.558594 L 399.496094 241.429688 L 400.394531 242.292969 L 401.289062 243.148438 L 402.1875 243.992188 L 403.082031 244.828125 L 403.980469 245.660156 L 404.875 246.480469 L 405.773438 247.292969 L 406.671875 248.09375 L 407.566406 248.886719 L 408.464844 249.675781 L 409.359375 250.453125 L 410.257812 251.222656 L 411.152344 251.980469 L 412.050781 252.730469 L 412.945312 253.472656 L 413.84375 254.203125 L 414.738281 254.921875 L 415.636719 255.632812 L 416.53125 256.328125 L 417.429688 257.011719 L 418.328125 257.683594 L 419.222656 258.339844 L 420.121094 258.984375 L 421.015625 259.609375 L 421.914062 260.21875 L 422.808594 260.808594 L 423.707031 261.386719 L 424.601562 261.941406 L 425.5 262.472656 L 426.394531 262.988281 L 427.292969 263.484375 L 428.1875 263.960938 L 429.085938 264.414062 L 429.984375 264.839844 L 430.878906 265.25 L 431.777344 265.636719 L 432.671875 266.003906 L 433.570312 266.347656 L 434.464844 266.667969 L 435.363281 266.96875 L 436.257812 267.25 L 437.15625 267.515625 L 438.050781 267.757812 L 438.949219 267.980469 L 439.84375 268.183594 L 440.742188 268.375 L 441.640625 268.550781 L 442.535156 268.710938 L 443.433594 268.851562 L 444.328125 268.984375 L 445.226562 269.101562 L 446.121094 269.210938 L 447.019531 269.308594 L 447.914062 269.390625 L 448.8125 269.46875 L 449.707031 269.539062 L 450.605469 269.597656 L 451.5 269.652344 L 452.398438 269.699219 L 453.296875 269.742188 L 454.191406 269.777344 L 455.089844 269.808594 L 455.984375 269.839844 L 456.882812 269.863281 L 457.777344 269.882812 L 458.675781 269.902344 L 459.570312 269.917969 L 460.46875 269.929688 L 461.363281 269.941406 L 462.261719 269.949219 L 463.15625 269.960938 L 464.054688 269.964844 L 464.953125 269.972656 L 465.847656 269.976562 L 466.746094 269.980469 L 467.640625 269.984375 L 468.539062 269.988281 L 469.433594 269.988281 L 470.332031 269.992188 L 471.226562 269.992188 L 472.125 269.996094 L 475.710938 269.996094 L 476.609375 270 L 481.089844 270 "/>
<path fill-rule="nonzero" fill="rgb(97.254902%, 46.27451%, 42.745098%)" fill-opacity="0.501961" d="M 22.910156 326.246094 L 24.703125 326.246094 L 25.597656 326.242188 L 27.390625 326.242188 L 28.289062 326.238281 L 29.1875 326.238281 L 30.082031 326.234375 L 30.980469 326.234375 L 31.875 326.230469 L 32.773438 326.226562 L 33.667969 326.222656 L 34.566406 326.21875 L 35.460938 326.214844 L 36.359375 326.210938 L 37.253906 326.203125 L 38.152344 326.199219 L 39.046875 326.191406 L 39.945312 326.1875 L 40.84375 326.179688 L 41.738281 326.171875 L 42.636719 326.160156 L 43.53125 326.152344 L 44.429688 326.140625 L 45.324219 326.132812 L 46.222656 326.121094 L 47.117188 326.109375 L 48.015625 326.097656 L 48.910156 326.085938 L 49.808594 326.074219 L 50.703125 326.0625 L 51.601562 326.050781 L 52.5 326.035156 L 53.394531 326.023438 L 54.292969 326.011719 L 55.1875 326 L 56.085938 325.988281 L 56.980469 325.980469 L 57.878906 325.96875 L 58.773438 325.960938 L 59.671875 325.949219 L 60.566406 325.941406 L 61.464844 325.933594 L 62.359375 325.929688 L 63.257812 325.921875 L 64.15625 325.917969 L 65.050781 325.914062 L 65.949219 325.910156 L 66.84375 325.910156 L 67.742188 325.90625 L 69.535156 325.90625 L 70.429688 325.902344 L 72.222656 325.902344 L 73.121094 325.898438 L 74.015625 325.894531 L 74.914062 325.890625 L 75.8125 325.882812 L 76.707031 325.875 L 77.605469 325.867188 L 78.5 325.855469 L 79.398438 325.839844 L 80.292969 325.820312 L 81.191406 325.796875 L 82.085938 325.769531 L 82.984375 325.738281 L 83.878906 325.703125 L 84.777344 325.660156 L 85.671875 325.613281 L 86.570312 325.5625 L 87.46875 325.503906 L 88.363281 325.441406 L 89.261719 325.367188 L 90.15625 325.289062 L 91.054688 325.203125 L 91.949219 325.113281 L 92.847656 325.011719 L 93.742188 324.90625 L 94.640625 324.789062 L 95.535156 324.664062 L 96.433594 324.535156 L 97.328125 324.394531 L 98.226562 324.246094 L 99.125 324.089844 L 100.019531 323.925781 L 100.917969 323.757812 L 101.8125 323.578125 L 102.710938 323.390625 L 103.605469 323.195312 L 104.503906 322.988281 L 105.398438 322.777344 L 106.296875 322.558594 L 107.191406 322.332031 L 108.089844 322.097656 L 108.984375 321.855469 L 109.882812 321.605469 L 110.78125 321.347656 L 111.675781 321.085938 L 112.574219 320.8125 L 113.46875 320.53125 L 114.367188 320.246094 L 115.261719 319.953125 L 116.160156 319.652344 L 117.054688 319.34375 L 117.953125 319.027344 L 118.847656 318.703125 L 119.746094 318.375 L 120.644531 318.039062 L 121.539062 317.695312 L 122.4375 317.34375 L 123.332031 316.984375 L 124.230469 316.617188 L 125.125 316.246094 L 126.023438 315.867188 L 126.917969 315.476562 L 127.816406 315.082031 L 128.710938 314.679688 L 129.609375 314.269531 L 130.503906 313.847656 L 131.402344 313.421875 L 132.300781 312.984375 L 133.195312 312.539062 L 134.09375 312.085938 L 134.988281 311.625 L 135.886719 311.148438 L 136.78125 310.667969 L 137.679688 310.175781 L 138.574219 309.671875 L 139.472656 309.15625 L 140.367188 308.628906 L 141.265625 308.09375 L 142.160156 307.546875 L 143.058594 306.984375 L 143.957031 306.414062 L 144.851562 305.828125 L 145.75 305.234375 L 146.644531 304.625 L 147.542969 304.007812 L 148.4375 303.378906 L 149.335938 302.734375 L 150.230469 302.085938 L 151.128906 301.421875 L 152.023438 300.753906 L 152.921875 300.074219 L 153.816406 299.382812 L 154.714844 298.6875 L 155.613281 297.988281 L 156.507812 297.285156 L 157.40625 296.574219 L 158.300781 295.863281 L 159.199219 295.148438 L 160.09375 294.433594 L 160.992188 293.71875 L 161.886719 293.007812 L 162.785156 292.300781 L 163.679688 291.597656 L 164.578125 290.902344 L 165.472656 290.210938 L 166.371094 289.527344 L 167.269531 288.855469 L 168.164062 288.195312 L 169.0625 287.542969 L 169.957031 286.902344 L 170.855469 286.273438 L 171.75 285.660156 L 172.648438 285.0625 L 173.542969 284.476562 L 174.441406 283.90625 L 175.335938 283.351562 L 176.234375 282.8125 L 177.128906 282.292969 L 178.027344 281.789062 L 178.925781 281.296875 L 179.820312 280.828125 L 180.71875 280.378906 L 181.613281 279.945312 L 182.511719 279.527344 L 183.40625 279.128906 L 184.304688 278.753906 L 185.199219 278.398438 L 186.097656 278.058594 L 186.992188 277.742188 L 187.890625 277.441406 L 188.785156 277.164062 L 189.683594 276.910156 L 190.582031 276.679688 L 191.476562 276.464844 L 192.375 276.269531 L 193.269531 276.097656 L 194.167969 275.949219 L 195.0625 275.824219 L 195.960938 275.714844 L 196.855469 275.625 L 197.753906 275.558594 L 198.648438 275.515625 L 199.546875 275.488281 L 200.441406 275.480469 L 201.339844 275.488281 L 202.238281 275.511719 L 203.132812 275.558594 L 204.03125 275.617188 L 204.925781 275.691406 L 205.824219 275.777344 L 206.71875 275.875 L 207.617188 275.992188 L 208.511719 276.113281 L 209.410156 276.246094 L 210.304688 276.386719 L 211.203125 276.539062 L 212.101562 276.695312 L 212.996094 276.859375 L 213.894531 277.03125 L 214.789062 277.203125 L 215.6875 277.382812 L 216.582031 277.570312 L 217.480469 277.757812 L 218.375 277.949219 L 219.273438 278.144531 L 220.167969 278.34375 L 221.066406 278.542969 L 221.960938 278.75 L 223.757812 279.171875 L 224.652344 279.390625 L 225.550781 279.613281 L 226.445312 279.839844 L 227.34375 280.074219 L 228.238281 280.3125 L 229.136719 280.558594 L 230.03125 280.808594 L 230.929688 281.070312 L 231.824219 281.339844 L 232.722656 281.617188 L 233.617188 281.902344 L 234.515625 282.199219 L 235.414062 282.503906 L 236.308594 282.820312 L 237.207031 283.144531 L 238.101562 283.480469 L 239 283.828125 L 239.894531 284.183594 L 240.792969 284.546875 L 241.6875 284.921875 L 242.585938 285.304688 L 243.480469 285.699219 L 244.378906 286.097656 L 245.273438 286.507812 L 246.171875 286.921875 L 247.070312 287.339844 L 247.964844 287.761719 L 248.863281 288.191406 L 249.757812 288.621094 L 250.65625 289.054688 L 251.550781 289.488281 L 252.449219 289.921875 L 253.34375 290.355469 L 254.242188 290.789062 L 255.136719 291.214844 L 256.035156 291.640625 L 256.929688 292.0625 L 257.828125 292.480469 L 258.726562 292.890625 L 259.621094 293.296875 L 260.519531 293.695312 L 261.414062 294.089844 L 262.3125 294.472656 L 263.207031 294.851562 L 264.105469 295.222656 L 265 295.585938 L 265.898438 295.945312 L 266.792969 296.292969 L 267.691406 296.636719 L 268.585938 296.972656 L 269.484375 297.304688 L 270.382812 297.628906 L 271.277344 297.945312 L 272.175781 298.257812 L 273.070312 298.570312 L 273.96875 298.875 L 274.863281 299.175781 L 275.761719 299.472656 L 276.65625 299.769531 L 277.554688 300.0625 L 278.449219 300.355469 L 279.347656 300.648438 L 280.242188 300.9375 L 281.140625 301.230469 L 282.039062 301.519531 L 282.933594 301.8125 L 283.832031 302.109375 L 284.726562 302.40625 L 285.625 302.703125 L 286.519531 303.007812 L 287.417969 303.3125 L 288.3125 303.617188 L 289.210938 303.929688 L 290.105469 304.246094 L 291.003906 304.566406 L 291.898438 304.890625 L 292.796875 305.214844 L 293.695312 305.546875 L 294.589844 305.882812 L 295.488281 306.222656 L 296.382812 306.566406 L 297.28125 306.910156 L 298.175781 307.261719 L 299.074219 307.613281 L 299.96875 307.96875 L 300.867188 308.324219 L 301.761719 308.679688 L 302.660156 309.039062 L 303.558594 309.402344 L 304.453125 309.761719 L 305.351562 310.121094 L 306.246094 310.480469 L 307.144531 310.839844 L 308.039062 311.195312 L 308.9375 311.550781 L 309.832031 311.902344 L 310.730469 312.25 L 311.625 312.59375 L 312.523438 312.933594 L 313.417969 313.269531 L 314.316406 313.601562 L 315.214844 313.925781 L 316.109375 314.242188 L 317.007812 314.554688 L 317.902344 314.859375 L 318.800781 315.15625 L 319.695312 315.445312 L 320.59375 315.726562 L 321.488281 316 L 322.386719 316.261719 L 323.28125 316.519531 L 324.179688 316.765625 L 325.074219 317 L 325.972656 317.226562 L 326.871094 317.441406 L 327.765625 317.648438 L 328.664062 317.847656 L 329.558594 318.03125 L 330.457031 318.207031 L 331.351562 318.375 L 332.25 318.53125 L 333.144531 318.675781 L 334.042969 318.8125 L 334.9375 318.933594 L 335.835938 319.050781 L 336.730469 319.15625 L 337.628906 319.253906 L 338.527344 319.339844 L 339.421875 319.417969 L 340.320312 319.484375 L 341.214844 319.546875 L 342.113281 319.597656 L 343.007812 319.640625 L 343.90625 319.675781 L 344.800781 319.707031 L 345.699219 319.730469 L 346.59375 319.746094 L 347.492188 319.757812 L 348.386719 319.761719 L 349.285156 319.761719 L 350.183594 319.757812 L 351.078125 319.753906 L 351.976562 319.742188 L 352.871094 319.730469 L 353.769531 319.714844 L 354.664062 319.703125 L 355.5625 319.6875 L 356.457031 319.671875 L 357.355469 319.660156 L 358.25 319.648438 L 359.148438 319.636719 L 360.042969 319.628906 L 361.839844 319.628906 L 362.734375 319.636719 L 363.632812 319.648438 L 364.527344 319.664062 L 365.425781 319.6875 L 366.320312 319.71875 L 367.21875 319.757812 L 368.113281 319.800781 L 369.011719 319.855469 L 369.90625 319.914062 L 370.804688 319.980469 L 371.699219 320.058594 L 372.597656 320.140625 L 373.496094 320.230469 L 374.390625 320.324219 L 375.289062 320.429688 L 376.183594 320.542969 L 377.082031 320.660156 L 377.976562 320.785156 L 378.875 320.914062 L 379.769531 321.046875 L 380.667969 321.1875 L 381.5625 321.332031 L 382.460938 321.476562 L 383.355469 321.628906 L 384.253906 321.78125 L 385.152344 321.9375 L 386.046875 322.09375 L 386.945312 322.25 L 387.839844 322.40625 L 388.738281 322.5625 L 389.632812 322.71875 L 390.53125 322.875 L 391.425781 323.03125 L 392.324219 323.183594 L 393.21875 323.332031 L 394.117188 323.480469 L 395.015625 323.625 L 395.910156 323.765625 L 396.808594 323.902344 L 397.703125 324.035156 L 398.601562 324.164062 L 399.496094 324.292969 L 400.394531 324.414062 L 401.289062 324.53125 L 402.1875 324.644531 L 403.082031 324.75 L 403.980469 324.855469 L 404.875 324.953125 L 405.773438 325.050781 L 406.671875 325.140625 L 407.566406 325.226562 L 408.464844 325.304688 L 409.359375 325.382812 L 410.257812 325.457031 L 411.152344 325.523438 L 412.050781 325.585938 L 412.945312 325.644531 L 413.84375 325.703125 L 414.738281 325.753906 L 415.636719 325.800781 L 416.53125 325.847656 L 418.328125 325.925781 L 419.222656 325.960938 L 420.121094 325.992188 L 421.015625 326.019531 L 421.914062 326.046875 L 422.808594 326.070312 L 423.707031 326.09375 L 424.601562 326.113281 L 425.5 326.128906 L 426.394531 326.144531 L 427.292969 326.160156 L 428.1875 326.171875 L 429.085938 326.179688 L 429.984375 326.191406 L 430.878906 326.199219 L 431.777344 326.207031 L 432.671875 326.214844 L 433.570312 326.21875 L 434.464844 326.222656 L 435.363281 326.226562 L 436.257812 326.230469 L 437.15625 326.234375 L 438.050781 326.238281 L 438.949219 326.238281 L 439.84375 326.242188 L 441.640625 326.242188 L 442.535156 326.246094 L 446.121094 326.246094 L 447.019531 326.25 L 481.089844 326.25 L 22.910156 326.25 Z M 22.910156 326.246094 "/>
<path fill="none" stroke-width="1.066978" stroke-linecap="round" stroke-linejoin="round" stroke="rgb(97.254902%, 46.27451%, 42.745098%)" stroke-opacity="1" stroke-miterlimit="10" d="M 22.910156 326.246094 L 24.703125 326.246094 L 25.597656 326.242188 L 27.390625 326.242188 L 28.289062 326.238281 L 29.1875 326.238281 L 30.082031 326.234375 L 30.980469 326.234375 L 31.875 326.230469 L 32.773438 326.226562 L 33.667969 326.222656 L 34.566406 326.21875 L 35.460938 326.214844 L 36.359375 326.210938 L 37.253906 326.203125 L 38.152344 326.199219 L 39.046875 326.191406 L 39.945312 326.1875 L 40.84375 326.179688 L 41.738281 326.171875 L 42.636719 326.160156 L 43.53125 326.152344 L 44.429688 326.140625 L 45.324219 326.132812 L 46.222656 326.121094 L 47.117188 326.109375 L 48.015625 326.097656 L 48.910156 326.085938 L 49.808594 326.074219 L 50.703125 326.0625 L 51.601562 326.050781 L 52.5 326.035156 L 53.394531 326.023438 L 54.292969 326.011719 L 55.1875 326 L 56.085938 325.988281 L 56.980469 325.980469 L 57.878906 325.96875 L 58.773438 325.960938 L 59.671875 325.949219 L 60.566406 325.941406 L 61.464844 325.933594 L 62.359375 325.929688 L 63.257812 325.921875 L 64.15625 325.917969 L 65.050781 325.914062 L 65.949219 325.910156 L 66.84375 325.910156 L 67.742188 325.90625 L 69.535156 325.90625 L 70.429688 325.902344 L 72.222656 325.902344 L 73.121094 325.898438 L 74.015625 325.894531 L 74.914062 325.890625 L 75.8125 325.882812 L 76.707031 325.875 L 77.605469 325.867188 L 78.5 325.855469 L 79.398438 325.839844 L 80.292969 325.820312 L 81.191406 325.796875 L 82.085938 325.769531 L 82.984375 325.738281 L 83.878906 325.703125 L 84.777344 325.660156 L 85.671875 325.613281 L 86.570312 325.5625 L 87.46875 325.503906 L 88.363281 325.441406 L 89.261719 325.367188 L 90.15625 325.289062 L 91.054688 325.203125 L 91.949219 325.113281 L 92.847656 325.011719 L 93.742188 324.90625 L 94.640625 324.789062 L 95.535156 324.664062 L 96.433594 324.535156 L 97.328125 324.394531 L 98.226562 324.246094 L 99.125 324.089844 L 100.019531 323.925781 L 100.917969 323.757812 L 101.8125 323.578125 L 102.710938 323.390625 L 103.605469 323.195312 L 104.503906 322.988281 L 105.398438 322.777344 L 106.296875 322.558594 L 107.191406 322.332031 L 108.089844 322.097656 L 108.984375 321.855469 L 109.882812 321.605469 L 110.78125 321.347656 L 111.675781 321.085938 L 112.574219 320.8125 L 113.46875 320.53125 L 114.367188 320.246094 L 115.261719 319.953125 L 116.160156 319.652344 L 117.054688 319.34375 L 117.953125 319.027344 L 118.847656 318.703125 L 119.746094 318.375 L 120.644531 318.039062 L 121.539062 317.695312 L 122.4375 317.34375 L 123.332031 316.984375 L 124.230469 316.617188 L 125.125 316.246094 L 126.023438 315.867188 L 126.917969 315.476562 L 127.816406 315.082031 L 128.710938 314.679688 L 129.609375 314.269531 L 130.503906 313.847656 L 131.402344 313.421875 L 132.300781 312.984375 L 133.195312 312.539062 L 134.09375 312.085938 L 134.988281 311.625 L 135.886719 311.148438 L 136.78125 310.667969 L 137.679688 310.175781 L 138.574219 309.671875 L 139.472656 309.15625 L 140.367188 308.628906 L 141.265625 308.09375 L 142.160156 307.546875 L 143.058594 306.984375 L 143.957031 306.414062 L 144.851562 305.828125 L 145.75 305.234375 L 146.644531 304.625 L 147.542969 304.007812 L 148.4375 303.378906 L 149.335938 302.734375 L 150.230469 302.085938 L 151.128906 301.421875 L 152.023438 300.753906 L 152.921875 300.074219 L 153.816406 299.382812 L 154.714844 298.6875 L 155.613281 297.988281 L 156.507812 297.285156 L 157.40625 296.574219 L 158.300781 295.863281 L 159.199219 295.148438 L 160.09375 294.433594 L 160.992188 293.71875 L 161.886719 293.007812 L 162.785156 292.300781 L 163.679688 291.597656 L 164.578125 290.902344 L 165.472656 290.210938 L 166.371094 289.527344 L 167.269531 288.855469 L 168.164062 288.195312 L 169.0625 287.542969 L 169.957031 286.902344 L 170.855469 286.273438 L 171.75 285.660156 L 172.648438 285.0625 L 173.542969 284.476562 L 174.441406 283.90625 L 175.335938 283.351562 L 176.234375 282.8125 L 177.128906 282.292969 L 178.027344 281.789062 L 178.925781 281.296875 L 179.820312 280.828125 L 180.71875 280.378906 L 181.613281 279.945312 L 182.511719 279.527344 L 183.40625 279.128906 L 184.304688 278.753906 L 185.199219 278.398438 L 186.097656 278.058594 L 186.992188 277.742188 L 187.890625 277.441406 L 188.785156 277.164062 L 189.683594 276.910156 L 190.582031 276.679688 L 191.476562 276.464844 L 192.375 276.269531 L 193.269531 276.097656 L 194.167969 275.949219 L 195.0625 275.824219 L 195.960938 275.714844 L 196.855469 275.625 L 197.753906 275.558594 L 198.648438 275.515625 L 199.546875 275.488281 L 200.441406 275.480469 L 201.339844 275.488281 L 202.238281 275.511719 L 203.132812 275.558594 L 204.03125 275.617188 L 204.925781 275.691406 L 205.824219 275.777344 L 206.71875 275.875 L 207.617188 275.992188 L 208.511719 276.113281 L 209.410156 276.246094 L 210.304688 276.386719 L 211.203125 276.539062 L 212.101562 276.695312 L 212.996094 276.859375 L 213.894531 277.03125 L 214.789062 277.203125 L 215.6875 277.382812 L 216.582031 277.570312 L 217.480469 277.757812 L 218.375 277.949219 L 219.273438 278.144531 L 220.167969 278.34375 L 221.066406 278.542969 L 221.960938 278.75 L 223.757812 279.171875 L 224.652344 279.390625 L 225.550781 279.613281 L 226.445312 279.839844 L 227.34375 280.074219 L 228.238281 280.3125 L 229.136719 280.558594 L 230.03125 280.808594 L 230.929688 281.070312 L 231.824219 281.339844 L 232.722656 281.617188 L 233.617188 281.902344 L 234.515625 282.199219 L 235.414062 282.503906 L 236.308594 282.820312 L 237.207031 283.144531 L 238.101562 283.480469 L 239 283.828125 L 239.894531 284.183594 L 240.792969 284.546875 L 241.6875 284.921875 L 242.585938 285.304688 L 243.480469 285.699219 L 244.378906 286.097656 L 245.273438 286.507812 L 246.171875 286.921875 L 247.070312 287.339844 L 247.964844 287.761719 L 248.863281 288.191406 L 249.757812 288.621094 L 250.65625 289.054688 L 251.550781 289.488281 L 252.449219 289.921875 L 253.34375 290.355469 L 254.242188 290.789062 L 255.136719 291.214844 L 256.035156 291.640625 L 256.929688 292.0625 L 257.828125 292.480469 L 258.726562 292.890625 L 259.621094 293.296875 L 260.519531 293.695312 L 261.414062 294.089844 L 262.3125 294.472656 L 263.207031 294.851562 L 264.105469 295.222656 L 265 295.585938 L 265.898438 295.945312 L 266.792969 296.292969 L 267.691406 296.636719 L 268.585938 296.972656 L 269.484375 297.304688 L 270.382812 297.628906 L 271.277344 297.945312 L 272.175781 298.257812 L 273.070312 298.570312 L 273.96875 298.875 L 274.863281 299.175781 L 275.761719 299.472656 L 276.65625 299.769531 L 277.554688 300.0625 L 278.449219 300.355469 L 279.347656 300.648438 L 280.242188 300.9375 L 281.140625 301.230469 L 282.039062 301.519531 L 282.933594 301.8125 L 283.832031 302.109375 L 284.726562 302.40625 L 285.625 302.703125 L 286.519531 303.007812 L 287.417969 303.3125 L 288.3125 303.617188 L 289.210938 303.929688 L 290.105469 304.246094 L 291.003906 304.566406 L 291.898438 304.890625 L 292.796875 305.214844 L 293.695312 305.546875 L 294.589844 305.882812 L 295.488281 306.222656 L 296.382812 306.566406 L 297.28125 306.910156 L 298.175781 307.261719 L 299.074219 307.613281 L 299.96875 307.96875 L 300.867188 308.324219 L 301.761719 308.679688 L 302.660156 309.039062 L 303.558594 309.402344 L 304.453125 309.761719 L 305.351562 310.121094 L 306.246094 310.480469 L 307.144531 310.839844 L 308.039062 311.195312 L 308.9375 311.550781 L 309.832031 311.902344 L 310.730469 312.25 L 311.625 312.59375 L 312.523438 312.933594 L 313.417969 313.269531 L 314.316406 313.601562 L 315.214844 313.925781 L 316.109375 314.242188 L 317.007812 314.554688 L 317.902344 314.859375 L 318.800781 315.15625 L 319.695312 315.445312 L 320.59375 315.726562 L 321.488281 316 L 322.386719 316.261719 L 323.28125 316.519531 L 324.179688 316.765625 L 325.074219 317 L 325.972656 317.226562 L 326.871094 317.441406 L 327.765625 317.648438 L 328.664062 317.847656 L 329.558594 318.03125 L 330.457031 318.207031 L 331.351562 318.375 L 332.25 318.53125 L 333.144531 318.675781 L 334.042969 318.8125 L 334.9375 318.933594 L 335.835938 319.050781 L 336.730469 319.15625 L 337.628906 319.253906 L 338.527344 319.339844 L 339.421875 319.417969 L 340.320312 319.484375 L 341.214844 319.546875 L 342.113281 319.597656 L 343.007812 319.640625 L 343.90625 319.675781 L 344.800781 319.707031 L 345.699219 319.730469 L 346.59375 319.746094 L 347.492188 319.757812 L 348.386719 319.761719 L 349.285156 319.761719 L 350.183594 319.757812 L 351.078125 319.753906 L 351.976562 319.742188 L 352.871094 319.730469 L 353.769531 319.714844 L 354.664062 319.703125 L 355.5625 319.6875 L 356.457031 319.671875 L 357.355469 319.660156 L 358.25 319.648438 L 359.148438 319.636719 L 360.042969 319.628906 L 361.839844 319.628906 L 362.734375 319.636719 L 363.632812 319.648438 L 364.527344 319.664062 L 365.425781 319.6875 L 366.320312 319.71875 L 367.21875 319.757812 L 368.113281 319.800781 L 369.011719 319.855469 L 369.90625 319.914062 L 370.804688 319.980469 L 371.699219 320.058594 L 372.597656 320.140625 L 373.496094 320.230469 L 374.390625 320.324219 L 375.289062 320.429688 L 376.183594 320.542969 L 377.082031 320.660156 L 377.976562 320.785156 L 378.875 320.914062 L 379.769531 321.046875 L 380.667969 321.1875 L 381.5625 321.332031 L 382.460938 321.476562 L 383.355469 321.628906 L 384.253906 321.78125 L 385.152344 321.9375 L 386.046875 322.09375 L 386.945312 322.25 L 387.839844 322.40625 L 388.738281 322.5625 L 389.632812 322.71875 L 390.53125 322.875 L 391.425781 323.03125 L 392.324219 323.183594 L 393.21875 323.332031 L 394.117188 323.480469 L 395.015625 323.625 L 395.910156 323.765625 L 396.808594 323.902344 L 397.703125 324.035156 L 398.601562 324.164062 L 399.496094 324.292969 L 400.394531 324.414062 L 401.289062 324.53125 L 402.1875 324.644531 L 403.082031 324.75 L 403.980469 324.855469 L 404.875 324.953125 L 405.773438 325.050781 L 406.671875 325.140625 L 407.566406 325.226562 L 408.464844 325.304688 L 409.359375 325.382812 L 410.257812 325.457031 L 411.152344 325.523438 L 412.050781 325.585938 L 412.945312 325.644531 L 413.84375 325.703125 L 414.738281 325.753906 L 415.636719 325.800781 L 416.53125 325.847656 L 418.328125 325.925781 L 419.222656 325.960938 L 420.121094 325.992188 L 421.015625 326.019531 L 421.914062 326.046875 L 422.808594 326.070312 L 423.707031 326.09375 L 424.601562 326.113281 L 425.5 326.128906 L 426.394531 326.144531 L 427.292969 326.160156 L 428.1875 326.171875 L 429.085938 326.179688 L 429.984375 326.191406 L 430.878906 326.199219 L 431.777344 326.207031 L 432.671875 326.214844 L 433.570312 326.21875 L 434.464844 326.222656 L 435.363281 326.226562 L 436.257812 326.230469 L 437.15625 326.234375 L 438.050781 326.238281 L 438.949219 326.238281 L 439.84375 326.242188 L 441.640625 326.242188 L 442.535156 326.246094 L 446.121094 326.246094 L 447.019531 326.25 L 481.089844 326.25 "/>
</svg>
