<?xml version="1.0" encoding="UTF-8"?>
<svg xmlns="http://www.w3.org/2000/svg" xmlns:xlink="http://www.w3.org/1999/xlink" width="720" height="360" viewBox="0 0 720 360">
<rect x="-72" y="-36" width="864" height="432" fill="rgb(100%, 100%, 100%)" fill-opacity="1"/>
<path fill-rule="nonzero" fill="rgb(90.588235%, 41.960784%, 95.294118%)" fill-opacity="0.501961" d="M 32.726562 101.25 L 418.28125 101.25 L 419.5625 101.246094 L 423.40625 101.246094 L 424.6875 101.242188 L 425.96875 101.242188 L 427.246094 101.238281 L 428.527344 101.238281 L 429.808594 101.234375 L 431.089844 101.226562 L 432.371094 101.222656 L 434.933594 101.207031 L 436.214844 101.195312 L 438.777344 101.164062 L 440.058594 101.140625 L 441.335938 101.117188 L 442.617188 101.085938 L 443.898438 101.046875 L 445.179688 101.003906 L 446.460938 100.949219 L 447.742188 100.882812 L 449.023438 100.804688 L 450.304688 100.714844 L 451.585938 100.609375 L 452.867188 100.480469 L 454.148438 100.332031 L 455.429688 100.160156 L 456.707031 99.960938 L 457.988281 99.726562 L 459.269531 99.457031 L 460.550781 99.144531 L 461.832031 98.792969 L 463.113281 98.398438 L 464.394531 97.9375 L 465.675781 97.417969 L 466.957031 96.832031 L 468.238281 96.183594 L 469.519531 95.460938 L 470.796875 94.644531 L 472.078125 93.738281 L 473.359375 92.738281 L 474.640625 91.644531 L 475.921875 90.453125 L 477.203125 89.136719 L 478.484375 87.699219 L 479.765625 86.148438 L 481.046875 84.480469 L 482.328125 82.699219 L 483.609375 80.777344 L 484.890625 78.71875 L 486.167969 76.542969 L 487.449219 74.246094 L 488.730469 71.839844 L 490.011719 69.300781 L 491.292969 66.640625 L 492.574219 63.886719 L 493.855469 61.042969 L 495.136719 58.113281 L 496.417969 55.105469 L 497.699219 52.027344 L 498.980469 48.910156 L 500.257812 45.757812 L 501.539062 42.589844 L 502.820312 39.417969 L 504.101562 36.265625 L 505.382812 33.148438 L 506.664062 30.082031 L 507.945312 27.078125 L 509.226562 24.160156 L 510.507812 21.367188 L 511.789062 18.691406 L 513.070312 16.144531 L 514.351562 13.734375 L 515.628906 11.496094 L 516.910156 9.464844 L 518.191406 7.609375 L 519.472656 5.9375 L 520.753906 4.457031 L 522.035156 3.183594 L 523.316406 2.15625 L 524.597656 1.328125 L 525.878906 0.691406 L 527.160156 0.25 L 528.441406 0.0117188 L 529.71875 0 L 531 0.160156 L 532.28125 0.484375 L 533.5625 0.960938 L 534.84375 1.589844 L 536.125 2.378906 L 537.40625 3.285156 L 538.6875 4.292969 L 539.96875 5.386719 L 541.25 6.5625 L 542.53125 7.8125 L 543.8125 9.109375 L 545.089844 10.4375 L 546.371094 11.785156 L 548.933594 14.503906 L 550.214844 15.84375 L 551.496094 17.164062 L 552.777344 18.457031 L 554.058594 19.710938 L 555.339844 20.910156 L 556.621094 22.058594 L 557.902344 23.152344 L 559.179688 24.195312 L 560.460938 25.179688 L 561.742188 26.089844 L 563.023438 26.9375 L 564.304688 27.734375 L 565.585938 28.472656 L 566.867188 29.160156 L 568.148438 29.785156 L 569.429688 30.359375 L 570.710938 30.898438 L 571.992188 31.398438 L 573.273438 31.867188 L 574.550781 32.304688 L 575.832031 32.722656 L 577.113281 33.128906 L 578.394531 33.527344 L 579.675781 33.921875 L 580.957031 34.328125 L 582.238281 34.742188 L 583.519531 35.179688 L 584.800781 35.640625 L 586.082031 36.128906 L 587.363281 36.660156 L 588.644531 37.238281 L 589.921875 37.863281 L 591.203125 38.539062 L 592.484375 39.265625 L 593.765625 40.066406 L 595.046875 40.929688 L 596.328125 41.859375 L 597.609375 42.855469 L 598.890625 43.917969 L 600.171875 45.058594 L 601.453125 46.273438 L 602.734375 47.550781 L 604.011719 48.894531 L 605.292969 50.300781 L 606.574219 51.777344 L 607.855469 53.3125 L 609.136719 54.894531 L 610.417969 56.523438 L 611.699219 58.195312 L 612.980469 59.902344 L 614.261719 61.640625 L 615.542969 63.398438 L 616.824219 65.171875 L 618.105469 66.949219 L 619.382812 68.730469 L 620.664062 70.496094 L 621.945312 72.25 L 623.226562 73.980469 L 624.507812 75.683594 L 625.789062 77.351562 L 627.070312 78.96875 L 628.351562 80.539062 L 629.632812 82.0625 L 630.914062 83.53125 L 632.195312 84.933594 L 633.472656 86.265625 L 634.753906 87.539062 L 636.035156 88.742188 L 637.316406 89.886719 L 638.597656 90.953125 L 639.878906 91.945312 L 641.160156 92.871094 L 642.441406 93.730469 L 643.722656 94.53125 L 645.003906 95.265625 L 646.285156 95.929688 L 647.566406 96.539062 L 648.84375 97.09375 L 650.125 97.601562 L 651.40625 98.058594 L 652.6875 98.457031 L 653.96875 98.820312 L 655.25 99.144531 L 656.53125 99.433594 L 657.8125 99.691406 L 659.09375 99.910156 L 660.375 100.101562 L 661.65625 100.273438 L 662.933594 100.421875 L 664.214844 100.554688 L 665.496094 100.660156 L 666.777344 100.753906 L 668.058594 100.835938 L 669.339844 100.90625 L 670.621094 100.964844 L 671.902344 101.015625 L 673.183594 101.054688 L 674.464844 101.089844 L 675.746094 101.121094 L 677.027344 101.144531 L 678.304688 101.164062 L 680.867188 101.195312 L 682.148438 101.203125 L 683.429688 101.214844 L 684.710938 101.222656 L 687.273438 101.230469 L 687.273438 101.25 Z M 32.726562 101.25 "/>
<path fill="none" stroke-width="1.066978" stroke-linecap="round" stroke-linejoin="round" stroke="rgb(90.588235%, 41.960784%, 95.294118%)" stroke-opacity="1" stroke-miterlimit="10" d="M 32.726562 101.25 L 418.28125 101.25 L 419.5625 101.246094 L 423.40625 101.246094 L 424.6875 101.242188 L 425.96875 101.242188 L 427.246094 101.238281 L 428.527344 101.238281 L 429.808594 101.234375 L 431.089844 101.226562 L 432.371094 101.222656 L 434.933594 101.207031 L 436.214844 101.195312 L 438.777344 101.164062 L 440.058594 101.140625 L 441.335938 101.117188 L 442.617188 101.085938 L 443.898438 101.046875 L 445.179688 101.003906 L 446.460938 100.949219 L 447.742188 100.882812 L 449.023438 100.804688 L 450.304688 100.714844 L 451.585938 100.609375 L 452.867188 100.480469 L 454.148438 100.332031 L 455.429688 100.160156 L 456.707031 99.960938 L 457.988281 99.726562 L 459.269531 99.457031 L 460.550781 99.144531 L 461.832031 98.792969 L 463.113281 98.398438 L 464.394531 97.9375 L 465.675781 97.417969 L 466.957031 96.832031 L 468.238281 96.183594 L 469.519531 95.460938 L 470.796875 94.644531 L 472.078125 93.738281 L 473.359375 92.738281 L 474.640625 91.644531 L 475.921875 90.453125 L 477.203125 89.136719 L 478.484375 87.699219 L 479.765625 86.148438 L 481.046875 84.480469 L 482.328125 82.699219 L 483.609375 80.777344 L 484.890625 78.71875 L 486.167969 76.542969 L 487.449219 74.246094 L 488.730469 71.839844 L 490.011719 69.300781 L 491.292969 66.640625 L 492.574219 63.886719 L 493.855469 61.042969 L 495.136719 58.113281 L 496.417969 55.105469 L 497.699219 52.027344 L 498.980469 48.910156 L 500.257812 45.757812 L 501.539062 42.589844 L 502.820312 39.417969 L 504.101562 36.265625 L 505.382812 33.148438 L 506.664062 30.082031 L 507.945312 27.078125 L 509.226562 24.160156 L 510.507812 21.367188 L 511.789062 18.691406 L 513.070312 16.144531 L 514.351562 13.734375 L 515.628906 11.496094 L 516.910156 9.464844 L 518.191406 7.609375 L 519.472656 5.9375 L 520.753906 4.457031 L 522.035156 3.183594 L 523.316406 2.15625 L 524.597656 1.328125 L 525.878906 0.691406 L 527.160156 0.25 L 528.441406 0.0117188 L 529.71875 0 L 531 0.160156 L 532.28125 0.484375 L 533.5625 0.960938 L 534.84375 1.589844 L 536.125 2.378906 L 537.40625 3.285156 L 538.6875 4.292969 L 539.96875 5.386719 L 541.25 6.5625 L 542.53125 7.8125 L 543.8125 9.109375 L 545.089844 10.4375 L 546.371094 11.785156 L 548.933594 14.503906 L 550.214844 15.84375 L 551.496094 17.164062 L 552.777344 18.457031 L 554.058594 19.710938 L 555.339844 20.910156 L 556.621094 22.058594 L 557.902344 23.152344 L 559.179688 24.195312 L 560.460938 25.179688 L 561.742188 26.089844 L 563.023438 26.9375 L 564.304688 27.734375 L 565.585938 28.472656 L 566.867188 29.160156 L 568.148438 29.785156 L 569.429688 30.359375 L 570.710938 30.898438 L 571.992188 31.398438 L 573.273438 31.867188 L 574.550781 32.304688 L 575.832031 32.722656 L 577.113281 33.128906 L 578.394531 33.527344 L 579.675781 33.921875 L 580.957031 34.328125 L 582.238281 34.742188 L 583.519531 35.179688 L 584.800781 35.640625 L 586.082031 36.128906 L 587.363281 36.660156 L 588.644531 37.238281 L 589.921875 37.863281 L 591.203125 38.539062 L 592.484375 39.265625 L 593.765625 40.066406 L 595.046875 40.929688 L 596.328125 41.859375 L 597.609375 42.855469 L 598.890625 43.917969 L 600.171875 45.058594 L 601.453125 46.273438 L 602.734375 47.550781 L 604.011719 48.894531 L 605.292969 50.300781 L 606.574219 51.777344 L 607.855469 53.3125 L 609.136719 54.894531 L 610.417969 56.523438 L 611.699219 58.195312 L 612.980469 59.902344 L 614.261719 61.640625 L 615.542969 63.398438 L 616.824219 65.171875 L 618.105469 66.949219 L 619.382812 68.730469 L 620.664062 70.496094 L 621.945312 72.25 L 623.226562 73.980469 L 624.507812 75.683594 L 625.789062 77.351562 L 627.070312 78.96875 L 628.351562 80.539062 L 629.632812 82.0625 L 630.914062 83.53125 L 632.195312 84.933594 L 633.472656 86.265625 L 634.753906 87.539062 L 636.035156 88.742188 L 637.316406 89.886719 L 638.597656 90.953125 L 639.878906 91.945312 L 641.160156 92.871094 L 642.441406 93.730469 L 643.722656 94.53125 L 645.003906 95.265625 L 646.285156 95.929688 L 647.566406 96.539062 L 648.84375 97.09375 L 650.125 97.601562 L 651.40625 98.058594 L 652.6875 98.457031 L 653.96875 98.820312 L 655.25 99.144531 L 656.53125 99.433594 L 657.8125 99.691406 L 659.09375 99.910156 L 660.375 100.101562 L 661.65625 100.273438 L 662.933594 100.421875 L 664.214844 100.554688 L 665.496094 100.660156 L 666.777344 100.753906 L 668.058594 100.835938 L 669.339844 100.90625 L 670.621094 100.964844 L 671.902344 101.015625 L 673.183594 101.054688 L 674.464844 101.089844 L 675.746094 101.121094 L 677.027344 101.144531 L 678.304688 101.164062 L 680.867188 101.195312 L 682.148438 101.203125 L 683.429688 101.214844 L 684.710938 101.222656 L 687.273438 101.230469 "/>
<path fill-rule="nonzero" fill="rgb(0%, 69.019608%, 96.470588%)" fill-opacity="0.501961" d="M 32.726562 157.5 L 205.648438 157.5 L 206.929688 157.496094 L 212.054688 157.496094 L 213.335938 157.492188 L 215.898438 157.492188 L 217.179688 157.488281 L 218.460938 157.488281 L 219.742188 157.484375 L 221.019531 157.480469 L 222.300781 157.480469 L 224.863281 157.472656 L 226.144531 157.464844 L 227.425781 157.460938 L 228.707031 157.453125 L 229.988281 157.449219 L 231.269531 157.441406 L 232.550781 157.429688 L 233.832031 157.421875 L 235.109375 157.410156 L 236.390625 157.402344 L 237.671875 157.390625 L 240.234375 157.359375 L 241.515625 157.347656 L 242.796875 157.328125 L 244.078125 157.3125 L 249.203125 157.234375 L 250.480469 157.214844 L 251.761719 157.191406 L 253.042969 157.171875 L 256.886719 157.101562 L 258.167969 157.082031 L 260.730469 157.035156 L 263.292969 156.996094 L 264.570312 156.976562 L 265.851562 156.957031 L 269.695312 156.910156 L 273.539062 156.875 L 274.820312 156.867188 L 276.101562 156.855469 L 277.382812 156.851562 L 278.664062 156.84375 L 279.941406 156.839844 L 282.503906 156.832031 L 283.785156 156.832031 L 285.066406 156.828125 L 286.347656 156.828125 L 287.628906 156.824219 L 290.191406 156.824219 L 291.472656 156.820312 L 292.753906 156.820312 L 294.03125 156.816406 L 295.3125 156.816406 L 303 156.792969 L 304.28125 156.785156 L 305.5625 156.78125 L 308.125 156.765625 L 309.402344 156.757812 L 314.527344 156.726562 L 315.808594 156.714844 L 317.089844 156.707031 L 320.933594 156.671875 L 322.214844 156.65625 L 323.492188 156.640625 L 324.773438 156.625 L 327.335938 156.585938 L 329.898438 156.539062 L 331.179688 156.511719 L 333.742188 156.449219 L 336.304688 156.378906 L 337.585938 156.335938 L 338.863281 156.296875 L 341.425781 156.203125 L 343.988281 156.101562 L 345.269531 156.046875 L 346.550781 155.988281 L 347.832031 155.933594 L 349.113281 155.871094 L 350.394531 155.8125 L 351.675781 155.75 L 352.953125 155.6875 L 355.515625 155.5625 L 356.796875 155.496094 L 361.921875 155.246094 L 363.203125 155.179688 L 367.046875 154.992188 L 368.324219 154.929688 L 369.605469 154.867188 L 370.886719 154.800781 L 372.167969 154.738281 L 373.449219 154.667969 L 374.730469 154.601562 L 377.292969 154.453125 L 378.574219 154.375 L 379.855469 154.292969 L 381.136719 154.207031 L 382.414062 154.113281 L 383.695312 154.015625 L 384.976562 153.914062 L 386.257812 153.808594 L 387.539062 153.691406 L 388.820312 153.570312 L 390.101562 153.441406 L 391.382812 153.304688 L 392.664062 153.164062 L 393.945312 153.011719 L 395.226562 152.855469 L 396.507812 152.695312 L 397.785156 152.523438 L 399.066406 152.351562 L 400.347656 152.171875 L 402.910156 151.796875 L 406.753906 151.210938 L 408.035156 151.011719 L 409.316406 150.808594 L 410.597656 150.609375 L 411.875 150.40625 L 413.15625 150.207031 L 417 149.621094 L 419.5625 149.238281 L 420.84375 149.054688 L 422.125 148.867188 L 425.96875 148.328125 L 427.246094 148.148438 L 428.527344 147.964844 L 429.808594 147.785156 L 431.089844 147.601562 L 432.371094 147.410156 L 433.652344 147.214844 L 434.933594 147.011719 L 436.214844 146.800781 L 437.496094 146.578125 L 438.777344 146.34375 L 440.058594 146.089844 L 441.335938 145.824219 L 442.617188 145.539062 L 443.898438 145.238281 L 445.179688 144.90625 L 446.460938 144.554688 L 447.742188 144.175781 L 449.023438 143.769531 L 450.304688 143.339844 L 451.585938 142.871094 L 452.867188 142.367188 L 454.148438 141.835938 L 455.429688 141.265625 L 456.707031 140.664062 L 457.988281 140.019531 L 459.269531 139.335938 L 460.550781 138.613281 L 461.832031 137.851562 L 463.113281 137.050781 L 464.394531 136.199219 L 465.675781 135.304688 L 466.957031 134.367188 L 468.238281 133.390625 L 469.519531 132.367188 L 470.796875 131.292969 L 472.078125 130.167969 L 473.359375 129 L 474.640625 127.789062 L 475.921875 126.53125 L 477.203125 125.21875 L 478.484375 123.855469 L 479.765625 122.445312 L 481.046875 120.992188 L 482.328125 119.496094 L 483.609375 117.945312 L 484.890625 116.351562 L 486.167969 114.714844 L 487.449219 113.039062 L 488.730469 111.332031 L 490.011719 109.582031 L 491.292969 107.800781 L 492.574219 105.996094 L 493.855469 104.167969 L 495.136719 102.320312 L 496.417969 100.464844 L 498.980469 96.738281 L 500.257812 94.882812 L 501.539062 93.039062 L 502.820312 91.222656 L 504.101562 89.433594 L 505.382812 87.683594 L 506.664062 85.976562 L 507.945312 84.316406 L 509.226562 82.71875 L 510.507812 81.191406 L 511.789062 79.738281 L 513.070312 78.355469 L 514.351562 77.054688 L 515.628906 75.839844 L 516.910156 74.738281 L 518.191406 73.722656 L 519.472656 72.800781 L 520.753906 71.972656 L 522.035156 71.25 L 523.316406 70.644531 L 524.597656 70.136719 L 525.878906 69.722656 L 527.160156 69.398438 L 528.441406 69.175781 L 529.71875 69.0625 L 531 69.03125 L 532.28125 69.082031 L 533.5625 69.210938 L 534.84375 69.417969 L 536.125 69.714844 L 537.40625 70.078125 L 538.6875 70.496094 L 539.96875 70.976562 L 541.25 71.511719 L 542.53125 72.105469 L 543.8125 72.746094 L 545.089844 73.429688 L 546.371094 74.148438 L 547.652344 74.902344 L 548.933594 75.699219 L 550.214844 76.527344 L 551.496094 77.378906 L 552.777344 78.257812 L 554.058594 79.15625 L 555.339844 80.085938 L 556.621094 81.03125 L 557.902344 81.996094 L 559.179688 82.980469 L 560.460938 83.980469 L 561.742188 85 L 563.023438 86.035156 L 564.304688 87.082031 L 565.585938 88.148438 L 566.867188 89.226562 L 568.148438 90.324219 L 569.429688 91.433594 L 570.710938 92.558594 L 571.992188 93.699219 L 573.273438 94.855469 L 574.550781 96.027344 L 575.832031 97.214844 L 577.113281 98.417969 L 578.394531 99.636719 L 579.675781 100.871094 L 580.957031 102.125 L 582.238281 103.394531 L 583.519531 104.679688 L 584.800781 105.980469 L 586.082031 107.296875 L 587.363281 108.632812 L 588.644531 109.980469 L 589.921875 111.34375 L 591.203125 112.71875 L 592.484375 114.101562 L 593.765625 115.5 L 595.046875 116.910156 L 596.328125 118.324219 L 597.609375 119.742188 L 601.453125 124.007812 L 602.734375 125.425781 L 604.011719 126.835938 L 605.292969 128.234375 L 606.574219 129.621094 L 607.855469 130.992188 L 609.136719 132.339844 L 610.417969 133.671875 L 611.699219 134.980469 L 612.980469 136.257812 L 614.261719 137.5 L 615.542969 138.714844 L 616.824219 139.894531 L 618.105469 141.042969 L 619.382812 142.148438 L 620.664062 143.207031 L 621.945312 144.226562 L 623.226562 145.203125 L 624.507812 146.140625 L 625.789062 147.03125 L 627.070312 147.871094 L 628.351562 148.667969 L 629.632812 149.421875 L 630.914062 150.132812 L 632.195312 150.796875 L 633.472656 151.414062 L 634.753906 151.988281 L 636.035156 152.527344 L 637.316406 153.027344 L 638.597656 153.484375 L 639.878906 153.902344 L 641.160156 154.289062 L 642.441406 154.640625 L 643.722656 154.964844 L 645.003906 155.257812 L 646.285156 155.519531 L 647.566406 155.757812 L 648.84375 155.972656 L 650.125 156.164062 L 651.40625 156.339844 L 652.6875 156.488281 L 653.96875 156.621094 L 655.25 156.742188 L 656.53125 156.847656 L 657.8125 156.941406 L 659.09375 157.019531 L 660.375 157.089844 L 661.65625 157.152344 L 662.933594 157.207031 L 664.214844 157.253906 L 666.777344 157.324219 L 669.339844 157.378906 L 670.621094 157.398438 L 673.183594 157.429688 L 675.746094 157.453125 L 677.027344 157.460938 L 678.304688 157.46875 L 679.585938 157.472656 L 680.867188 157.480469 L 683.429688 157.488281 L 684.710938 157.488281 L 685.992188 157.492188 L 687.273438 157.492188 L 687.273438 157.5 Z M 32.726562 157.5 "/>
<path fill="none" stroke-width="1.066978" stroke-linecap="round" stroke-linejoin="round" stroke="rgb(0%, 69.019608%, 96.470588%)" stroke-opacity="1" stroke-miterlimit="10" d="M 32.726562 157.5 L 205.648438 157.5 L 206.929688 157.496094 L 212.054688 157.496094 L 213.335938 157.492188 L 215.898438 157.492188 L 217.179688 157.488281 L 218.460938 157.488281 L 219.742188 157.484375 L 221.019531 157.480469 L 222.300781 157.480469 L 224.863281 157.472656 L 226.144531 157.464844 L 227.425781 157.460938 L 228.707031 157.453125 L 229.988281 157.449219 L 231.269531 157.441406 L 232.550781 157.429688 L 233.832031 157.421875 L 235.109375 157.410156 L 236.390625 157.402344 L 237.671875 157.390625 L 240.234375 157.359375 L 241.515625 157.347656 L 242.796875 157.328125 L 244.078125 157.3125 L 249.203125 157.234375 L 250.480469 157.214844 L 251.761719 157.191406 L 253.042969 157.171875 L 256.886719 157.101562 L 258.167969 157.082031 L 260.730469 157.035156 L 263.292969 156.996094 L 264.570312 156.976562 L 265.851562 156.957031 L 269.695312 156.910156 L 273.539062 156.875 L 274.820312 156.867188 L 276.101562 156.855469 L 277.382812 156.851562 L 278.664062 156.84375 L 279.941406 156.839844 L 282.503906 156.832031 L 283.785156 156.832031 L 285.066406 156.828125 L 286.347656 156.828125 L 287.628906 156.824219 L 290.191406 156.824219 L 291.472656 156.820312 L 292.753906 156.820312 L 294.03125 156.816406 L 295.3125 156.816406 L 303 156.792969 L 304.28125 156.785156 L 305.5625 156.78125 L 308.125 156.765625 L 309.402344 156.757812 L 314.527344 156.726562 L 315.808594 156.714844 L 317.089844 156.707031 L 320.933594 156.671875 L 322.214844 156.65625 L 323.492188 156.640625 L 324.773438 156.625 L 327.335938 156.585938 L 329.898438 156.539062 L 331.179688 156.511719 L 333.742188 156.449219 L 336.304688 156.378906 L 337.585938 156.335938 L 338.863281 156.296875 L 341.425781 156.203125 L 343.988281 156.101562 L 345.269531 156.046875 L 346.550781 155.988281 L 347.832031 155.933594 L 349.113281 155.871094 L 350.394531 155.8125 L 351.675781 155.75 L 352.953125 155.6875 L 355.515625 155.5625 L 356.796875 155.496094 L 361.921875 155.246094 L 363.203125 155.179688 L 367.046875 154.992188 L 368.324219 154.929688 L 369.605469 154.867188 L 370.886719 154.800781 L 372.167969 154.738281 L 373.449219 154.667969 L 374.730469 154.601562 L 377.292969 154.453125 L 378.574219 154.375 L 379.855469 154.292969 L 381.136719 154.207031 L 382.414062 154.113281 L 383.695312 154.015625 L 384.976562 153.914062 L 386.257812 153.808594 L 387.539062 153.691406 L 388.820312 153.570312 L 390.101562 153.441406 L 391.382812 153.304688 L 392.664062 153.164062 L 393.945312 153.011719 L 395.226562 152.855469 L 396.507812 152.695312 L 397.785156 152.523438 L 399.066406 152.351562 L 400.347656 152.171875 L 402.910156 151.796875 L 406.753906 151.210938 L 408.035156 151.011719 L 409.316406 150.808594 L 410.597656 150.609375 L 411.875 150.40625 L 413.15625 150.207031 L 417 149.621094 L 419.5625 149.238281 L 420.84375 149.054688 L 422.125 148.867188 L 425.96875 148.328125 L 427.246094 148.148438 L 428.527344 147.964844 L 429.808594 147.785156 L 431.089844 147.601562 L 432.371094 147.410156 L 433.652344 147.214844 L 434.933594 147.011719 L 436.214844 146.800781 L 437.496094 146.578125 L 438.777344 146.34375 L 440.058594 146.089844 L 441.335938 145.824219 L 442.617188 145.539062 L 443.898438 145.238281 L 445.179688 144.90625 L 446.460938 144.554688 L 447.742188 144.175781 L 449.023438 143.769531 L 450.304688 143.339844 L 451.585938 142.871094 L 452.867188 142.367188 L 454.148438 141.835938 L 455.429688 141.265625 L 456.707031 140.664062 L 457.988281 140.019531 L 459.269531 139.335938 L 460.550781 138.613281 L 461.832031 137.851562 L 463.113281 137.050781 L 464.394531 136.199219 L 465.675781 135.304688 L 466.957031 134.367188 L 468.238281 133.390625 L 469.519531 132.367188 L 470.796875 131.292969 L 472.078125 130.167969 L 473.359375 129 L 474.640625 127.789062 L 475.921875 126.53125 L 477.203125 125.21875 L 478.484375 123.855469 L 479.765625 122.445312 L 481.046875 120.992188 L 482.328125 119.496094 L 483.609375 117.945312 L 484.890625 116.351562 L 486.167969 114.714844 L 487.449219 113.039062 L 488.730469 111.332031 L 490.011719 109.582031 L 491.292969 107.800781 L 492.574219 105.996094 L 493.855469 104.167969 L 495.136719 102.320312 L 496.417969 100.464844 L 498.980469 96.738281 L 500.257812 94.882812 L 501.539062 93.039062 L 502.820312 91.222656 L 504.101562 89.433594 L 505.382812 87.683594 L 506.664062 85.976562 L 507.945312 84.316406 L 509.226562 82.71875 L 510.507812 81.191406 L 511.789062 79.738281 L 513.070312 78.355469 L 514.351562 77.054688 L 515.628906 75.839844 L 516.910156 74.738281 L 518.191406 73.722656 L 519.472656 72.800781 L 520.753906 71.972656 L 522.035156 71.25 L 523.316406 70.644531 L 524.597656 70.136719 L 525.878906 69.722656 L 527.160156 69.398438 L 528.441406 69.175781 L 529.71875 69.0625 L 531 69.03125 L 532.28125 69.082031 L 533.5625 69.210938 L 534.84375 69.417969 L 536.125 69.714844 L 537.40625 70.078125 L 538.6875 70.496094 L 539.96875 70.976562 L 541.25 71.511719 L 542.53125 72.105469 L 543.8125 72.746094 L 545.089844 73.429688 L 546.371094 74.148438 L 547.652344 74.902344 L 548.933594 75.699219 L 550.214844 76.527344 L 551.496094 77.378906 L 552.777344 78.257812 L 554.058594 79.15625 L 555.339844 80.085938 L 556.621094 81.03125 L 557.902344 81.996094 L 559.179688 82.980469 L 560.460938 83.980469 L 561.742188 85 L 563.023438 86.035156 L 564.304688 87.082031 L 565.585938 88.148438 L 566.867188 89.226562 L 568.148438 90.324219 L 569.429688 91.433594 L 570.710938 92.558594 L 571.992188 93.699219 L 573.273438 94.855469 L 574.550781 96.027344 L 575.832031 97.214844 L 577.113281 98.417969 L 578.394531 99.636719 L 579.675781 100.871094 L 580.957031 102.125 L 582.238281 103.394531 L 583.519531 104.679688 L 584.800781 105.980469 L 586.082031 107.296875 L 587.363281 108.632812 L 588.644531 109.980469 L 589.921875 111.34375 L 591.203125 112.71875 L 592.484375 114.101562 L 593.765625 115.5 L 595.046875 116.910156 L 596.328125 118.324219 L 597.609375 119.742188 L 601.453125 124.007812 L 602.734375 125.425781 L 604.011719 126.835938 L 605.292969 128.234375 L 606.574219 129.621094 L 607.855469 130.992188 L 609.136719 132.339844 L 610.417969 133.671875 L 611.699219 134.980469 L 612.980469 136.257812 L 614.261719 137.5 L 615.542969 138.714844 L 616.824219 139.894531 L 618.105469 141.042969 L 619.382812 142.148438 L 620.664062 143.207031 L 621.945312 144.226562 L 623.226562 145.203125 L 624.507812 146.140625 L 625.789062 147.03125 L 627.070312 147.871094 L 628.351562 148.667969 L 629.632812 149.421875 L 630.914062 150.132812 L 632.195312 150.796875 L 633.472656 151.414062 L 634.753906 151.988281 L 636.035156 152.527344 L 637.316406 153.027344 L 638.597656 153.484375 L 639.878906 153.902344 L 641.160156 154.289062 L 642.441406 154.640625 L 643.722656 154.964844 L 645.003906 155.257812 L 646.285156 155.519531 L 647.566406 155.757812 L 648.84375 155.972656 L 650.125 156.164062 L 651.40625 156.339844 L 652.6875 156.488281 L 653.96875 156.621094 L 655.25 156.742188 L 656.53125 156.847656 L 657.8125 156.941406 L 659.09375 157.019531 L 660.375 157.089844 L 661.65625 157.152344 L 662.933594 157.207031 L 664.214844 157.253906 L 666.777344 157.324219 L 669.339844 157.378906 L 670.621094 157.398438 L 673.183594 157.429688 L 675.746094 157.453125 L 677.027344 157.460938 L 678.304688 157.46875 L 679.585938 157.472656 L 680.867188 157.480469 L 683.429688 157.488281 L 684.710938 157.488281 L 685.992188 157.492188 L 687.273438 157.492188 "/>
<path fill-rule="nonzero" fill="rgb(0%, 74.901961%, 49.019608%)" fill-opacity="0.501961" d="M 32.726562 213.75 L 71.15625 213.75 L 72.433594 213.746094 L 78.839844 213.746094 L 80.121094 213.742188 L 81.402344 213.742188 L 82.683594 213.738281 L 83.964844 213.738281 L 85.246094 213.734375 L 86.527344 213.734375 L 87.804688 213.730469 L 90.367188 213.722656 L 91.648438 213.714844 L 92.929688 213.710938 L 96.773438 213.6875 L 98.054688 213.675781 L 99.335938 213.667969 L 100.617188 213.652344 L 101.894531 213.640625 L 104.457031 213.609375 L 105.738281 213.589844 L 109.582031 213.519531 L 110.863281 213.492188 L 113.425781 213.429688 L 115.988281 213.359375 L 117.265625 213.316406 L 119.828125 213.230469 L 123.671875 213.078125 L 126.234375 212.960938 L 128.796875 212.835938 L 130.078125 212.769531 L 131.355469 212.703125 L 132.636719 212.632812 L 136.480469 212.410156 L 140.324219 212.175781 L 141.605469 212.09375 L 142.886719 212.015625 L 145.449219 211.851562 L 146.726562 211.773438 L 149.289062 211.609375 L 150.570312 211.53125 L 151.851562 211.449219 L 158.257812 211.058594 L 159.539062 210.984375 L 160.820312 210.90625 L 162.097656 210.832031 L 164.660156 210.683594 L 165.941406 210.605469 L 167.222656 210.53125 L 171.066406 210.296875 L 173.628906 210.132812 L 174.910156 210.046875 L 176.1875 209.957031 L 177.46875 209.867188 L 178.75 209.769531 L 180.03125 209.667969 L 181.3125 209.5625 L 182.59375 209.453125 L 183.875 209.339844 L 185.15625 209.21875 L 186.4375 209.09375 L 187.71875 208.960938 L 189 208.824219 L 190.28125 208.679688 L 191.558594 208.527344 L 192.839844 208.371094 L 194.121094 208.207031 L 195.402344 208.039062 L 196.683594 207.863281 L 197.964844 207.683594 L 199.246094 207.496094 L 200.527344 207.300781 L 201.808594 207.101562 L 203.089844 206.898438 L 204.371094 206.691406 L 205.648438 206.476562 L 206.929688 206.261719 L 208.210938 206.039062 L 210.773438 205.585938 L 213.335938 205.117188 L 215.898438 204.640625 L 217.179688 204.398438 L 219.742188 203.90625 L 221.019531 203.65625 L 222.300781 203.410156 L 224.863281 202.910156 L 226.144531 202.65625 L 233.832031 201.15625 L 235.109375 200.910156 L 238.953125 200.183594 L 241.515625 199.714844 L 242.796875 199.484375 L 244.078125 199.257812 L 245.359375 199.035156 L 246.640625 198.816406 L 247.921875 198.601562 L 249.203125 198.390625 L 250.480469 198.1875 L 251.761719 197.988281 L 253.042969 197.792969 L 254.324219 197.605469 L 255.605469 197.421875 L 256.886719 197.242188 L 258.167969 197.074219 L 259.449219 196.910156 L 260.730469 196.75 L 262.011719 196.597656 L 263.292969 196.453125 L 264.570312 196.316406 L 265.851562 196.1875 L 267.132812 196.0625 L 268.414062 195.945312 L 269.695312 195.835938 L 270.976562 195.738281 L 272.257812 195.644531 L 273.539062 195.558594 L 274.820312 195.476562 L 276.101562 195.40625 L 277.382812 195.34375 L 278.664062 195.289062 L 279.941406 195.238281 L 281.222656 195.195312 L 282.503906 195.15625 L 283.785156 195.125 L 285.066406 195.101562 L 286.347656 195.082031 L 287.628906 195.066406 L 288.910156 195.054688 L 291.472656 195.046875 L 294.03125 195.046875 L 299.15625 195.0625 L 300.4375 195.0625 L 301.71875 195.066406 L 304.28125 195.066406 L 305.5625 195.0625 L 306.84375 195.054688 L 308.125 195.042969 L 309.402344 195.03125 L 310.683594 195.015625 L 311.964844 194.996094 L 313.246094 194.972656 L 314.527344 194.945312 L 317.089844 194.882812 L 319.652344 194.804688 L 322.214844 194.71875 L 323.492188 194.667969 L 324.773438 194.621094 L 328.617188 194.457031 L 332.460938 194.28125 L 335.023438 194.15625 L 337.585938 194.023438 L 338.863281 193.953125 L 341.425781 193.804688 L 342.707031 193.726562 L 343.988281 193.644531 L 345.269531 193.558594 L 346.550781 193.46875 L 347.832031 193.371094 L 349.113281 193.265625 L 350.394531 193.15625 L 351.675781 193.039062 L 352.953125 192.914062 L 354.234375 192.777344 L 355.515625 192.632812 L 356.796875 192.480469 L 358.078125 192.316406 L 359.359375 192.140625 L 360.640625 191.953125 L 361.921875 191.753906 L 363.203125 191.546875 L 364.484375 191.324219 L 365.765625 191.09375 L 367.046875 190.851562 L 368.324219 190.597656 L 369.605469 190.335938 L 370.886719 190.0625 L 372.167969 189.785156 L 373.449219 189.496094 L 374.730469 189.203125 L 376.011719 188.902344 L 378.574219 188.292969 L 379.855469 187.984375 L 381.136719 187.671875 L 382.414062 187.363281 L 384.976562 186.753906 L 386.257812 186.453125 L 387.539062 186.15625 L 388.820312 185.867188 L 390.101562 185.585938 L 391.382812 185.308594 L 392.664062 185.042969 L 393.945312 184.785156 L 395.226562 184.535156 L 396.507812 184.296875 L 397.785156 184.066406 L 399.066406 183.847656 L 400.347656 183.640625 L 401.628906 183.441406 L 402.910156 183.25 L 404.191406 183.070312 L 405.472656 182.898438 L 406.753906 182.738281 L 408.035156 182.589844 L 409.316406 182.445312 L 410.597656 182.308594 L 411.875 182.179688 L 413.15625 182.0625 L 414.4375 181.949219 L 415.71875 181.84375 L 417 181.742188 L 418.28125 181.644531 L 419.5625 181.554688 L 420.84375 181.46875 L 424.6875 181.234375 L 425.96875 181.164062 L 427.246094 181.09375 L 431.089844 180.894531 L 432.371094 180.832031 L 433.652344 180.765625 L 440.058594 180.453125 L 441.335938 180.390625 L 442.617188 180.324219 L 443.898438 180.261719 L 445.179688 180.195312 L 446.460938 180.132812 L 447.742188 180.066406 L 449.023438 180.003906 L 450.304688 179.9375 L 451.585938 179.875 L 452.867188 179.808594 L 455.429688 179.683594 L 456.707031 179.617188 L 457.988281 179.554688 L 459.269531 179.488281 L 460.550781 179.425781 L 463.113281 179.292969 L 464.394531 179.222656 L 465.675781 179.15625 L 466.957031 179.085938 L 469.519531 178.9375 L 470.796875 178.855469 L 472.078125 178.773438 L 473.359375 178.6875 L 474.640625 178.597656 L 475.921875 178.503906 L 477.203125 178.40625 L 479.765625 178.195312 L 481.046875 178.082031 L 483.609375 177.839844 L 484.890625 177.710938 L 486.167969 177.582031 L 488.730469 177.308594 L 493.855469 176.746094 L 496.417969 176.472656 L 497.699219 176.34375 L 498.980469 176.21875 L 500.257812 176.105469 L 501.539062 175.996094 L 502.820312 175.902344 L 504.101562 175.820312 L 505.382812 175.753906 L 506.664062 175.703125 L 507.945312 175.664062 L 509.226562 175.652344 L 510.507812 175.660156 L 511.789062 175.6875 L 513.070312 175.742188 L 514.351562 175.816406 L 515.628906 175.917969 L 516.910156 176.050781 L 518.191406 176.207031 L 519.472656 176.390625 L 520.753906 176.601562 L 522.035156 176.839844 L 523.316406 177.109375 L 524.597656 177.40625 L 525.878906 177.730469 L 527.160156 178.074219 L 528.441406 178.449219 L 529.71875 178.847656 L 531 179.273438 L 532.28125 179.714844 L 533.5625 180.179688 L 534.84375 180.660156 L 536.125 181.160156 L 537.40625 181.675781 L 538.6875 182.207031 L 539.96875 182.746094 L 541.25 183.296875 L 542.53125 183.855469 L 543.8125 184.425781 L 545.089844 184.996094 L 546.371094 185.570312 L 547.652344 186.148438 L 548.933594 186.722656 L 550.214844 187.300781 L 551.496094 187.875 L 552.777344 188.445312 L 554.058594 189.011719 L 555.339844 189.570312 L 556.621094 190.125 L 557.902344 190.671875 L 559.179688 191.210938 L 560.460938 191.742188 L 561.742188 192.261719 L 563.023438 192.777344 L 564.304688 193.277344 L 565.585938 193.773438 L 566.867188 194.257812 L 568.148438 194.730469 L 569.429688 195.195312 L 570.710938 195.648438 L 571.992188 196.09375 L 573.273438 196.527344 L 574.550781 196.953125 L 575.832031 197.367188 L 577.113281 197.777344 L 578.394531 198.175781 L 579.675781 198.566406 L 580.957031 198.945312 L 582.238281 199.320312 L 583.519531 199.6875 L 584.800781 200.046875 L 586.082031 200.398438 L 587.363281 200.742188 L 588.644531 201.082031 L 589.921875 201.414062 L 591.203125 201.742188 L 592.484375 202.066406 L 593.765625 202.382812 L 595.046875 202.695312 L 596.328125 203.003906 L 597.609375 203.308594 L 598.890625 203.609375 L 600.171875 203.90625 L 602.734375 204.492188 L 604.011719 204.777344 L 605.292969 205.0625 L 607.855469 205.625 L 610.417969 206.179688 L 611.699219 206.449219 L 612.980469 206.722656 L 614.261719 206.988281 L 615.542969 207.257812 L 618.105469 207.78125 L 619.382812 208.039062 L 620.664062 208.296875 L 623.226562 208.796875 L 624.507812 209.042969 L 625.789062 209.285156 L 628.351562 209.753906 L 629.632812 209.980469 L 630.914062 210.203125 L 632.195312 210.417969 L 633.472656 210.628906 L 634.753906 210.832031 L 636.035156 211.03125 L 637.316406 211.21875 L 638.597656 211.402344 L 639.878906 211.578125 L 641.160156 211.742188 L 642.441406 211.902344 L 643.722656 212.054688 L 645.003906 212.199219 L 646.285156 212.332031 L 647.566406 212.460938 L 648.84375 212.578125 L 650.125 212.691406 L 651.40625 212.796875 L 652.6875 212.890625 L 653.96875 212.980469 L 655.25 213.0625 L 656.53125 213.136719 L 657.8125 213.207031 L 659.09375 213.269531 L 660.375 213.324219 L 661.65625 213.375 L 662.933594 213.421875 L 664.214844 213.464844 L 666.777344 213.535156 L 669.339844 213.589844 L 670.621094 213.613281 L 671.902344 213.632812 L 675.746094 213.679688 L 677.027344 213.691406 L 678.304688 213.699219 L 680.867188 213.714844 L 682.148438 213.71875 L 683.429688 213.726562 L 687.273438 213.738281 L 687.273438 213.75 Z M 32.726562 213.75 "/>
<path fill="none" stroke-width="1.066978" stroke-linecap="round" stroke-linejoin="round" stroke="rgb(0%, 74.901961%, 49.019608%)" stroke-opacity="1" stroke-miterlimit="10" d="M 32.726562 213.75 L 71.15625 213.75 L 72.433594 213.746094 L 78.839844 213.746094 L 80.121094 213.742188 L 81.402344 213.742188 L 82.683594 213.738281 L 83.964844 213.738281 L 85.246094 213.734375 L 86.527344 213.734375 L 87.804688 213.730469 L 90.367188 213.722656 L 91.648438 213.714844 L 92.929688 213.710938 L 96.773438 213.6875 L 98.054688 213.675781 L 99.335938 213.667969 L 100.617188 213.652344 L 101.894531 213.640625 L 104.457031 213.609375 L 105.738281 213.589844 L 109.582031 213.519531 L 110.863281 213.492188 L 113.425781 213.429688 L 115.988281 213.359375 L 117.265625 213.316406 L 119.828125 213.230469 L 123.671875 213.078125 L 126.234375 212.960938 L 128.796875 212.835938 L 130.078125 212.769531 L 131.355469 212.703125 L 132.636719 212.632812 L 136.480469 212.410156 L 140.324219 212.175781 L 141.605469 212.09375 L 142.886719 212.015625 L 145.449219 211.851562 L 146.726562 211.773438 L 149.289062 211.609375 L 150.570312 211.53125 L 151.851562 211.449219 L 158.257812 211.058594 L 159.539062 210.984375 L 160.820312 210.90625 L 162.097656 210.832031 L 164.660156 210.683594 L 165.941406 210.605469 L 167.222656 210.53125 L 171.066406 210.296875 L 173.628906 210.132812 L 174.910156 210.046875 L 176.1875 209.957031 L 177.46875 209.867188 L 178.75 209.769531 L 180.03125 209.667969 L 181.3125 209.5625 L 182.59375 209.453125 L 183.875 209.339844 L 185.15625 209.21875 L 186.4375 209.09375 L 187.71875 208.960938 L 189 208.824219 L 190.28125 208.679688 L 191.558594 208.527344 L 192.839844 208.371094 L 194.121094 208.207031 L 195.402344 208.039062 L 196.683594 207.863281 L 197.964844 207.683594 L 199.246094 207.496094 L 200.527344 207.300781 L 201.808594 207.101562 L 203.089844 206.898438 L 204.371094 206.691406 L 205.648438 206.476562 L 206.929688 206.261719 L 208.210938 206.039062 L 210.773438 205.585938 L 213.335938 205.117188 L 215.898438 204.640625 L 217.179688 204.398438 L 219.742188 203.90625 L 221.019531 203.65625 L 222.300781 203.410156 L 224.863281 202.910156 L 226.144531 202.65625 L 233.832031 201.15625 L 235.109375 200.910156 L 238.953125 200.183594 L 241.515625 199.714844 L 242.796875 199.484375 L 244.078125 199.257812 L 245.359375 199.035156 L 246.640625 198.816406 L 247.921875 198.601562 L 249.203125 198.390625 L 250.480469 198.1875 L 251.761719 197.988281 L 253.042969 197.792969 L 254.324219 197.605469 L 255.605469 197.421875 L 256.886719 197.242188 L 258.167969 197.074219 L 259.449219 196.910156 L 260.730469 196.75 L 262.011719 196.597656 L 263.292969 196.453125 L 264.570312 196.316406 L 265.851562 196.1875 L 267.132812 196.0625 L 268.414062 195.945312 L 269.695312 195.835938 L 270.976562 195.738281 L 272.257812 195.644531 L 273.539062 195.558594 L 274.820312 195.476562 L 276.101562 195.40625 L 277.382812 195.34375 L 278.664062 195.289062 L 279.941406 195.238281 L 281.222656 195.195312 L 282.503906 195.15625 L 283.785156 195.125 L 285.066406 195.101562 L 286.347656 195.082031 L 287.628906 195.066406 L 288.910156 195.054688 L 291.472656 195.046875 L 294.03125 195.046875 L 299.15625 195.0625 L 300.4375 195.0625 L 301.71875 195.066406 L 304.28125 195.066406 L 305.5625 195.0625 L 306.84375 195.054688 L 308.125 195.042969 L 309.402344 195.03125 L 310.683594 195.015625 L 311.964844 194.996094 L 313.246094 194.972656 L 314.527344 194.945312 L 317.089844 194.882812 L 319.652344 194.804688 L 322.214844 194.71875 L 323.492188 194.667969 L 324.773438 194.621094 L 328.617188 194.457031 L 332.460938 194.28125 L 335.023438 194.15625 L 337.585938 194.023438 L 338.863281 193.953125 L 341.425781 193.804688 L 342.707031 193.726562 L 343.988281 193.644531 L 345.269531 193.558594 L 346.550781 193.46875 L 347.832031 193.371094 L 349.113281 193.265625 L 350.394531 193.15625 L 351.675781 193.039062 L 352.953125 192.914062 L 354.234375 192.777344 L 355.515625 192.632812 L 356.796875 192.480469 L 358.078125 192.316406 L 359.359375 192.140625 L 360.640625 191.953125 L 361.921875 191.753906 L 363.203125 191.546875 L 364.484375 191.324219 L 365.765625 191.09375 L 367.046875 190.851562 L 368.324219 190.597656 L 369.605469 190.335938 L 370.886719 190.0625 L 372.167969 189.785156 L 373.449219 189.496094 L 374.730469 189.203125 L 376.011719 188.902344 L 378.574219 188.292969 L 379.855469 187.984375 L 381.136719 187.671875 L 382.414062 187.363281 L 384.976562 186.753906 L 386.257812 186.453125 L 387.539062 186.15625 L 388.820312 185.867188 L 390.101562 185.585938 L 391.382812 185.308594 L 392.664062 185.042969 L 393.945312 184.785156 L 395.226562 184.535156 L 396.507812 184.296875 L 397.785156 184.066406 L 399.066406 183.847656 L 400.347656 183.640625 L 401.628906 183.441406 L 402.910156 183.25 L 404.191406 183.070312 L 405.472656 182.898438 L 406.753906 182.738281 L 408.035156 182.589844 L 409.316406 182.445312 L 410.597656 182.308594 L 411.875 182.179688 L 413.15625 182.0625 L 414.4375 181.949219 L 415.71875 181.84375 L 417 181.742188 L 418.28125 181.644531 L 419.5625 181.554688 L 420.84375 181.46875 L 424.6875 181.234375 L 425.96875 181.164062 L 427.246094 181.09375 L 431.089844 180.894531 L 432.371094 180.832031 L 433.652344 180.765625 L 440.058594 180.453125 L 441.335938 180.390625 L 442.617188 180.324219 L 443.898438 180.261719 L 445.179688 180.195312 L 446.460938 180.132812 L 447.742188 180.066406 L 449.023438 180.003906 L 450.304688 179.9375 L 451.585938 179.875 L 452.867188 179.808594 L 455.429688 179.683594 L 456.707031 179.617188 L 457.988281 179.554688 L 459.269531 179.488281 L 460.550781 179.425781 L 463.113281 179.292969 L 464.394531 179.222656 L 465.675781 179.15625 L 466.957031 179.085938 L 469.519531 178.9375 L 470.796875 178.855469 L 472.078125 178.773438 L 473.359375 178.6875 L 474.640625 178.597656 L 475.921875 178.503906 L 477.203125 178.40625 L 479.765625 178.195312 L 481.046875 178.082031 L 483.609375 177.839844 L 484.890625 177.710938 L 486.167969 177.582031 L 488.730469 177.308594 L 493.855469 176.746094 L 496.417969 176.472656 L 497.699219 176.34375 L 498.980469 176.21875 L 500.257812 176.105469 L 501.539062 175.996094 L 502.820312 175.902344 L 504.101562 175.820312 L 505.382812 175.753906 L 506.664062 175.703125 L 507.945312 175.664062 L 509.226562 175.652344 L 510.507812 175.660156 L 511.789062 175.6875 L 513.070312 175.742188 L 514.351562 175.816406 L 515.628906 175.917969 L 516.910156 176.050781 L 518.191406 176.207031 L 519.472656 176.390625 L 520.753906 176.601562 L 522.035156 176.839844 L 523.316406 177.109375 L 524.597656 177.40625 L 525.878906 177.730469 L 527.160156 178.074219 L 528.441406 178.449219 L 529.71875 178.847656 L 531 179.273438 L 532.28125 179.714844 L 533.5625 180.179688 L 534.84375 180.660156 L 536.125 181.160156 L 537.40625 181.675781 L 538.6875 182.207031 L 539.96875 182.746094 L 541.25 183.296875 L 542.53125 183.855469 L 543.8125 184.425781 L 545.089844 184.996094 L 546.371094 185.570312 L 547.652344 186.148438 L 548.933594 186.722656 L 550.214844 187.300781 L 551.496094 187.875 L 552.777344 188.445312 L 554.058594 189.011719 L 555.339844 189.570312 L 556.621094 190.125 L 557.902344 190.671875 L 559.179688 191.210938 L 560.460938 191.742188 L 561.742188 192.261719 L 563.023438 192.777344 L 564.304688 193.277344 L 565.585938 193.773438 L 566.867188 194.257812 L 568.148438 194.730469 L 569.429688 195.195312 L 570.710938 195.648438 L 571.992188 196.09375 L 573.273438 196.527344 L 574.550781 196.953125 L 575.832031 197.367188 L 577.113281 197.777344 L 578.394531 198.175781 L 579.675781 198.566406 L 580.957031 198.945312 L 582.238281 199.320312 L 583.519531 199.6875 L 584.800781 200.046875 L 586.082031 200.398438 L 587.363281 200.742188 L 588.644531 201.082031 L 589.921875 201.414062 L 591.203125 201.742188 L 592.484375 202.066406 L 593.765625 202.382812 L 595.046875 202.695312 L 596.328125 203.003906 L 597.609375 203.308594 L 598.890625 203.609375 L 600.171875 203.90625 L 602.734375 204.492188 L 604.011719 204.777344 L 605.292969 205.0625 L 607.855469 205.625 L 610.417969 206.179688 L 611.699219 206.449219 L 612.980469 206.722656 L 614.261719 206.988281 L 615.542969 207.257812 L 618.105469 207.78125 L 619.382812 208.039062 L 620.664062 208.296875 L 623.226562 208.796875 L 624.507812 209.042969 L 625.789062 209.285156 L 628.351562 209.753906 L 629.632812 209.980469 L 630.914062 210.203125 L 632.195312 210.417969 L 633.472656 210.628906 L 634.753906 210.832031 L 636.035156 211.03125 L 637.316406 211.21875 L 638.597656 211.402344 L 639.878906 211.578125 L 641.160156 211.742188 L 642.441406 211.902344 L 643.722656 212.054688 L 645.003906 212.199219 L 646.285156 212.332031 L 647.566406 212.460938 L 648.84375 212.578125 L 650.125 212.691406 L 651.40625 212.796875 L 652.6875 212.890625 L 653.96875 212.980469 L 655.25 213.0625 L 656.53125 213.136719 L 657.8125 213.207031 L 659.09375 213.269531 L 660.375 213.324219 L 661.65625 213.375 L 662.933594 213.421875 L 664.214844 213.464844 L 666.777344 213.535156 L 669.339844 213.589844 L 670.621094 213.613281 L 671.902344 213.632812 L 675.746094 213.679688 L 677.027344 213.691406 L 678.304688 213.699219 L 680.867188 213.714844 L 682.148438 213.71875 L 683.429688 213.726562 L 687.273438 213.738281 "/>
<path fill-rule="nonzero" fill="rgb(63.921569%, 64.705882%, 0%)" fill-opacity="0.501961" d="M 32.726562 270 L 149.289062 270 L 150.570312 269.996094 L 156.976562 269.996094 L 158.257812 269.992188 L 159.539062 269.992188 L 160.820312 269.988281 L 162.097656 269.988281 L 163.378906 269.984375 L 164.660156 269.984375 L 169.785156 269.96875 L 172.347656 269.953125 L 173.628906 269.949219 L 174.910156 269.9375 L 176.1875 269.929688 L 177.46875 269.917969 L 178.75 269.910156 L 183.875 269.847656 L 186.4375 269.808594 L 187.71875 269.785156 L 189 269.757812 L 190.28125 269.734375 L 191.558594 269.703125 L 194.121094 269.640625 L 195.402344 269.601562 L 196.683594 269.566406 L 199.246094 269.480469 L 201.808594 269.386719 L 203.089844 269.335938 L 204.371094 269.28125 L 205.648438 269.222656 L 208.210938 269.097656 L 210.773438 268.957031 L 212.054688 268.882812 L 214.617188 268.71875 L 217.179688 268.539062 L 218.460938 268.441406 L 219.742188 268.335938 L 221.019531 268.226562 L 222.300781 268.113281 L 223.582031 267.992188 L 224.863281 267.867188 L 226.144531 267.734375 L 227.425781 267.59375 L 228.707031 267.449219 L 229.988281 267.300781 L 231.269531 267.140625 L 232.550781 266.976562 L 233.832031 266.804688 L 235.109375 266.628906 L 236.390625 266.449219 L 237.671875 266.261719 L 238.953125 266.066406 L 240.234375 265.867188 L 241.515625 265.664062 L 244.078125 265.25 L 246.640625 264.820312 L 247.921875 264.601562 L 249.203125 264.386719 L 250.480469 264.164062 L 251.761719 263.945312 L 253.042969 263.730469 L 254.324219 263.511719 L 256.886719 263.082031 L 259.449219 262.667969 L 262.011719 262.261719 L 263.292969 262.070312 L 264.570312 261.878906 L 265.851562 261.695312 L 267.132812 261.515625 L 268.414062 261.339844 L 269.695312 261.171875 L 270.976562 261.011719 L 272.257812 260.855469 L 273.539062 260.703125 L 274.820312 260.558594 L 276.101562 260.421875 L 277.382812 260.289062 L 278.664062 260.164062 L 279.941406 260.042969 L 282.503906 259.816406 L 285.066406 259.613281 L 286.347656 259.519531 L 288.910156 259.339844 L 291.472656 259.175781 L 292.753906 259.097656 L 294.03125 259.019531 L 299.15625 258.722656 L 300.4375 258.644531 L 301.71875 258.570312 L 304.28125 258.414062 L 306.84375 258.25 L 308.125 258.164062 L 309.402344 258.074219 L 310.683594 257.984375 L 313.246094 257.796875 L 314.527344 257.699219 L 318.371094 257.394531 L 319.652344 257.289062 L 320.933594 257.1875 L 322.214844 257.082031 L 323.492188 256.976562 L 324.773438 256.871094 L 326.054688 256.769531 L 327.335938 256.664062 L 332.460938 256.257812 L 333.742188 256.160156 L 337.585938 255.855469 L 338.863281 255.753906 L 340.144531 255.648438 L 341.425781 255.539062 L 343.988281 255.304688 L 345.269531 255.175781 L 346.550781 255.042969 L 347.832031 254.902344 L 349.113281 254.75 L 350.394531 254.585938 L 351.675781 254.414062 L 352.953125 254.230469 L 354.234375 254.03125 L 355.515625 253.820312 L 356.796875 253.597656 L 358.078125 253.359375 L 359.359375 253.109375 L 360.640625 252.847656 L 361.921875 252.566406 L 363.203125 252.277344 L 364.484375 251.976562 L 365.765625 251.667969 L 367.046875 251.34375 L 368.324219 251.015625 L 369.605469 250.675781 L 370.886719 250.332031 L 372.167969 249.984375 L 378.574219 248.226562 L 379.855469 247.882812 L 381.136719 247.546875 L 382.414062 247.214844 L 383.695312 246.890625 L 384.976562 246.578125 L 386.257812 246.273438 L 387.539062 245.984375 L 388.820312 245.703125 L 390.101562 245.4375 L 391.382812 245.179688 L 392.664062 244.9375 L 393.945312 244.710938 L 395.226562 244.496094 L 396.507812 244.296875 L 397.785156 244.105469 L 399.066406 243.929688 L 400.347656 243.765625 L 401.628906 243.613281 L 402.910156 243.472656 L 404.191406 243.335938 L 405.472656 243.210938 L 408.035156 242.984375 L 409.316406 242.878906 L 410.597656 242.777344 L 411.875 242.679688 L 415.71875 242.386719 L 417 242.285156 L 418.28125 242.179688 L 419.5625 242.070312 L 420.84375 241.953125 L 422.125 241.828125 L 423.40625 241.699219 L 424.6875 241.558594 L 425.96875 241.410156 L 427.246094 241.25 L 428.527344 241.078125 L 429.808594 240.894531 L 431.089844 240.703125 L 432.371094 240.492188 L 433.652344 240.269531 L 434.933594 240.039062 L 436.214844 239.792969 L 437.496094 239.535156 L 438.777344 239.261719 L 440.058594 238.972656 L 441.335938 238.671875 L 442.617188 238.363281 L 443.898438 238.039062 L 445.179688 237.699219 L 446.460938 237.347656 L 447.742188 236.984375 L 449.023438 236.609375 L 450.304688 236.222656 L 451.585938 235.820312 L 452.867188 235.40625 L 454.148438 234.984375 L 455.429688 234.546875 L 456.707031 234.101562 L 457.988281 233.644531 L 459.269531 233.171875 L 460.550781 232.691406 L 461.832031 232.203125 L 463.113281 231.703125 L 464.394531 231.1875 L 465.675781 230.664062 L 466.957031 230.128906 L 468.238281 229.582031 L 469.519531 229.03125 L 470.796875 228.464844 L 472.078125 227.886719 L 473.359375 227.304688 L 474.640625 226.710938 L 475.921875 226.109375 L 477.203125 225.5 L 478.484375 224.882812 L 479.765625 224.257812 L 482.328125 223 L 484.890625 221.726562 L 486.167969 221.089844 L 488.730469 219.824219 L 490.011719 219.199219 L 491.292969 218.585938 L 492.574219 217.980469 L 493.855469 217.390625 L 495.136719 216.8125 L 496.417969 216.253906 L 497.699219 215.71875 L 498.980469 215.203125 L 500.257812 214.71875 L 501.539062 214.257812 L 502.820312 213.828125 L 504.101562 213.4375 L 505.382812 213.082031 L 506.664062 212.765625 L 507.945312 212.484375 L 509.226562 212.246094 L 510.507812 212.058594 L 511.789062 211.914062 L 513.070312 211.816406 L 514.351562 211.757812 L 515.628906 211.753906 L 516.910156 211.804688 L 518.191406 211.898438 L 519.472656 212.042969 L 520.753906 212.230469 L 522.035156 212.464844 L 523.316406 212.757812 L 524.597656 213.09375 L 525.878906 213.472656 L 527.160156 213.890625 L 528.441406 214.355469 L 529.71875 214.863281 L 531 215.410156 L 532.28125 215.992188 L 533.5625 216.609375 L 534.84375 217.257812 L 536.125 217.945312 L 537.40625 218.660156 L 538.6875 219.398438 L 539.96875 220.160156 L 541.25 220.949219 L 542.53125 221.761719 L 543.8125 222.589844 L 545.089844 223.4375 L 546.371094 224.296875 L 547.652344 225.171875 L 548.933594 226.058594 L 550.214844 226.953125 L 551.496094 227.859375 L 552.777344 228.769531 L 554.058594 229.683594 L 556.621094 231.519531 L 557.902344 232.441406 L 559.179688 233.359375 L 560.460938 234.277344 L 561.742188 235.191406 L 564.304688 237.003906 L 565.585938 237.902344 L 566.867188 238.796875 L 568.148438 239.683594 L 569.429688 240.558594 L 570.710938 241.429688 L 571.992188 242.292969 L 573.273438 243.148438 L 574.550781 243.992188 L 575.832031 244.828125 L 577.113281 245.660156 L 578.394531 246.480469 L 579.675781 247.292969 L 580.957031 248.09375 L 582.238281 248.886719 L 583.519531 249.675781 L 584.800781 250.453125 L 586.082031 251.222656 L 587.363281 251.980469 L 588.644531 252.730469 L 589.921875 253.472656 L 591.203125 254.203125 L 592.484375 254.921875 L 593.765625 255.632812 L 595.046875 256.328125 L 596.328125 257.011719 L 597.609375 257.683594 L 598.890625 258.339844 L 600.171875 258.984375 L 601.453125 259.609375 L 602.734375 260.21875 L 604.011719 260.808594 L 605.292969 261.386719 L 606.574219 261.941406 L 607.855469 262.472656 L 609.136719 262.988281 L 610.417969 263.484375 L 611.699219 263.960938 L 612.980469 264.414062 L 614.261719 264.839844 L 615.542969 265.25 L 616.824219 265.636719 L 618.105469 266.003906 L 619.382812 266.347656 L 620.664062 266.667969 L 621.945312 266.96875 L 623.226562 267.25 L 624.507812 267.515625 L 625.789062 267.757812 L 627.070312 267.980469 L 628.351562 268.183594 L 629.632812 268.375 L 630.914062 268.550781 L 632.195312 268.710938 L 633.472656 268.851562 L 634.753906 268.984375 L 636.035156 269.101562 L 637.316406 269.210938 L 638.597656 269.308594 L 639.878906 269.390625 L 641.160156 269.46875 L 642.441406 269.539062 L 643.722656 269.597656 L 645.003906 269.652344 L 646.285156 269.699219 L 647.566406 269.742188 L 648.84375 269.777344 L 651.40625 269.839844 L 652.6875 269.863281 L 655.25 269.902344 L 656.53125 269.917969 L 659.09375 269.941406 L 660.375 269.949219 L 661.65625 269.960938 L 662.933594 269.964844 L 664.214844 269.972656 L 669.339844 269.988281 L 670.621094 269.988281 L 671.902344 269.992188 L 673.183594 269.992188 L 674.464844 269.996094 L 679.585938 269.996094 L 680.867188 270 L 687.273438 270 Z M 32.726562 270 "/>
<path fill="none" stroke-width="1.066978" stroke-linecap="round" stroke-linejoin="round" stroke="rgb(63.921569%, 64.705882%, 0%)" stroke-opacity="1" stroke-miterlimit="10" d="M 32.726562 270 L 149.289062 270 L 150.570312 269.996094 L 156.976562 269.996094 L 158.257812 269.992188 L 159.539062 269.992188 L 160.820312 269.988281 L 162.097656 269.988281 L 163.378906 269.984375 L 164.660156 269.984375 L 169.785156 269.96875 L 172.347656 269.953125 L 173.628906 269.949219 L 174.910156 269.9375 L 176.1875 269.929688 L 177.46875 269.917969 L 178.75 269.910156 L 183.875 269.847656 L 186.4375 269.808594 L 187.71875 269.785156 L 189 269.757812 L 190.28125 269.734375 L 191.558594 269.703125 L 194.121094 269.640625 L 195.402344 269.601562 L 196.683594 269.566406 L 199.246094 269.480469 L 201.808594 269.386719 L 203.089844 269.335938 L 204.371094 269.28125 L 205.648438 269.222656 L 208.210938 269.097656 L 210.773438 268.957031 L 212.054688 268.882812 L 214.617188 268.71875 L 217.179688 268.539062 L 218.460938 268.441406 L 219.742188 268.335938 L 221.019531 268.226562 L 222.300781 268.113281 L 223.582031 267.992188 L 224.863281 267.867188 L 226.144531 267.734375 L 227.425781 267.59375 L 228.707031 267.449219 L 229.988281 267.300781 L 231.269531 267.140625 L 232.550781 266.976562 L 233.832031 266.804688 L 235.109375 266.628906 L 236.390625 266.449219 L 237.671875 266.261719 L 238.953125 266.066406 L 240.234375 265.867188 L 241.515625 265.664062 L 244.078125 265.25 L 246.640625 264.820312 L 247.921875 264.601562 L 249.203125 264.386719 L 250.480469 264.164062 L 251.761719 263.945312 L 253.042969 263.730469 L 254.324219 263.511719 L 256.886719 263.082031 L 259.449219 262.667969 L 262.011719 262.261719 L 263.292969 262.070312 L 264.570312 261.878906 L 265.851562 261.695312 L 267.132812 261.515625 L 268.414062 261.339844 L 269.695312 261.171875 L 270.976562 261.011719 L 272.257812 260.855469 L 273.539062 260.703125 L 274.820312 260.558594 L 276.101562 260.421875 L 277.382812 260.289062 L 278.664062 260.164062 L 279.941406 260.042969 L 282.503906 259.816406 L 285.066406 259.613281 L 286.347656 259.519531 L 288.910156 259.339844 L 291.472656 259.175781 L 292.753906 259.097656 L 294.03125 259.019531 L 299.15625 258.722656 L 300.4375 258.644531 L 301.71875 258.570312 L 304.28125 258.414062 L 306.84375 258.25 L 308.125 258.164062 L 309.402344 258.074219 L 310.683594 257.984375 L 313.246094 257.796875 L 314.527344 257.699219 L 318.371094 257.394531 L 319.652344 257.289062 L 320.933594 257.1875 L 322.214844 257.082031 L 323.492188 256.976562 L 324.773438 256.871094 L 326.054688 256.769531 L 327.335938 256.664062 L 332.460938 256.257812 L 333.742188 256.160156 L 337.585938 255.855469 L 338.863281 255.753906 L 340.144531 255.648438 L 341.425781 255.539062 L 343.988281 255.304688 L 345.269531 255.175781 L 346.550781 255.042969 L 347.832031 254.902344 L 349.113281 254.75 L 350.394531 254.585938 L 351.675781 254.414062 L 352.953125 254.230469 L 354.234375 254.03125 L 355.515625 253.820312 L 356.796875 253.597656 L 358.078125 253.359375 L 359.359375 253.109375 L 360.640625 252.847656 L 361.921875 252.566406 L 363.203125 252.277344 L 364.484375 251.976562 L 365.765625 251.667969 L 367.046875 251.34375 L 368.324219 251.015625 L 369.605469 250.675781 L 370.886719 250.332031 L 372.167969 249.984375 L 378.574219 248.226562 L 379.855469 247.882812 L 381.136719 247.546875 L 382.414062 247.214844 L 383.695312 246.890625 L 384.976562 246.578125 L 386.257812 246.273438 L 387.539062 245.984375 L 388.820312 245.703125 L 390.101562 245.4375 L 391.382812 245.179688 L 392.664062 244.9375 L 393.945312 244.710938 L 395.226562 244.496094 L 396.507812 244.296875 L 397.785156 244.105469 L 399.066406 243.929688 L 400.347656 243.765625 L 401.628906 243.613281 L 402.910156 243.472656 L 404.191406 243.335938 L 405.472656 243.210938 L 408.035156 242.984375 L 409.316406 242.878906 L 410.597656 242.777344 L 411.875 242.679688 L 415.71875 242.386719 L 417 242.285156 L 418.28125 242.179688 L 419.5625 242.070312 L 420.84375 241.953125 L 422.125 241.828125 L 423.40625 241.699219 L 424.6875 241.558594 L 425.96875 241.410156 L 427.246094 241.25 L 428.527344 241.078125 L 429.808594 240.894531 L 431.089844 240.703125 L 432.371094 240.492188 L 433.652344 240.269531 L 434.933594 240.039062 L 436.214844 239.792969 L 437.496094 239.535156 L 438.777344 239.261719 L 440.058594 238.972656 L 441.335938 238.671875 L 442.617188 238.363281 L 443.898438 238.039062 L 445.179688 237.699219 L 446.460938 237.347656 L 447.742188 236.984375 L 449.023438 236.609375 L 450.304688 236.222656 L 451.585938 235.820312 L 452.867188 235.40625 L 454.148438 234.984375 L 455.429688 234.546875 L 456.707031 234.101562 L 457.988281 233.644531 L 459.269531 233.171875 L 460.550781 232.691406 L 461.832031 232.203125 L 463.113281 231.703125 L 464.394531 231.1875 L 465.675781 230.664062 L 466.957031 230.128906 L 468.238281 229.582031 L 469.519531 229.03125 L 470.796875 228.464844 L 472.078125 227.886719 L 473.359375 227.304688 L 474.640625 226.710938 L 475.921875 226.109375 L 477.203125 225.5 L 478.484375 224.882812 L 479.765625 224.257812 L 482.328125 223 L 484.890625 221.726562 L 486.167969 221.089844 L 488.730469 219.824219 L 490.011719 219.199219 L 491.292969 218.585938 L 492.574219 217.980469 L 493.855469 217.390625 L 495.136719 216.8125 L 496.417969 216.253906 L 497.699219 215.71875 L 498.980469 215.203125 L 500.257812 214.71875 L 501.539062 214.257812 L 502.820312 213.828125 L 504.101562 213.4375 L 505.382812 213.082031 L 506.664062 212.765625 L 507.945312 212.484375 L 509.226562 212.246094 L 510.507812 212.058594 L 511.789062 211.914062 L 513.070312 211.816406 L 514.351562 211.757812 L 515.628906 211.753906 L 516.910156 211.804688 L 518.191406 211.898438 L 519.472656 212.042969 L 520.753906 212.230469 L 522.035156 212.464844 L 523.316406 212.757812 L 524.597656 213.09375 L 525.878906 213.472656 L 527.160156 213.890625 L 528.441406 214.355469 L 529.71875 214.863281 L 531 215.410156 L 532.28125 215.992188 L 533.5625 216.609375 L 534.84375 217.257812 L 536.125 217.945312 L 537.40625 218.660156 L 538.6875 219.398438 L 539.96875 220.160156 L 541.25 220.949219 L 542.53125 221.761719 L 543.8125 222.589844 L 545.089844 223.4375 L 546.371094 224.296875 L 547.652344 225.171875 L 548.933594 226.058594 L 550.214844 226.953125 L 551.496094 227.859375 L 552.777344 228.769531 L 554.058594 229.683594 L 556.621094 231.519531 L 557.902344 232.441406 L 559.179688 233.359375 L 560.460938 234.277344 L 561.742188 235.191406 L 564.304688 237.003906 L 565.585938 237.902344 L 566.867188 238.796875 L 568.148438 239.683594 L 569.429688 240.558594 L 570.710938 241.429688 L 571.992188 242.292969 L 573.273438 243.148438 L 574.550781 243.992188 L 575.832031 244.828125 L 577.113281 245.660156 L 578.394531 246.480469 L 579.675781 247.292969 L 580.957031 248.09375 L 582.238281 248.886719 L 583.519531 249.675781 L 584.800781 250.453125 L 586.082031 251.222656 L 587.363281 251.980469 L 588.644531 252.730469 L 589.921875 253.472656 L 591.203125 254.203125 L 592.484375 254.921875 L 593.765625 255.632812 L 595.046875 256.328125 L 596.328125 257.011719 L 597.609375 257.683594 L 598.890625 258.339844 L 600.171875 258.984375 L 601.453125 259.609375 L 602.734375 260.21875 L 604.011719 260.808594 L 605.292969 261.386719 L 606.574219 261.941406 L 607.855469 262.472656 L 609.136719 262.988281 L 610.417969 263.484375 L 611.699219 263.960938 L 612.980469 264.414062 L 614.261719 264.839844 L 615.542969 265.25 L 616.824219 265.636719 L 618.105469 266.003906 L 619.382812 266.347656 L 620.664062 266.667969 L 621.945312 266.96875 L 623.226562 267.25 L 624.507812 267.515625 L 625.789062 267.757812 L 627.070312 267.980469 L 628.351562 268.183594 L 629.632812 268.375 L 630.914062 268.550781 L 632.195312 268.710938 L 633.472656 268.851562 L 634.753906 268.984375 L 636.035156 269.101562 L 637.316406 269.210938 L 638.597656 269.308594 L 639.878906 269.390625 L 641.160156 269.46875 L 642.441406 269.539062 L 643.722656 269.597656 L 645.003906 269.652344 L 646.285156 269.699219 L 647.566406 269.742188 L 648.84375 269.777344 L 651.40625 269.839844 L 652.6875 269.863281 L 655.25 269.902344 L 656.53125 269.917969 L 659.09375 269.941406 L 660.375 269.949219 L 661.65625 269.960938 L 662.933594 269.964844 L 664.214844 269.972656 L 669.339844 269.988281 L 670.621094 269.988281 L 671.902344 269.992188 L 673.183594 269.992188 L 674.464844 269.996094 L 679.585938 269.996094 L 680.867188 270 L 687.273438 270 "/>
<path fill-rule="nonzero" fill="rgb(97.254902%, 46.27451%, 42.745098%)" fill-opacity="0.501961" d="M 32.726562 326.246094 L 35.289062 326.246094 L 36.570312 326.242188 L 39.132812 326.242188 L 40.414062 326.238281 L 41.695312 326.238281 L 42.972656 326.234375 L 44.253906 326.234375 L 51.941406 326.210938 L 53.222656 326.203125 L 54.503906 326.199219 L 55.785156 326.191406 L 57.066406 326.1875 L 58.34375 326.179688 L 59.625 326.171875 L 60.90625 326.160156 L 62.1875 326.152344 L 63.46875 326.140625 L 64.75 326.132812 L 71.15625 326.074219 L 72.433594 326.0625 L 73.714844 326.050781 L 74.996094 326.035156 L 80.121094 325.988281 L 81.402344 325.980469 L 82.683594 325.96875 L 83.964844 325.960938 L 85.246094 325.949219 L 86.527344 325.941406 L 87.804688 325.933594 L 89.085938 325.929688 L 90.367188 325.921875 L 94.210938 325.910156 L 95.492188 325.910156 L 96.773438 325.90625 L 99.335938 325.90625 L 100.617188 325.902344 L 103.175781 325.902344 L 107.019531 325.890625 L 110.863281 325.867188 L 112.144531 325.855469 L 113.425781 325.839844 L 114.707031 325.820312 L 115.988281 325.796875 L 117.265625 325.769531 L 118.546875 325.738281 L 119.828125 325.703125 L 121.109375 325.660156 L 122.390625 325.613281 L 123.671875 325.5625 L 124.953125 325.503906 L 126.234375 325.441406 L 127.515625 325.367188 L 128.796875 325.289062 L 130.078125 325.203125 L 131.355469 325.113281 L 132.636719 325.011719 L 133.917969 324.90625 L 135.199219 324.789062 L 136.480469 324.664062 L 137.761719 324.535156 L 139.042969 324.394531 L 140.324219 324.246094 L 141.605469 324.089844 L 142.886719 323.925781 L 144.167969 323.757812 L 145.449219 323.578125 L 146.726562 323.390625 L 148.007812 323.195312 L 149.289062 322.988281 L 150.570312 322.777344 L 151.851562 322.558594 L 153.132812 322.332031 L 154.414062 322.097656 L 155.695312 321.855469 L 156.976562 321.605469 L 158.257812 321.347656 L 159.539062 321.085938 L 160.820312 320.8125 L 162.097656 320.53125 L 163.378906 320.246094 L 164.660156 319.953125 L 165.941406 319.652344 L 167.222656 319.34375 L 168.503906 319.027344 L 169.785156 318.703125 L 171.066406 318.375 L 172.347656 318.039062 L 173.628906 317.695312 L 174.910156 317.34375 L 176.1875 316.984375 L 177.46875 316.617188 L 178.75 316.246094 L 180.03125 315.867188 L 181.3125 315.476562 L 182.59375 315.082031 L 183.875 314.679688 L 185.15625 314.269531 L 186.4375 313.847656 L 187.71875 313.421875 L 189 312.984375 L 190.28125 312.539062 L 191.558594 312.085938 L 192.839844 311.625 L 194.121094 311.148438 L 195.402344 310.667969 L 196.683594 310.175781 L 197.964844 309.671875 L 199.246094 309.15625 L 200.527344 308.628906 L 201.808594 308.09375 L 203.089844 307.546875 L 204.371094 306.984375 L 205.648438 306.414062 L 206.929688 305.828125 L 208.210938 305.234375 L 209.492188 304.625 L 210.773438 304.007812 L 212.054688 303.378906 L 213.335938 302.734375 L 214.617188 302.085938 L 215.898438 301.421875 L 217.179688 300.753906 L 218.460938 300.074219 L 219.742188 299.382812 L 221.019531 298.6875 L 222.300781 297.988281 L 223.582031 297.285156 L 226.144531 295.863281 L 229.988281 293.71875 L 231.269531 293.007812 L 232.550781 292.300781 L 233.832031 291.597656 L 235.109375 290.902344 L 236.390625 290.210938 L 237.671875 289.527344 L 238.953125 288.855469 L 240.234375 288.195312 L 241.515625 287.542969 L 242.796875 286.902344 L 244.078125 286.273438 L 245.359375 285.660156 L 246.640625 285.0625 L 247.921875 284.476562 L 249.203125 283.90625 L 250.480469 283.351562 L 251.761719 282.8125 L 253.042969 282.292969 L 254.324219 281.789062 L 255.605469 281.296875 L 256.886719 280.828125 L 258.167969 280.378906 L 259.449219 279.945312 L 260.730469 279.527344 L 262.011719 279.128906 L 263.292969 278.753906 L 264.570312 278.398438 L 265.851562 278.058594 L 267.132812 277.742188 L 268.414062 277.441406 L 269.695312 277.164062 L 270.976562 276.910156 L 272.257812 276.679688 L 273.539062 276.464844 L 274.820312 276.269531 L 276.101562 276.097656 L 277.382812 275.949219 L 278.664062 275.824219 L 279.941406 275.714844 L 281.222656 275.625 L 282.503906 275.558594 L 283.785156 275.515625 L 285.066406 275.488281 L 286.347656 275.480469 L 287.628906 275.488281 L 288.910156 275.511719 L 290.191406 275.558594 L 291.472656 275.617188 L 292.753906 275.691406 L 294.03125 275.777344 L 295.3125 275.875 L 296.59375 275.992188 L 297.875 276.113281 L 299.15625 276.246094 L 300.4375 276.386719 L 301.71875 276.539062 L 303 276.695312 L 304.28125 276.859375 L 306.84375 277.203125 L 308.125 277.382812 L 309.402344 277.570312 L 310.683594 277.757812 L 311.964844 277.949219 L 313.246094 278.144531 L 315.808594 278.542969 L 317.089844 278.75 L 319.652344 279.171875 L 320.933594 279.390625 L 322.214844 279.613281 L 323.492188 279.839844 L 324.773438 280.074219 L 326.054688 280.3125 L 327.335938 280.558594 L 328.617188 280.808594 L 329.898438 281.070312 L 331.179688 281.339844 L 332.460938 281.617188 L 333.742188 281.902344 L 335.023438 282.199219 L 336.304688 282.503906 L 337.585938 282.820312 L 338.863281 283.144531 L 340.144531 283.480469 L 341.425781 283.828125 L 342.707031 284.183594 L 343.988281 284.546875 L 345.269531 284.921875 L 346.550781 285.304688 L 347.832031 285.699219 L 349.113281 286.097656 L 350.394531 286.507812 L 351.675781 286.921875 L 352.953125 287.339844 L 354.234375 287.761719 L 356.796875 288.621094 L 363.203125 290.789062 L 365.765625 291.640625 L 367.046875 292.0625 L 368.324219 292.480469 L 369.605469 292.890625 L 370.886719 293.296875 L 372.167969 293.695312 L 373.449219 294.089844 L 374.730469 294.472656 L 376.011719 294.851562 L 377.292969 295.222656 L 378.574219 295.585938 L 379.855469 295.945312 L 381.136719 296.292969 L 382.414062 296.636719 L 383.695312 296.972656 L 384.976562 297.304688 L 386.257812 297.628906 L 387.539062 297.945312 L 390.101562 298.570312 L 391.382812 298.875 L 392.664062 299.175781 L 395.226562 299.769531 L 396.507812 300.0625 L 397.785156 300.355469 L 399.066406 300.648438 L 400.347656 300.9375 L 401.628906 301.230469 L 402.910156 301.519531 L 404.191406 301.8125 L 408.035156 302.703125 L 410.597656 303.3125 L 411.875 303.617188 L 413.15625 303.929688 L 414.4375 304.246094 L 415.71875 304.566406 L 418.28125 305.214844 L 419.5625 305.546875 L 420.84375 305.882812 L 422.125 306.222656 L 424.6875 306.910156 L 425.96875 307.261719 L 427.246094 307.613281 L 431.089844 308.679688 L 432.371094 309.039062 L 433.652344 309.402344 L 438.777344 310.839844 L 440.058594 311.195312 L 441.335938 311.550781 L 442.617188 311.902344 L 443.898438 312.25 L 445.179688 312.59375 L 446.460938 312.933594 L 447.742188 313.269531 L 449.023438 313.601562 L 450.304688 313.925781 L 451.585938 314.242188 L 452.867188 314.554688 L 454.148438 314.859375 L 455.429688 315.15625 L 456.707031 315.445312 L 457.988281 315.726562 L 459.269531 316 L 460.550781 316.261719 L 461.832031 316.519531 L 463.113281 316.765625 L 464.394531 317 L 465.675781 317.226562 L 466.957031 317.441406 L 468.238281 317.648438 L 469.519531 317.847656 L 470.796875 318.03125 L 472.078125 318.207031 L 473.359375 318.375 L 474.640625 318.53125 L 475.921875 318.675781 L 477.203125 318.8125 L 478.484375 318.933594 L 479.765625 319.050781 L 481.046875 319.15625 L 482.328125 319.253906 L 483.609375 319.339844 L 484.890625 319.417969 L 486.167969 319.484375 L 487.449219 319.546875 L 488.730469 319.597656 L 490.011719 319.640625 L 491.292969 319.675781 L 492.574219 319.707031 L 493.855469 319.730469 L 495.136719 319.746094 L 496.417969 319.757812 L 497.699219 319.761719 L 498.980469 319.761719 L 500.257812 319.757812 L 501.539062 319.753906 L 504.101562 319.730469 L 505.382812 319.714844 L 506.664062 319.703125 L 509.226562 319.671875 L 513.070312 319.636719 L 514.351562 319.628906 L 516.910156 319.628906 L 518.191406 319.636719 L 519.472656 319.648438 L 520.753906 319.664062 L 522.035156 319.6875 L 523.316406 319.71875 L 524.597656 319.757812 L 525.878906 319.800781 L 527.160156 319.855469 L 528.441406 319.914062 L 529.71875 319.980469 L 531 320.058594 L 532.28125 320.140625 L 533.5625 320.230469 L 534.84375 320.324219 L 536.125 320.429688 L 537.40625 320.542969 L 538.6875 320.660156 L 539.96875 320.785156 L 541.25 320.914062 L 542.53125 321.046875 L 543.8125 321.1875 L 545.089844 321.332031 L 546.371094 321.476562 L 548.933594 321.78125 L 557.902344 322.875 L 559.179688 323.03125 L 560.460938 323.183594 L 563.023438 323.480469 L 564.304688 323.625 L 565.585938 323.765625 L 566.867188 323.902344 L 568.148438 324.035156 L 570.710938 324.292969 L 571.992188 324.414062 L 573.273438 324.53125 L 574.550781 324.644531 L 577.113281 324.855469 L 579.675781 325.050781 L 580.957031 325.140625 L 582.238281 325.226562 L 584.800781 325.382812 L 586.082031 325.457031 L 587.363281 325.523438 L 588.644531 325.585938 L 589.921875 325.644531 L 591.203125 325.703125 L 592.484375 325.753906 L 595.046875 325.847656 L 597.609375 325.925781 L 598.890625 325.960938 L 600.171875 325.992188 L 602.734375 326.046875 L 604.011719 326.070312 L 605.292969 326.09375 L 606.574219 326.113281 L 610.417969 326.160156 L 611.699219 326.171875 L 612.980469 326.179688 L 614.261719 326.191406 L 618.105469 326.214844 L 619.382812 326.21875 L 625.789062 326.238281 L 627.070312 326.238281 L 628.351562 326.242188 L 630.914062 326.242188 L 632.195312 326.246094 L 637.316406 326.246094 L 638.597656 326.25 L 687.273438 326.25 L 32.726562 326.25 Z M 32.726562 326.246094 "/>
<path fill="none" stroke-width="1.066978" stroke-linecap="round" stroke-linejoin="round" stroke="rgb(97.254902%, 46.27451%, 42.745098%)" stroke-opacity="1" stroke-miterlimit="10" d="M 32.726562 326.246094 L 35.289062 326.246094 L 36.570312 326.242188 L 39.132812 326.242188 L 40.414062 326.238281 L 41.695312 326.238281 L 42.972656 326.234375 L 44.253906 326.234375 L 51.941406 326.210938 L 53.222656 326.203125 L 54.503906 326.199219 L 55.785156 326.191406 L 57.066406 326.1875 L 58.34375 326.179688 L 59.625 326.171875 L 60.90625 326.160156 L 62.1875 326.152344 L 63.46875 326.140625 L 64.75 326.132812 L 71.15625 326.074219 L 72.433594 326.0625 L 73.714844 326.050781 L 74.996094 326.035156 L 80.121094 325.988281 L 81.402344 325.980469 L 82.683594 325.96875 L 83.964844 325.960938 L 85.246094 325.949219 L 86.527344 325.941406 L 87.804688 325.933594 L 89.085938 325.929688 L 90.367188 325.921875 L 94.210938 325.910156 L 95.492188 325.910156 L 96.773438 325.90625 L 99.335938 325.90625 L 100.617188 325.902344 L 103.175781 325.902344 L 107.019531 325.890625 L 110.863281 325.867188 L 112.144531 325.855469 L 113.425781 325.839844 L 114.707031 325.820312 L 115.988281 325.796875 L 117.265625 325.769531 L 118.546875 325.738281 L 119.828125 325.703125 L 121.109375 325.660156 L 122.390625 325.613281 L 123.671875 325.5625 L 124.953125 325.503906 L 126.234375 325.441406 L 127.515625 325.367188 L 128.796875 325.289062 L 130.078125 325.203125 L 131.355469 325.113281 L 132.636719 325.011719 L 133.917969 324.90625 L 135.199219 324.789062 L 136.480469 324.664062 L 137.761719 324.535156 L 139.042969 324.394531 L 140.324219 324.246094 L 141.605469 324.089844 L 142.886719 323.925781 L 144.167969 323.757812 L 145.449219 323.578125 L 146.726562 323.390625 L 148.007812 323.195312 L 149.289062 322.988281 L 150.570312 322.777344 L 151.851562 322.558594 L 153.132812 322.332031 L 154.414062 322.097656 L 155.695312 321.855469 L 156.976562 321.605469 L 158.257812 321.347656 L 159.539062 321.085938 L 160.820312 320.8125 L 162.097656 320.53125 L 163.378906 320.246094 L 164.660156 319.953125 L 165.941406 319.652344 L 167.222656 319.34375 L 168.503906 319.027344 L 169.785156 318.703125 L 171.066406 318.375 L 172.347656 318.039062 L 173.628906 317.695312 L 174.910156 317.34375 L 176.1875 316.984375 L 177.46875 316.617188 L 178.75 316.246094 L 180.03125 315.867188 L 181.3125 315.476562 L 182.59375 315.082031 L 183.875 314.679688 L 185.15625 314.269531 L 186.4375 313.847656 L 187.71875 313.421875 L 189 312.984375 L 190.28125 312.539062 L 191.558594 312.085938 L 192.839844 311.625 L 194.121094 311.148438 L 195.402344 310.667969 L 196.683594 310.175781 L 197.964844 309.671875 L 199.246094 309.15625 L 200.527344 308.628906 L 201.808594 308.09375 L 203.089844 307.546875 L 204.371094 306.984375 L 205.648438 306.414062 L 206.929688 305.828125 L 208.210938 305.234375 L 209.492188 304.625 L 210.773438 304.007812 L 212.054688 303.378906 L 213.335938 302.734375 L 214.617188 302.085938 L 215.898438 301.421875 L 217.179688 300.753906 L 218.460938 300.074219 L 219.742188 299.382812 L 221.019531 298.6875 L 222.300781 297.988281 L 223.582031 297.285156 L 226.144531 295.863281 L 229.988281 293.71875 L 231.269531 293.007812 L 232.550781 292.300781 L 233.832031 291.597656 L 235.109375 290.902344 L 236.390625 290.210938 L 237.671875 289.527344 L 238.953125 288.855469 L 240.234375 288.195312 L 241.515625 287.542969 L 242.796875 286.902344 L 244.078125 286.273438 L 245.359375 285.660156 L 246.640625 285.0625 L 247.921875 284.476562 L 249.203125 283.90625 L 250.480469 283.351562 L 251.761719 282.8125 L 253.042969 282.292969 L 254.324219 281.789062 L 255.605469 281.296875 L 256.886719 280.828125 L 258.167969 280.378906 L 259.449219 279.945312 L 260.730469 279.527344 L 262.011719 279.128906 L 263.292969 278.753906 L 264.570312 278.398438 L 265.851562 278.058594 L 267.132812 277.742188 L 268.414062 277.441406 L 269.695312 277.164062 L 270.976562 276.910156 L 272.257812 276.679688 L 273.539062 276.464844 L 274.820312 276.269531 L 276.101562 276.097656 L 277.382812 275.949219 L 278.664062 275.824219 L 279.941406 275.714844 L 281.222656 275.625 L 282.503906 275.558594 L 283.785156 275.515625 L 285.066406 275.488281 L 286.347656 275.480469 L 287.628906 275.488281 L 288.910156 275.511719 L 290.191406 275.558594 L 291.472656 275.617188 L 292.753906 275.691406 L 294.03125 275.777344 L 295.3125 275.875 L 296.59375 275.992188 L 297.875 276.113281 L 299.15625 276.246094 L 300.4375 276.386719 L 301.71875 276.539062 L 303 276.695312 L 304.28125 276.859375 L 306.84375 277.203125 L 308.125 277.382812 L 309.402344 277.570312 L 310.683594 277.757812 L 311.964844 277.949219 L 313.246094 278.144531 L 315.808594 278.542969 L 317.089844 278.75 L 319.652344 279.171875 L 320.933594 279.390625 L 322.214844 279.613281 L 323.492188 279.839844 L 324.773438 280.074219 L 326.054688 280.3125 L 327.335938 280.558594 L 328.617188 280.808594 L 329.898438 281.070312 L 331.179688 281.339844 L 332.460938 281.617188 L 333.742188 281.902344 L 335.023438 282.199219 L 336.304688 282.503906 L 337.585938 282.820312 L 338.863281 283.144531 L 340.144531 283.480469 L 341.425781 283.828125 L 342.707031 284.183594 L 343.988281 284.546875 L 345.269531 284.921875 L 346.550781 285.304688 L 347.832031 285.699219 L 349.113281 286.097656 L 350.394531 286.507812 L 351.675781 286.921875 L 352.953125 287.339844 L 354.234375 287.761719 L 356.796875 288.621094 L 363.203125 290.789062 L 365.765625 291.640625 L 367.046875 292.0625 L 368.324219 292.480469 L 369.605469 292.890625 L 370.886719 293.296875 L 372.167969 293.695312 L 373.449219 294.089844 L 374.730469 294.472656 L 376.011719 294.851562 L 377.292969 295.222656 L 378.574219 295.585938 L 379.855469 295.945312 L 381.136719 296.292969 L 382.414062 296.636719 L 383.695312 296.972656 L 384.976562 297.304688 L 386.257812 297.628906 L 387.539062 297.945312 L 390.101562 298.570312 L 391.382812 298.875 L 392.664062 299.175781 L 395.226562 299.769531 L 396.507812 300.0625 L 397.785156 300.355469 L 399.066406 300.648438 L 400.347656 300.9375 L 401.628906 301.230469 L 402.910156 301.519531 L 404.191406 301.8125 L 408.035156 302.703125 L 410.597656 303.3125 L 411.875 303.617188 L 413.15625 303.929688 L 414.4375 304.246094 L 415.71875 304.566406 L 418.28125 305.214844 L 419.5625 305.546875 L 420.84375 305.882812 L 422.125 306.222656 L 424.6875 306.910156 L 425.96875 307.261719 L 427.246094 307.613281 L 431.089844 308.679688 L 432.371094 309.039062 L 433.652344 309.402344 L 438.777344 310.839844 L 440.058594 311.195312 L 441.335938 311.550781 L 442.617188 311.902344 L 443.898438 312.25 L 445.179688 312.59375 L 446.460938 312.933594 L 447.742188 313.269531 L 449.023438 313.601562 L 450.304688 313.925781 L 451.585938 314.242188 L 452.867188 314.554688 L 454.148438 314.859375 L 455.429688 315.15625 L 456.707031 315.445312 L 457.988281 315.726562 L 459.269531 316 L 460.550781 316.261719 L 461.832031 316.519531 L 463.113281 316.765625 L 464.394531 317 L 465.675781 317.226562 L 466.957031 317.441406 L 468.238281 317.648438 L 469.519531 317.847656 L 470.796875 318.03125 L 472.078125 318.207031 L 473.359375 318.375 L 474.640625 318.53125 L 475.921875 318.675781 L 477.203125 318.8125 L 478.484375 318.933594 L 479.765625 319.050781 L 481.046875 319.15625 L 482.328125 319.253906 L 483.609375 319.339844 L 484.890625 319.417969 L 486.167969 319.484375 L 487.449219 319.546875 L 488.730469 319.597656 L 490.011719 319.640625 L 491.292969 319.675781 L 492.574219 319.707031 L 493.855469 319.730469 L 495.136719 319.746094 L 496.417969 319.757812 L 497.699219 319.761719 L 498.980469 319.761719 L 500.257812 319.757812 L 501.539062 319.753906 L 504.101562 319.730469 L 505.382812 319.714844 L 506.664062 319.703125 L 509.226562 319.671875 L 513.070312 319.636719 L 514.351562 319.628906 L 516.910156 319.628906 L 518.191406 319.636719 L 519.472656 319.648438 L 520.753906 319.664062 L 522.035156 319.6875 L 523.316406 319.71875 L 524.597656 319.757812 L 525.878906 319.800781 L 527.160156 319.855469 L 528.441406 319.914062 L 529.71875 319.980469 L 531 320.058594 L 532.28125 320.140625 L 533.5625 320.230469 L 534.84375 320.324219 L 536.125 320.429688 L 537.40625 320.542969 L 538.6875 320.660156 L 539.96875 320.785156 L 541.25 320.914062 L 542.53125 321.046875 L 543.8125 321.1875 L 545.089844 321.332031 L 546.371094 321.476562 L 548.933594 321.78125 L 557.902344 322.875 L 559.179688 323.03125 L 560.460938 323.183594 L 563.023438 323.480469 L 564.304688 323.625 L 565.585938 323.765625 L 566.867188 323.902344 L 568.148438 324.035156 L 570.710938 324.292969 L 571.992188 324.414062 L 573.273438 324.53125 L 574.550781 324.644531 L 577.113281 324.855469 L 579.675781 325.050781 L 580.957031 325.140625 L 582.238281 325.226562 L 584.800781 325.382812 L 586.082031 325.457031 L 587.363281 325.523438 L 588.644531 325.585938 L 589.921875 325.644531 L 591.203125 325.703125 L 592.484375 325.753906 L 595.046875 325.847656 L 597.609375 325.925781 L 598.890625 325.960938 L 600.171875 325.992188 L 602.734375 326.046875 L 604.011719 326.070312 L 605.292969 326.09375 L 606.574219 326.113281 L 610.417969 326.160156 L 611.699219 326.171875 L 612.980469 326.179688 L 614.261719 326.191406 L 618.105469 326.214844 L 619.382812 326.21875 L 625.789062 326.238281 L 627.070312 326.238281 L 628.351562 326.242188 L 630.914062 326.242188 L 632.195312 326.246094 L 637.316406 326.246094 L 638.597656 326.25 L 687.273438 326.25 "/>
</svg>
