<?xml version="1.0" encoding="UTF-8"?>
<svg xmlns="http://www.w3.org/2000/svg" xmlns:xlink="http://www.w3.org/1999/xlink" width="720" height="360" viewBox="0 0 720 360">
<rect x="-72" y="-36" width="864" height="432" fill="rgb(100%, 100%, 100%)" fill-opacity="1"/>
<path fill-rule="nonzero" fill="rgb(90.588235%, 41.960784%, 95.294118%)" fill-opacity="0.501961" d="M 32.726562 101.25 L 418.28125 101.25 L 419.5625 101.246094 L 423.40625 101.246094 L 424.6875 101.242188 L 425.96875 101.242188 L 427.246094 101.238281 L 428.527344 101.238281 L 429.808594 101.234375 L 431.089844 101.226562 L 432.371094 101.222656 L 434.933594 101.207031 L 436.214844 101.195312 L 438.777344 101.164062 L 440.058594 101.144531 L 441.335938 101.117188 L 442.617188 101.085938 L 443.898438 101.050781 L 445.179688 101.003906 L 446.460938 100.949219 L 447.742188 100.886719 L 449.023438 100.808594 L 450.304688 100.722656 L 451.585938 100.613281 L 452.867188 100.484375 L 454.148438 100.335938 L 455.429688 100.167969 L 456.707031 99.96875 L 457.988281 99.734375 L 459.269531 99.464844 L 460.550781 99.15625 L 461.832031 98.808594 L 463.113281 98.414062 L 464.394531 97.957031 L 465.675781 97.433594 L 466.957031 96.851562 L 468.238281 96.203125 L 469.519531 95.484375 L 470.796875 94.671875 L 472.078125 93.761719 L 473.359375 92.765625 L 474.640625 91.675781 L 475.921875 90.484375 L 477.203125 89.171875 L 478.484375 87.734375 L 479.765625 86.183594 L 481.046875 84.519531 L 482.328125 82.738281 L 483.609375 80.816406 L 484.890625 78.757812 L 486.167969 76.582031 L 487.449219 74.289062 L 488.730469 71.878906 L 490.011719 69.34375 L 491.292969 66.683594 L 492.574219 63.925781 L 493.855469 61.082031 L 495.136719 58.152344 L 496.417969 55.140625 L 497.699219 52.0625 L 498.980469 48.941406 L 500.257812 45.789062 L 501.539062 42.617188 L 502.820312 39.441406 L 504.101562 36.285156 L 505.382812 33.167969 L 506.664062 30.097656 L 507.945312 27.089844 L 509.226562 24.171875 L 510.507812 21.375 L 511.789062 18.695312 L 513.070312 16.144531 L 514.351562 13.734375 L 515.628906 11.492188 L 516.910156 9.460938 L 518.191406 7.601562 L 519.472656 5.929688 L 520.753906 4.449219 L 522.035156 3.175781 L 523.316406 2.148438 L 524.597656 1.320312 L 525.878906 0.6875 L 527.160156 0.246094 L 528.441406 0.0078125 L 529.71875 0 L 531 0.164062 L 532.28125 0.488281 L 533.5625 0.96875 L 534.84375 1.597656 L 536.125 2.394531 L 537.40625 3.300781 L 538.6875 4.3125 L 539.96875 5.410156 L 541.25 6.585938 L 542.53125 7.84375 L 543.8125 9.140625 L 545.089844 10.46875 L 546.371094 11.824219 L 548.933594 14.542969 L 550.214844 15.890625 L 551.496094 17.210938 L 552.777344 18.503906 L 554.058594 19.757812 L 555.339844 20.957031 L 556.621094 22.105469 L 557.902344 23.203125 L 559.179688 24.242188 L 560.460938 25.226562 L 561.742188 26.136719 L 563.023438 26.988281 L 564.304688 27.78125 L 565.585938 28.519531 L 566.867188 29.203125 L 568.148438 29.828125 L 569.429688 30.402344 L 570.710938 30.9375 L 571.992188 31.4375 L 573.273438 31.90625 L 574.550781 32.339844 L 575.832031 32.757812 L 577.113281 33.160156 L 578.394531 33.558594 L 579.675781 33.953125 L 580.957031 34.351562 L 582.238281 34.769531 L 583.519531 35.203125 L 584.800781 35.660156 L 586.082031 36.148438 L 587.363281 36.679688 L 588.644531 37.253906 L 589.921875 37.878906 L 591.203125 38.550781 L 592.484375 39.277344 L 593.765625 40.074219 L 595.046875 40.941406 L 596.328125 41.871094 L 597.609375 42.863281 L 598.890625 43.925781 L 600.171875 45.066406 L 601.453125 46.28125 L 602.734375 47.558594 L 604.011719 48.902344 L 605.292969 50.308594 L 606.574219 51.785156 L 607.855469 53.320312 L 609.136719 54.902344 L 610.417969 56.535156 L 611.699219 58.203125 L 612.980469 59.914062 L 614.261719 61.652344 L 615.542969 63.414062 L 616.824219 65.1875 L 618.105469 66.964844 L 619.382812 68.746094 L 620.664062 70.515625 L 621.945312 72.269531 L 623.226562 74 L 624.507812 75.703125 L 625.789062 77.371094 L 627.070312 78.988281 L 628.351562 80.5625 L 629.632812 82.082031 L 630.914062 83.550781 L 632.195312 84.957031 L 633.472656 86.289062 L 634.753906 87.558594 L 636.035156 88.765625 L 637.316406 89.90625 L 638.597656 90.976562 L 639.878906 91.964844 L 641.160156 92.890625 L 642.441406 93.75 L 643.722656 94.550781 L 645.003906 95.285156 L 646.285156 95.945312 L 647.566406 96.554688 L 648.84375 97.109375 L 650.125 97.617188 L 651.40625 98.070312 L 652.6875 98.46875 L 653.96875 98.832031 L 655.25 99.15625 L 656.53125 99.441406 L 657.8125 99.699219 L 659.09375 99.917969 L 660.375 100.109375 L 661.65625 100.28125 L 662.933594 100.429688 L 664.214844 100.558594 L 665.496094 100.664062 L 666.777344 100.757812 L 668.058594 100.839844 L 669.339844 100.910156 L 670.621094 100.96875 L 671.902344 101.015625 L 673.183594 101.058594 L 675.746094 101.121094 L 677.027344 101.144531 L 678.304688 101.164062 L 680.867188 101.195312 L 682.148438 101.207031 L 684.710938 101.222656 L 687.273438 101.230469 L 687.273438 101.25 Z M 32.726562 101.25 "/>
<path fill="none" stroke-width="1.066978" stroke-linecap="round" stroke-linejoin="round" stroke="rgb(90.588235%, 41.960784%, 95.294118%)" stroke-opacity="1" stroke-miterlimit="10" d="M 32.726562 101.25 L 418.28125 101.25 L 419.5625 101.246094 L 423.40625 101.246094 L 424.6875 101.242188 L 425.96875 101.242188 L 427.246094 101.238281 L 428.527344 101.238281 L 429.808594 101.234375 L 431.089844 101.226562 L 432.371094 101.222656 L 434.933594 101.207031 L 436.214844 101.195312 L 438.777344 101.164062 L 440.058594 101.144531 L 441.335938 101.117188 L 442.617188 101.085938 L 443.898438 101.050781 L 445.179688 101.003906 L 446.460938 100.949219 L 447.742188 100.886719 L 449.023438 100.808594 L 450.304688 100.722656 L 451.585938 100.613281 L 452.867188 100.484375 L 454.148438 100.335938 L 455.429688 100.167969 L 456.707031 99.96875 L 457.988281 99.734375 L 459.269531 99.464844 L 460.550781 99.15625 L 461.832031 98.808594 L 463.113281 98.414062 L 464.394531 97.957031 L 465.675781 97.433594 L 466.957031 96.851562 L 468.238281 96.203125 L 469.519531 95.484375 L 470.796875 94.671875 L 472.078125 93.761719 L 473.359375 92.765625 L 474.640625 91.675781 L 475.921875 90.484375 L 477.203125 89.171875 L 478.484375 87.734375 L 479.765625 86.183594 L 481.046875 84.519531 L 482.328125 82.738281 L 483.609375 80.816406 L 484.890625 78.757812 L 486.167969 76.582031 L 487.449219 74.289062 L 488.730469 71.878906 L 490.011719 69.34375 L 491.292969 66.683594 L 492.574219 63.925781 L 493.855469 61.082031 L 495.136719 58.152344 L 496.417969 55.140625 L 497.699219 52.0625 L 498.980469 48.941406 L 500.257812 45.789062 L 501.539062 42.617188 L 502.820312 39.441406 L 504.101562 36.285156 L 505.382812 33.167969 L 506.664062 30.097656 L 507.945312 27.089844 L 509.226562 24.171875 L 510.507812 21.375 L 511.789062 18.695312 L 513.070312 16.144531 L 514.351562 13.734375 L 515.628906 11.492188 L 516.910156 9.460938 L 518.191406 7.601562 L 519.472656 5.929688 L 520.753906 4.449219 L 522.035156 3.175781 L 523.316406 2.148438 L 524.597656 1.320312 L 525.878906 0.6875 L 527.160156 0.246094 L 528.441406 0.0078125 L 529.71875 0 L 531 0.164062 L 532.28125 0.488281 L 533.5625 0.96875 L 534.84375 1.597656 L 536.125 2.394531 L 537.40625 3.300781 L 538.6875 4.3125 L 539.96875 5.410156 L 541.25 6.585938 L 542.53125 7.84375 L 543.8125 9.140625 L 545.089844 10.46875 L 546.371094 11.824219 L 548.933594 14.542969 L 550.214844 15.890625 L 551.496094 17.210938 L 552.777344 18.503906 L 554.058594 19.757812 L 555.339844 20.957031 L 556.621094 22.105469 L 557.902344 23.203125 L 559.179688 24.242188 L 560.460938 25.226562 L 561.742188 26.136719 L 563.023438 26.988281 L 564.304688 27.78125 L 565.585938 28.519531 L 566.867188 29.203125 L 568.148438 29.828125 L 569.429688 30.402344 L 570.710938 30.9375 L 571.992188 31.4375 L 573.273438 31.90625 L 574.550781 32.339844 L 575.832031 32.757812 L 577.113281 33.160156 L 578.394531 33.558594 L 579.675781 33.953125 L 580.957031 34.351562 L 582.238281 34.769531 L 583.519531 35.203125 L 584.800781 35.660156 L 586.082031 36.148438 L 587.363281 36.679688 L 588.644531 37.253906 L 589.921875 37.878906 L 591.203125 38.550781 L 592.484375 39.277344 L 593.765625 40.074219 L 595.046875 40.941406 L 596.328125 41.871094 L 597.609375 42.863281 L 598.890625 43.925781 L 600.171875 45.066406 L 601.453125 46.28125 L 602.734375 47.558594 L 604.011719 48.902344 L 605.292969 50.308594 L 606.574219 51.785156 L 607.855469 53.320312 L 609.136719 54.902344 L 610.417969 56.535156 L 611.699219 58.203125 L 612.980469 59.914062 L 614.261719 61.652344 L 615.542969 63.414062 L 616.824219 65.1875 L 618.105469 66.964844 L 619.382812 68.746094 L 620.664062 70.515625 L 621.945312 72.269531 L 623.226562 74 L 624.507812 75.703125 L 625.789062 77.371094 L 627.070312 78.988281 L 628.351562 80.5625 L 629.632812 82.082031 L 630.914062 83.550781 L 632.195312 84.957031 L 633.472656 86.289062 L 634.753906 87.558594 L 636.035156 88.765625 L 637.316406 89.90625 L 638.597656 90.976562 L 639.878906 91.964844 L 641.160156 92.890625 L 642.441406 93.75 L 643.722656 94.550781 L 645.003906 95.285156 L 646.285156 95.945312 L 647.566406 96.554688 L 648.84375 97.109375 L 650.125 97.617188 L 651.40625 98.070312 L 652.6875 98.46875 L 653.96875 98.832031 L 655.25 99.15625 L 656.53125 99.441406 L 657.8125 99.699219 L 659.09375 99.917969 L 660.375 100.109375 L 661.65625 100.28125 L 662.933594 100.429688 L 664.214844 100.558594 L 665.496094 100.664062 L 666.777344 100.757812 L 668.058594 100.839844 L 669.339844 100.910156 L 670.621094 100.96875 L 671.902344 101.015625 L 673.183594 101.058594 L 675.746094 101.121094 L 677.027344 101.144531 L 678.304688 101.164062 L 680.867188 101.195312 L 682.148438 101.207031 L 684.710938 101.222656 L 687.273438 101.230469 "/>
<path fill-rule="nonzero" fill="rgb(0%, 69.019608%, 96.470588%)" fill-opacity="0.501961" d="M 32.726562 157.5 L 205.648438 157.5 L 206.929688 157.496094 L 212.054688 157.496094 L 213.335938 157.492188 L 215.898438 157.492188 L 217.179688 157.488281 L 218.460938 157.488281 L 219.742188 157.484375 L 221.019531 157.480469 L 222.300781 157.480469 L 224.863281 157.472656 L 226.144531 157.464844 L 227.425781 157.460938 L 228.707031 157.453125 L 229.988281 157.449219 L 232.550781 157.433594 L 233.832031 157.421875 L 235.109375 157.414062 L 237.671875 157.390625 L 238.953125 157.375 L 240.234375 157.363281 L 242.796875 157.332031 L 245.359375 157.292969 L 246.640625 157.277344 L 247.921875 157.253906 L 249.203125 157.234375 L 250.480469 157.214844 L 251.761719 157.191406 L 253.042969 157.171875 L 256.886719 157.101562 L 258.167969 157.082031 L 260.730469 157.035156 L 263.292969 156.996094 L 264.570312 156.976562 L 265.851562 156.957031 L 269.695312 156.910156 L 273.539062 156.875 L 274.820312 156.867188 L 276.101562 156.855469 L 277.382812 156.851562 L 278.664062 156.84375 L 279.941406 156.839844 L 282.503906 156.832031 L 283.785156 156.832031 L 285.066406 156.828125 L 286.347656 156.828125 L 287.628906 156.824219 L 290.191406 156.824219 L 291.472656 156.820312 L 292.753906 156.820312 L 294.03125 156.816406 L 295.3125 156.816406 L 303 156.792969 L 304.28125 156.785156 L 305.5625 156.78125 L 308.125 156.765625 L 309.402344 156.757812 L 314.527344 156.726562 L 315.808594 156.714844 L 317.089844 156.707031 L 320.933594 156.671875 L 322.214844 156.65625 L 323.492188 156.640625 L 324.773438 156.625 L 327.335938 156.585938 L 329.898438 156.539062 L 331.179688 156.511719 L 335.023438 156.417969 L 337.585938 156.339844 L 338.863281 156.296875 L 341.425781 156.203125 L 343.988281 156.101562 L 346.550781 155.992188 L 349.113281 155.875 L 351.675781 155.75 L 352.953125 155.6875 L 356.796875 155.5 L 358.078125 155.433594 L 367.046875 154.996094 L 368.324219 154.933594 L 369.605469 154.867188 L 370.886719 154.804688 L 373.449219 154.671875 L 376.011719 154.53125 L 377.292969 154.457031 L 378.574219 154.378906 L 379.855469 154.296875 L 381.136719 154.207031 L 382.414062 154.117188 L 383.695312 154.019531 L 384.976562 153.917969 L 386.257812 153.808594 L 387.539062 153.695312 L 390.101562 153.445312 L 391.382812 153.308594 L 392.664062 153.167969 L 393.945312 153.015625 L 395.226562 152.859375 L 396.507812 152.695312 L 397.785156 152.527344 L 399.066406 152.355469 L 401.628906 151.988281 L 402.910156 151.800781 L 405.472656 151.410156 L 410.597656 150.613281 L 411.875 150.410156 L 414.4375 150.011719 L 415.71875 149.816406 L 417 149.625 L 418.28125 149.429688 L 420.84375 149.054688 L 422.125 148.871094 L 425.96875 148.332031 L 427.246094 148.152344 L 428.527344 147.972656 L 431.089844 147.605469 L 432.371094 147.417969 L 433.652344 147.222656 L 434.933594 147.019531 L 436.214844 146.808594 L 437.496094 146.585938 L 438.777344 146.351562 L 440.058594 146.101562 L 441.335938 145.832031 L 442.617188 145.550781 L 443.898438 145.246094 L 445.179688 144.917969 L 446.460938 144.566406 L 447.742188 144.1875 L 449.023438 143.785156 L 450.304688 143.351562 L 451.585938 142.882812 L 452.867188 142.382812 L 454.148438 141.851562 L 455.429688 141.285156 L 456.707031 140.683594 L 457.988281 140.039062 L 459.269531 139.351562 L 460.550781 138.628906 L 461.832031 137.871094 L 463.113281 137.070312 L 464.394531 136.21875 L 465.675781 135.324219 L 466.957031 134.390625 L 468.238281 133.410156 L 469.519531 132.390625 L 470.796875 131.316406 L 472.078125 130.195312 L 473.359375 129.027344 L 474.640625 127.8125 L 475.921875 126.554688 L 477.203125 125.242188 L 478.484375 123.882812 L 479.765625 122.472656 L 481.046875 121.019531 L 482.328125 119.523438 L 483.609375 117.976562 L 484.890625 116.378906 L 486.167969 114.742188 L 487.449219 113.070312 L 488.730469 111.359375 L 490.011719 109.613281 L 491.292969 107.828125 L 492.574219 106.023438 L 493.855469 104.195312 L 495.136719 102.347656 L 496.417969 100.492188 L 497.699219 98.625 L 498.980469 96.761719 L 500.257812 94.90625 L 501.539062 93.0625 L 502.820312 91.242188 L 504.101562 89.457031 L 505.382812 87.703125 L 506.664062 85.996094 L 507.945312 84.335938 L 509.226562 82.734375 L 510.507812 81.210938 L 511.789062 79.753906 L 513.070312 78.371094 L 514.351562 77.066406 L 515.628906 75.855469 L 516.910156 74.75 L 518.191406 73.734375 L 519.472656 72.8125 L 520.753906 71.988281 L 522.035156 71.261719 L 523.316406 70.660156 L 524.597656 70.148438 L 525.878906 69.734375 L 527.160156 69.414062 L 528.441406 69.191406 L 529.71875 69.078125 L 531 69.050781 L 532.28125 69.101562 L 533.5625 69.230469 L 534.84375 69.441406 L 536.125 69.738281 L 537.40625 70.097656 L 538.6875 70.523438 L 539.96875 71 L 541.25 71.535156 L 542.53125 72.132812 L 543.8125 72.773438 L 545.089844 73.457031 L 546.371094 74.175781 L 547.652344 74.933594 L 548.933594 75.730469 L 550.214844 76.554688 L 551.496094 77.410156 L 552.777344 78.285156 L 554.058594 79.1875 L 555.339844 80.113281 L 556.621094 81.0625 L 557.902344 82.027344 L 559.179688 83.007812 L 560.460938 84.007812 L 561.742188 85.027344 L 563.023438 86.0625 L 564.304688 87.109375 L 565.585938 88.175781 L 566.867188 89.253906 L 568.148438 90.347656 L 569.429688 91.460938 L 570.710938 92.585938 L 571.992188 93.722656 L 573.273438 94.878906 L 574.550781 96.050781 L 575.832031 97.238281 L 577.113281 98.441406 L 578.394531 99.660156 L 579.675781 100.890625 L 580.957031 102.144531 L 582.238281 103.414062 L 583.519531 104.699219 L 584.800781 106 L 586.082031 107.316406 L 587.363281 108.648438 L 588.644531 110 L 589.921875 111.359375 L 591.203125 112.734375 L 592.484375 114.121094 L 593.765625 115.519531 L 595.046875 116.925781 L 596.328125 118.339844 L 597.609375 119.757812 L 601.453125 124.023438 L 602.734375 125.441406 L 604.011719 126.851562 L 605.292969 128.25 L 606.574219 129.636719 L 607.855469 131.007812 L 609.136719 132.359375 L 610.417969 133.6875 L 611.699219 134.996094 L 612.980469 136.273438 L 614.261719 137.519531 L 615.542969 138.730469 L 616.824219 139.914062 L 618.105469 141.058594 L 619.382812 142.164062 L 620.664062 143.222656 L 621.945312 144.242188 L 623.226562 145.222656 L 624.507812 146.15625 L 625.789062 147.046875 L 627.070312 147.886719 L 628.351562 148.679688 L 629.632812 149.433594 L 630.914062 150.144531 L 632.195312 150.808594 L 633.472656 151.425781 L 634.753906 152 L 636.035156 152.539062 L 637.316406 153.039062 L 638.597656 153.496094 L 639.878906 153.914062 L 641.160156 154.296875 L 642.441406 154.652344 L 643.722656 154.972656 L 645.003906 155.265625 L 646.285156 155.527344 L 647.566406 155.765625 L 648.84375 155.976562 L 650.125 156.171875 L 651.40625 156.34375 L 652.6875 156.492188 L 653.96875 156.628906 L 655.25 156.746094 L 656.53125 156.851562 L 657.8125 156.945312 L 659.09375 157.023438 L 660.375 157.09375 L 661.65625 157.15625 L 662.933594 157.207031 L 664.214844 157.253906 L 665.496094 157.292969 L 668.058594 157.355469 L 669.339844 157.378906 L 671.902344 157.417969 L 675.746094 157.453125 L 677.027344 157.460938 L 678.304688 157.46875 L 679.585938 157.476562 L 683.429688 157.488281 L 684.710938 157.488281 L 685.992188 157.492188 L 687.273438 157.492188 L 687.273438 157.5 Z M 32.726562 157.5 "/>
<path fill="none" stroke-width="1.066978" stroke-linecap="round" stroke-linejoin="round" stroke="rgb(0%, 69.019608%, 96.470588%)" stroke-opacity="1" stroke-miterlimit="10" d="M 32.726562 157.5 L 205.648438 157.5 L 206.929688 157.496094 L 212.054688 157.496094 L 213.335938 157.492188 L 215.898438 157.492188 L 217.179688 157.488281 L 218.460938 157.488281 L 219.742188 157.484375 L 221.019531 157.480469 L 222.300781 157.480469 L 224.863281 157.472656 L 226.144531 157.464844 L 227.425781 157.460938 L 228.707031 157.453125 L 229.988281 157.449219 L 232.550781 157.433594 L 233.832031 157.421875 L 235.109375 157.414062 L 237.671875 157.390625 L 238.953125 157.375 L 240.234375 157.363281 L 242.796875 157.332031 L 245.359375 157.292969 L 246.640625 157.277344 L 247.921875 157.253906 L 249.203125 157.234375 L 250.480469 157.214844 L 251.761719 157.191406 L 253.042969 157.171875 L 256.886719 157.101562 L 258.167969 157.082031 L 260.730469 157.035156 L 263.292969 156.996094 L 264.570312 156.976562 L 265.851562 156.957031 L 269.695312 156.910156 L 273.539062 156.875 L 274.820312 156.867188 L 276.101562 156.855469 L 277.382812 156.851562 L 278.664062 156.84375 L 279.941406 156.839844 L 282.503906 156.832031 L 283.785156 156.832031 L 285.066406 156.828125 L 286.347656 156.828125 L 287.628906 156.824219 L 290.191406 156.824219 L 291.472656 156.820312 L 292.753906 156.820312 L 294.03125 156.816406 L 295.3125 156.816406 L 303 156.792969 L 304.28125 156.785156 L 305.5625 156.78125 L 308.125 156.765625 L 309.402344 156.757812 L 314.527344 156.726562 L 315.808594 156.714844 L 317.089844 156.707031 L 320.933594 156.671875 L 322.214844 156.65625 L 323.492188 156.640625 L 324.773438 156.625 L 327.335938 156.585938 L 329.898438 156.539062 L 331.179688 156.511719 L 335.023438 156.417969 L 337.585938 156.339844 L 338.863281 156.296875 L 341.425781 156.203125 L 343.988281 156.101562 L 346.550781 155.992188 L 349.113281 155.875 L 351.675781 155.75 L 352.953125 155.6875 L 356.796875 155.5 L 358.078125 155.433594 L 367.046875 154.996094 L 368.324219 154.933594 L 369.605469 154.867188 L 370.886719 154.804688 L 373.449219 154.671875 L 376.011719 154.53125 L 377.292969 154.457031 L 378.574219 154.378906 L 379.855469 154.296875 L 381.136719 154.207031 L 382.414062 154.117188 L 383.695312 154.019531 L 384.976562 153.917969 L 386.257812 153.808594 L 387.539062 153.695312 L 390.101562 153.445312 L 391.382812 153.308594 L 392.664062 153.167969 L 393.945312 153.015625 L 395.226562 152.859375 L 396.507812 152.695312 L 397.785156 152.527344 L 399.066406 152.355469 L 401.628906 151.988281 L 402.910156 151.800781 L 405.472656 151.410156 L 410.597656 150.613281 L 411.875 150.410156 L 414.4375 150.011719 L 415.71875 149.816406 L 417 149.625 L 418.28125 149.429688 L 420.84375 149.054688 L 422.125 148.871094 L 425.96875 148.332031 L 427.246094 148.152344 L 428.527344 147.972656 L 431.089844 147.605469 L 432.371094 147.417969 L 433.652344 147.222656 L 434.933594 147.019531 L 436.214844 146.808594 L 437.496094 146.585938 L 438.777344 146.351562 L 440.058594 146.101562 L 441.335938 145.832031 L 442.617188 145.550781 L 443.898438 145.246094 L 445.179688 144.917969 L 446.460938 144.566406 L 447.742188 144.1875 L 449.023438 143.785156 L 450.304688 143.351562 L 451.585938 142.882812 L 452.867188 142.382812 L 454.148438 141.851562 L 455.429688 141.285156 L 456.707031 140.683594 L 457.988281 140.039062 L 459.269531 139.351562 L 460.550781 138.628906 L 461.832031 137.871094 L 463.113281 137.070312 L 464.394531 136.21875 L 465.675781 135.324219 L 466.957031 134.390625 L 468.238281 133.410156 L 469.519531 132.390625 L 470.796875 131.316406 L 472.078125 130.195312 L 473.359375 129.027344 L 474.640625 127.8125 L 475.921875 126.554688 L 477.203125 125.242188 L 478.484375 123.882812 L 479.765625 122.472656 L 481.046875 121.019531 L 482.328125 119.523438 L 483.609375 117.976562 L 484.890625 116.378906 L 486.167969 114.742188 L 487.449219 113.070312 L 488.730469 111.359375 L 490.011719 109.613281 L 491.292969 107.828125 L 492.574219 106.023438 L 493.855469 104.195312 L 495.136719 102.347656 L 496.417969 100.492188 L 497.699219 98.625 L 498.980469 96.761719 L 500.257812 94.90625 L 501.539062 93.0625 L 502.820312 91.242188 L 504.101562 89.457031 L 505.382812 87.703125 L 506.664062 85.996094 L 507.945312 84.335938 L 509.226562 82.734375 L 510.507812 81.210938 L 511.789062 79.753906 L 513.070312 78.371094 L 514.351562 77.066406 L 515.628906 75.855469 L 516.910156 74.75 L 518.191406 73.734375 L 519.472656 72.8125 L 520.753906 71.988281 L 522.035156 71.261719 L 523.316406 70.660156 L 524.597656 70.148438 L 525.878906 69.734375 L 527.160156 69.414062 L 528.441406 69.191406 L 529.71875 69.078125 L 531 69.050781 L 532.28125 69.101562 L 533.5625 69.230469 L 534.84375 69.441406 L 536.125 69.738281 L 537.40625 70.097656 L 538.6875 70.523438 L 539.96875 71 L 541.25 71.535156 L 542.53125 72.132812 L 543.8125 72.773438 L 545.089844 73.457031 L 546.371094 74.175781 L 547.652344 74.933594 L 548.933594 75.730469 L 550.214844 76.554688 L 551.496094 77.410156 L 552.777344 78.285156 L 554.058594 79.1875 L 555.339844 80.113281 L 556.621094 81.0625 L 557.902344 82.027344 L 559.179688 83.007812 L 560.460938 84.007812 L 561.742188 85.027344 L 563.023438 86.0625 L 564.304688 87.109375 L 565.585938 88.175781 L 566.867188 89.253906 L 568.148438 90.347656 L 569.429688 91.460938 L 570.710938 92.585938 L 571.992188 93.722656 L 573.273438 94.878906 L 574.550781 96.050781 L 575.832031 97.238281 L 577.113281 98.441406 L 578.394531 99.660156 L 579.675781 100.890625 L 580.957031 102.144531 L 582.238281 103.414062 L 583.519531 104.699219 L 584.800781 106 L 586.082031 107.316406 L 587.363281 108.648438 L 588.644531 110 L 589.921875 111.359375 L 591.203125 112.734375 L 592.484375 114.121094 L 593.765625 115.519531 L 595.046875 116.925781 L 596.328125 118.339844 L 597.609375 119.757812 L 601.453125 124.023438 L 602.734375 125.441406 L 604.011719 126.851562 L 605.292969 128.25 L 606.574219 129.636719 L 607.855469 131.007812 L 609.136719 132.359375 L 610.417969 133.6875 L 611.699219 134.996094 L 612.980469 136.273438 L 614.261719 137.519531 L 615.542969 138.730469 L 616.824219 139.914062 L 618.105469 141.058594 L 619.382812 142.164062 L 620.664062 143.222656 L 621.945312 144.242188 L 623.226562 145.222656 L 624.507812 146.15625 L 625.789062 147.046875 L 627.070312 147.886719 L 628.351562 148.679688 L 629.632812 149.433594 L 630.914062 150.144531 L 632.195312 150.808594 L 633.472656 151.425781 L 634.753906 152 L 636.035156 152.539062 L 637.316406 153.039062 L 638.597656 153.496094 L 639.878906 153.914062 L 641.160156 154.296875 L 642.441406 154.652344 L 643.722656 154.972656 L 645.003906 155.265625 L 646.285156 155.527344 L 647.566406 155.765625 L 648.84375 155.976562 L 650.125 156.171875 L 651.40625 156.34375 L 652.6875 156.492188 L 653.96875 156.628906 L 655.25 156.746094 L 656.53125 156.851562 L 657.8125 156.945312 L 659.09375 157.023438 L 660.375 157.09375 L 661.65625 157.15625 L 662.933594 157.207031 L 664.214844 157.253906 L 665.496094 157.292969 L 668.058594 157.355469 L 669.339844 157.378906 L 671.902344 157.417969 L 675.746094 157.453125 L 677.027344 157.460938 L 678.304688 157.46875 L 679.585938 157.476562 L 683.429688 157.488281 L 684.710938 157.488281 L 685.992188 157.492188 L 687.273438 157.492188 "/>
<path fill-rule="nonzero" fill="rgb(0%, 74.901961%, 49.019608%)" fill-opacity="0.501961" d="M 32.726562 213.75 L 71.15625 213.75 L 72.433594 213.746094 L 78.839844 213.746094 L 80.121094 213.742188 L 81.402344 213.742188 L 82.683594 213.738281 L 83.964844 213.738281 L 85.246094 213.734375 L 86.527344 213.734375 L 87.804688 213.730469 L 90.367188 213.722656 L 91.648438 213.714844 L 92.929688 213.710938 L 98.054688 213.679688 L 100.617188 213.65625 L 101.894531 213.640625 L 104.457031 213.609375 L 105.738281 213.589844 L 107.019531 213.566406 L 108.300781 213.546875 L 110.863281 213.492188 L 113.425781 213.429688 L 115.988281 213.359375 L 117.265625 213.316406 L 118.546875 213.277344 L 121.109375 213.183594 L 122.390625 213.132812 L 123.671875 213.078125 L 127.515625 212.902344 L 130.078125 212.769531 L 131.355469 212.703125 L 132.636719 212.632812 L 136.480469 212.410156 L 141.605469 212.097656 L 144.167969 211.933594 L 145.449219 211.855469 L 146.726562 211.773438 L 149.289062 211.609375 L 150.570312 211.53125 L 151.851562 211.449219 L 158.257812 211.058594 L 160.820312 210.910156 L 162.097656 210.832031 L 165.941406 210.609375 L 167.222656 210.53125 L 168.503906 210.457031 L 171.066406 210.300781 L 173.628906 210.136719 L 174.910156 210.050781 L 176.1875 209.960938 L 178.75 209.773438 L 180.03125 209.671875 L 181.3125 209.566406 L 182.59375 209.457031 L 183.875 209.34375 L 185.15625 209.222656 L 186.4375 209.097656 L 187.71875 208.964844 L 189 208.828125 L 190.28125 208.683594 L 191.558594 208.53125 L 192.839844 208.375 L 194.121094 208.210938 L 195.402344 208.042969 L 196.683594 207.867188 L 197.964844 207.6875 L 199.246094 207.5 L 200.527344 207.304688 L 201.808594 207.105469 L 203.089844 206.902344 L 204.371094 206.695312 L 205.648438 206.480469 L 206.929688 206.265625 L 208.210938 206.042969 L 210.773438 205.589844 L 213.335938 205.121094 L 215.898438 204.644531 L 217.179688 204.402344 L 219.742188 203.910156 L 221.019531 203.664062 L 226.144531 202.664062 L 227.425781 202.410156 L 232.550781 201.410156 L 233.832031 201.164062 L 235.109375 200.917969 L 236.390625 200.671875 L 237.671875 200.429688 L 240.234375 199.953125 L 241.515625 199.71875 L 242.796875 199.488281 L 244.078125 199.261719 L 245.359375 199.039062 L 246.640625 198.820312 L 247.921875 198.605469 L 249.203125 198.398438 L 250.480469 198.191406 L 251.761719 197.992188 L 253.042969 197.796875 L 254.324219 197.609375 L 255.605469 197.425781 L 256.886719 197.25 L 258.167969 197.078125 L 259.449219 196.914062 L 260.730469 196.757812 L 262.011719 196.605469 L 263.292969 196.460938 L 264.570312 196.324219 L 265.851562 196.191406 L 267.132812 196.070312 L 268.414062 195.953125 L 269.695312 195.84375 L 270.976562 195.742188 L 272.257812 195.648438 L 273.539062 195.5625 L 274.820312 195.484375 L 276.101562 195.414062 L 277.382812 195.351562 L 278.664062 195.292969 L 279.941406 195.242188 L 281.222656 195.199219 L 282.503906 195.164062 L 283.785156 195.132812 L 285.066406 195.109375 L 286.347656 195.089844 L 287.628906 195.074219 L 288.910156 195.0625 L 291.472656 195.054688 L 294.03125 195.054688 L 300.4375 195.074219 L 304.28125 195.074219 L 305.5625 195.070312 L 308.125 195.054688 L 309.402344 195.039062 L 310.683594 195.023438 L 311.964844 195.003906 L 313.246094 194.980469 L 315.808594 194.925781 L 318.371094 194.855469 L 319.652344 194.8125 L 320.933594 194.773438 L 322.214844 194.726562 L 323.492188 194.679688 L 326.054688 194.578125 L 327.335938 194.523438 L 328.617188 194.464844 L 329.898438 194.410156 L 331.179688 194.351562 L 335.023438 194.164062 L 337.585938 194.03125 L 338.863281 193.960938 L 340.144531 193.890625 L 341.425781 193.816406 L 342.707031 193.738281 L 343.988281 193.65625 L 345.269531 193.570312 L 347.832031 193.382812 L 349.113281 193.277344 L 350.394531 193.167969 L 351.675781 193.050781 L 352.953125 192.925781 L 354.234375 192.789062 L 355.515625 192.644531 L 356.796875 192.492188 L 358.078125 192.328125 L 359.359375 192.152344 L 360.640625 191.964844 L 361.921875 191.765625 L 363.203125 191.558594 L 364.484375 191.335938 L 365.765625 191.105469 L 367.046875 190.863281 L 368.324219 190.609375 L 369.605469 190.347656 L 370.886719 190.074219 L 372.167969 189.796875 L 373.449219 189.507812 L 374.730469 189.214844 L 376.011719 188.914062 L 378.574219 188.304688 L 379.855469 187.996094 L 381.136719 187.683594 L 382.414062 187.375 L 383.695312 187.066406 L 384.976562 186.761719 L 386.257812 186.460938 L 387.539062 186.167969 L 388.820312 185.878906 L 390.101562 185.597656 L 391.382812 185.320312 L 392.664062 185.050781 L 393.945312 184.796875 L 395.226562 184.546875 L 396.507812 184.308594 L 397.785156 184.078125 L 399.066406 183.859375 L 400.347656 183.648438 L 401.628906 183.453125 L 402.910156 183.261719 L 404.191406 183.082031 L 405.472656 182.910156 L 406.753906 182.75 L 408.035156 182.601562 L 409.316406 182.457031 L 410.597656 182.320312 L 411.875 182.191406 L 413.15625 182.074219 L 414.4375 181.960938 L 415.71875 181.855469 L 417 181.753906 L 418.28125 181.660156 L 419.5625 181.570312 L 420.84375 181.484375 L 422.125 181.402344 L 423.40625 181.324219 L 425.96875 181.175781 L 427.246094 181.109375 L 428.527344 181.039062 L 429.808594 180.972656 L 431.089844 180.910156 L 432.371094 180.84375 L 440.058594 180.46875 L 441.335938 180.402344 L 443.898438 180.277344 L 445.179688 180.210938 L 446.460938 180.148438 L 447.742188 180.082031 L 449.023438 180.019531 L 450.304688 179.953125 L 451.585938 179.890625 L 452.867188 179.824219 L 454.148438 179.761719 L 455.429688 179.695312 L 456.707031 179.632812 L 457.988281 179.570312 L 460.550781 179.4375 L 461.832031 179.375 L 464.394531 179.242188 L 466.957031 179.101562 L 469.519531 178.953125 L 470.796875 178.875 L 472.078125 178.792969 L 473.359375 178.707031 L 474.640625 178.617188 L 475.921875 178.523438 L 478.484375 178.320312 L 479.765625 178.210938 L 481.046875 178.097656 L 482.328125 177.980469 L 484.890625 177.730469 L 486.167969 177.597656 L 488.730469 177.324219 L 493.855469 176.761719 L 496.417969 176.488281 L 497.699219 176.359375 L 498.980469 176.234375 L 500.257812 176.117188 L 501.539062 176.011719 L 502.820312 175.914062 L 504.101562 175.832031 L 505.382812 175.765625 L 506.664062 175.714844 L 507.945312 175.679688 L 509.226562 175.664062 L 510.507812 175.671875 L 511.789062 175.699219 L 513.070312 175.753906 L 514.351562 175.828125 L 515.628906 175.929688 L 516.910156 176.058594 L 518.191406 176.21875 L 519.472656 176.402344 L 520.753906 176.609375 L 522.035156 176.847656 L 523.316406 177.121094 L 524.597656 177.417969 L 525.878906 177.738281 L 527.160156 178.085938 L 528.441406 178.457031 L 529.71875 178.859375 L 531 179.28125 L 532.28125 179.726562 L 533.5625 180.1875 L 534.84375 180.667969 L 536.125 181.171875 L 537.40625 181.6875 L 538.6875 182.21875 L 539.96875 182.757812 L 541.25 183.308594 L 542.53125 183.867188 L 543.8125 184.4375 L 545.089844 185.007812 L 546.371094 185.582031 L 547.652344 186.160156 L 548.933594 186.734375 L 550.214844 187.3125 L 551.496094 187.886719 L 552.777344 188.457031 L 554.058594 189.023438 L 555.339844 189.582031 L 556.621094 190.136719 L 557.902344 190.683594 L 559.179688 191.222656 L 560.460938 191.753906 L 561.742188 192.273438 L 563.023438 192.789062 L 564.304688 193.289062 L 565.585938 193.785156 L 566.867188 194.269531 L 568.148438 194.742188 L 569.429688 195.203125 L 570.710938 195.660156 L 571.992188 196.101562 L 573.273438 196.539062 L 574.550781 196.964844 L 575.832031 197.378906 L 577.113281 197.785156 L 578.394531 198.183594 L 579.675781 198.574219 L 580.957031 198.953125 L 582.238281 199.328125 L 583.519531 199.695312 L 584.800781 200.054688 L 586.082031 200.40625 L 587.363281 200.75 L 588.644531 201.089844 L 589.921875 201.421875 L 591.203125 201.75 L 592.484375 202.074219 L 593.765625 202.390625 L 595.046875 202.703125 L 596.328125 203.011719 L 597.609375 203.316406 L 598.890625 203.617188 L 600.171875 203.914062 L 601.453125 204.207031 L 602.734375 204.496094 L 604.011719 204.78125 L 606.574219 205.351562 L 610.417969 206.183594 L 611.699219 206.453125 L 612.980469 206.726562 L 616.824219 207.523438 L 618.105469 207.785156 L 619.382812 208.042969 L 621.945312 208.550781 L 623.226562 208.800781 L 624.507812 209.046875 L 625.789062 209.289062 L 628.351562 209.757812 L 629.632812 209.984375 L 630.914062 210.207031 L 632.195312 210.421875 L 633.472656 210.632812 L 634.753906 210.835938 L 636.035156 211.03125 L 637.316406 211.222656 L 638.597656 211.40625 L 639.878906 211.578125 L 641.160156 211.746094 L 642.441406 211.90625 L 643.722656 212.058594 L 645.003906 212.203125 L 646.285156 212.335938 L 647.566406 212.464844 L 648.84375 212.582031 L 650.125 212.695312 L 651.40625 212.796875 L 652.6875 212.894531 L 653.96875 212.980469 L 655.25 213.0625 L 656.53125 213.140625 L 657.8125 213.207031 L 659.09375 213.269531 L 660.375 213.328125 L 661.65625 213.378906 L 662.933594 213.425781 L 665.496094 213.503906 L 668.058594 213.566406 L 670.621094 213.613281 L 671.902344 213.632812 L 675.746094 213.679688 L 677.027344 213.691406 L 678.304688 213.699219 L 682.148438 213.722656 L 687.273438 213.738281 L 687.273438 213.75 Z M 32.726562 213.75 "/>
<path fill="none" stroke-width="1.066978" stroke-linecap="round" stroke-linejoin="round" stroke="rgb(0%, 74.901961%, 49.019608%)" stroke-opacity="1" stroke-miterlimit="10" d="M 32.726562 213.75 L 71.15625 213.75 L 72.433594 213.746094 L 78.839844 213.746094 L 80.121094 213.742188 L 81.402344 213.742188 L 82.683594 213.738281 L 83.964844 213.738281 L 85.246094 213.734375 L 86.527344 213.734375 L 87.804688 213.730469 L 90.367188 213.722656 L 91.648438 213.714844 L 92.929688 213.710938 L 98.054688 213.679688 L 100.617188 213.65625 L 101.894531 213.640625 L 104.457031 213.609375 L 105.738281 213.589844 L 107.019531 213.566406 L 108.300781 213.546875 L 110.863281 213.492188 L 113.425781 213.429688 L 115.988281 213.359375 L 117.265625 213.316406 L 118.546875 213.277344 L 121.109375 213.183594 L 122.390625 213.132812 L 123.671875 213.078125 L 127.515625 212.902344 L 130.078125 212.769531 L 131.355469 212.703125 L 132.636719 212.632812 L 136.480469 212.410156 L 141.605469 212.097656 L 144.167969 211.933594 L 145.449219 211.855469 L 146.726562 211.773438 L 149.289062 211.609375 L 150.570312 211.53125 L 151.851562 211.449219 L 158.257812 211.058594 L 160.820312 210.910156 L 162.097656 210.832031 L 165.941406 210.609375 L 167.222656 210.53125 L 168.503906 210.457031 L 171.066406 210.300781 L 173.628906 210.136719 L 174.910156 210.050781 L 176.1875 209.960938 L 178.75 209.773438 L 180.03125 209.671875 L 181.3125 209.566406 L 182.59375 209.457031 L 183.875 209.34375 L 185.15625 209.222656 L 186.4375 209.097656 L 187.71875 208.964844 L 189 208.828125 L 190.28125 208.683594 L 191.558594 208.53125 L 192.839844 208.375 L 194.121094 208.210938 L 195.402344 208.042969 L 196.683594 207.867188 L 197.964844 207.6875 L 199.246094 207.5 L 200.527344 207.304688 L 201.808594 207.105469 L 203.089844 206.902344 L 204.371094 206.695312 L 205.648438 206.480469 L 206.929688 206.265625 L 208.210938 206.042969 L 210.773438 205.589844 L 213.335938 205.121094 L 215.898438 204.644531 L 217.179688 204.402344 L 219.742188 203.910156 L 221.019531 203.664062 L 226.144531 202.664062 L 227.425781 202.410156 L 232.550781 201.410156 L 233.832031 201.164062 L 235.109375 200.917969 L 236.390625 200.671875 L 237.671875 200.429688 L 240.234375 199.953125 L 241.515625 199.71875 L 242.796875 199.488281 L 244.078125 199.261719 L 245.359375 199.039062 L 246.640625 198.820312 L 247.921875 198.605469 L 249.203125 198.398438 L 250.480469 198.191406 L 251.761719 197.992188 L 253.042969 197.796875 L 254.324219 197.609375 L 255.605469 197.425781 L 256.886719 197.25 L 258.167969 197.078125 L 259.449219 196.914062 L 260.730469 196.757812 L 262.011719 196.605469 L 263.292969 196.460938 L 264.570312 196.324219 L 265.851562 196.191406 L 267.132812 196.070312 L 268.414062 195.953125 L 269.695312 195.84375 L 270.976562 195.742188 L 272.257812 195.648438 L 273.539062 195.5625 L 274.820312 195.484375 L 276.101562 195.414062 L 277.382812 195.351562 L 278.664062 195.292969 L 279.941406 195.242188 L 281.222656 195.199219 L 282.503906 195.164062 L 283.785156 195.132812 L 285.066406 195.109375 L 286.347656 195.089844 L 287.628906 195.074219 L 288.910156 195.0625 L 291.472656 195.054688 L 294.03125 195.054688 L 300.4375 195.074219 L 304.28125 195.074219 L 305.5625 195.070312 L 308.125 195.054688 L 309.402344 195.039062 L 310.683594 195.023438 L 311.964844 195.003906 L 313.246094 194.980469 L 315.808594 194.925781 L 318.371094 194.855469 L 319.652344 194.8125 L 320.933594 194.773438 L 322.214844 194.726562 L 323.492188 194.679688 L 326.054688 194.578125 L 327.335938 194.523438 L 328.617188 194.464844 L 329.898438 194.410156 L 331.179688 194.351562 L 335.023438 194.164062 L 337.585938 194.03125 L 338.863281 193.960938 L 340.144531 193.890625 L 341.425781 193.816406 L 342.707031 193.738281 L 343.988281 193.65625 L 345.269531 193.570312 L 347.832031 193.382812 L 349.113281 193.277344 L 350.394531 193.167969 L 351.675781 193.050781 L 352.953125 192.925781 L 354.234375 192.789062 L 355.515625 192.644531 L 356.796875 192.492188 L 358.078125 192.328125 L 359.359375 192.152344 L 360.640625 191.964844 L 361.921875 191.765625 L 363.203125 191.558594 L 364.484375 191.335938 L 365.765625 191.105469 L 367.046875 190.863281 L 368.324219 190.609375 L 369.605469 190.347656 L 370.886719 190.074219 L 372.167969 189.796875 L 373.449219 189.507812 L 374.730469 189.214844 L 376.011719 188.914062 L 378.574219 188.304688 L 379.855469 187.996094 L 381.136719 187.683594 L 382.414062 187.375 L 383.695312 187.066406 L 384.976562 186.761719 L 386.257812 186.460938 L 387.539062 186.167969 L 388.820312 185.878906 L 390.101562 185.597656 L 391.382812 185.320312 L 392.664062 185.050781 L 393.945312 184.796875 L 395.226562 184.546875 L 396.507812 184.308594 L 397.785156 184.078125 L 399.066406 183.859375 L 400.347656 183.648438 L 401.628906 183.453125 L 402.910156 183.261719 L 404.191406 183.082031 L 405.472656 182.910156 L 406.753906 182.75 L 408.035156 182.601562 L 409.316406 182.457031 L 410.597656 182.320312 L 411.875 182.191406 L 413.15625 182.074219 L 414.4375 181.960938 L 415.71875 181.855469 L 417 181.753906 L 418.28125 181.660156 L 419.5625 181.570312 L 420.84375 181.484375 L 422.125 181.402344 L 423.40625 181.324219 L 425.96875 181.175781 L 427.246094 181.109375 L 428.527344 181.039062 L 429.808594 180.972656 L 431.089844 180.910156 L 432.371094 180.84375 L 440.058594 180.46875 L 441.335938 180.402344 L 443.898438 180.277344 L 445.179688 180.210938 L 446.460938 180.148438 L 447.742188 180.082031 L 449.023438 180.019531 L 450.304688 179.953125 L 451.585938 179.890625 L 452.867188 179.824219 L 454.148438 179.761719 L 455.429688 179.695312 L 456.707031 179.632812 L 457.988281 179.570312 L 460.550781 179.4375 L 461.832031 179.375 L 464.394531 179.242188 L 466.957031 179.101562 L 469.519531 178.953125 L 470.796875 178.875 L 472.078125 178.792969 L 473.359375 178.707031 L 474.640625 178.617188 L 475.921875 178.523438 L 478.484375 178.320312 L 479.765625 178.210938 L 481.046875 178.097656 L 482.328125 177.980469 L 484.890625 177.730469 L 486.167969 177.597656 L 488.730469 177.324219 L 493.855469 176.761719 L 496.417969 176.488281 L 497.699219 176.359375 L 498.980469 176.234375 L 500.257812 176.117188 L 501.539062 176.011719 L 502.820312 175.914062 L 504.101562 175.832031 L 505.382812 175.765625 L 506.664062 175.714844 L 507.945312 175.679688 L 509.226562 175.664062 L 510.507812 175.671875 L 511.789062 175.699219 L 513.070312 175.753906 L 514.351562 175.828125 L 515.628906 175.929688 L 516.910156 176.058594 L 518.191406 176.21875 L 519.472656 176.402344 L 520.753906 176.609375 L 522.035156 176.847656 L 523.316406 177.121094 L 524.597656 177.417969 L 525.878906 177.738281 L 527.160156 178.085938 L 528.441406 178.457031 L 529.71875 178.859375 L 531 179.28125 L 532.28125 179.726562 L 533.5625 180.1875 L 534.84375 180.667969 L 536.125 181.171875 L 537.40625 181.6875 L 538.6875 182.21875 L 539.96875 182.757812 L 541.25 183.308594 L 542.53125 183.867188 L 543.8125 184.4375 L 545.089844 185.007812 L 546.371094 185.582031 L 547.652344 186.160156 L 548.933594 186.734375 L 550.214844 187.3125 L 551.496094 187.886719 L 552.777344 188.457031 L 554.058594 189.023438 L 555.339844 189.582031 L 556.621094 190.136719 L 557.902344 190.683594 L 559.179688 191.222656 L 560.460938 191.753906 L 561.742188 192.273438 L 563.023438 192.789062 L 564.304688 193.289062 L 565.585938 193.785156 L 566.867188 194.269531 L 568.148438 194.742188 L 569.429688 195.203125 L 570.710938 195.660156 L 571.992188 196.101562 L 573.273438 196.539062 L 574.550781 196.964844 L 575.832031 197.378906 L 577.113281 197.785156 L 578.394531 198.183594 L 579.675781 198.574219 L 580.957031 198.953125 L 582.238281 199.328125 L 583.519531 199.695312 L 584.800781 200.054688 L 586.082031 200.40625 L 587.363281 200.75 L 588.644531 201.089844 L 589.921875 201.421875 L 591.203125 201.75 L 592.484375 202.074219 L 593.765625 202.390625 L 595.046875 202.703125 L 596.328125 203.011719 L 597.609375 203.316406 L 598.890625 203.617188 L 600.171875 203.914062 L 601.453125 204.207031 L 602.734375 204.496094 L 604.011719 204.78125 L 606.574219 205.351562 L 610.417969 206.183594 L 611.699219 206.453125 L 612.980469 206.726562 L 616.824219 207.523438 L 618.105469 207.785156 L 619.382812 208.042969 L 621.945312 208.550781 L 623.226562 208.800781 L 624.507812 209.046875 L 625.789062 209.289062 L 628.351562 209.757812 L 629.632812 209.984375 L 630.914062 210.207031 L 632.195312 210.421875 L 633.472656 210.632812 L 634.753906 210.835938 L 636.035156 211.03125 L 637.316406 211.222656 L 638.597656 211.40625 L 639.878906 211.578125 L 641.160156 211.746094 L 642.441406 211.90625 L 643.722656 212.058594 L 645.003906 212.203125 L 646.285156 212.335938 L 647.566406 212.464844 L 648.84375 212.582031 L 650.125 212.695312 L 651.40625 212.796875 L 652.6875 212.894531 L 653.96875 212.980469 L 655.25 213.0625 L 656.53125 213.140625 L 657.8125 213.207031 L 659.09375 213.269531 L 660.375 213.328125 L 661.65625 213.378906 L 662.933594 213.425781 L 665.496094 213.503906 L 668.058594 213.566406 L 670.621094 213.613281 L 671.902344 213.632812 L 675.746094 213.679688 L 677.027344 213.691406 L 678.304688 213.699219 L 682.148438 213.722656 L 687.273438 213.738281 "/>
<path fill-rule="nonzero" fill="rgb(63.921569%, 64.705882%, 0%)" fill-opacity="0.501961" d="M 32.726562 270 L 149.289062 270 L 150.570312 269.996094 L 156.976562 269.996094 L 158.257812 269.992188 L 159.539062 269.992188 L 160.820312 269.988281 L 162.097656 269.988281 L 163.378906 269.984375 L 164.660156 269.984375 L 169.785156 269.96875 L 171.066406 269.960938 L 172.347656 269.957031 L 174.910156 269.941406 L 176.1875 269.929688 L 177.46875 269.921875 L 178.75 269.910156 L 180.03125 269.894531 L 181.3125 269.882812 L 182.59375 269.863281 L 183.875 269.847656 L 186.4375 269.808594 L 189 269.761719 L 190.28125 269.734375 L 191.558594 269.703125 L 194.121094 269.640625 L 195.402344 269.605469 L 196.683594 269.566406 L 200.527344 269.4375 L 203.089844 269.335938 L 204.371094 269.28125 L 205.648438 269.222656 L 206.929688 269.164062 L 209.492188 269.03125 L 210.773438 268.960938 L 213.335938 268.804688 L 215.898438 268.632812 L 217.179688 268.539062 L 218.460938 268.441406 L 219.742188 268.339844 L 221.019531 268.230469 L 222.300781 268.117188 L 223.582031 267.996094 L 224.863281 267.871094 L 226.144531 267.738281 L 227.425781 267.597656 L 228.707031 267.453125 L 229.988281 267.300781 L 231.269531 267.144531 L 232.550781 266.980469 L 233.832031 266.808594 L 235.109375 266.632812 L 236.390625 266.449219 L 237.671875 266.261719 L 238.953125 266.070312 L 240.234375 265.871094 L 241.515625 265.667969 L 242.796875 265.460938 L 245.359375 265.039062 L 246.640625 264.824219 L 249.203125 264.386719 L 250.480469 264.167969 L 253.042969 263.730469 L 254.324219 263.515625 L 255.605469 263.296875 L 258.167969 262.875 L 259.449219 262.667969 L 260.730469 262.464844 L 262.011719 262.265625 L 263.292969 262.070312 L 264.570312 261.882812 L 265.851562 261.695312 L 268.414062 261.34375 L 269.695312 261.175781 L 270.976562 261.011719 L 273.539062 260.707031 L 274.820312 260.5625 L 276.101562 260.425781 L 277.382812 260.292969 L 278.664062 260.167969 L 279.941406 260.046875 L 281.222656 259.929688 L 282.503906 259.820312 L 285.066406 259.617188 L 286.347656 259.523438 L 288.910156 259.34375 L 291.472656 259.179688 L 292.753906 259.101562 L 294.03125 259.023438 L 300.4375 258.652344 L 301.71875 258.574219 L 303 258.5 L 304.28125 258.417969 L 305.5625 258.339844 L 308.125 258.167969 L 309.402344 258.082031 L 310.683594 257.992188 L 311.964844 257.898438 L 315.808594 257.605469 L 318.371094 257.402344 L 322.214844 257.085938 L 323.492188 256.980469 L 324.773438 256.878906 L 326.054688 256.773438 L 327.335938 256.671875 L 328.617188 256.566406 L 331.179688 256.363281 L 332.460938 256.265625 L 333.742188 256.164062 L 335.023438 256.066406 L 337.585938 255.863281 L 338.863281 255.757812 L 340.144531 255.652344 L 341.425781 255.542969 L 342.707031 255.429688 L 343.988281 255.3125 L 346.550781 255.054688 L 347.832031 254.910156 L 349.113281 254.757812 L 350.394531 254.597656 L 351.675781 254.425781 L 352.953125 254.242188 L 354.234375 254.042969 L 355.515625 253.832031 L 356.796875 253.605469 L 358.078125 253.371094 L 359.359375 253.121094 L 360.640625 252.855469 L 361.921875 252.578125 L 363.203125 252.289062 L 364.484375 251.988281 L 365.765625 251.675781 L 367.046875 251.355469 L 368.324219 251.023438 L 369.605469 250.6875 L 370.886719 250.34375 L 372.167969 249.996094 L 373.449219 249.644531 L 374.730469 249.289062 L 377.292969 248.585938 L 379.855469 247.890625 L 381.136719 247.554688 L 382.414062 247.222656 L 383.695312 246.898438 L 384.976562 246.585938 L 386.257812 246.28125 L 387.539062 245.992188 L 388.820312 245.710938 L 390.101562 245.445312 L 391.382812 245.1875 L 392.664062 244.945312 L 393.945312 244.71875 L 395.226562 244.503906 L 396.507812 244.304688 L 397.785156 244.113281 L 399.066406 243.9375 L 400.347656 243.773438 L 401.628906 243.621094 L 402.910156 243.480469 L 404.191406 243.347656 L 405.472656 243.222656 L 406.753906 243.105469 L 408.035156 242.996094 L 409.316406 242.890625 L 410.597656 242.789062 L 411.875 242.691406 L 415.71875 242.398438 L 417 242.296875 L 418.28125 242.191406 L 419.5625 242.082031 L 420.84375 241.964844 L 422.125 241.84375 L 423.40625 241.714844 L 424.6875 241.574219 L 425.96875 241.425781 L 427.246094 241.265625 L 428.527344 241.09375 L 429.808594 240.910156 L 431.089844 240.71875 L 432.371094 240.507812 L 433.652344 240.289062 L 434.933594 240.054688 L 436.214844 239.808594 L 437.496094 239.550781 L 438.777344 239.277344 L 440.058594 238.988281 L 441.335938 238.691406 L 442.617188 238.378906 L 443.898438 238.054688 L 445.179688 237.714844 L 446.460938 237.363281 L 447.742188 237 L 449.023438 236.625 L 450.304688 236.238281 L 451.585938 235.835938 L 452.867188 235.425781 L 454.148438 235 L 455.429688 234.566406 L 456.707031 234.121094 L 457.988281 233.664062 L 459.269531 233.191406 L 460.550781 232.710938 L 461.832031 232.222656 L 463.113281 231.722656 L 464.394531 231.207031 L 465.675781 230.683594 L 466.957031 230.148438 L 468.238281 229.605469 L 469.519531 229.050781 L 470.796875 228.484375 L 472.078125 227.910156 L 473.359375 227.324219 L 474.640625 226.730469 L 475.921875 226.132812 L 477.203125 225.519531 L 478.484375 224.902344 L 479.765625 224.28125 L 481.046875 223.652344 L 482.328125 223.019531 L 484.890625 221.746094 L 486.167969 221.109375 L 488.730469 219.84375 L 490.011719 219.222656 L 491.292969 218.605469 L 492.574219 218 L 493.855469 217.410156 L 495.136719 216.828125 L 496.417969 216.269531 L 497.699219 215.734375 L 498.980469 215.222656 L 500.257812 214.734375 L 501.539062 214.273438 L 502.820312 213.84375 L 504.101562 213.453125 L 505.382812 213.097656 L 506.664062 212.78125 L 507.945312 212.5 L 509.226562 212.261719 L 510.507812 212.074219 L 511.789062 211.929688 L 513.070312 211.828125 L 514.351562 211.773438 L 515.628906 211.765625 L 516.910156 211.816406 L 518.191406 211.914062 L 519.472656 212.054688 L 520.753906 212.242188 L 522.035156 212.480469 L 523.316406 212.773438 L 524.597656 213.109375 L 525.878906 213.488281 L 527.160156 213.90625 L 528.441406 214.367188 L 529.71875 214.878906 L 531 215.425781 L 532.28125 216.007812 L 533.5625 216.625 L 534.84375 217.273438 L 536.125 217.960938 L 537.40625 218.675781 L 538.6875 219.414062 L 539.96875 220.179688 L 541.25 220.964844 L 542.53125 221.777344 L 543.8125 222.609375 L 545.089844 223.453125 L 546.371094 224.3125 L 547.652344 225.1875 L 548.933594 226.074219 L 550.214844 226.972656 L 551.496094 227.875 L 552.777344 228.785156 L 554.058594 229.699219 L 555.339844 230.617188 L 556.621094 231.539062 L 557.902344 232.457031 L 559.179688 233.375 L 560.460938 234.292969 L 561.742188 235.207031 L 563.023438 236.117188 L 564.304688 237.019531 L 565.585938 237.917969 L 566.867188 238.8125 L 568.148438 239.695312 L 569.429688 240.574219 L 570.710938 241.445312 L 571.992188 242.308594 L 573.273438 243.160156 L 574.550781 244.007812 L 575.832031 244.84375 L 577.113281 245.671875 L 578.394531 246.492188 L 579.675781 247.304688 L 580.957031 248.105469 L 582.238281 248.898438 L 583.519531 249.6875 L 584.800781 250.464844 L 586.082031 251.230469 L 587.363281 251.992188 L 588.644531 252.742188 L 589.921875 253.480469 L 591.203125 254.210938 L 592.484375 254.933594 L 593.765625 255.640625 L 595.046875 256.335938 L 596.328125 257.019531 L 597.609375 257.691406 L 598.890625 258.351562 L 600.171875 258.992188 L 601.453125 259.617188 L 602.734375 260.226562 L 604.011719 260.816406 L 605.292969 261.394531 L 606.574219 261.949219 L 607.855469 262.484375 L 609.136719 262.996094 L 610.417969 263.492188 L 611.699219 263.96875 L 612.980469 264.421875 L 614.261719 264.847656 L 615.542969 265.257812 L 616.824219 265.644531 L 618.105469 266.011719 L 619.382812 266.355469 L 620.664062 266.675781 L 621.945312 266.976562 L 623.226562 267.257812 L 624.507812 267.519531 L 625.789062 267.761719 L 627.070312 267.984375 L 628.351562 268.191406 L 629.632812 268.378906 L 630.914062 268.554688 L 632.195312 268.714844 L 633.472656 268.855469 L 634.753906 268.988281 L 636.035156 269.105469 L 637.316406 269.214844 L 638.597656 269.308594 L 639.878906 269.394531 L 641.160156 269.472656 L 642.441406 269.539062 L 643.722656 269.601562 L 645.003906 269.65625 L 646.285156 269.703125 L 647.566406 269.742188 L 648.84375 269.78125 L 650.125 269.8125 L 651.40625 269.839844 L 652.6875 269.863281 L 655.25 269.902344 L 656.53125 269.917969 L 660.375 269.953125 L 661.65625 269.960938 L 662.933594 269.964844 L 664.214844 269.972656 L 669.339844 269.988281 L 670.621094 269.988281 L 671.902344 269.992188 L 673.183594 269.992188 L 674.464844 269.996094 L 679.585938 269.996094 L 680.867188 270 L 687.273438 270 Z M 32.726562 270 "/>
<path fill="none" stroke-width="1.066978" stroke-linecap="round" stroke-linejoin="round" stroke="rgb(63.921569%, 64.705882%, 0%)" stroke-opacity="1" stroke-miterlimit="10" d="M 32.726562 270 L 149.289062 270 L 150.570312 269.996094 L 156.976562 269.996094 L 158.257812 269.992188 L 159.539062 269.992188 L 160.820312 269.988281 L 162.097656 269.988281 L 163.378906 269.984375 L 164.660156 269.984375 L 169.785156 269.96875 L 171.066406 269.960938 L 172.347656 269.957031 L 174.910156 269.941406 L 176.1875 269.929688 L 177.46875 269.921875 L 178.75 269.910156 L 180.03125 269.894531 L 181.3125 269.882812 L 182.59375 269.863281 L 183.875 269.847656 L 186.4375 269.808594 L 189 269.761719 L 190.28125 269.734375 L 191.558594 269.703125 L 194.121094 269.640625 L 195.402344 269.605469 L 196.683594 269.566406 L 200.527344 269.4375 L 203.089844 269.335938 L 204.371094 269.28125 L 205.648438 269.222656 L 206.929688 269.164062 L 209.492188 269.03125 L 210.773438 268.960938 L 213.335938 268.804688 L 215.898438 268.632812 L 217.179688 268.539062 L 218.460938 268.441406 L 219.742188 268.339844 L 221.019531 268.230469 L 222.300781 268.117188 L 223.582031 267.996094 L 224.863281 267.871094 L 226.144531 267.738281 L 227.425781 267.597656 L 228.707031 267.453125 L 229.988281 267.300781 L 231.269531 267.144531 L 232.550781 266.980469 L 233.832031 266.808594 L 235.109375 266.632812 L 236.390625 266.449219 L 237.671875 266.261719 L 238.953125 266.070312 L 240.234375 265.871094 L 241.515625 265.667969 L 242.796875 265.460938 L 245.359375 265.039062 L 246.640625 264.824219 L 249.203125 264.386719 L 250.480469 264.167969 L 253.042969 263.730469 L 254.324219 263.515625 L 255.605469 263.296875 L 258.167969 262.875 L 259.449219 262.667969 L 260.730469 262.464844 L 262.011719 262.265625 L 263.292969 262.070312 L 264.570312 261.882812 L 265.851562 261.695312 L 268.414062 261.34375 L 269.695312 261.175781 L 270.976562 261.011719 L 273.539062 260.707031 L 274.820312 260.5625 L 276.101562 260.425781 L 277.382812 260.292969 L 278.664062 260.167969 L 279.941406 260.046875 L 281.222656 259.929688 L 282.503906 259.820312 L 285.066406 259.617188 L 286.347656 259.523438 L 288.910156 259.34375 L 291.472656 259.179688 L 292.753906 259.101562 L 294.03125 259.023438 L 300.4375 258.652344 L 301.71875 258.574219 L 303 258.5 L 304.28125 258.417969 L 305.5625 258.339844 L 308.125 258.167969 L 309.402344 258.082031 L 310.683594 257.992188 L 311.964844 257.898438 L 315.808594 257.605469 L 318.371094 257.402344 L 322.214844 257.085938 L 323.492188 256.980469 L 324.773438 256.878906 L 326.054688 256.773438 L 327.335938 256.671875 L 328.617188 256.566406 L 331.179688 256.363281 L 332.460938 256.265625 L 333.742188 256.164062 L 335.023438 256.066406 L 337.585938 255.863281 L 338.863281 255.757812 L 340.144531 255.652344 L 341.425781 255.542969 L 342.707031 255.429688 L 343.988281 255.3125 L 346.550781 255.054688 L 347.832031 254.910156 L 349.113281 254.757812 L 350.394531 254.597656 L 351.675781 254.425781 L 352.953125 254.242188 L 354.234375 254.042969 L 355.515625 253.832031 L 356.796875 253.605469 L 358.078125 253.371094 L 359.359375 253.121094 L 360.640625 252.855469 L 361.921875 252.578125 L 363.203125 252.289062 L 364.484375 251.988281 L 365.765625 251.675781 L 367.046875 251.355469 L 368.324219 251.023438 L 369.605469 250.6875 L 370.886719 250.34375 L 372.167969 249.996094 L 373.449219 249.644531 L 374.730469 249.289062 L 377.292969 248.585938 L 379.855469 247.890625 L 381.136719 247.554688 L 382.414062 247.222656 L 383.695312 246.898438 L 384.976562 246.585938 L 386.257812 246.28125 L 387.539062 245.992188 L 388.820312 245.710938 L 390.101562 245.445312 L 391.382812 245.1875 L 392.664062 244.945312 L 393.945312 244.71875 L 395.226562 244.503906 L 396.507812 244.304688 L 397.785156 244.113281 L 399.066406 243.9375 L 400.347656 243.773438 L 401.628906 243.621094 L 402.910156 243.480469 L 404.191406 243.347656 L 405.472656 243.222656 L 406.753906 243.105469 L 408.035156 242.996094 L 409.316406 242.890625 L 410.597656 242.789062 L 411.875 242.691406 L 415.71875 242.398438 L 417 242.296875 L 418.28125 242.191406 L 419.5625 242.082031 L 420.84375 241.964844 L 422.125 241.84375 L 423.40625 241.714844 L 424.6875 241.574219 L 425.96875 241.425781 L 427.246094 241.265625 L 428.527344 241.09375 L 429.808594 240.910156 L 431.089844 240.71875 L 432.371094 240.507812 L 433.652344 240.289062 L 434.933594 240.054688 L 436.214844 239.808594 L 437.496094 239.550781 L 438.777344 239.277344 L 440.058594 238.988281 L 441.335938 238.691406 L 442.617188 238.378906 L 443.898438 238.054688 L 445.179688 237.714844 L 446.460938 237.363281 L 447.742188 237 L 449.023438 236.625 L 450.304688 236.238281 L 451.585938 235.835938 L 452.867188 235.425781 L 454.148438 235 L 455.429688 234.566406 L 456.707031 234.121094 L 457.988281 233.664062 L 459.269531 233.191406 L 460.550781 232.710938 L 461.832031 232.222656 L 463.113281 231.722656 L 464.394531 231.207031 L 465.675781 230.683594 L 466.957031 230.148438 L 468.238281 229.605469 L 469.519531 229.050781 L 470.796875 228.484375 L 472.078125 227.910156 L 473.359375 227.324219 L 474.640625 226.730469 L 475.921875 226.132812 L 477.203125 225.519531 L 478.484375 224.902344 L 479.765625 224.28125 L 481.046875 223.652344 L 482.328125 223.019531 L 484.890625 221.746094 L 486.167969 221.109375 L 488.730469 219.84375 L 490.011719 219.222656 L 491.292969 218.605469 L 492.574219 218 L 493.855469 217.410156 L 495.136719 216.828125 L 496.417969 216.269531 L 497.699219 215.734375 L 498.980469 215.222656 L 500.257812 214.734375 L 501.539062 214.273438 L 502.820312 213.84375 L 504.101562 213.453125 L 505.382812 213.097656 L 506.664062 212.78125 L 507.945312 212.5 L 509.226562 212.261719 L 510.507812 212.074219 L 511.789062 211.929688 L 513.070312 211.828125 L 514.351562 211.773438 L 515.628906 211.765625 L 516.910156 211.816406 L 518.191406 211.914062 L 519.472656 212.054688 L 520.753906 212.242188 L 522.035156 212.480469 L 523.316406 212.773438 L 524.597656 213.109375 L 525.878906 213.488281 L 527.160156 213.90625 L 528.441406 214.367188 L 529.71875 214.878906 L 531 215.425781 L 532.28125 216.007812 L 533.5625 216.625 L 534.84375 217.273438 L 536.125 217.960938 L 537.40625 218.675781 L 538.6875 219.414062 L 539.96875 220.179688 L 541.25 220.964844 L 542.53125 221.777344 L 543.8125 222.609375 L 545.089844 223.453125 L 546.371094 224.3125 L 547.652344 225.1875 L 548.933594 226.074219 L 550.214844 226.972656 L 551.496094 227.875 L 552.777344 228.785156 L 554.058594 229.699219 L 555.339844 230.617188 L 556.621094 231.539062 L 557.902344 232.457031 L 559.179688 233.375 L 560.460938 234.292969 L 561.742188 235.207031 L 563.023438 236.117188 L 564.304688 237.019531 L 565.585938 237.917969 L 566.867188 238.8125 L 568.148438 239.695312 L 569.429688 240.574219 L 570.710938 241.445312 L 571.992188 242.308594 L 573.273438 243.160156 L 574.550781 244.007812 L 575.832031 244.84375 L 577.113281 245.671875 L 578.394531 246.492188 L 579.675781 247.304688 L 580.957031 248.105469 L 582.238281 248.898438 L 583.519531 249.6875 L 584.800781 250.464844 L 586.082031 251.230469 L 587.363281 251.992188 L 588.644531 252.742188 L 589.921875 253.480469 L 591.203125 254.210938 L 592.484375 254.933594 L 593.765625 255.640625 L 595.046875 256.335938 L 596.328125 257.019531 L 597.609375 257.691406 L 598.890625 258.351562 L 600.171875 258.992188 L 601.453125 259.617188 L 602.734375 260.226562 L 604.011719 260.816406 L 605.292969 261.394531 L 606.574219 261.949219 L 607.855469 262.484375 L 609.136719 262.996094 L 610.417969 263.492188 L 611.699219 263.96875 L 612.980469 264.421875 L 614.261719 264.847656 L 615.542969 265.257812 L 616.824219 265.644531 L 618.105469 266.011719 L 619.382812 266.355469 L 620.664062 266.675781 L 621.945312 266.976562 L 623.226562 267.257812 L 624.507812 267.519531 L 625.789062 267.761719 L 627.070312 267.984375 L 628.351562 268.191406 L 629.632812 268.378906 L 630.914062 268.554688 L 632.195312 268.714844 L 633.472656 268.855469 L 634.753906 268.988281 L 636.035156 269.105469 L 637.316406 269.214844 L 638.597656 269.308594 L 639.878906 269.394531 L 641.160156 269.472656 L 642.441406 269.539062 L 643.722656 269.601562 L 645.003906 269.65625 L 646.285156 269.703125 L 647.566406 269.742188 L 648.84375 269.78125 L 650.125 269.8125 L 651.40625 269.839844 L 652.6875 269.863281 L 655.25 269.902344 L 656.53125 269.917969 L 660.375 269.953125 L 661.65625 269.960938 L 662.933594 269.964844 L 664.214844 269.972656 L 669.339844 269.988281 L 670.621094 269.988281 L 671.902344 269.992188 L 673.183594 269.992188 L 674.464844 269.996094 L 679.585938 269.996094 L 680.867188 270 L 687.273438 270 "/>
<path fill-rule="nonzero" fill="rgb(97.254902%, 46.27451%, 42.745098%)" fill-opacity="0.501961" d="M 32.726562 326.246094 L 35.289062 326.246094 L 36.570312 326.242188 L 39.132812 326.242188 L 40.414062 326.238281 L 41.695312 326.238281 L 42.972656 326.234375 L 44.253906 326.234375 L 53.222656 326.207031 L 55.785156 326.191406 L 57.066406 326.1875 L 58.34375 326.179688 L 59.625 326.171875 L 60.90625 326.160156 L 62.1875 326.152344 L 63.46875 326.140625 L 64.75 326.132812 L 71.15625 326.074219 L 72.433594 326.0625 L 74.996094 326.039062 L 76.277344 326.023438 L 80.121094 325.988281 L 81.402344 325.980469 L 83.964844 325.957031 L 86.527344 325.941406 L 87.804688 325.933594 L 89.085938 325.929688 L 90.367188 325.921875 L 94.210938 325.910156 L 95.492188 325.910156 L 96.773438 325.90625 L 99.335938 325.90625 L 100.617188 325.902344 L 103.175781 325.902344 L 108.300781 325.886719 L 109.582031 325.878906 L 112.144531 325.855469 L 113.425781 325.839844 L 114.707031 325.820312 L 115.988281 325.796875 L 117.265625 325.769531 L 118.546875 325.738281 L 119.828125 325.703125 L 121.109375 325.664062 L 122.390625 325.617188 L 123.671875 325.5625 L 124.953125 325.503906 L 126.234375 325.441406 L 127.515625 325.371094 L 128.796875 325.292969 L 130.078125 325.207031 L 131.355469 325.113281 L 132.636719 325.015625 L 133.917969 324.90625 L 135.199219 324.789062 L 136.480469 324.667969 L 137.761719 324.535156 L 139.042969 324.398438 L 140.324219 324.25 L 141.605469 324.09375 L 142.886719 323.929688 L 144.167969 323.757812 L 145.449219 323.582031 L 146.726562 323.394531 L 148.007812 323.195312 L 149.289062 322.992188 L 150.570312 322.78125 L 151.851562 322.5625 L 153.132812 322.335938 L 154.414062 322.101562 L 155.695312 321.859375 L 156.976562 321.609375 L 158.257812 321.351562 L 159.539062 321.089844 L 160.820312 320.816406 L 162.097656 320.535156 L 163.378906 320.25 L 164.660156 319.957031 L 165.941406 319.65625 L 167.222656 319.347656 L 168.503906 319.03125 L 169.785156 318.707031 L 171.066406 318.378906 L 172.347656 318.042969 L 173.628906 317.699219 L 174.910156 317.347656 L 176.1875 316.988281 L 177.46875 316.625 L 178.75 316.253906 L 180.03125 315.871094 L 181.3125 315.484375 L 182.59375 315.089844 L 183.875 314.6875 L 185.15625 314.277344 L 186.4375 313.855469 L 187.71875 313.429688 L 189 312.992188 L 190.28125 312.546875 L 191.558594 312.097656 L 192.839844 311.632812 L 194.121094 311.160156 L 195.402344 310.675781 L 196.683594 310.183594 L 197.964844 309.679688 L 199.246094 309.167969 L 200.527344 308.640625 L 201.808594 308.105469 L 203.089844 307.554688 L 204.371094 306.996094 L 205.648438 306.425781 L 206.929688 305.839844 L 208.210938 305.246094 L 209.492188 304.640625 L 210.773438 304.019531 L 212.054688 303.390625 L 213.335938 302.75 L 214.617188 302.097656 L 215.898438 301.4375 L 217.179688 300.765625 L 218.460938 300.085938 L 219.742188 299.398438 L 221.019531 298.703125 L 222.300781 298.003906 L 223.582031 297.296875 L 226.144531 295.875 L 227.425781 295.160156 L 228.707031 294.449219 L 229.988281 293.734375 L 231.269531 293.023438 L 232.550781 292.316406 L 233.832031 291.613281 L 235.109375 290.914062 L 236.390625 290.226562 L 237.671875 289.542969 L 238.953125 288.871094 L 240.234375 288.207031 L 241.515625 287.554688 L 242.796875 286.914062 L 244.078125 286.289062 L 245.359375 285.675781 L 246.640625 285.078125 L 247.921875 284.492188 L 249.203125 283.917969 L 250.480469 283.363281 L 251.761719 282.828125 L 253.042969 282.308594 L 254.324219 281.800781 L 255.605469 281.3125 L 256.886719 280.84375 L 258.167969 280.394531 L 259.449219 279.960938 L 260.730469 279.542969 L 262.011719 279.148438 L 263.292969 278.769531 L 264.570312 278.414062 L 265.851562 278.078125 L 267.132812 277.757812 L 268.414062 277.460938 L 269.695312 277.183594 L 270.976562 276.929688 L 272.257812 276.695312 L 273.539062 276.480469 L 274.820312 276.289062 L 276.101562 276.113281 L 277.382812 275.96875 L 278.664062 275.839844 L 279.941406 275.734375 L 281.222656 275.644531 L 282.503906 275.574219 L 283.785156 275.53125 L 285.066406 275.503906 L 286.347656 275.496094 L 287.628906 275.503906 L 288.910156 275.53125 L 290.191406 275.578125 L 291.472656 275.636719 L 292.753906 275.710938 L 294.03125 275.796875 L 295.3125 275.894531 L 296.59375 276.011719 L 297.875 276.132812 L 299.15625 276.265625 L 300.4375 276.410156 L 301.71875 276.558594 L 303 276.714844 L 305.5625 277.050781 L 306.84375 277.226562 L 308.125 277.40625 L 309.402344 277.589844 L 310.683594 277.777344 L 311.964844 277.96875 L 313.246094 278.164062 L 314.527344 278.363281 L 317.089844 278.769531 L 319.652344 279.191406 L 320.933594 279.410156 L 322.214844 279.632812 L 323.492188 279.859375 L 324.773438 280.09375 L 326.054688 280.332031 L 327.335938 280.574219 L 328.617188 280.828125 L 329.898438 281.089844 L 331.179688 281.359375 L 332.460938 281.636719 L 333.742188 281.921875 L 335.023438 282.214844 L 336.304688 282.523438 L 337.585938 282.835938 L 338.863281 283.164062 L 340.144531 283.496094 L 341.425781 283.84375 L 342.707031 284.199219 L 343.988281 284.5625 L 345.269531 284.9375 L 346.550781 285.320312 L 347.832031 285.714844 L 349.113281 286.113281 L 350.394531 286.523438 L 351.675781 286.9375 L 352.953125 287.355469 L 355.515625 288.207031 L 356.796875 288.640625 L 358.078125 289.070312 L 359.359375 289.503906 L 360.640625 289.941406 L 361.921875 290.371094 L 363.203125 290.804688 L 364.484375 291.234375 L 365.765625 291.660156 L 367.046875 292.082031 L 368.324219 292.496094 L 369.605469 292.90625 L 370.886719 293.3125 L 372.167969 293.710938 L 373.449219 294.105469 L 374.730469 294.488281 L 376.011719 294.867188 L 377.292969 295.238281 L 378.574219 295.601562 L 379.855469 295.960938 L 381.136719 296.308594 L 382.414062 296.652344 L 383.695312 296.988281 L 384.976562 297.316406 L 386.257812 297.640625 L 387.539062 297.960938 L 388.820312 298.273438 L 390.101562 298.582031 L 391.382812 298.886719 L 392.664062 299.1875 L 395.226562 299.78125 L 396.507812 300.074219 L 397.785156 300.367188 L 399.066406 300.660156 L 400.347656 300.949219 L 401.628906 301.242188 L 402.910156 301.53125 L 405.472656 302.117188 L 406.753906 302.414062 L 409.316406 303.015625 L 410.597656 303.320312 L 411.875 303.628906 L 413.15625 303.941406 L 415.71875 304.574219 L 417 304.898438 L 418.28125 305.226562 L 420.84375 305.890625 L 422.125 306.230469 L 424.6875 306.917969 L 425.96875 307.269531 L 427.246094 307.621094 L 428.527344 307.972656 L 429.808594 308.332031 L 431.089844 308.6875 L 433.652344 309.40625 L 434.933594 309.769531 L 438.777344 310.847656 L 440.058594 311.203125 L 441.335938 311.558594 L 442.617188 311.910156 L 443.898438 312.257812 L 445.179688 312.601562 L 446.460938 312.941406 L 447.742188 313.277344 L 449.023438 313.609375 L 450.304688 313.933594 L 451.585938 314.25 L 452.867188 314.5625 L 454.148438 314.867188 L 455.429688 315.164062 L 456.707031 315.453125 L 457.988281 315.734375 L 459.269531 316.007812 L 460.550781 316.269531 L 461.832031 316.523438 L 463.113281 316.773438 L 464.394531 317.007812 L 465.675781 317.234375 L 466.957031 317.449219 L 468.238281 317.65625 L 469.519531 317.851562 L 470.796875 318.039062 L 472.078125 318.214844 L 473.359375 318.378906 L 474.640625 318.535156 L 475.921875 318.683594 L 477.203125 318.816406 L 478.484375 318.941406 L 479.765625 319.054688 L 481.046875 319.160156 L 482.328125 319.257812 L 483.609375 319.34375 L 484.890625 319.421875 L 486.167969 319.488281 L 487.449219 319.550781 L 488.730469 319.601562 L 490.011719 319.648438 L 491.292969 319.683594 L 492.574219 319.710938 L 493.855469 319.734375 L 495.136719 319.75 L 496.417969 319.761719 L 497.699219 319.765625 L 498.980469 319.765625 L 500.257812 319.761719 L 502.820312 319.746094 L 504.101562 319.734375 L 507.945312 319.6875 L 509.226562 319.675781 L 510.507812 319.660156 L 511.789062 319.648438 L 514.351562 319.632812 L 515.628906 319.628906 L 518.191406 319.636719 L 519.472656 319.648438 L 520.753906 319.667969 L 522.035156 319.691406 L 523.316406 319.722656 L 524.597656 319.757812 L 525.878906 319.804688 L 527.160156 319.855469 L 528.441406 319.914062 L 529.71875 319.984375 L 531 320.058594 L 532.28125 320.140625 L 533.5625 320.230469 L 534.84375 320.328125 L 536.125 320.433594 L 537.40625 320.542969 L 538.6875 320.660156 L 539.96875 320.785156 L 541.25 320.914062 L 543.8125 321.1875 L 545.089844 321.332031 L 547.652344 321.628906 L 548.933594 321.78125 L 552.777344 322.25 L 554.058594 322.410156 L 557.902344 322.878906 L 559.179688 323.03125 L 561.742188 323.335938 L 564.304688 323.625 L 566.867188 323.90625 L 568.148438 324.039062 L 569.429688 324.167969 L 570.710938 324.292969 L 571.992188 324.414062 L 573.273438 324.53125 L 574.550781 324.644531 L 575.832031 324.753906 L 578.394531 324.957031 L 579.675781 325.050781 L 580.957031 325.140625 L 582.238281 325.226562 L 583.519531 325.308594 L 586.082031 325.457031 L 587.363281 325.523438 L 588.644531 325.585938 L 589.921875 325.648438 L 591.203125 325.703125 L 593.765625 325.804688 L 595.046875 325.847656 L 597.609375 325.925781 L 598.890625 325.960938 L 600.171875 325.992188 L 602.734375 326.046875 L 604.011719 326.070312 L 605.292969 326.09375 L 606.574219 326.113281 L 610.417969 326.160156 L 612.980469 326.183594 L 618.105469 326.214844 L 619.382812 326.21875 L 625.789062 326.238281 L 627.070312 326.238281 L 628.351562 326.242188 L 630.914062 326.242188 L 632.195312 326.246094 L 637.316406 326.246094 L 638.597656 326.25 L 687.273438 326.25 L 32.726562 326.25 Z M 32.726562 326.246094 "/>
<path fill="none" stroke-width="1.066978" stroke-linecap="round" stroke-linejoin="round" stroke="rgb(97.254902%, 46.27451%, 42.745098%)" stroke-opacity="1" stroke-miterlimit="10" d="M 32.726562 326.246094 L 35.289062 326.246094 L 36.570312 326.242188 L 39.132812 326.242188 L 40.414062 326.238281 L 41.695312 326.238281 L 42.972656 326.234375 L 44.253906 326.234375 L 53.222656 326.207031 L 55.785156 326.191406 L 57.066406 326.1875 L 58.34375 326.179688 L 59.625 326.171875 L 60.90625 326.160156 L 62.1875 326.152344 L 63.46875 326.140625 L 64.75 326.132812 L 71.15625 326.074219 L 72.433594 326.0625 L 74.996094 326.039062 L 76.277344 326.023438 L 80.121094 325.988281 L 81.402344 325.980469 L 83.964844 325.957031 L 86.527344 325.941406 L 87.804688 325.933594 L 89.085938 325.929688 L 90.367188 325.921875 L 94.210938 325.910156 L 95.492188 325.910156 L 96.773438 325.90625 L 99.335938 325.90625 L 100.617188 325.902344 L 103.175781 325.902344 L 108.300781 325.886719 L 109.582031 325.878906 L 112.144531 325.855469 L 113.425781 325.839844 L 114.707031 325.820312 L 115.988281 325.796875 L 117.265625 325.769531 L 118.546875 325.738281 L 119.828125 325.703125 L 121.109375 325.664062 L 122.390625 325.617188 L 123.671875 325.5625 L 124.953125 325.503906 L 126.234375 325.441406 L 127.515625 325.371094 L 128.796875 325.292969 L 130.078125 325.207031 L 131.355469 325.113281 L 132.636719 325.015625 L 133.917969 324.90625 L 135.199219 324.789062 L 136.480469 324.667969 L 137.761719 324.535156 L 139.042969 324.398438 L 140.324219 324.25 L 141.605469 324.09375 L 142.886719 323.929688 L 144.167969 323.757812 L 145.449219 323.582031 L 146.726562 323.394531 L 148.007812 323.195312 L 149.289062 322.992188 L 150.570312 322.78125 L 151.851562 322.5625 L 153.132812 322.335938 L 154.414062 322.101562 L 155.695312 321.859375 L 156.976562 321.609375 L 158.257812 321.351562 L 159.539062 321.089844 L 160.820312 320.816406 L 162.097656 320.535156 L 163.378906 320.25 L 164.660156 319.957031 L 165.941406 319.65625 L 167.222656 319.347656 L 168.503906 319.03125 L 169.785156 318.707031 L 171.066406 318.378906 L 172.347656 318.042969 L 173.628906 317.699219 L 174.910156 317.347656 L 176.1875 316.988281 L 177.46875 316.625 L 178.75 316.253906 L 180.03125 315.871094 L 181.3125 315.484375 L 182.59375 315.089844 L 183.875 314.6875 L 185.15625 314.277344 L 186.4375 313.855469 L 187.71875 313.429688 L 189 312.992188 L 190.28125 312.546875 L 191.558594 312.097656 L 192.839844 311.632812 L 194.121094 311.160156 L 195.402344 310.675781 L 196.683594 310.183594 L 197.964844 309.679688 L 199.246094 309.167969 L 200.527344 308.640625 L 201.808594 308.105469 L 203.089844 307.554688 L 204.371094 306.996094 L 205.648438 306.425781 L 206.929688 305.839844 L 208.210938 305.246094 L 209.492188 304.640625 L 210.773438 304.019531 L 212.054688 303.390625 L 213.335938 302.75 L 214.617188 302.097656 L 215.898438 301.4375 L 217.179688 300.765625 L 218.460938 300.085938 L 219.742188 299.398438 L 221.019531 298.703125 L 222.300781 298.003906 L 223.582031 297.296875 L 226.144531 295.875 L 227.425781 295.160156 L 228.707031 294.449219 L 229.988281 293.734375 L 231.269531 293.023438 L 232.550781 292.316406 L 233.832031 291.613281 L 235.109375 290.914062 L 236.390625 290.226562 L 237.671875 289.542969 L 238.953125 288.871094 L 240.234375 288.207031 L 241.515625 287.554688 L 242.796875 286.914062 L 244.078125 286.289062 L 245.359375 285.675781 L 246.640625 285.078125 L 247.921875 284.492188 L 249.203125 283.917969 L 250.480469 283.363281 L 251.761719 282.828125 L 253.042969 282.308594 L 254.324219 281.800781 L 255.605469 281.3125 L 256.886719 280.84375 L 258.167969 280.394531 L 259.449219 279.960938 L 260.730469 279.542969 L 262.011719 279.148438 L 263.292969 278.769531 L 264.570312 278.414062 L 265.851562 278.078125 L 267.132812 277.757812 L 268.414062 277.460938 L 269.695312 277.183594 L 270.976562 276.929688 L 272.257812 276.695312 L 273.539062 276.480469 L 274.820312 276.289062 L 276.101562 276.113281 L 277.382812 275.96875 L 278.664062 275.839844 L 279.941406 275.734375 L 281.222656 275.644531 L 282.503906 275.574219 L 283.785156 275.53125 L 285.066406 275.503906 L 286.347656 275.496094 L 287.628906 275.503906 L 288.910156 275.53125 L 290.191406 275.578125 L 291.472656 275.636719 L 292.753906 275.710938 L 294.03125 275.796875 L 295.3125 275.894531 L 296.59375 276.011719 L 297.875 276.132812 L 299.15625 276.265625 L 300.4375 276.410156 L 301.71875 276.558594 L 303 276.714844 L 305.5625 277.050781 L 306.84375 277.226562 L 308.125 277.40625 L 309.402344 277.589844 L 310.683594 277.777344 L 311.964844 277.96875 L 313.246094 278.164062 L 314.527344 278.363281 L 317.089844 278.769531 L 319.652344 279.191406 L 320.933594 279.410156 L 322.214844 279.632812 L 323.492188 279.859375 L 324.773438 280.09375 L 326.054688 280.332031 L 327.335938 280.574219 L 328.617188 280.828125 L 329.898438 281.089844 L 331.179688 281.359375 L 332.460938 281.636719 L 333.742188 281.921875 L 335.023438 282.214844 L 336.304688 282.523438 L 337.585938 282.835938 L 338.863281 283.164062 L 340.144531 283.496094 L 341.425781 283.84375 L 342.707031 284.199219 L 343.988281 284.5625 L 345.269531 284.9375 L 346.550781 285.320312 L 347.832031 285.714844 L 349.113281 286.113281 L 350.394531 286.523438 L 351.675781 286.9375 L 352.953125 287.355469 L 355.515625 288.207031 L 356.796875 288.640625 L 358.078125 289.070312 L 359.359375 289.503906 L 360.640625 289.941406 L 361.921875 290.371094 L 363.203125 290.804688 L 364.484375 291.234375 L 365.765625 291.660156 L 367.046875 292.082031 L 368.324219 292.496094 L 369.605469 292.90625 L 370.886719 293.3125 L 372.167969 293.710938 L 373.449219 294.105469 L 374.730469 294.488281 L 376.011719 294.867188 L 377.292969 295.238281 L 378.574219 295.601562 L 379.855469 295.960938 L 381.136719 296.308594 L 382.414062 296.652344 L 383.695312 296.988281 L 384.976562 297.316406 L 386.257812 297.640625 L 387.539062 297.960938 L 388.820312 298.273438 L 390.101562 298.582031 L 391.382812 298.886719 L 392.664062 299.1875 L 395.226562 299.78125 L 396.507812 300.074219 L 397.785156 300.367188 L 399.066406 300.660156 L 400.347656 300.949219 L 401.628906 301.242188 L 402.910156 301.53125 L 405.472656 302.117188 L 406.753906 302.414062 L 409.316406 303.015625 L 410.597656 303.320312 L 411.875 303.628906 L 413.15625 303.941406 L 415.71875 304.574219 L 417 304.898438 L 418.28125 305.226562 L 420.84375 305.890625 L 422.125 306.230469 L 424.6875 306.917969 L 425.96875 307.269531 L 427.246094 307.621094 L 428.527344 307.972656 L 429.808594 308.332031 L 431.089844 308.6875 L 433.652344 309.40625 L 434.933594 309.769531 L 438.777344 310.847656 L 440.058594 311.203125 L 441.335938 311.558594 L 442.617188 311.910156 L 443.898438 312.257812 L 445.179688 312.601562 L 446.460938 312.941406 L 447.742188 313.277344 L 449.023438 313.609375 L 450.304688 313.933594 L 451.585938 314.25 L 452.867188 314.5625 L 454.148438 314.867188 L 455.429688 315.164062 L 456.707031 315.453125 L 457.988281 315.734375 L 459.269531 316.007812 L 460.550781 316.269531 L 461.832031 316.523438 L 463.113281 316.773438 L 464.394531 317.007812 L 465.675781 317.234375 L 466.957031 317.449219 L 468.238281 317.65625 L 469.519531 317.851562 L 470.796875 318.039062 L 472.078125 318.214844 L 473.359375 318.378906 L 474.640625 318.535156 L 475.921875 318.683594 L 477.203125 318.816406 L 478.484375 318.941406 L 479.765625 319.054688 L 481.046875 319.160156 L 482.328125 319.257812 L 483.609375 319.34375 L 484.890625 319.421875 L 486.167969 319.488281 L 487.449219 319.550781 L 488.730469 319.601562 L 490.011719 319.648438 L 491.292969 319.683594 L 492.574219 319.710938 L 493.855469 319.734375 L 495.136719 319.75 L 496.417969 319.761719 L 497.699219 319.765625 L 498.980469 319.765625 L 500.257812 319.761719 L 502.820312 319.746094 L 504.101562 319.734375 L 507.945312 319.6875 L 509.226562 319.675781 L 510.507812 319.660156 L 511.789062 319.648438 L 514.351562 319.632812 L 515.628906 319.628906 L 518.191406 319.636719 L 519.472656 319.648438 L 520.753906 319.667969 L 522.035156 319.691406 L 523.316406 319.722656 L 524.597656 319.757812 L 525.878906 319.804688 L 527.160156 319.855469 L 528.441406 319.914062 L 529.71875 319.984375 L 531 320.058594 L 532.28125 320.140625 L 533.5625 320.230469 L 534.84375 320.328125 L 536.125 320.433594 L 537.40625 320.542969 L 538.6875 320.660156 L 539.96875 320.785156 L 541.25 320.914062 L 543.8125 321.1875 L 545.089844 321.332031 L 547.652344 321.628906 L 548.933594 321.78125 L 552.777344 322.25 L 554.058594 322.410156 L 557.902344 322.878906 L 559.179688 323.03125 L 561.742188 323.335938 L 564.304688 323.625 L 566.867188 323.90625 L 568.148438 324.039062 L 569.429688 324.167969 L 570.710938 324.292969 L 571.992188 324.414062 L 573.273438 324.53125 L 574.550781 324.644531 L 575.832031 324.753906 L 578.394531 324.957031 L 579.675781 325.050781 L 580.957031 325.140625 L 582.238281 325.226562 L 583.519531 325.308594 L 586.082031 325.457031 L 587.363281 325.523438 L 588.644531 325.585938 L 589.921875 325.648438 L 591.203125 325.703125 L 593.765625 325.804688 L 595.046875 325.847656 L 597.609375 325.925781 L 598.890625 325.960938 L 600.171875 325.992188 L 602.734375 326.046875 L 604.011719 326.070312 L 605.292969 326.09375 L 606.574219 326.113281 L 610.417969 326.160156 L 612.980469 326.183594 L 618.105469 326.214844 L 619.382812 326.21875 L 625.789062 326.238281 L 627.070312 326.238281 L 628.351562 326.242188 L 630.914062 326.242188 L 632.195312 326.246094 L 637.316406 326.246094 L 638.597656 326.25 L 687.273438 326.25 "/>
</svg>
